/* XPM */
static char *emacs_parrot_frame_4[] = {
/* columns rows colors chars-per-pixel */
"28 20 255 2 ",
"   c None",
".  c #1A3300",
"X  c #173900",
"o  c #1E3901",
"O  c #203C02",
"+  c #203806",
"@  c #233F04",
"#  c #253F08",
"$  c #363F1F",
"%  c #23162F",
"&  c #251B2F",
"*  c #234200",
"=  c #224003",
"-  c #274205",
";  c #254006",
":  c #274504",
">  c #294506",
",  c #274009",
"<  c #2B420E",
"1  c #2E4C0A",
"2  c #2F480D",
"3  c #2E4B0C",
"4  c #2F5500",
"5  c #325601",
"6  c #345704",
"7  c #325309",
"8  c #34520D",
"9  c #2A4110",
"0  c #2E4316",
"q  c #354914",
"w  c #324E15",
"e  c #364E17",
"r  c #384B15",
"t  c #314019",
"y  c #30461A",
"u  c #344C19",
"i  c #3E4F1A",
"p  c #39481E",
"a  c #3D4B1D",
"s  c #3E5910",
"d  c #3B4726",
"f  c #3A5123",
"g  c #3F5124",
"h  c #3E5825",
"j  c #3E5529",
"k  c #415A14",
"l  c #41531A",
"z  c #41462C",
"x  c #43472E",
"c  c #484E2D",
"v  c #465126",
"b  c #40542B",
"n  c #41552C",
"m  c #40562C",
"M  c #425A29",
"N  c #545F2B",
"B  c #4E4A3A",
"V  c #4F4A3C",
"C  c #514D3A",
"Z  c #524C3E",
"A  c #534C3F",
"S  c #524E3F",
"D  c #455031",
"F  c #475133",
"G  c #495F30",
"H  c #495E35",
"J  c #495C37",
"K  c #55523A",
"L  c #50563A",
"P  c #4E6432",
"I  c #4F6433",
"U  c #4A6034",
"Y  c #536B32",
"T  c #321A48",
"R  c #564D43",
"E  c #574D45",
"W  c #584D45",
"Q  c #584D46",
"!  c #594E46",
"~  c #5C4F4B",
"^  c #5C5543",
"/  c #5D5347",
"(  c #666442",
")  c #6C6648",
"_  c #6B604E",
"`  c #607349",
"'  c #716353",
"]  c #7C665F",
"[  c #647455",
"{  c #687958",
"}  c #6B7D5C",
"|  c #514574",
" . c #745964",
".. c #7D5B6F",
"X. c #725176",
"o. c #7F626A",
"O. c #6F7E61",
"+. c #865E78",
"@. c #846B67",
"#. c #856C69",
"$. c #8F6E75",
"%. c #93697F",
"&. c #94707B",
"*. c #718064",
"=. c #728264",
"-. c #738166",
";. c #748266",
":. c #758368",
">. c #778669",
",. c #79876C",
"<. c #7B886F",
"1. c #7C8871",
"2. c #7E8A73",
"3. c #818F75",
"4. c #838F77",
"5. c #65518D",
"6. c #685E8E",
"7. c #755A82",
"8. c #675291",
"9. c #6A5691",
"0. c #676B81",
"q. c #6F5AA1",
"w. c #7561A8",
"e. c #7F71B8",
"r. c #7E70BA",
"t. c #956D80",
"y. c #A0718A",
"u. c #A1728D",
"i. c #A4748F",
"p. c #A26898",
"a. c #A56E98",
"s. c #A76E99",
"d. c #A67491",
"f. c #AA729A",
"g. c #AC7698",
"h. c #AC7699",
"j. c #AD779A",
"k. c #AF779D",
"l. c #B1789E",
"z. c #806FB6",
"x. c #8176B5",
"c. c #8175B6",
"v. c #8175B7",
"b. c #8278B4",
"n. c #8174B8",
"m. c #8274BA",
"M. c #8073BC",
"N. c #8375BC",
"B. c #8276BD",
"V. c #8477BE",
"C. c #837CB8",
"Z. c #877CBA",
"A. c #877EBB",
"S. c #8279BD",
"D. c #817ABF",
"F. c #837BBE",
"G. c #827BBF",
"H. c #B26EAA",
"J. c #B070A6",
"K. c #B578A3",
"L. c #B77AA4",
"P. c #B779A6",
"I. c #B97AA8",
"U. c #C77DB9",
"Y. c #C97CBF",
"T. c #817AC0",
"R. c #837EC0",
"E. c #857EC0",
"W. c #867FC0",
"Q. c #8A7CC2",
"!. c #B978CE",
"~. c #CD7EC1",
"^. c #CA78C4",
"/. c #CD79C8",
"(. c #D07ACB",
"). c #D17BCB",
"_. c #D27ACD",
"`. c #DE7FDB",
"'. c #DD7DE7",
"]. c #8A9580",
"[. c #8B9780",
"{. c #8C9881",
"}. c #969F8B",
"|. c #97A18E",
" X c #A6AE9F",
".X c #8A80B4",
"XX c #9186BF",
"oX c #A7AFA0",
"OX c #AAB1A2",
"+X c #ABB2A3",
"@X c #ABB2A4",
"#X c #B4BAAE",
"$X c #B7BCB1",
"%X c #BEC3B9",
"&X c #8580C1",
"*X c #8F89C0",
"=X c #9B95CB",
"-X c #9F97CD",
";X c #A097CD",
":X c #BF82D6",
">X c #A7A0C0",
",X c #BCB3C2",
"<X c #BAB7C6",
"1X c #BAB0D9",
"2X c #D080C4",
"3X c #D281C7",
"4X c #D781CE",
"5X c #DD83D5",
"6X c #E084D9",
"7X c #E284DB",
"8X c #E181DC",
"9X c #C0B9DC",
"0X c #ED85EB",
"qX c #ED86EB",
"wX c #EE87EB",
"eX c #EF87ED",
"rX c #EF85EE",
"tX c #E289EF",
"yX c #F189EE",
"uX c #F587F4",
"iX c #F389F1",
"pX c #F78AF5",
"aX c #F98AF7",
"sX c #FD8BFC",
"dX c #FC8BFD",
"fX c #FD8BFD",
"gX c #FE8BFD",
"hX c #FD8CFC",
"jX c #FE8CFD",
"kX c #FE8CFE",
"lX c #FF8CFE",
"zX c #FF8CFF",
"xX c #FF8DFF",
"cX c #FF8EFF",
"vX c #FF8FFF",
"bX c #C7BDE0",
"nX c #C6CAC2",
"mX c #C8CBC4",
"MX c #CCD0C9",
"NX c #CCD0CA",
"BX c #D0D4CD",
"VX c #D1D4CF",
"CX c #D2D4CF",
"ZX c #CFCAD5",
"AX c #D5D7D3",
"SX c #DEDFDD",
"DX c #DFE0DE",
"FX c #CBC1E1",
"GX c #D0CBE2",
"HX c #D7D0E6",
"JX c #DAD6E4",
"KX c #E4DEEE",
"LX c #EAEBE9",
"PX c #EBEAEB",
"IX c #F3EEF6",
/* pixels */
"                                                        ",
"                                                        ",
"                                                        ",
"                      PXDXSXSX                          ",
"                  nX$X#X=.} O. X%X                      ",
"                {.j = 2  ...c * f OX                    ",
"            oX{ x p.f.L.jXvX3Xk.+.b +X                  ",
"            >.$ _.U.^ `.xX0XrXuXY.- [                   ",
"          [.z /.vXa.X ^.H.d F D t + J                   ",
"        mXM s.cXxX2Xo.).a G <.*.9 > # |.                ",
"        ].: l.cXzXzXcXeXi Y 1.;.8 ) / m                 ",
"      AXh ' yXzXzXzXzXwXl Y 1.-.1 $.t.u MX              ",
"      VXg d.xXzXzXzXzXqXr Y 1.:.7 #.aXS 3.LX            ",
"      BXL ~.xXzXzXzXzXpX] I 2.` p P.zXK U ,X            ",
"      CXw @.xXzXzXzXzXcX(.y P 3 A zXdXX.0..Xq.6.| T     ",
"      4.0 v I.xXxXzXzXxX4Xq o O _ hX:Xz.T.D.G.W.Q.5.&   ",
"    NXH C u.s K.6XcXxXzXxXJ.B _ 8X!.C.&X=X-X;X<XHXN.8.% ",
"    ,.e y.j.4 6 N h.7XcXzXlXfXxX'.w.R.*XIXKXbXFX1Xm.n.9.",
"  @Xn %.kX5Xg.i.k 5 ( &.iXfXsXgXtXE.F.A.9XJXXXr.e.v.c.b.",
"  }.. V E ! ~ W < , @ ; Z R R Q 7.S.B.M.V.>XZXGXZ.x.x.x."
};
