/* XPM */
static char *emacs_parrot_frame_9[] = {
/* columns rows colors chars-per-pixel */
"28 20 157 2 ",
"   c None",
".  c #1C3505",
"X  c #213D03",
"o  c #22390C",
"O  c #264106",
"+  c #284307",
"@  c #29400B",
"#  c #2C480C",
"$  c #274507",
"%  c #334A0F",
"&  c #36530A",
"*  c #3A5A0A",
"=  c #2D4316",
"-  c #324513",
";  c #314912",
":  c #334A1F",
">  c #375016",
",  c #3F5019",
"<  c #3C591C",
"1  c #384E24",
"2  c #3E5228",
"3  c #405A11",
"4  c #44521D",
"5  c #47581C",
"6  c #4A5D1B",
"7  c #556C1C",
"8  c #455B2D",
"9  c #4C5820",
"0  c #565E28",
"q  c #525C26",
"w  c #454A39",
"e  c #475B32",
"r  c #495C33",
"t  c #576722",
"y  c #5B632B",
"u  c #5F682A",
"i  c #5C6A25",
"p  c #4F613D",
"a  c #516638",
"s  c #5A743C",
"d  c #6E772E",
"f  c #6C6D34",
"g  c #757838",
"h  c #7B7A3D",
"j  c #7A7E37",
"k  c #3D394B",
"l  c #535D4E",
"z  c #47435E",
"x  c #536942",
"c  c #5D7442",
"v  c #5C724C",
"b  c #607748",
"n  c #7D7A40",
"m  c #617452",
"M  c #6A7959",
"N  c #514863",
"B  c #635E79",
"V  c #717F62",
"C  c #6B6876",
"Z  c #7F8637",
"A  c #6D815E",
"S  c #728163",
"D  c #7B8B6B",
"F  c #868B3C",
"G  c #898742",
"H  c #968E4A",
"J  c #8E9041",
"K  c #929245",
"L  c #9A954B",
"P  c #9E9A4B",
"I  c #AC9B5A",
"U  c #B5A75C",
"Y  c #B6A85D",
"T  c #808E72",
"R  c #879674",
"E  c #89977C",
"W  c #A6917B",
"Q  c #BEA865",
"!  c #C3B066",
"~  c #CCB46D",
"^  c #CFB96C",
"/  c #D0B96D",
"(  c #CFB27D",
")  c #E5C77B",
"_  c #785BA4",
"`  c #7B55B2",
"'  c #7E5AB4",
"]  c #7A67A2",
"[  c #7D75A4",
"{  c #7B73A8",
"}  c #7F60B6",
"|  c #7E64B8",
" . c #7C6AB3",
".. c #876DA1",
"X. c #8360B0",
"o. c #8069B6",
"O. c #8164B8",
"+. c #8B6ABB",
"@. c #816BBB",
"#. c #8274BC",
"$. c #857BBB",
"%. c #8F72BD",
"&. c #9072BE",
"*. c #987BBD",
"=. c #887BC1",
"-. c #977AC0",
";. c #939E87",
":. c #969F8B",
">. c #A58D8F",
",. c #9BA38F",
"<. c #A4AE9A",
"1. c #9086AA",
"2. c #8A82BE",
"3. c #9288BE",
"4. c #A98BA1",
"5. c #A893B0",
"6. c #B2A0AB",
"7. c #AEB4A4",
"8. c #B0B7A7",
"9. c #B9BDB0",
"0. c #CCB288",
"q. c #DBBE8C",
"w. c #BDC2B5",
"e. c #EDCB81",
"r. c #EBC98C",
"t. c #F2CE84",
"y. c #F3CD8A",
"u. c #F6D186",
"i. c #FDD68C",
"p. c #FFD98E",
"a. c #FFDB91",
"s. c #F4D290",
"d. c #8F85C2",
"f. c #9E91CB",
"g. c #A38DC9",
"h. c #A393CB",
"j. c #A39BC9",
"k. c #AA9BD2",
"l. c #B39DD2",
"z. c #BAABD6",
"x. c #BAA6D5",
"c. c #B9B2D6",
"v. c #C0BDCE",
"b. c #C5B6D1",
"n. c #CFD3C7",
"m. c #C9C1DF",
"M. c #D0CADD",
"N. c #D6D9D1",
"B. c #D2C7E4",
"V. c #DAD5EB",
"C. c #E1DCED",
"Z. c #E9E8E6",
"A. c #F0EFEE",
"S. c #F4F3EC",
"D. c #EBEAF2",
"F. c white",
"G. c #F4F3F6",
/* pixels */
"                    A.T o . . . = D                     ",
"                  9.:.1 % h 5 y + p ;.                  ",
"                N.S X G ! p.^ ) U f : 7.                ",
"              n.c > * u ! u 0 y i 6 . a                 ",
"              S ; L F . t # c A < . . = 7.              ",
"            Z.p 5 i.U G Q e D D m 9 n - r w.            ",
"            <.r I i.p.a.~ e D D m n a.U = S             ",
"            S - t.i.i.p.~ 8 D c v n a.p.H S             ",
"            M & e.i.i.p.~ # b D x h p.u.d e S           ",
"            e j u.i.i.a./ # 8 s o F p.i.K l C B C z k   ",
"            e h u.i.i.i.t.g X O , ^ p.r.C [ $.$.=.=.] N ",
"            e L i.i.i.p.p.U % - ~ p.y.4.$.2.3.d.3.c.k.O.",
"          E 2 4 u.p.i.i.i.u.e.J e.a.W { =.c.G.V.V.D.h.| ",
"          ,.. & P / a.p.i.i.i.i.i.a.6.$. .j.D.b. .@.| ' ",
"        D r + K J 7 F K u.i.i.i.p.q.1.#.=. .h.v.m.h.' ' ",
"      w.8 # L i.i.^ ~ ^ i.p.i.i.a.0.{ #.f.D.V.M.g.=.' ' ",
"    D 1 6 e.u.i.i.p.p.p.i.i.i.i.i.s.5.=.D.F.x.O.` ` ` ' ",
"  N.m + L i.i.i.i.i.i.i.i.i.i.i.i.i.>. .z.C.B.l.l.l.l.+.",
"  R ; 3 e.i.i.i.i.i.i.i.i.i.i.i.i.i.( ..' &.l.x.A.S.b.+.",
"  R . @ q 0 0 0 0 0 0 0 0 0 0 0 0 0 0 w _ ' ` ' -.*.X.] "
};
