/* XPM */
static char *emacs_parrot_frame_6[] = {
/* columns rows colors chars-per-pixel */
"28 20 234 2 ",
"   c None",
".  c #193601",
"X  c #1C3402",
"o  c #1F3C03",
"O  c #223F03",
"+  c #203807",
"@  c #223F04",
"#  c #253709",
"$  c #223D09",
"%  c #263A0C",
"&  c #323F17",
"*  c #35343B",
"=  c #234302",
"-  c #264203",
";  c #244603",
":  c #264305",
">  c #2C4F04",
",  c #29410D",
"<  c #2F440E",
"1  c #29480B",
"2  c #2E4E0B",
"3  c #32430E",
"4  c #375C06",
"5  c #385C07",
"6  c #3A5C09",
"7  c #3F5A0F",
"8  c #3E5C0C",
"9  c #2B4115",
"0  c #2D4117",
"q  c #2E4819",
"w  c #304310",
"e  c #344416",
"r  c #33471C",
"t  c #38451E",
"y  c #354E1B",
"u  c #374E1E",
"i  c #3E4A19",
"p  c #3F4F1A",
"a  c #38481F",
"s  c #395811",
"d  c #385619",
"f  c #344821",
"g  c #3D4A23",
"h  c #3B5325",
"j  c #3C5027",
"k  c #3E5329",
"l  c #3F5828",
"z  c #464B1F",
"x  c #4E422C",
"c  c #4A4928",
"v  c #50432D",
"b  c #53452E",
"n  c #53442F",
"m  c #4E5022",
"M  c #59502E",
"N  c #564531",
"B  c #564532",
"V  c #5B4536",
"C  c #5C4537",
"Z  c #425734",
"A  c #4A5F36",
"S  c #485739",
"D  c #495C3D",
"F  c #4A5E3D",
"G  c #4B5E3D",
"H  c #64453C",
"J  c #635731",
"K  c #665F30",
"L  c #4D623B",
"P  c #6A6033",
"I  c #4B4F42",
"U  c #4E5D41",
"Y  c #4F5F43",
"T  c #754C4A",
"R  c #784D4C",
"E  c #794D4C",
"W  c #7A4D4D",
"Q  c #7B4D4E",
"!  c #7B4D4F",
"~  c #735143",
"^  c #735243",
"/  c #7B5B44",
"(  c #7B5C44",
")  c #7C4D50",
"_  c #536046",
"`  c #58694E",
"'  c #5F6F4F",
"]  c #5D6C50",
"[  c #7E6145",
"{  c #7F6145",
"}  c #616E54",
"|  c #607051",
" . c #647158",
".. c #677758",
"X. c #69765D",
"o. c #6B765E",
"O. c #5C5B62",
"+. c #6E7A62",
"@. c #6F7D61",
"#. c #707A67",
"$. c #717A67",
"%. c #70776A",
"&. c #717969",
"*. c #757C70",
"=. c #767D71",
"-. c #777D73",
";. c #82554F",
":. c #875057",
">. c #965C5E",
",. c #846249",
"<. c #906354",
"1. c #986459",
"2. c #A0556B",
"3. c #A2556C",
"4. c #A5556F",
"5. c #A4566E",
"6. c #A7596F",
"7. c #AD5875",
"8. c #AD5976",
"9. c #AE5876",
"0. c #B85B7E",
"q. c #B95B7F",
"w. c #9D6460",
"e. c #846570",
"r. c #A8646A",
"t. c #AD646E",
"y. c #AE666E",
"u. c #A6637C",
"i. c #B16572",
"p. c #B26672",
"a. c #B46574",
"s. c #B86678",
"d. c #BB657A",
"f. c #BC667B",
"g. c #BF667D",
"h. c #76806E",
"j. c #7A896E",
"k. c #7E8776",
"l. c #6E6284",
"z. c #716D8F",
"x. c #7A74AC",
"c. c #7C78AD",
"v. c #786AB1",
"b. c #7C73B3",
"n. c #7F77B5",
"m. c #7C79B9",
"M. c #8873AE",
"N. c #8074BD",
"B. c #8176BD",
"V. c #8076BE",
"C. c #8176BE",
"Z. c #8077BE",
"A. c #8178BF",
"S. c #8278BE",
"D. c #9576B2",
"F. c #A17AB8",
"G. c #B371B2",
"H. c #C66186",
"J. c #C66784",
"K. c #D3688F",
"L. c #E0649D",
"P. c #E5699F",
"I. c #C96FA7",
"U. c #ED67A7",
"Y. c #EC68A6",
"T. c #EE6AA7",
"R. c #F168AB",
"E. c #F26BAA",
"W. c #F46BAC",
"Q. c #F56AAD",
"!. c #F56BAD",
"~. c #E370A8",
"^. c #E270AC",
"/. c #F96BB0",
"(. c #FA6AB1",
"). c #FA6BB1",
"_. c #FB6AB3",
"`. c #FC6AB3",
"'. c #FC6AB4",
"]. c #FD6BB4",
"[. c #FE6AB4",
"{. c #FE6BB5",
"}. c #FF6BB5",
"|. c #FF6BB6",
" X c #FF6CB7",
".X c #FF6BB8",
"XX c #FF6BB9",
"oX c #FF6CB9",
"OX c #FF6CBA",
"+X c #FF6CBB",
"@X c #817AC0",
"#X c #857AC0",
"$X c #897DC1",
"%X c #8A7EC1",
"&X c #8D9784",
"*X c #8E9686",
"=X c #939E89",
"-X c #929394",
";X c #95A08B",
":X c #99A28F",
">X c #98A38F",
",X c #ABB2A3",
"<X c #AEB4A9",
"1X c #AFB6A8",
"2X c #AFB4AA",
"3X c #B0B6AB",
"4X c #B6BBB0",
"5X c #BDC0BA",
"6X c #C2C6BD",
"7X c #A19ACE",
"8X c #AEA6D0",
"9X c #B0A8D1",
"0X c #B3ABD7",
"qX c #B2ACD7",
"wX c #B6AFD8",
"eX c #BCB6D9",
"rX c #BCB6DB",
"tX c #C4BBC7",
"yX c #CBC6D0",
"uX c #D2D3D2",
"iX c #D3D5D0",
"pX c #D3D6D1",
"aX c #D6D7D6",
"sX c #D4D8D0",
"dX c #D7D8D5",
"fX c #D9DAD9",
"gX c #CCC8E5",
"hX c #CFCBE6",
"jX c #D2CDE7",
"kX c #D4D0E7",
"lX c #E1E0E4",
"zX c #EDECED",
"xX c #FCFDFB",
"cX c white",
/* pixels */
"                                                        ",
"                                                        ",
"                                                        ",
"                                  sXiXfX                ",
"                            6X3X' d q ` h.<X            ",
"                          2XL : i E ) R < f *X          ",
"                      pX@.y ~ z M oXf.,.7 - +.          ",
"                      ..@ ( E.x v 0.e 1 s , 9 4X        ",
"                    k.r / !.}.T ! 2.D %.&.U + :X        ",
"                    | 3 Y.}.{.].oX5.l $.-._ O u dX      ",
"                  &X0 >.).{.{.{.OX5.l #.-.Y ^ c j.      ",
"                1Xh :.'.|.{.{.{.OX3.F =.*.G 4.H A -X* O.",
"              5Xj = i.+X{.{.{.{.oXq.p X.o.2 6.H.I z.b.n.",
"              } $ > p.+X{.{.{.{.{.oXW Z S ; y.e.x.S.Z.V.",
"            =Xg ;.6 P P.|.{.{.{.{.oXQ . o J u.M.A.7XhXgX",
"          ;Xa m T.w.6 K Q..X.X}.{.|.L.n w 1.G.m.V.qXxXeX",
"      uX>Xt 9.W.{.{.[ 6 J.K.K./.XX{.|.R.U.~.F.@XB.N.rXyX",
"    ,X] & 7. X}.{..Xs.{ 8 4 5 <.g.].{.}.|.I.c.C.%X0XwXtX",
"zX,Xk # 8.}.`.`.`.`.}.(.a.t.t.r.d._.`.`.[.^.D.#XjXcXkX8X",
"aX .X % B B N N N N N B V C C C V N N N N b l.$XlXcX9Xv."
};
