/* XPM */
static char *emacs_parrot_frame_1[] = {
/* columns rows colors chars-per-pixel */
"28 20 160 2 ",
"   c None",
".  c #1E3605",
"X  c #203707",
"o  c #223906",
"O  c #243C0B",
"+  c #283D08",
"@  c #221B2B",
"#  c #282130",
"$  c #2E2935",
"%  c #254106",
"&  c #29430A",
"*  c #2E4A0C",
"=  c #274106",
"-  c #344D02",
";  c #2D4516",
":  c #2D4C1D",
">  c #264516",
",  c #354B1C",
"<  c #32471B",
"1  c #305115",
"2  c #39571C",
"3  c #3E611E",
"4  c #304C20",
"5  c #364824",
"6  c #3A5123",
"7  c #375D28",
"8  c #3C5629",
"9  c #3E463B",
"0  c #335C33",
"q  c #3C652C",
"w  c #38653E",
"e  c #3F6C3B",
"r  c #40571E",
"t  c #435B1D",
"y  c #40542C",
"u  c #435831",
"i  c #4C5D38",
"p  c #426C32",
"a  c #52643F",
"s  c #566A3C",
"d  c #45733D",
"f  c #4A783F",
"g  c #3F3A49",
"h  c #40384E",
"j  c #463B54",
"k  c #3B6943",
"l  c #3D6D49",
"z  c #3A6741",
"x  c #586746",
"c  c #576845",
"v  c #437343",
"b  c #467848",
"n  c #5C7043",
"m  c #457A54",
"M  c #6C7B5C",
"N  c #657357",
"B  c #544C71",
"V  c #625E7C",
"C  c #5D6677",
"Z  c #6F627F",
"A  c #518A5F",
"S  c #4B8664",
"D  c #5A9A70",
"F  c #758269",
"G  c #7B876E",
"H  c #7E8A72",
"J  c #5FA47D",
"K  c #848F7A",
"L  c #85907B",
"P  c #694E8B",
"I  c #6B558E",
"U  c #735A9A",
"Y  c #6A618A",
"T  c #6D6996",
"R  c #74669C",
"E  c #73749B",
"W  c #7E55B1",
"Q  c #7D5AB4",
"!  c #7A64A6",
"~  c #7C71AA",
"^  c #7E63B6",
"/  c #8057B3",
"(  c #805EB5",
")  c #866CBB",
"_  c #8467BA",
"`  c #8274B6",
"'  c #867AB5",
"]  c #8476BA",
"[  c #8A7BBD",
"{  c #877ABA",
"}  c #9175BF",
"|  c #8C77C1",
" . c #9C7FC4",
".. c #549B83",
"X. c #63AF8E",
"o. c #68B697",
"O. c #66B498",
"+. c #6BBEA5",
"@. c #66B8A1",
"#. c #6CC0A6",
"$. c #6CC6B7",
"%. c #70C9B8",
"&. c #7ABBC5",
"*. c #74D2C6",
"=. c #75D6CB",
"-. c #78D7C9",
";. c #79D9CA",
":. c #77D7C9",
">. c #7ADBD2",
",. c #77D9D1",
"<. c #7EE4DB",
"1. c #929C89",
"2. c #8E8B94",
"3. c #97A08E",
"4. c #99A291",
"5. c #A0AB8F",
"6. c #8981BD",
"7. c #A49BB1",
"8. c #A7AEA1",
"9. c #AAB1A3",
"0. c #B6BBB1",
"q. c #B9BDB5",
"w. c #BBC0B8",
"e. c #C2C5BE",
"r. c #968CC3",
"t. c #9D92C4",
"y. c #9E95C8",
"u. c #A89EC6",
"i. c #A99CCB",
"p. c #B49FD3",
"a. c #89ACCE",
"s. c #AEA9C7",
"d. c #B8A8CF",
"f. c #B5A6D2",
"g. c #BFB6DC",
"h. c #C4B6DD",
"j. c #C3BEDE",
"k. c #C7BDE0",
"l. c #81E9DF",
"z. c #88C6E1",
"x. c #83EDE4",
"c. c #85F1EC",
"v. c #87EFF1",
"b. c #85F3F1",
"n. c #8CF4FA",
"m. c #8CFFFE",
"M. c #88F7F2",
"N. c #C8CACA",
"B. c #CED1CB",
"V. c #D3D5D3",
"C. c #D7D8D7",
"Z. c #CCC6E2",
"A. c #D3CFE5",
"S. c #DBDCE3",
"D. c #DDDBEB",
"F. c #ECEBEF",
"G. c #E1E1E7",
"H. c #E9EBF4",
"J. c #EEF3F1",
"K. c #F2F7F5",
/* pixels */
"                                                        ",
"            N.w.0.5.B.                                  ",
"        H.9.c y 6 = a G C.                              ",
"      C.K u 1 @.=.,.S > x 8.                            ",
"    V.H O l l.m.,.=.%.+.1 y q.                          ",
"    1.; m X S X.4 6 & * O . N B.                        ",
"    c ..-.* A q 6 M n ; . & & 0.                        ",
"  1.O ;.M.;.c.k t F G 6 p ;.m i C.                      ",
"  4.= ;.m.m.m.v t F F < b m.X., e.                      ",
"G.G v x.m.m.m.e t F F < d m.m.w N 7.                    ",
"B.a b c.m.m.m.#.u F F 8 +.m.*.V V ! Y B g               ",
"V.x S M.m.m.m.b.1 s a > c.z.~ ` ] ' ' [ R h             ",
"F.1.1 <.m.m.m.b.k O . z &.` ` r.t.t.s.S.[ U $           ",
"  1.+ -.m.m.m.m.=.X k >.E ` ' D.H.j.j.g.) _ I #         ",
"  3.. *.m.m.m.m.c.O.>.n.r.` ' s.D.t.^ _ ^ Q / @         ",
"  K 6 d l.c.c.m.m.m.m.a.~ ` ] } u.N.Z.| Q Q / j         ",
"    a q 2 3 3 #.l.M.m.a.` [ Z.H.A.f.) ( / W / V         ",
"    N $.J D p - f m.m.n.] i.K.H.) / W W W / / 2.        ",
"    u *.m.m.-.o.%.m.m.v.T [ i.D.k.h.h.h.p./ P $ M       ",
"    u 0 k k k l l k k w 9 ! Q |  .d.J.S. .U y = < F     "
};
