/* XPM */
static char *emacs_parrot_frame_5[] = {
/* columns rows colors chars-per-pixel */
"28 20 243 2 ",
"   c None",
".  c #1C3501",
"X  c #1F3605",
"o  c #1D3901",
"O  c #213F02",
"+  c #203F03",
"@  c #203A05",
"#  c #213A05",
"$  c #26360D",
"%  c #223A09",
"&  c #243F08",
"*  c #253F08",
"=  c #25390C",
"-  c #2B3813",
";  c #2C3D14",
":  c #353F1B",
">  c #383D21",
",  c #3B3E3F",
"<  c #403F29",
"1  c #244303",
"2  c #234004",
"3  c #254405",
"4  c #284B01",
"5  c #274109",
"6  c #314B0B",
"7  c #325801",
"8  c #355904",
"9  c #355905",
"0  c #2C4315",
"q  c #2D4316",
"w  c #344614",
"e  c #344812",
"r  c #324B1B",
"t  c #344D1B",
"y  c #354D1C",
"u  c #364C1C",
"i  c #3F4E1C",
"p  c #395517",
"a  c #3E5A10",
"s  c #3B531E",
"d  c #3F5C1A",
"f  c #384022",
"g  c #384521",
"h  c #3A4324",
"j  c #3A5021",
"k  c #3F5828",
"l  c #42621A",
"z  c #45611E",
"x  c #46631E",
"c  c #404A27",
"v  c #464B26",
"b  c #47462D",
"n  c #44442E",
"m  c #455B24",
"M  c #4B5820",
"N  c #44502F",
"B  c #41572D",
"V  c #4A4433",
"C  c #464E31",
"Z  c #484E34",
"A  c #50443A",
"S  c #52443E",
"D  c #53443E",
"F  c #564D38",
"G  c #5C4D3F",
"H  c #5C4F3F",
"J  c #605B38",
"K  c #645A3F",
"L  c #466027",
"P  c #4B6131",
"I  c #4E6537",
"U  c #3D3B45",
"Y  c #564541",
"T  c #564542",
"R  c #574542",
"E  c #574543",
"W  c #594B40",
"Q  c #5C4E40",
"!  c #5C4648",
"~  c #5C4649",
"^  c #5D464A",
"/  c #4B524A",
"(  c #665D40",
")  c #6D5E48",
"_  c #7F5F5E",
"`  c #556942",
"'  c #5E714E",
"]  c #627251",
"[  c #627252",
"{  c #6B7D55",
"}  c #6B7E56",
"|  c #6C7B5D",
" . c #7F5A61",
".. c #7F5C60",
"X. c #616069",
"o. c #61606A",
"O. c #6B6D75",
"+. c #835070",
"@. c #8F557B",
"#. c #8E6170",
"$. c #718755",
"%. c #748265",
"&. c #778569",
"*. c #79866C",
"=. c #79876C",
"-. c #7A876D",
";. c #7A886D",
":. c #7B886F",
">. c #7C8A6F",
",. c #7D8970",
"<. c #7E8A71",
"1. c #7F8C72",
"2. c #828E76",
"3. c #86937A",
"4. c #75788D",
"5. c #975288",
"6. c #A65A93",
"7. c #A65C93",
"8. c #A95E95",
"9. c #A7579A",
"0. c #A8579B",
"q. c #AA589D",
"w. c #AC599D",
"e. c #AC589F",
"r. c #AD599F",
"t. c #9F6185",
"y. c #866E95",
"u. c #A16387",
"i. c #A6628E",
"p. c #AC6395",
"a. c #AD6395",
"s. c #AD6297",
"d. c #AE6396",
"f. c #AD6495",
"g. c #BD5EAE",
"h. c #827CA3",
"j. c #837DA3",
"k. c #8078A5",
"l. c #817AA5",
"z. c #817AA6",
"x. c #837DA6",
"c. c #847DA7",
"v. c #847EA6",
"b. c #847DA8",
"n. c #857DA9",
"m. c #847EA8",
"M. c #857EA9",
"N. c #857FA9",
"B. c #867FA9",
"V. c #8C7BAC",
"C. c #B865A3",
"Z. c #BF6CBB",
"A. c #C766B4",
"S. c #C864B8",
"D. c #D067BF",
"F. c #CE5FC2",
"G. c #D465C5",
"H. c #D465C6",
"J. c #D667C6",
"K. c #D667C7",
"L. c #D268C1",
"P. c #D365CB",
"I. c #DA69CB",
"U. c #DA63D1",
"Y. c #DB63D2",
"T. c #C174D0",
"R. c #E168D4",
"E. c #E269D4",
"W. c #E264D9",
"Q. c #E468D8",
"!. c #EA69DF",
"~. c #EA66E1",
"^. c #EC67E4",
"/. c #EE67E6",
"(. c #E56EE5",
"). c #ED6AE2",
"_. c #F267EA",
"`. c #F367EB",
"'. c #F36AE9",
"]. c #F46AEA",
"[. c #F368EC",
"{. c #F26CEE",
"}. c #FB6BF5",
"|. c #FC6AF4",
" X c #FC6AF5",
".X c #FC6BF5",
"XX c #FD6BF6",
"oX c #FD6BF7",
"OX c #FE6BF6",
"+X c #FE6BF7",
"@X c #FF6BF8",
"#X c #FF6BF9",
"$X c #FF6BFA",
"%X c #FF6BFB",
"&X c #FF6CFA",
"*X c #FF6CFE",
"=X c #FF6CFF",
"-X c #8F9A84",
";X c #919B86",
":X c #929D88",
">X c #98A18E",
",X c #9CA592",
"<X c #9EA695",
"1X c #A0A997",
"2X c #8680AA",
"3X c #8780AB",
"4X c #8B84AD",
"5X c #8C86AC",
"6X c #8D87AF",
"7X c #8D88AB",
"8X c #9592A7",
"9X c #928BB2",
"0X c #938DB1",
"qX c #A49EBF",
"wX c #A6A9A0",
"eX c #B6BCB1",
"rX c #B7BCB2",
"tX c #B9BFB4",
"yX c #BAC1B1",
"uX c #BBC3B0",
"iX c #C1C6BD",
"pX c #C2C6BD",
"aX c #B1ADC8",
"sX c #B2ADC8",
"dX c #BAB7C6",
"fX c #B9B4CD",
"gX c #BBB6CF",
"hX c #C1BECF",
"jX c #C8CBC4",
"kX c #C4C2CE",
"lX c #CCCFC8",
"zX c #D0D5C7",
"xX c #CBC9D6",
"cX c #C9C5D9",
"vX c #DEDFDD",
"bX c #D4D1E1",
"nX c #D7D4E1",
"mX c #D9D5E4",
"MX c #DAD7E5",
"NX c #DCD9E1",
"BX c #E1DFE9",
"VX c #E9E6EF",
"CX c #F8F6FA",
/* pixels */
"                                                        ",
"                                                        ",
"                                                        ",
"                                                        ",
"                          vXiXeXrXyXzX                  ",
"                        ,X>.r 1 3 O } <X                ",
"                    tX&.& G 9.s.s.0.Q * <.              ",
"                  pX` > g.K.$X=X[._.H.w.N ;X            ",
"                  1.v G.I.i @.S.n C Z f X %.            ",
"                >X+ 7.=XL.4 H M y *.=.s . [             ",
"              lXB W E.%X).8.Y.K t -.;.z # 0 ;X          ",
"              $.b W.%XOX#X*X@XJ d ;.;.x 6 $ :X          ",
"            2.u  .@X+X+X+X+XXX..j :.;.l F 5.I wXU X.o., ",
"            ] - /.@X+X+X+X+X@X~.c { ,.m t.6.k O.h.v.c.x.",
"          -Xq +.i.XX+X+X+X+X@X^.: p P h `.Z.4.3XB.N.N.8X",
"        uXL e A.) ].%X$X+X+X+XXXq.@ o < P.y.2X5XmXMXbXNX",
"        ' w C.'.( _ J.K.#X*X$X&XU.D D F.(.j.m.7XBXnX0X4X",
"      3.g r.&X%XD.9 8 a u.f.R.%XOX.X.X}.T.n.b.z.9XkXdXsX",
"  jX| ; e.+X|.XX!.a.p.d.#.7 ( Q.oX|. X{.V.b.M.gXcXxXhXaX",
"  1X% = T T Y Y E ! ~ ^ A 5 2 V R Y Y S / l.fXCXVXqX6Xk."
};
