/* XPM */
static char *emacs_parrot_frame_7[] = {
/* columns rows colors chars-per-pixel */
"28 20 223 2 ",
"   c None",
".  c #101D03",
"X  c #1E3403",
"o  c #1D3504",
"O  c #1D3706",
"+  c #213706",
"@  c #203A06",
"#  c #223D08",
"$  c #233D09",
"%  c #243C08",
"&  c #243E08",
"*  c #283A0B",
"=  c #2D3D0A",
"-  c #303B0F",
";  c #303F0D",
":  c #313C0F",
">  c #2D2C2D",
",  c #254207",
"<  c #294407",
"1  c #2A4D06",
"2  c #284508",
"3  c #284709",
"4  c #2E4809",
"5  c #35410C",
"6  c #33440D",
"7  c #35440C",
"8  c #34510E",
"9  c #2E4D12",
"0  c #2F4D15",
"q  c #2D4319",
"w  c #354214",
"e  c #3E4313",
"r  c #394610",
"t  c #314C16",
"y  c #354D18",
"u  c #354D1A",
"i  c #37481E",
"p  c #3A4E24",
"a  c #3B452A",
"s  c #3D512A",
"d  c #3D542A",
"f  c #434911",
"g  c #474811",
"h  c #47441D",
"j  c #46451F",
"k  c #4B4E1A",
"l  c #55431D",
"z  c #55441F",
"x  c #574C1A",
"c  c #5A4C1F",
"v  c #425310",
"b  c #475412",
"n  c #4B5414",
"m  c #515517",
"M  c #61571F",
"N  c #564420",
"B  c #5E4523",
"V  c #405827",
"C  c #415231",
"Z  c #485430",
"A  c #4A5B35",
"S  c #485738",
"D  c #4B5F38",
"F  c #4B5A3D",
"G  c #4D5A3D",
"H  c #4C5B3D",
"J  c #724E2B",
"K  c #774C2F",
"L  c #675423",
"P  c #665821",
"I  c #725326",
"U  c #705926",
"Y  c #745228",
"T  c #7A522E",
"R  c #7F552F",
"E  c #7A4D30",
"W  c #7D4D31",
"Q  c #496036",
"!  c #496137",
"~  c #51623E",
"^  c #5D585E",
"/  c #526440",
"(  c #546248",
")  c #596A4B",
"_  c #586B4D",
"`  c #5E6C54",
"'  c #6A6952",
"]  c #667757",
"[  c #6C7E55",
"{  c #64725C",
"}  c #67745F",
"|  c #5D5972",
" . c #717C66",
".. c #747F6A",
"X. c #767F70",
"o. c #82562E",
"O. c #805B2E",
"+. c #825B2F",
"@. c #8C5835",
"#. c #8D5A35",
"$. c #955E38",
"%. c #AD5745",
"&. c #A65A42",
"*. c #AB5A42",
"=. c #AB5E43",
"-. c #B15E45",
";. c #B35A4A",
":. c #BB5B4A",
">. c #AE6244",
",. c #B46247",
"<. c #B66148",
"1. c #B66248",
"2. c #BE634C",
"3. c #BF644C",
"4. c #AC625B",
"5. c #C56350",
"6. c #CA6452",
"7. c #CC6553",
"8. c #D06056",
"9. c #D06156",
"0. c #D16057",
"q. c #D16157",
"w. c #D16555",
"e. c #D56657",
"r. c #DE635E",
"t. c #DE655C",
"y. c #DF645D",
"u. c #E0675C",
"i. c #E4655F",
"p. c #C56464",
"a. c #D36666",
"s. c #E66560",
"d. c #E86860",
"f. c #EC6962",
"g. c #EF6964",
"h. c #F06964",
"j. c #F16865",
"k. c #F36A65",
"l. c #F36A66",
"z. c #F66A67",
"x. c #F16A6B",
"c. c #F46969",
"v. c #FA6A69",
"b. c #FB6A6A",
"n. c #FC6A6A",
"m. c #FC6B6A",
"M. c #FE6B6B",
"N. c #FF6B6B",
"B. c #FF6B6C",
"V. c #FF6B6D",
"C. c #FF6C6C",
"Z. c #FF6C6D",
"A. c #FF6C6E",
"S. c #FF6D6E",
"D. c #6E8156",
"F. c #7B886D",
"G. c #7C8479",
"H. c #818F72",
"J. c #859373",
"K. c #6F6995",
"L. c #7E78A7",
"P. c #7F7BB2",
"I. c #936D8A",
"U. c #8674A2",
"Y. c #8B74A2",
"T. c #897BA9",
"R. c #9875A2",
"E. c #9878A6",
"W. c #8079B3",
"Q. c #817AB3",
"!. c #837DB1",
"~. c #8179B5",
"^. c #817AB4",
"/. c #807AB5",
"(. c #827BB5",
"). c #817CB7",
"_. c #CC7181",
"`. c #858A85",
"'. c #888C8A",
"]. c #8B8E8D",
"[. c #8C8F8F",
"{. c #929C87",
"}. c #97A18C",
"|. c #A2AE94",
" X c #8B85BA",
".X c #8A85BC",
"XX c #928BBE",
"oX c #9791BF",
"OX c #A7ABA4",
"+X c #A9AFA9",
"@X c #AEB6A8",
"#X c #AFB4AA",
"$X c #B2BCA6",
"%X c #BDBFBD",
"&X c #BCC1B6",
"*X c #BDC4B6",
"=X c #9692C0",
"-X c #9D98C5",
";X c #9F99C6",
":X c #A19CC7",
">X c #A7A3CB",
",X c #B6B2D4",
"<X c #C5C7C5",
"1X c #C5C9C0",
"2X c #D2D5CE",
"3X c #D1D2D2",
"4X c #D6D8D4",
"5X c #D8D9D8",
"6X c #DEDEDE",
"7X c #DFDFDE",
"8X c #CECCE2",
"9X c #D2D0E1",
"0X c #D2D0E5",
"qX c #D8D5E8",
"wX c #DDDBEA",
"eX c #E6E6E6",
"rX c #E7E7E6",
"tX c #EAEAEB",
"yX c #EFEFEF",
"uX c #E8E7F0",
"iX c #FEFDFE",
"pX c #FFFFFE",
"aX c white",
/* pixels */
"                                                        ",
"                                                        ",
"                                  rX<X5XeX              ",
"                              1Xp D Z A d ] 7X          ",
"                          *X[ t & 7 -.o.l h ` 3X        ",
"                        H.3 , L 4 R S.3.=.J # J.        ",
"                      +Xj &.>.t.- W ;.6 1 2 % u 2X      ",
"                    4X) B Z.A.b.8.s.K 0  .X.C @ D.6X    ",
"                    F.= y.M.M.M.C.S.E _ '.[.H g i OX    ",
"                  &X~ Y z.M.M.M.M.Z.E ! `.].G :.5 /     ",
"                  ..X 0.Z.M.M.M.M.Z.E Q `.].F I @.+ . > ",
"                #Xq < 5.B.M.M.M.M.Z.#.8 G.'.S *.q.a | K.",
"                { r v n g.N.M.M.M.B.e.e V ( $ 9._.L.Q.~.",
"              } w <.1.m h.N.M.M.M.V.1.J * O c 4.T.(.:X,X",
"            %XZ %.B.N.P $.M.N.N.M.M.V.j.: z r.I.P.W.8XpX",
"          }.s k k.N.M.6.M d.f.g.B.B.M.v.8.i.x.E.).^.XXwX",
"        @X9 f w.N.M.N.l.U U m b 2.u.B.M.C.C.p.U./. X-X>X",
"      |.' T 7.V.M.M.M.M.m.N.,.O.+.1.V.M.M.N.a.Y..X0XaXqX",
"  tX{.t x N.M.b.n.n.n.n.n.n.N.B.B.N.n.n.n.m.c.R.=XyXiX;X",
"  $Xy o ; N N N N N N N N N N N N N N N N N N ^ !.oX9XuX"
};
