/* XPM */
static char *emacs_parrot_frame_2[] = {
/* columns rows colors chars-per-pixel */
"28 20 151 2 ",
"   c None",
".  c #1E3501",
"X  c #223A04",
"o  c #243D0B",
"O  c #313D23",
"+  c #2F253C",
"@  c #264001",
"#  c #294502",
"$  c #2A450A",
"%  c #345304",
"&  c #2C4414",
"*  c #2D4A13",
"=  c #2B4619",
"-  c #304C12",
";  c #314B1B",
":  c #384E1F",
">  c #355419",
",  c #395719",
"<  c #334C24",
"1  c #314C2C",
"2  c #37542F",
"3  c #39552A",
"4  c #345126",
"5  c #3A563D",
"6  c #3C583E",
"7  c #3F6023",
"8  c #42582C",
"9  c #485C34",
"0  c #4F692E",
"q  c #456228",
"w  c #4E6333",
"e  c #4E603B",
"r  c #436439",
"t  c #53653E",
"y  c #3D2952",
"u  c #3E3151",
"i  c #432A5E",
"p  c #573F74",
"a  c #3B5643",
"s  c #3E5A44",
"d  c #3D5A4A",
"f  c #405B46",
"g  c #416042",
"h  c #546640",
"j  c #5E7543",
"k  c #4D6E5B",
"l  c #607646",
"z  c #60724C",
"x  c #6F7E5F",
"c  c #657751",
"v  c #584374",
"b  c #466461",
"n  c #527276",
"m  c #797A79",
"M  c #6E8159",
"N  c #71815E",
"B  c #748462",
"V  c #7C8C6D",
"C  c #818F73",
"Z  c #89977C",
"A  c #5F4C81",
"S  c #624187",
"D  c #6B558B",
"F  c #5A7B8A",
"G  c #68628B",
"H  c #766898",
"J  c #7357A1",
"K  c #7F5AB4",
"L  c #7769A7",
"P  c #7D6BAC",
"I  c #7367A2",
"U  c #7E6FBA",
"Y  c #7F64B5",
"T  c #7F71B5",
"R  c #717AB6",
"E  c #8057B3",
"W  c #815AB5",
"Q  c #877BAF",
"!  c #8060B6",
"~  c #8162B8",
"^  c #866DB9",
"/  c #856DB6",
"(  c #8174B5",
")  c #8C78BF",
"_  c #847ABB",
"`  c #9074BE",
"'  c #8477C1",
"]  c #5F8380",
"[  c #5F8197",
"{  c #5F8198",
"}  c #608483",
"|  c #63878E",
" . c #678C96",
".. c #688D97",
"X. c #62849A",
"o. c #688D99",
"O. c #668B9F",
"+. c #688CA5",
"@. c #6C92A6",
"#. c #6B8FB4",
"$. c #759CBD",
"%. c #739AB7",
"&. c #7880C1",
"*. c #759BC8",
"=. c #799FD5",
"-. c #7AA1CA",
";. c #7DA3DB",
":. c #7EA6D6",
">. c #919C85",
",. c #98A28D",
"<. c #AEB89F",
"1. c #8780B1",
"2. c #ABB3A3",
"3. c #B8BDB1",
"4. c #BCC3B4",
"5. c #C0C5BB",
"6. c #9285C1",
"7. c #9A8EC4",
"8. c #9B84C3",
"9. c #9E93C5",
"0. c #888AD0",
"q. c #878BD1",
"w. c #A89AC9",
"e. c #80A6DB",
"r. c #A9A0CD",
"t. c #ADA2D1",
"y. c #B6ADD5",
"u. c #82AAE0",
"i. c #84ACEC",
"p. c #8DABEB",
"a. c #88B0EF",
"s. c #8BAEF7",
"d. c #87B0F1",
"f. c #89B1F4",
"g. c #8CB5FE",
"h. c #8FB8FF",
"j. c #CCBBE1",
"k. c #BFC4DE",
"l. c #CED2C8",
"z. c #D1D5CE",
"x. c #D3D6D0",
"c. c #C3C8E0",
"v. c #CFC5E2",
"b. c #D1C7E1",
"n. c #DFDDE9",
"m. c #E1D7ED",
"M. c #E2DBED",
"N. c #E7E5ED",
"B. c #ECECF4",
"V. c #F7F8F6",
"C. c #F8F7FB",
/* pixels */
"                                                        ",
"                                                        ",
"          <.N x h B >.x.                                ",
"      l.N 8 - > > * < 9 B                               ",
"    x.l 5 F a.a.d.d.i.k 9 4.                            ",
"    C < =.X.:.#.F +.F | o h 4.                          ",
"  >.& n k X ..s 9 h , X o . x                           ",
"z.z * -.+.;  .f B C x = = * = 2.                        ",
"<.. [ h.g.a.[ = B V l : ;.@.; z                         ",
"0 1 *.h.g.h.f.g B V c 4 i.g.@.3 2.                      ",
". 2 -.h.g.g.g.g x V 0 > i.g.g.5 e D u                   ",
". g ;.g.g.g.h.6 q V 8 O.g.g.R G H P H P v               ",
"# 4 $.h.g.g.g.6 X - o *.g.0.P ( Q T 1.1.Q i             ",
"4 a ;.h.g.g.g.] $ X g e.&./ ( w.y.y.k.B.` J p           ",
",.. [ h.g.g.g.g.B d ;.f.L ( Q N.B.y.y.t./ ! J           ",
"4.# 3 -.g.h.g.g.g.;.h.p._ ( ( 9.M.w./ Y K K W +         ",
"4.$ # 7 %.-.-.f.g.g.g.' ( T 6.7.t.c.b.' W W E i         ",
"4.o g 7 % % % ] g.g.g.0.( 6.M.C.v.w.W W W W E !         ",
"3.. X.%.o.o.o.7 ] g.g.d.U w.V.V.^ W W W W W E m         ",
"3.. 1 d d d d = $ a a a A ^ 8.M.M.m.m.M.j.W S & Z       "
};
