/* XPM */
static char *emacs_parrot_frame_10[] = {
/* columns rows colors chars-per-pixel */
"28 20 161 2 ",
"   c None",
".  c #1D3203",
"X  c #243D05",
"o  c #263E0C",
"O  c #30293C",
"+  c #2A4505",
"@  c #2D4B06",
"#  c #2B450B",
"$  c #2C4F0C",
"%  c #314D05",
"&  c #335206",
"*  c #2E4513",
"=  c #2F4919",
"-  c #304716",
";  c #33451A",
":  c #324B1B",
">  c #344C10",
",  c #2D5117",
"<  c #365619",
"1  c #386018",
"2  c #36601D",
"3  c #3E4F29",
"4  c #394F23",
"5  c #366121",
"6  c #3A6324",
"7  c #3C6A23",
"8  c #3B6828",
"9  c #40591D",
"0  c #405228",
"q  c #455B2B",
"w  c #4D5E3A",
"e  c #475933",
"r  c #416E21",
"t  c #467624",
"y  c #4A7C26",
"u  c #42742D",
"i  c #51623C",
"p  c #5A6E3D",
"a  c #3A2F4A",
"s  c #3E3649",
"d  c #4D425C",
"f  c #596C44",
"g  c #576844",
"h  c #697A56",
"j  c #697958",
"k  c #677459",
"l  c #534B60",
"z  c #5B5267",
"x  c #5C4971",
"c  c #60587E",
"v  c #717F64",
"b  c #4B873C",
"n  c #4D8A3E",
"m  c #55933A",
"M  c #59993D",
"N  c #579840",
"B  c #589B46",
"V  c #708154",
"C  c #5FA748",
"Z  c #5DA143",
"A  c #5FAB54",
"S  c #63AD4E",
"D  c #63B155",
"F  c #68B755",
"G  c #63B359",
"H  c #69BB58",
"J  c #738164",
"K  c #79856D",
"L  c #7A8771",
"P  c #7F8B74",
"I  c #7BB67E",
"U  c #6FC45F",
"Y  c #74CF67",
"T  c #78D76D",
"R  c #79D86E",
"E  c #77D46B",
"W  c #7FE376",
"Q  c #828F73",
"!  c #849078",
"~  c #80E578",
"^  c #81E87B",
"/  c #6A5F88",
"(  c #69578B",
")  c #6C5A92",
"_  c #686485",
"`  c #6E748B",
"'  c #6E659A",
"]  c #73679E",
"[  c #7656A2",
"{  c #7F59AF",
"}  c #7D55B1",
"|  c #7F5CB1",
" . c #7F66BB",
".. c #7E7BBA",
"X. c #815BB4",
"o. c #825DB9",
"O. c #827DAF",
"+. c #8363BA",
"@. c #8663B7",
"#. c #8175BD",
"$. c #827CBC",
"%. c #9577BF",
"&. c #8476C0",
"*. c #8973C0",
"=. c #837DC2",
"-. c #9072C0",
";. c #987CC4",
":. c #7F9C85",
">. c #77A384",
",. c #8D9881",
"<. c #959E8A",
"1. c #919B87",
"2. c #83B58C",
"3. c #99A291",
"4. c #A6AD9F",
"5. c #9697A8",
"6. c #8388BD",
"7. c #A09CBE",
"8. c #B3BCA4",
"9. c #86D58D",
"0. c #89DE95",
"q. c #86EF87",
"w. c #85F283",
"e. c #88F686",
"r. c #89F489",
"t. c #8CFE8C",
"y. c #8BED94",
"u. c #8FFF90",
"i. c #90FF92",
"p. c #BBC2B0",
"a. c #C0C4BC",
"s. c #8480C3",
"d. c #8D86C7",
"f. c #8A88C6",
"g. c #9788C4",
"h. c #9982C4",
"j. c #A489C8",
"k. c #AB91CE",
"l. c #AF98D2",
"z. c #B59ED3",
"x. c #B3AACF",
"c. c #ADA1D2",
"v. c #BDABDA",
"b. c #C3B9DD",
"n. c #C6B9D8",
"m. c #C2BFE0",
"M. c #C8C7CB",
"N. c #D2D4D0",
"B. c #D8DAD3",
"V. c #D1CEE1",
"C. c #D9D3E7",
"Z. c #DAD5EB",
"A. c #DEDEEE",
"S. c #E4E5E4",
"D. c #E7E5EE",
"F. c #E9E8EB",
"G. c #EDEBF4",
"H. c #E5E0F1",
"J. c #F8F9F6",
"K. c #F9F7FC",
"L. c #FEFFFC",
/* pixels */
"                                                        ",
"              a.,.0 8 M u ; Q                           ",
"            <.e , D W u.w.D 7 V B.                      ",
"          <.: + t t.S 7 t D b # !                       ",
"        4.4 G 7 r H # < < - o . w M.                    ",
"        w b u.B u A + h L g + u ; K                     ",
"      N.- m u.t.E G % h L f % Y , r p.                  ",
"      Q * Z t.t.i.D @ j L f % T U & !                   ",
"    S.p 5 e.t.t.i.F % j L g < ~ u.A > p.                ",
"    S.i 7 t.t.t.u.T 1 i v 0 A u.t.F ; 5._ / c '         ",
"    S.i 7 t.t.t.t.u.n X 4 . D i.t.I / ..=.=.=.$.)       ",
"    S.i 5 t.t.t.t.u.B X . u w.t.9...=.f.f.d.j.V.*.)     ",
"      k 6 ^ t.t.t.t.e.n 6 S t.r.` =.s.Z.G.Z.Z.Z.*.+.(   ",
"      3.* t ^ i.t.t.t.t.t.t.t.y.6.=.$.V.G.g.+.+.+.o.X.a ",
"      3.* @ y M S t.t.t.t.t.t.2.$.&.&.#.x.M.b.-.X.X.{ s ",
"      P # m m & & C t.t.t.t.t.,.#.=.v.D.C.v.;.@.X.X.X.d ",
"    N.i < e.e.m t t Y t.t.t.t.0.#.c.L.K.;.o.} } X.X.X.O ",
"    1.* C t.t.t.t.t.t.t.t.t.t.q.] h.m.G.v.z.z.z.k.o.[   ",
"    J $ w.t.t.t.t.t.t.t.t.t.t.e.>.| | j.c.n.K.D.z.[ x   ",
"    J X 5 8 8 8 8 8 5 8 8 8 8 8 6 l | } X.@.;.%.X.z     "
};
