/* XPM */
static char *emacs_parrot_frame_3[] = {
/* columns rows colors chars-per-pixel */
"28 20 161 2 ",
"   c None",
".  c #070508",
"X  c #030401",
"o  c #161B11",
"O  c #1D3901",
"+  c #1E3704",
"@  c #1E221B",
"#  c #213D02",
"$  c #253D0B",
"%  c #272136",
"&  c #3B3B3B",
"*  c #264105",
"=  c #2C460B",
"-  c #325601",
";  c #365807",
":  c #38570F",
">  c #32500C",
",  c #2E4315",
"<  c #2E4810",
"1  c #314715",
"2  c #324419",
"3  c #354C1A",
"4  c #394D1E",
"5  c #3A5314",
"6  c #3E5717",
"7  c #384427",
"8  c #394F21",
"9  c #3F492D",
"0  c #394428",
"q  c #465D1E",
"w  c #445525",
"e  c #4E5F2C",
"r  c #474A3A",
"t  c #494D3D",
"y  c #434A34",
"u  c #435632",
"i  c #495D31",
"p  c #465B31",
"a  c #50553E",
"s  c #4F672F",
"d  c #566B3C",
"f  c #51643E",
"g  c #3D2E50",
"h  c #403D4F",
"j  c #47335B",
"k  c #4D4C43",
"l  c #534F4D",
"z  c #535643",
"x  c #565A44",
"c  c #5D5E4B",
"v  c #576845",
"b  c #586847",
"n  c #5C6D4A",
"m  c #526440",
"M  c #5E704D",
"N  c #63754C",
"B  c #6D675F",
"V  c #6C695A",
"C  c #667555",
"Z  c #687954",
"A  c #555469",
"S  c #685A67",
"D  c #6B5C6A",
"F  c #6D5C70",
"G  c #775F7E",
"H  c #766C6B",
"J  c #6F7E60",
"K  c #717F63",
"L  c #746472",
"P  c #786A71",
"I  c #806F7B",
"U  c #738165",
"Y  c #77836A",
"T  c #79846D",
"R  c #7C886F",
"E  c #7F8B72",
"W  c #88927D",
"Q  c #67488C",
"!  c #694A8F",
"~  c #624685",
"^  c #6B588A",
"/  c #705096",
"(  c #6B6580",
")  c #75649E",
"_  c #775AA6",
"`  c #7E56B4",
"'  c #7A68A6",
"]  c #7663AA",
"[  c #7E6FBC",
"{  c #7F64BA",
"}  c #7F7CBB",
"|  c #836E82",
" . c #897288",
".. c #907692",
"X. c #96769C",
"o. c #8257B5",
"O. c #815AB6",
"+. c #835CB9",
"@. c #956FA4",
"#. c #9977A1",
"$. c #8261B9",
"%. c #876CBD",
"&. c #8064B5",
"*. c #8376BD",
"=. c #827CBF",
"-. c #A37CAE",
";. c #A97EB8",
":. c #A275B8",
">. c #8973C0",
",. c #857CC1",
"<. c #8B79C1",
"1. c #8573C1",
"2. c #AA77C2",
"3. c #AD7AC5",
"4. c #B17BCC",
"5. c #B67DDD",
"6. c #B275D6",
"7. c #C27FEC",
"8. c #8E9685",
"9. c #939B8A",
"0. c #9BA78A",
"q. c #9CA392",
"w. c #A0A798",
"e. c #A5AC9C",
"r. c #8380BE",
"t. c #B3B6AE",
"y. c #B8BBB3",
"u. c #9D82C9",
"i. c #9A94CA",
"p. c #A58CCA",
"a. c #B280C6",
"s. c #B481CA",
"d. c #A592CC",
"f. c #BE83DA",
"g. c #B288DF",
"h. c #AEA3D5",
"j. c #B1A5D0",
"k. c #BEAED9",
"l. c #C185DD",
"z. c #C7BEDF",
"x. c #CA88EB",
"c. c #C487E1",
"v. c #CF8AF3",
"b. c #D68CFE",
"n. c #D98DFF",
"m. c #DA90FF",
"M. c #C6BDE0",
"N. c #CCCCCA",
"B. c #D0D0CF",
"V. c #D1D0D0",
"C. c #D8D6D7",
"Z. c #DAD8DA",
"A. c #CBC3E3",
"S. c #D2C5E2",
"D. c #D9D4EA",
"F. c #E5E3EB",
"G. c #E9E5EB",
"H. c #E3E0E5",
"J. c #EDE7F2",
"K. c #EEEEF4",
"L. c #FFFFFF",
/* pixels */
"                                                        ",
"                                                        ",
"              G.G.G.G.G.                                ",
"            C.9.d d K 8.N.Z.                            ",
"        V.E < t t r t 1 < C                             ",
"      t.f 9 H X.b.b.n...P k Z                           ",
"      v 7 3.-.4 | :.S F L x + y.                        ",
"    8.8 c b.f.9 2 0 p M < # # s                         ",
"    K $ l.b.b.I @.8 J T n 7 a 3 e.                      ",
"    T 5 x.b.b.n.3.3 Z T N D b.| 2 K                     ",
"    b 6 x.b.b.n.3.u T T n D n.b.( n                     ",
"  9.= #.b.b.b.n.4.8 N T n D n.n.4.* 9.                  ",
"  w.$ 4.n.b.b.b.v.D i K 5 H n.b.:.9 ( ^ k %             ",
"  N.b 2.n.b.b.b.l.x * p * H m.5.] r.r.r.1.] g           ",
"    n 2.n.b.b.b.m.X.# # w a.5.*.=.=.=.=.h.h.] g .       ",
"  0.= x v.n.n.n.b.v.V w s.6.' =.i.F.D.D.J.M.$._ j       ",
"  q.O 5 a.a.s.s.n.n.v.x.n.g.} =.i.K.z.<.%.%.$.+.~ X     ",
"H.R z q - - - q  .s.n.n.v.p.=.*.[ i.z.k.d.$.+.+.Q @     ",
"B.m z ..X.V V s - e H l.7.+.*.<.M.M.S.z.p.+.o.o./ &     ",
"  W O r l y 0 1 * # # y r A 1.A.L.D.u.$.` o.o.O.Q o     "
};
