/* XPM */
static char *emacs_parrot_frame_8[] = {
/* columns rows colors chars-per-pixel */
"28 20 150 2 ",
"   c None",
".  c #1C3602",
"X  c #1F3806",
"o  c #233C06",
"O  c #233D0A",
"+  c #254303",
"@  c #284108",
"#  c #2E490D",
"$  c #25440E",
"%  c #304E05",
"&  c #37470C",
"*  c #364A0D",
"=  c #3A490F",
"-  c #2B4215",
";  c #304214",
":  c #394715",
">  c #344918",
",  c #39521C",
"<  c #354920",
"1  c #394F22",
"2  c #365022",
"3  c #3F5429",
"4  c #424F14",
"5  c #454B1A",
"6  c #485018",
"7  c #465719",
"8  c #535D1C",
"9  c #4D4E27",
"0  c #444822",
"q  c #564D26",
"w  c #5A4F29",
"e  c #415724",
"r  c #44532B",
"t  c #445B2E",
"y  c #525120",
"u  c #5A5C20",
"i  c #585424",
"p  c #425532",
"a  c #475A34",
"s  c #495A39",
"d  c #705934",
"f  c #775A3B",
"g  c #7E5C3F",
"h  c #496132",
"j  c #4F643E",
"k  c #71662F",
"l  c #756731",
"z  c #796534",
"x  c #536444",
"c  c #586C44",
"v  c #566B4C",
"b  c #596A4B",
"n  c #667756",
"m  c #594A61",
"M  c #564A6E",
"N  c #6B7A61",
"B  c #707D65",
"V  c #737F6C",
"C  c #80673A",
"Z  c #866B3D",
"A  c #886C3E",
"S  c #845D40",
"D  c #8C6D41",
"F  c #9C6A4C",
"G  c #AC6D5A",
"H  c #B16F5E",
"J  c #A17150",
"K  c #B6785D",
"L  c #BA7A5F",
"P  c #B5765C",
"I  c #BB7363",
"U  c #B47461",
"Y  c #C27667",
"T  c #C17C64",
"R  c #CB776B",
"E  c #CB7A6C",
"W  c #738068",
"Q  c #768175",
"!  c #7A8477",
"~  c #7D8A70",
"^  c #7C857B",
"/  c #838E7F",
"(  c #86917D",
")  c #D1806E",
"_  c #D68171",
"`  c #DF8478",
"'  c #DA8274",
"]  c #E4847B",
"[  c #EB877F",
"{  c #69568C",
"}  c #705897",
"|  c #705E9D",
" . c #6E6888",
".. c #725BA3",
"X. c #755BA9",
"o. c #7B6CA6",
"O. c #7965A9",
"+. c #7B6BA9",
"@. c #7962A5",
"#. c #957D92",
"$. c #A2699A",
"%. c #BF7F97",
"&. c #8374AD",
"*. c #8B7EA3",
"=. c #A970A0",
"-. c #C1728C",
";. c #7F8780",
":. c #899381",
">. c #8F9987",
",. c #96A08A",
"<. c #98A092",
"1. c #9EA29B",
"2. c #9385B6",
"3. c #9685BB",
"4. c #9A86BE",
"5. c #9A8EBC",
"6. c #9F95B0",
"7. c #9D91BE",
"8. c #ACB3A4",
"9. c #AFB5AB",
"0. c #B6BCAF",
"q. c #BBBEBB",
"w. c #ED8781",
"e. c #EB8C89",
"r. c #F28984",
"t. c #F68A8F",
"y. c #FE8C8C",
"u. c #F2848B",
"i. c #FF8F91",
"p. c #BDC1BE",
"a. c #C0C4BF",
"s. c #BCB8C7",
"d. c #BDB3D4",
"f. c #C6BCDB",
"g. c #C8BFDC",
"h. c #C6C9C6",
"j. c #CBCEC7",
"k. c #CACCCA",
"l. c #C7C0DA",
"z. c #CEC9DB",
"x. c #D1CCDB",
"c. c #D5D6D6",
"v. c #D5D1DE",
"b. c #D7D4E0",
"n. c #DBD7E6",
"m. c #E1DDEA",
"M. c #ECEBEC",
"N. c #E8E5F0",
"B. c #EFEDF4",
"V. c #FEFFFE",
/* pixels */
"                                                        ",
"                            M.h.:.B 9.~ h.M.            ",
"                          h.( s O . < > a W             ",
"                        9.a # F R I I G & O >.          ",
"                      9.1 + + 8 E 4 0 r @ + x           ",
"                    q.a * A 5 * I > N ! p X o <.        ",
"                    V ; P i.E G Y s :.! h w w p         ",
"                    , 6 r.y.i.i.R p ;.^ v g ] 9 :.      ",
"                  ,.. I y.y.y.y.E a / ^ v f i.q j M.    ",
"                j.n q ] y.y.y.i.E e V V e H y.u t 1.    ",
"                0.. G i.y.y.y.y.) % b c : L y.I m  .{ } ",
"                t o J y.y.y.y.y.' * ; o 5 ] t.$.@.+.+.+.",
"              8.> u 8 ) i.y.y.y.y.P & o z u.$.O.&.5.5.5.",
"            8.1 q y.A ) i.y.y.y.y.y.P A y.-...o.6.V.n.l.",
"        M.8.r C I i.A k Z K y.y.y.y.y.y.y.6.+.o.*.z.z.&.",
"      c.:.r * ' i.y.] T 7 8 l ] y.y.y.y.[ #.+.o.&.2.s.v.",
"      V $ z r.y.y.y.y.y.[ [ ] y.y.y.y.y.e.>.O.4.B.N.x.3.",
"    8.r d K y.y.y.y.y.y.y.y.y.y.y.y.y.y.y.-.O.n.V.f.X...",
"  k.x & w.y.y.y.y.y.y.y.y.y.y.y.y.y.r.y.y.-...3.d.m.f.f.",
"  p.p O q q q q q q q q q q q q q q q q q 0 M X.O.3.4.x."
};
