/* XPM */
static char *thumbsupparrot_frame_3[] = {
/* columns rows colors chars-per-pixel */
"43 20 180 2 ",
"   c None",
".  c #1E3808",
"X  c #1C2D13",
"o  c #203706",
"O  c #233A04",
"+  c #223A0A",
"@  c #223712",
"#  c #2A392D",
"$  c #253230",
"%  c #274405",
"&  c #2C4A05",
"*  c #2D4B0B",
"=  c #294609",
"-  c #355200",
";  c #2B4410",
":  c #2B4716",
">  c #314815",
",  c #33581D",
"<  c #385618",
"1  c #3C641A",
"2  c #3D6315",
"3  c #2D4E29",
"4  c #344620",
"5  c #2E502B",
"6  c #3B5223",
"7  c #32552A",
"8  c #3A562B",
"9  c #355F36",
"0  c #365F39",
"q  c #3C672A",
"w  c #376238",
"e  c #40691E",
"r  c #435A2C",
"t  c #465E25",
"y  c #465C32",
"u  c #4B6622",
"i  c #416D2A",
"p  c #4D623D",
"a  c #4B6037",
"s  c #51643D",
"d  c #2E4848",
"f  c #365E56",
"g  c #305351",
"h  c #3B6943",
"j  c #3D6D49",
"k  c #3F714E",
"l  c #38635C",
"z  c #3F7553",
"x  c #3C6368",
"c  c #3F7775",
"v  c #4A5D5C",
"b  c #415F5F",
"n  c #595858",
"m  c #615F5E",
"M  c #596A44",
"N  c #546741",
"B  c #467B4B",
"V  c #457847",
"C  c #5E7540",
"Z  c #5D714E",
"A  c #417755",
"S  c #62744F",
"D  c #657554",
"F  c #4A6361",
"G  c #5B6465",
"H  c #41736F",
"J  c #427376",
"K  c #457B74",
"L  c #47757A",
"P  c #567275",
"I  c #696867",
"U  c #686868",
"Y  c #706F6F",
"T  c #6C7877",
"R  c #767575",
"E  c #4F884F",
"W  c #50884D",
"Q  c #4B8550",
"!  c #518C54",
"~  c #70845A",
"^  c #518F68",
"/  c #569769",
"(  c #529472",
")  c #758366",
"_  c #7A8B6B",
"`  c #778866",
"'  c #7E8A71",
"]  c #5CA276",
"[  c #849176",
"{  c #89957E",
"}  c #487981",
"|  c #507B82",
" . c #6E7C80",
".. c #4A8081",
"X. c #4D878B",
"o. c #4E8A88",
"O. c #518E8F",
"+. c #56918C",
"@. c #538F92",
"#. c #4F9292",
"$. c #589A98",
"%. c #6A8383",
"&. c #628E8E",
"*. c #7A8381",
"=. c #7C9C9B",
"-. c #719999",
";. c #58A38D",
":. c #63AF8B",
">. c #67B897",
",. c #67B799",
"<. c #5CA2A7",
"1. c #76A7A7",
"2. c #66BAA8",
"3. c #66B3B5",
"4. c #70C7AB",
"5. c #6FCBBD",
"6. c #6FC8B5",
"7. c #72CCB5",
"8. c #73CFBD",
"9. c #76D2BD",
"0. c #6DC5C3",
"q. c #73CBCB",
"w. c #7ECBCD",
"e. c #72C3C2",
"r. c #75D6CD",
"t. c #76D8CF",
"y. c #79DBCA",
"u. c #79D6D4",
"i. c #7CE0D2",
"p. c #7BE0D8",
"a. c #7EE4E4",
"s. c #7FE8E3",
"d. c #8C8B8A",
"f. c #878882",
"g. c #8E9983",
"h. c #8B9780",
"j. c #909B86",
"k. c #A09F9E",
"l. c #A0AE8B",
"z. c #A2AA99",
"x. c #8AA4A5",
"c. c #88BABB",
"v. c #96B7B7",
"b. c #9ABBBB",
"n. c #A4A3A3",
"m. c #A9A7A7",
"M. c #AFAEAF",
"N. c #A0A7AA",
"B. c #B3BCAA",
"V. c #BDBDBD",
"C. c #BDC4B7",
"Z. c #8CC0C0",
"A. c #91C8C7",
"S. c #98D9D9",
"D. c #AAC1C1",
"F. c #BBD9DB",
"G. c #80E6D9",
"H. c #82ECE3",
"J. c #82EDEB",
"K. c #8AECEC",
"L. c #97E8E8",
"P. c #85F1EA",
"I. c #86F4F4",
"U. c #89F9F4",
"Y. c #8CFFFE",
"T. c #89F5F5",
"R. c #95FDFD",
"E. c #A3FAFA",
"W. c #C6CBC1",
"Q. c #C2C0C1",
"!. c #CED1CA",
"~. c #CBD0C7",
"^. c #D2D6CD",
"/. c #D3D4D2",
"(. c #DCDCDC",
"). c #E0E1DF",
"_. c #C2E7E8",
"`. c #ECECED",
"'. c #E5E5E5",
"]. c #F8F7F8",
/* pixels */
"                                                                                      ",
"                            W.C.C.l.^.                                                ",
"                        `.z.s y 6 % M ' (.                                            ",
"                      /.[ 8 , 2.r.t.z : S B.                /.(.                      ",
"                    ^._ O A H.Y.t.r.5.,.* p W.            F.v *.V.].                  ",
"                    h.> B o ^ :.> < & & o o )             v.c $.T (.                  ",
"                    N ;.9.& ^ < r ~ S = o * ; W.          S.J u.=.n.                  ",
"                  { ; p.U.y.J.9 u _ _ < V y.h M '.        E.} A.x.d.                  ",
"                  j.& i.Y.Y.Y.i u _ _ > ! Y.] 8 ~.        L.L A.x.f.                  ",
"                ).) V P.Y.Y.U.q u _ ` ; E Y.I.7 [         Z.c K.b.U m.Q.k.M.(.        ",
"                ~.s B P.Y.Y.Y.,.u ' ` 8 7.Y.Y.;.D         x.X.T.I.1.%.&.+. .Y (.      ",
"                !.N ( U.Y.Y.Y.H.: C y 7 U.Y.U.Q D       _.L 3.Y.Y.Y.K.J.U.c.U (.      ",
"                `.{ , p.Y.Y.Y.J.w + o k U.Y.U.1 D `.  N.P ..J.Y.Y.Y.Y.Y.Y.c.m         ",
"                  g.= i.Y.Y.Y.Y.6.O k P.Y.Y.Y./ N D. .$ x s.Y.Y.Y.Y.Y.Y.Y.A.U '.      ",
"                  j.. y.Y.Y.Y.Y.H.,.s.Y.Y.Y.Y.I.2.#.L f X.Y.Y.Y.Y.Y.Y.Y.Y.1.R         ",
"                  [ 6 V H.P.P.Y.Y.Y.Y.Y.Y.Y.Y.Y.Y.<.@.J } I.Y.Y.Y.Y.Y.Y.R.=.d.`.      ",
"                    p q e e e 4.G.Y.Y.Y.Y.Y.Y.Y.Y.q.K #.x 5.Y.Y.Y.Y.Y.Y.L.G n.        ",
"                    Z 5./ / i - W Y.Y.Y.Y.Y.Y.Y.Y.I.c o.l l o.+.e.a.u.q.-.n V.        ",
"                    r r.Y.Y.9.>.7.Y.Y.Y.Y.Y.Y.U.Y.Y.0.} d g c X # F F v Y R           ",
"                    r 9 h V j j j h h h h h h h h h w 3 @ 3 9 . > f.m.                "
};
