/* XPM */
static char *thumbsupparrot_frame_6[] = {
/* columns rows colors chars-per-pixel */
"43 20 156 2 ",
"   c None",
".  c #1D3A00",
"X  c #1B3301",
"o  c #213B05",
"O  c #263F0B",
"+  c #2E3F16",
"@  c #224101",
"#  c #284705",
"$  c #274108",
"%  c #2A430B",
"&  c #2C4C09",
"*  c #334D0D",
"=  c #2F5501",
"-  c #335801",
";  c #38550C",
":  c #2C4312",
">  c #344B13",
",  c #304819",
"<  c #39541C",
"1  c #3C4B23",
"2  c #3D4127",
"3  c #3F5924",
"4  c #3F5229",
"5  c #395222",
"6  c #415C12",
"7  c #414C23",
"8  c #454F2D",
"9  c #42592B",
"0  c #485326",
"q  c #464731",
"w  c #4B4A36",
"e  c #4B4C38",
"r  c #514B3E",
"t  c #485430",
"y  c #485834",
"u  c #51543B",
"i  c #4E672F",
"p  c #4F643B",
"a  c #53673F",
"s  c #546B39",
"d  c #5C6334",
"f  c #5A733B",
"g  c #464042",
"h  c #564D43",
"j  c #584D46",
"k  c #52474A",
"l  c #5B4E4B",
"z  c #5D5346",
"x  c #665B4A",
"c  c #6A5459",
"v  c #6C6748",
"b  c #706350",
"n  c #756558",
"m  c #7B685E",
"M  c #786B56",
"N  c #6C7E5C",
"B  c #647653",
"V  c #775A68",
"C  c #7A596A",
"Z  c #6A5870",
"A  c #6F6460",
"S  c #6A6568",
"D  c #666765",
"F  c #7E6664",
"G  c #706073",
"H  c #736D77",
"J  c #747473",
"K  c #81626E",
"L  c #917076",
"P  c #6E815C",
"I  c #71845E",
"U  c #728363",
"Y  c #7E8E6F",
"T  c #7F8E70",
"R  c #828F76",
"E  c #829075",
"W  c #86947A",
"Q  c #704680",
"!  c #7B4781",
"~  c #794D82",
"^  c #7F5A86",
"/  c #815082",
"(  c #945799",
")  c #905292",
"_  c #876789",
"`  c #986A86",
"'  c #9C7284",
"]  c #93629A",
"[  c #A3758C",
"{  c #A36999",
"}  c #A16A95",
"|  c #AB7598",
" . c #AF789B",
".. c #A97595",
"X. c #B1789D",
"o. c #995CA5",
"O. c #A15FA4",
"+. c #A660A8",
"@. c #B56FAD",
"#. c #B676A7",
"$. c #BC7BAB",
"%. c #B473A8",
"&. c #B86BBA",
"*. c #BD72B6",
"=. c #C77EB9",
"-. c #C27DB2",
";. c #CE7BC7",
":. c #CF75D3",
">. c #DB7ED8",
",. c #D87DD3",
"<. c #878684",
"1. c #8E9882",
"2. c #908392",
"3. c #9A9B9A",
"4. c #A39A9C",
"5. c #A6AE9D",
"6. c #A1AC97",
"7. c #B787BA",
"8. c #A6A6A8",
"9. c #ACB3A5",
"0. c #B0B7A9",
"q. c #B5BBAF",
"w. c #B7BDB2",
"e. c #B8BEB3",
"r. c #CA80BC",
"t. c #C0BFBF",
"y. c #C1C5BC",
"u. c #C4C9BF",
"i. c #BF9EC4",
"p. c #CB86CB",
"a. c #D681CC",
"s. c #D882CE",
"d. c #E283DD",
"f. c #C6A0CB",
"g. c #CEBDD0",
"h. c #DD9DE1",
"j. c #EB83EA",
"k. c #E986E3",
"l. c #F085EE",
"z. c #F089EC",
"x. c #EE8CF0",
"c. c #F687F6",
"v. c #F589F3",
"b. c #F88AF6",
"n. c #FE8CFE",
"m. c #C4C4C4",
"M. c #C9CEC5",
"N. c #CBCEC8",
"B. c #CFD1CC",
"V. c #CFCFD0",
"C. c #D6D6D7",
"Z. c #DBDCDB",
"A. c #DEE0DD",
"S. c #E0E1DF",
"D. c #E9E9EA",
"F. c #F7F7F8",
/* pixels */
"                                                                                      ",
"                                                                                      ",
"                                                                                      ",
"                                      D.A.A.A.                                        ",
"                                  u.w.0.P P U 9.y.                                    ",
"                                W 5 @ > V C 1 @ y q.                                  ",
"                            6.B w { | $.n.n.r.X.V y e.                                ",
"                          S.N 2 >.$.z j.n.j.z.c.#.@ U                                 ",
"                          E q ,.n.` . >.] 2 t 8 : o a                                 ",
"                        y.9 #.n.n.=.K ;.> s Y N O # % 5.                              ",
"                      A.E # $.n.n.n.n.d.; f Y P * M t p                               ",
"                      B.< m v.n.n.n.n.d.; f Y P & [ K 9 Z.  Z.                        ",
"                      M.1 X.n.n.n.n.n.d.* f Y U = ' j.e 2.Z H 8.F.                    ",
"                      M.u a.n.n.n.n.n.l.b s Y f 7 r.b.8 g Z o.G m.                    ",
"                      N.& L n.n.n.n.n.n.*., i # c n.v.7 l ~ &.i.<.                    ",
"                      T : 0 -.n.n.n.n.n.=.& . @ K n.b.0 A ] o.p.J                     ",
"                    M.9 z L 6 7.d.n.n.n.n.} w n j.n.,.t 4./ O.f.J V.                  ",
"                    U < | [ = - d X.k.n.n.n.n.n.n.n.x 9 g.G :.h.S 3.m.8.8.C.          ",
"                  5.4 ` n.s.| ' ; - v ' b.n.b.n.n.n.@.y [ ! >.n.7._ _ ( _ D e.        ",
"                  1.X r j j l j % $ @ $ r j j z h h j k ~ ) n.n.n.n.>.n.p.D g.        "
};
