/* XPM */
static char *thumbsupparrot_frame_8[] = {
/* columns rows colors chars-per-pixel */
"43 20 177 2 ",
"   c None",
".  c #0F1D02",
"X  c #111E07",
"o  c #1A191C",
"O  c #1D3603",
"+  c #1F3904",
"@  c #213D02",
"#  c #253D0A",
"$  c #2A3F12",
"%  c #251D29",
"&  c #272F20",
"*  c #232221",
"=  c #2E3621",
"-  c #36253C",
";  c #264106",
":  c #284307",
">  c #2F4B0C",
",  c #2A450B",
"<  c #314D0B",
"1  c #325404",
"2  c #385A07",
"3  c #385A06",
"4  c #2E4018",
"5  c #2F4614",
"6  c #304618",
"7  c #35481B",
"8  c #374E16",
"9  c #385712",
"0  c #39521C",
"q  c #354421",
"w  c #3D462A",
"e  c #3F492E",
"r  c #3E4C27",
"t  c #3B5023",
"y  c #405E18",
"u  c #41571C",
"i  c #485F20",
"p  c #49552F",
"a  c #435B2B",
"s  c #435426",
"d  c #424A33",
"f  c #484B3D",
"g  c #495136",
"h  c #475038",
"j  c #475634",
"k  c #49612C",
"l  c #51622D",
"z  c #576E37",
"x  c #56643E",
"c  c #3A2B46",
"v  c #50355C",
"b  c #523B5F",
"n  c #563D61",
"m  c #593865",
"M  c #5C3B69",
"N  c #653F73",
"B  c #4C4D42",
"V  c #4C434F",
"C  c #524D4E",
"Z  c #515441",
"A  c #55495A",
"S  c #5C5657",
"D  c #585F51",
"F  c #58505B",
"G  c #605E51",
"H  c #586C44",
"J  c #5C6D4A",
"K  c #65674F",
"L  c #65684D",
"P  c #607744",
"I  c #62784E",
"U  c #656355",
"Y  c #697C57",
"T  c #6B7D5A",
"R  c #667A52",
"E  c #5D4470",
"W  c #615E63",
"Q  c #68596B",
"!  c #644472",
"~  c #6C467C",
"^  c #644678",
"/  c #6B5E7A",
"(  c #6E5876",
")  c #676667",
"_  c #6A606F",
"`  c #766C6B",
"'  c #75696D",
"]  c #7B6D72",
"[  c #766279",
"{  c #6A874B",
"}  c #71875A",
"|  c #7D8D6D",
" . c #778668",
".. c #7F817E",
"X. c #869379",
"o. c #714682",
"O. c #764C89",
"+. c #7F5E8D",
"@. c #7F5397",
"#. c #7C6C85",
"$. c #835597",
"%. c #867183",
"&. c #897287",
"*. c #85748B",
"=. c #8F768E",
"-. c #846491",
";. c #867292",
":. c #98789D",
">. c #917797",
",. c #8B5BA4",
"<. c #935FAB",
"1. c #926AA4",
"2. c #9768AE",
"3. c #9160AA",
"4. c #9C7AA4",
"5. c #9770A9",
"6. c #9B73AB",
"7. c #9B64B6",
"8. c #9F72B4",
"9. c #A069BE",
"0. c #A87DB7",
"q. c #A778BE",
"w. c #AA7DBC",
"e. c #A67DB4",
"r. c #AC7BC3",
"t. c #AE71CF",
"y. c #B27CCD",
"u. c #B678D8",
"i. c #BF7DE3",
"p. c #888789",
"a. c #828281",
"s. c #8D9882",
"d. c #909C85",
"f. c #90809B",
"g. c #969795",
"h. c #9BA68F",
"j. c #95A18A",
"k. c #9FA09F",
"l. c #A0A996",
"z. c #A5AE9C",
"x. c #A883BD",
"c. c #AF9BB7",
"v. c #A995B2",
"b. c #A4A3A5",
"n. c #ACB3A5",
"m. c #B4BCAA",
"M. c #B1B3B2",
"N. c #B7BBB3",
"B. c #BAC1B3",
"V. c #C2C6BD",
"C. c #B581CB",
"Z. c #B186C5",
"A. c #BB84D3",
"S. c #BE82DD",
"D. c #BFBCC0",
"F. c #C083DE",
"G. c #CDABD5",
"H. c #CFBFD5",
"J. c #C6B4D2",
"K. c #C384E3",
"L. c #CB89ED",
"P. c #C784E9",
"I. c #CD86F4",
"U. c #CE88F4",
"Y. c #D08AF6",
"T. c #D68CFE",
"R. c #D98DFF",
"E. c #DB91FE",
"W. c #C7CBC3",
"Q. c #D2D6CF",
"!. c #CDC5D1",
"~. c #D6D8D4",
"^. c #D7D9D6",
"/. c #E1C3EA",
"(. c #E5E6E5",
"). c #EBEBEC",
"_. c #FAFAFA",
/* pixels */
"                                                                                      ",
"                                                                                      ",
"                                                (.(.(.(.(.                            ",
"                                            ~.W.d.T z H z.^.                          ",
"                          !.D.            W.H > 7 f f f h 5 d.Q.                      ",
"                        J.#.A k._.      V.J C ] 4.R.T.I.=.' q R B.                    ",
"                      /.O.@.;...        n.O K _ Q Q y.` s Z.8.$ }                     ",
"                      G.E K./ M.        k + + 9 R a w 4 Z K.T.g j h.                  ",
"                      v.! K./ ~.      h.6 x 7 Y | } t 6.%.R.T.r.# s.                  ",
"                      v.E K.[ N.    T 6 >.R.S Y | { 0 i.T.T.R.A.> d.                  ",
"            H.b.p.g.b.W $.R.>.g.    x -.T.T.S } | | p S.T.T.R.A.< T                   ",
"            *.^ 1.4.+.3.K.T.Z.) ).X.$ i.T.T.S R | P r K.T.T.T.T.%.> n.                ",
"            *.o.I.T.Y.T.T.T.Y.Q M. .< S.T.R.U y  .a [ T.T.T.R.E.5.: N.                ",
"            *.O.T.T.T.T.T.T.T.q.A & w F.T.T.K , k : U L.T.T.T.R.1.Y ~.                ",
"            f.O.I.T.T.T.T.T.T.R.2.% c 9.T.T.e.0 @ : w.R.R.T.T.E.1.Y                   ",
"            -.N P.T.T.T.T.T.T.R.t.v ~ ~ I.T.R.0.s ] Y.T.R.R.R.K.p 8 m.                ",
"            c.! i.T.T.T.T.T.R.T.$.b $.^ I.T.T.T.L.Y.R.R.C.C.C.4.1 # m.                ",
"            H.A 7.T.T.R.T.T.I.P.M ~ ~ <.T.T.T.T.R.R.w.%.2 2 3 3 l g d.(.              ",
"              _ n <.9.q.x.( b b - ~ M u.T.T.T.R.C.` y 1 x L ` :.=.h T ^.              ",
"                p.F V V W D X X o % = f B B B B d @ : : 7 w g C d @ l.                "
};
