/* XPM */
static char *thumbsupparrot_frame_4[] = {
/* columns rows colors chars-per-pixel */
"43 20 178 2 ",
"   c None",
".  c #132201",
"X  c #1E3603",
"o  c #213A05",
"O  c #213A0B",
"+  c #253912",
"@  c #252D25",
"#  c #283832",
"$  c #2E353B",
"%  c #294405",
"&  c #2A440B",
"*  c #2A4701",
"=  c #395A08",
"-  c #375803",
";  c #2B4413",
":  c #2E4B14",
">  c #2C471C",
",  c #304D12",
"<  c #334C1A",
"1  c #384E1E",
"2  c #375818",
"3  c #385516",
"4  c #3F6017",
"5  c #2A4325",
"6  c #334D2C",
"7  c #334C26",
"8  c #3B552A",
"9  c #3D5D2B",
"0  c #36512E",
"q  c #324C32",
"w  c #385432",
"e  c #3C5A34",
"r  c #3B563A",
"t  c #3E583D",
"y  c #41592B",
"u  c #435930",
"i  c #43642B",
"p  c #436425",
"a  c #516A2E",
"s  c #4F7122",
"d  c #4F6631",
"f  c #51643B",
"g  c #55683E",
"h  c #5B733C",
"j  c #2D3B49",
"k  c #2C3A47",
"l  c #3B5743",
"z  c #3D594A",
"x  c #3C5947",
"c  c #38475F",
"v  c #344257",
"b  c #3E5C52",
"n  c #3E4660",
"m  c #3E5970",
"M  c #4E5052",
"N  c #58595A",
"B  c #45644E",
"V  c #47674A",
"C  c #5D6E4B",
"Z  c #546741",
"A  c #5D7441",
"S  c #4B6B54",
"D  c #6C7C5B",
"F  c #6A7B57",
"G  c #465060",
"H  c #465469",
"J  c #415574",
"K  c #455B7A",
"L  c #48597C",
"P  c #5A6472",
"I  c #587A77",
"U  c #6A6B6A",
"Y  c #646567",
"T  c #70706E",
"R  c #6A6E72",
"E  c #6A707B",
"W  c #757475",
"Q  c #7B7C7A",
"!  c #688449",
"~  c #6C8054",
"^  c #728656",
"/  c #5D8176",
"(  c #758563",
")  c #778866",
"_  c #7C8C6D",
"`  c #788967",
"'  c #7D8471",
"]  c #889579",
"[  c #909E7E",
"{  c #4E5C80",
"}  c #4B6386",
"|  c #506781",
" . c #50688E",
".. c #5E6D88",
"X. c #536D94",
"o. c #576D97",
"O. c #587B96",
"+. c #626D83",
"@. c #6E7787",
"#. c #627291",
"$. c #5F7AA9",
"%. c #667BA4",
"&. c #5F8286",
"*. c #5F8199",
"=. c #648989",
"-. c #768E83",
";. c #668B91",
":. c #688D95",
">. c #62859A",
",. c #698F99",
"<. c #648899",
"1. c #6A909C",
"2. c #6689A8",
"3. c #788CAF",
"4. c #6E94A8",
"5. c #6C87BC",
"6. c #6A82B7",
"7. c #6E94B1",
"8. c #7399B3",
"9. c #7C96C5",
"0. c #779EC0",
"q. c #7794CE",
"w. c #769AD4",
"e. c #7B9EDD",
"r. c #7495D0",
"t. c #7AA1C9",
"y. c #7CA3D3",
"u. c #7EA5DB",
"i. c #7FA5E8",
"p. c #878787",
"a. c #939F88",
"s. c #818393",
"d. c #9C9C9C",
"f. c #98A38C",
"g. c #A4AC9B",
"h. c #A9B598",
"j. c #859ABC",
"k. c #8C9CB9",
"l. c #9EB3BE",
"z. c #A5A4AA",
"x. c #ABABAA",
"c. c #A4A3A2",
"v. c #B2B8AB",
"b. c #A1ADBF",
"n. c #BFBFBF",
"m. c #C0BFBE",
"M. c #B7C0AA",
"N. c #B9C1AD",
"B. c #BCC1B6",
"V. c #C0C0BF",
"C. c #85A1CF",
"Z. c #86A7D9",
"A. c #92AFDD",
"S. c #A0B1CB",
"D. c #B4BECF",
"F. c #A9B8D8",
"G. c #83AAE6",
"H. c #85ADEC",
"J. c #80A5E8",
"K. c #87AFF4",
"L. c #87B0F5",
"P. c #89B1F3",
"I. c #8CB5FE",
"U. c #8FB9FF",
"Y. c #90B7FF",
"T. c #92B9FF",
"R. c #92B5F6",
"E. c #AFC2E4",
"W. c #C5C5C5",
"Q. c #C8CAC5",
"!. c #CDD1C7",
"~. c #D0D4CC",
"^. c #CFCFD0",
"/. c #DADBDA",
"(. c #D6D7D5",
"). c #C9D5EA",
"_. c #D5DDED",
"`. c #F7F7F8",
/* pixels */
"                                                                                      ",
"                                                                                      ",
"                          h.( D Z ( f.(.                                              ",
"                      !.D 8 , 2 2 : 7 f )                   /.                        ",
"                    ~.A r *.P.P.P.P.H.b Z Q.            ).P R x.`.                    ",
"                    _ 6 y.<.u.2.*.*.#.=.X C Q.          D.J o.P Q.                    ",
"                  ] ; I S * 4.r f g 3 % & X _           E.L 5.k.p.                    ",
"                ~.C < u.>.: 1.t ` _ ~ ; 5 : : B.          #.%.S.W                     ",
"                g.o >.U.I.H.&.< ) _ h 6 G.:.: F           #.%.l.W ^.                  ",
"                d q w.U.I.I.L.t ) _ ! w K.U.;.u v.      F.{ q.F.Y d.W.z.c.(.          ",
"                o e t.U.I.I.L.r ( _ s 9 K.I.I.6 ^       b.K i.I.j.@.+.o.+.U m.        ",
"                o B G.U.I.I.I.w a ) y 7.I.I.P.w f.    _.#.X.I.I.Y.P.i.L.C.Y m.        ",
"                * 8 t.U.I.I.L.i * : & u.I.I.L.r ]   z...m w.U.I.I.I.I.I.Z.Y           ",
"                1 x i.I.I.I.I./ % X V H.I.I.L.e -.-.$ k r.I.I.I.I.I.I.I.A.U Q.        ",
"                a.X 2.U.I.I.I.I.I V J.U.I.I.I.2.o.K n m L.I.I.I.I.I.U.U.j.T W.        ",
"                N.% 9 t.I.U.I.I.P.G.U.I.I.I.I.I.q.L } n e.U.I.I.I.I.I.T.j.Q /.        ",
"                N.% * i 0.t.9.I.U.U.I.I.I.I.I.I.e.K X.j $.I.I.I.U.I.I.I.E p.          ",
"                v.o V 4 - - = ;.I.I.I.I.I.I.I.I.I.X.J m j X. .$.e.w.9.3.N d.          ",
"                v.X 2.8.,.,.;.p =.I.I.I.I.I.I.I.I.w.} k j # . @ M H M U W             ",
"                v.o 6 z z z B & ; l l l l l l l l l q + 5 5 o + ' x.                  "
};
