/* XPM */
static char *thumbsupparrot_frame_12[] = {
/* columns rows colors chars-per-pixel */
"43 20 156 2 ",
"   c None",
".  c #121D0C",
"X  c #1C3505",
"o  c #1F3B03",
"O  c #233D04",
"+  c #253D0C",
"@  c #333020",
"#  c #264107",
"$  c #2A4506",
"%  c #2C440C",
"&  c #2D480D",
"*  c #2C4A03",
"=  c #304E08",
"-  c #34510A",
";  c #3F5C0D",
":  c #2A4113",
">  c #364A14",
",  c #304719",
"<  c #364A16",
"1  c #3B5113",
"2  c #39531A",
"3  c #3E5428",
"4  c #384134",
"5  c #41501C",
"6  c #52671C",
"7  c #474229",
"8  c #49402C",
"9  c #425C24",
"0  c #4E5B21",
"q  c #42572C",
"w  c #45592B",
"e  c #565F28",
"r  c #524B30",
"t  c #455A31",
"y  c #4E662E",
"u  c #596823",
"i  c #5B642A",
"p  c #546322",
"a  c #4E603A",
"s  c #51653D",
"d  c #5A723F",
"f  c #5E7E3C",
"g  c #657129",
"h  c #6A722D",
"j  c #69663C",
"k  c #6E7136",
"l  c #747E30",
"z  c #777639",
"x  c #7B7A3C",
"c  c #7A7F34",
"v  c #645F56",
"b  c #5C6D4A",
"n  c #5A7048",
"m  c #756547",
"M  c #607843",
"N  c #637B4E",
"B  c #6B685F",
"V  c #65655D",
"C  c #706857",
"Z  c #706A5F",
"A  c #687756",
"S  c #677758",
"D  c #697B59",
"F  c #647451",
"G  c #6C6960",
"H  c #757068",
"J  c #79766D",
"K  c #7E7C75",
"L  c #81744D",
"P  c #8D774E",
"I  c #8C7957",
"U  c #82755B",
"Y  c #807C70",
"T  c #62853B",
"R  c #7C8136",
"E  c #6D8251",
"W  c #728362",
"Q  c #778669",
"!  c #7B8C6B",
"~  c #7F8C72",
"^  c #84843E",
"/  c #86883D",
"(  c #8B8D3F",
")  c #878441",
"_  c #8D8E40",
"`  c #888345",
"'  c #988C4D",
"]  c #959446",
"[  c #9A924B",
"{  c #9E9A4B",
"}  c #9B8355",
"|  c #A69753",
" . c #A69A51",
".. c #868276",
"X. c #818F73",
"o. c #90887B",
"O. c #89957C",
"+. c #94907F",
"@. c #B29663",
"#. c #A09277",
"$. c #BDAB62",
"%. c #C2AF63",
"&. c #C0A16B",
"*. c #C8AF6B",
"=. c #C5B266",
"-. c #CBB56A",
";. c #CFB86C",
":. c #D4BB6F",
">. c #CCAC72",
",. c #D7BD71",
"<. c #DEBD7A",
"1. c #E1BE7F",
"2. c #DEC176",
"3. c #E2C37A",
"4. c #E9C87D",
"5. c #848C85",
"6. c #919D86",
"7. c #8F9092",
"8. c #A09A8E",
"9. c #98A28F",
"0. c #93A182",
"q. c #9DA891",
"w. c #BFA981",
"e. c #ADA691",
"r. c #A3AC9A",
"t. c #B8AE9D",
"y. c #A1A2A3",
"u. c #B4BCAC",
"i. c #DCBF8A",
"p. c #D1B584",
"a. c #CABDA5",
"s. c #EAC481",
"d. c #EFCC81",
"f. c #F0CC82",
"g. c #F7D187",
"h. c #F8D287",
"j. c #FED68C",
"k. c #FFD88E",
"l. c #FFDB90",
"z. c #F4D397",
"x. c #C1C5BC",
"c. c #C9CCC8",
"v. c #D6D9D4",
"b. c #DAD9D7",
"n. c #D6D7D6",
"m. c #DFE0DD",
"M. c #F5E6CB",
"N. c #F6EEDD",
"B. c #F4E9D6",
"V. c #DEDFE0",
"C. c #E0E1E1",
"Z. c #E6E6E9",
"A. c #EBECEC",
"S. c #F9F5EC",
"D. c #F8F7F6",
"F. c #F4F2F6",
/* pixels */
"                                    Q : X X X + 6.F.                                  ",
"                                  6.t & i 0 x % t 9.x.                                ",
"                                r., z $.3.,.j.%.x O ~ b.                              ",
"                                y O 6 i i i g =.p ; 2 E v.                            ",
"                              r.+ X O 9 W n & u O ] ( < !                             ",
"                            u.3 1 x 5 D ! ! w =.^ =.g.& S                             ",
"                            D < %.l.k D ! ! 9 1.k.j.j.' n                             ",
"                            D | j.k.j N T ! w 2.k.j.j.<.+ O.                          ",
"                            w R h.k.k b ! f - 3.j.j.k.2.* ~                           ",
"                            w [ j.j.l % n 9 - 3.k.j.k.d.h s                           ",
"                  C.t.K n.u.q [ j.j.=.< * # ) h.j.j.k.f.h a                           ",
"                M.+.m G y.A.b c h.j.k.$.% - -.k.j.j.j.h.) s                           ",
"                a.m >.Y 7.  F | j.j.k.4.] d.h.k.j.j.k.4.> t                           ",
"                e.L 1.V Z.O.< / h.j.j.j.j.k.k.j.k.k.-.] = O u.                        ",
"                +.L 1.Z v.D $ 3.k.j.j.j.j.j.k.4._ ( 6 { ) # b !                       ",
"      D.V.c.A.b...I z.H 5.+ [ j.j.k.j.j.j.j.k.h.;.;.:.k.h.) & t c.                    ",
"      8.J G K J b >.k.o.@ 1 ;.k.j.j.j.j.j.j.j.j.l.j.k.j.k.h.3.< w O.                  ",
"    B.C P i.p.&.s.h.k.w.. ` k.j.j.j.k.j.j.j.j.j.j.j.j.j.j.j.j./ # Q m.                ",
"    N.U I j.j.j.j.j.k.s.r m <.g.j.h.j.j.h.j.j.j.j.j.j.h.j.j.j.2.- 2 0.                ",
"    S.V @.j.j.j.j.j.l.l.>.8 @ 7 e e e e e e e e e e e e e e e 0 + O q.                "
};
