/* XPM */
static char *thumbsupparrot_frame_7[] = {
/* columns rows colors chars-per-pixel */
"43 20 171 2 ",
"   c None",
".  c #1D3505",
"X  c #173A00",
"o  c #1E3901",
"O  c #213C04",
"+  c #2F3E17",
"@  c #281A2E",
"#  c #362B3A",
"$  c #234102",
"%  c #264108",
"&  c #2B4609",
"*  c #2B4808",
"=  c #284505",
"-  c #335801",
";  c #37580F",
":  c #3C5B0C",
">  c #2E4811",
",  c #2E4615",
"<  c #34441D",
"1  c #344A1A",
"2  c #3E4D1D",
"3  c #344319",
"4  c #335110",
"5  c #385712",
"6  c #38521A",
"7  c #374C21",
"8  c #3E4729",
"9  c #3E4928",
"0  c #3C4B27",
"q  c #3A5224",
"w  c #4A5E1D",
"e  c #43472D",
"r  c #465026",
"t  c #405729",
"y  c #445B2E",
"u  c #465727",
"i  c #50582B",
"p  c #4B4936",
"a  c #514B3E",
"s  c #465231",
"d  c #4E5130",
"f  c #4C5F38",
"g  c #4A5E34",
"h  c #515037",
"j  c #5A5B39",
"k  c #4B6824",
"l  c #4A6229",
"z  c #4F6838",
"x  c #4D6531",
"c  c #586639",
"v  c #63653B",
"b  c #5A3C62",
"n  c #564D43",
"m  c #584D46",
"M  c #5C4E4A",
"N  c #5C5545",
"B  c #5A595C",
"V  c #66594D",
"C  c #675E4A",
"Z  c #675851",
"A  c #6E585C",
"S  c #596846",
"D  c #676344",
"F  c #667C4D",
"G  c #61635F",
"H  c #756853",
"J  c #617250",
"K  c #6F7F5F",
"L  c #7A5F64",
"P  c #6E4172",
"I  c #714577",
"U  c #7E5C70",
"Y  c #6A6868",
"T  c #7F6B60",
"R  c #7F6468",
"E  c #6E726E",
"W  c #756A77",
"Q  c #6F7370",
"!  c #875E7A",
"~  c #876A6D",
"^  c #8D6D72",
"/  c #8C6679",
"(  c #936B7E",
")  c #96727C",
"_  c #6C805B",
"`  c #768866",
"'  c #788967",
"]  c #7B8C6B",
"[  c #87967A",
"{  c #754880",
"}  c #714381",
"|  c #7D5184",
" . c #824C88",
".. c #8B5092",
"X. c #965398",
"o. c #8A6D8B",
"O. c #916383",
"+. c #827E87",
"@. c #986396",
"#. c #937499",
"$. c #A5758E",
"%. c #AA7695",
"&. c #A0739F",
"*. c #AC749B",
"=. c #AF789B",
"-. c #A37290",
";. c #B27A9E",
":. c #A863AE",
">. c #B774AB",
",. c #AF62B5",
"<. c #B367B2",
"1. c #BD74B5",
"2. c #C076B7",
"3. c #C479B9",
"4. c #BE77C0",
"5. c #C16DC2",
"6. c #CD79C7",
"7. c #CC78C8",
"8. c #868786",
"9. c #8D9981",
"0. c #989797",
"q. c #979796",
"w. c #96A18C",
"e. c #9EA995",
"r. c #A1AA98",
"t. c #9C82A0",
"y. c #A58BA8",
"u. c #A296A4",
"i. c #B782B8",
"p. c #BE8DBF",
"a. c #B198BB",
"s. c #A7A6AA",
"d. c #B0B3AC",
"f. c #B6BEAF",
"g. c #B7BDB2",
"h. c #B6B3B6",
"j. c #BDC2B8",
"k. c #C3C8BF",
"l. c #C0C6BB",
"z. c #BA99C1",
"x. c #C686C8",
"c. c #C886CB",
"v. c #D680CF",
"b. c #D882CE",
"n. c #C997C9",
"m. c #DD84D4",
"M. c #D380D5",
"N. c #D794DD",
"B. c #C6A6C8",
"V. c #CDADD5",
"C. c #DE94E2",
"Z. c #E483E0",
"A. c #E987E4",
"S. c #EE85EC",
"D. c #EE8BF0",
"F. c #F386F3",
"G. c #F78BF6",
"H. c #F88AF6",
"J. c #FE8CFE",
"K. c #F4A4FB",
"L. c #C7C8C9",
"P. c #CCCDCC",
"I. c #C9CEC5",
"U. c #DEDEDD",
"Y. c #D6D9D4",
"T. c #DFE1DE",
"R. c #E0E1DF",
"E. c #E3E5E3",
"W. c #EBEBEA",
"Q. c #EBE0EC",
"!. c #FAF9FA",
/* pixels */
"                                                                                      ",
"                                                                                      ",
"                                                                                      ",
"                                          T.U.R.W.                                    ",
"                                      j.e._ _ ] g.g.I.                                ",
"                                    e.1 = h R A * $ y w.                              ",
"                                  e.q O.=.m.J.G.;.*.@.r E f.                          ",
"                                  J * m.F.S.S.J.7.N b.1.> 9.                          ",
"                      P.h.        y . 3 s s e 3.>.X 2.J.1.8 e.                        ",
"                  !.d.W b V.    9.$ = > ' ] q d 7.R m.J.J./ z Y.                      ",
"                  P.W ,.{ z.  j.q Z v ; ' ] k r H.J.J.J.J.) * e.                      ",
"                  0.t.M.I C.  k.> -.~ 4 ' ] k i H.J.J.J.J.A.j z E.                    ",
"                  8.y.4.| K.E.' M J.H ; ' ] k r H.J.J.J.J.J.^ z R.                    ",
"                R.8.u.7.I C.T.y Z J.%.1 _ ] k ^ J.J.J.J.J.J.>.N T.                    ",
"        L.q.| s.q.Y n.D.{ z.W.q V J.J.e 4 x < Z.J.J.J.J.J.J.D l R.                    ",
"      U.Y o.>.#.#.x.F.H.X.#.Q.y C J.H.j o o 2 A.J.J.J.J.J.$.2 7 9.                    ",
"      U.Y i.J.H.J.J.J.J.2.P B.[ N A.J.m.N h 1.J.J.J.J.m.$.: >.3 J                     ",
"        B x.J.J.J.J.J.J.F.X.b W . O.J.J.J.J.J.J.J.b.$.w - - 3.~ 6 9.                  ",
"      W.Q z.J.J.J.J.J.J.J.F.P @ # <.J.J.J.J.J.A.^ c - w %.=.A.G.L g j.                ",
"        E :.J.J.J.J.J.J.J.J...b  .,./ a n n n h $ = % , M M n n p o d.                "
};
