/* XPM */
static char *thumbsupparrot_frame_2[] = {
/* columns rows colors chars-per-pixel */
"43 20 170 2 ",
"   c None",
".  c #1D3403",
"X  c #1E2F1B",
"o  c #1D311D",
"O  c #223B08",
"+  c #273615",
"@  c #26352A",
"#  c #2C4707",
"$  c #2C4A05",
"%  c #2C440C",
"&  c #2C490B",
"*  c #234006",
"=  c #304B07",
"-  c #345104",
";  c #345108",
":  c #375B0A",
">  c #375B06",
",  c #2D4511",
"<  c #2F4A14",
"1  c #274213",
"2  c #324816",
"3  c #324B1B",
"4  c #325911",
"5  c #32581A",
"6  c #33521D",
"7  c #3C661C",
"8  c #3F6D1D",
"9  c #244125",
"0  c #394E22",
"q  c #2E512C",
"w  c #3D5324",
"e  c #385F23",
"r  c #31572D",
"t  c #335C33",
"y  c #3A6425",
"u  c #3C6A23",
"i  c #3B6928",
"p  c #3F722C",
"a  c #3D6E3D",
"s  c #3F733F",
"d  c #3F793D",
"f  c #40571C",
"g  c #415B1A",
"h  c #44572E",
"j  c #475932",
"k  c #485A33",
"l  c #497B23",
"z  c #41752B",
"x  c #4A7F2C",
"c  c #526737",
"v  c #546B39",
"b  c #526737",
"n  c #447932",
"m  c #4B4C4A",
"M  c #4A5347",
"N  c #5B5B5D",
"B  c #496D48",
"V  c #5D6E4B",
"C  c #457A42",
"Z  c #4E744D",
"A  c #5B7040",
"S  c #576955",
"D  c #5B785C",
"F  c #60605B",
"G  c #60785C",
"H  c #6A795A",
"J  c #667754",
"K  c #606561",
"L  c #657867",
"P  c #677A68",
"I  c #6C766B",
"U  c #71796E",
"Y  c #706D70",
"T  c #777677",
"R  c #7B7A7A",
"E  c #737970",
"W  c #4E842B",
"Q  c #4A8336",
"!  c #518C32",
"~  c #569539",
"^  c #5DA43E",
"/  c #4A844A",
"(  c #4B8748",
")  c #50844F",
"_  c #529442",
"`  c #599D43",
"'  c #508050",
"]  c #5F8B5F",
"[  c #569655",
"{  c #549954",
"}  c #71855C",
"|  c #5AA24D",
" . c #5EA648",
".. c #5AA35A",
"X. c #60A846",
"o. c #63AD4B",
"O. c #64B14F",
"+. c #60AE56",
"@. c #66B453",
"#. c #68B754",
"$. c #69BA55",
"%. c #69BD5C",
"&. c #7D8D6E",
"*. c #768765",
"=. c #768276",
"-. c #7F9070",
";. c #63B263",
":. c #67BA65",
">. c #7AA577",
",. c #7EB07F",
"<. c #6DC25C",
"1. c #6AC263",
"2. c #6AC16A",
"3. c #73CD65",
"4. c #79DA6E",
"5. c #75D167",
"6. c #77C077",
"7. c #78C977",
"8. c #77D776",
"9. c #77D877",
"0. c #7AD97A",
"q. c #7BDD70",
"w. c #7FE677",
"e. c #7DE37D",
"r. c #808F70",
"t. c #8C997C",
"y. c #87947B",
"u. c #83ED7E",
"i. c #898989",
"p. c #8E9782",
"a. c #8E9A83",
"s. c #989897",
"d. c #979799",
"f. c #959393",
"g. c #89A787",
"h. c #96A18B",
"j. c #84B585",
"k. c #9FA896",
"l. c #9BA99B",
"z. c #94B594",
"x. c #A3AC97",
"c. c #A8A8A7",
"v. c #B0B6A9",
"b. c #B8B8B8",
"n. c #87C786",
"m. c #80C880",
"M. c #9CC39C",
"N. c #94CB9A",
"B. c #8EDE92",
"V. c #89E889",
"C. c #87F485",
"Z. c #89F987",
"A. c #8CFE8C",
"S. c #8FFF90",
"D. c #95F295",
"F. c #90FF91",
"G. c #BEC4B8",
"H. c #AAF7AA",
"J. c #C0C8B4",
"K. c #CDCECC",
"L. c #CED2C8",
"P. c #D1D2CE",
"I. c #D4D3D4",
"U. c #DDDCDD",
"Y. c #C7E7C7",
"T. c #D9FDDA",
"R. c #E0E1DF",
"E. c #E5E5E5",
"W. c #EEEDEF",
"Q. c #F6F6F7",
/* pixels */
"                                                                                      ",
"                              G.y.w z ` i 0 t.                                        ",
"                            p.h 5 @.u.A.e.@.8 *.          Y.=.c.I.                    ",
"                          p.3 $ W A. .u l $.n 2 a.        z.s Z i.W.                  ",
"                        l.0 %.7 n @.# g g 3 O . V         M./ 7.E b.                  ",
"                        j _ A.~ W { $ } &.c # p 3 y.      D.n 7.g.f.                  ",
"                      K., ` S.Z.4.o.; } &.v : 3.& c J.    H.D 6.g.i.                  ",
"                      r.& o.S.S.F.| ; } -.v : u.$.& x.    m.B V.l.T I.W.I.I.Q.        ",
"                    R.c u Z.A.A.F.o.= } &.b 8 C.A._ f L.  z.C C.B.P I =.S P d.        ",
"                    R.j z A.A.A.A.5.5 A *.w :.A.F.X.% I.T.] ..A.A.V.m.7.e.>.S U.      ",
"                    R.j z S.A.A.A.F.n % 6 O 1.F.A.q.y a.g.C 8.A.A.A.A.A.A.j.Y         ",
"                    R.k i A.A.A.A.A.! O . Q C.A.A.<.1 @ q 2.A.A.A.A.A.A.A.N.N U.      ",
"                      J i u.A.A.A.A.C.! u %.A.A.A.2.r 9 ( A.A.A.A.A.A.A.A.j.R E.      ",
"                      h., W u.F.A.A.A.A.A.A.A.A.A...) a / Z.A.A.A.A.A.A.S.>.R         ",
"                      h.< > W ~ $.A.A.A.A.A.A.A.S.;./ / t 9.A.A.S.A.A.A.D.L d.        ",
"                    E.&.# ^ ! - > O.A.A.A.A.A.A.A.e.a [ t { 9.0.C.Z.Z.C.n.N b.        ",
"                    L.j u Z.C.! l W 4.S.A.A.A.A.A.A.{ C q o o M D [ ) D K N           ",
"                    a.< O.A.A.A.A.A.A.A.A.A.A.A.A.A.u.:./ ;.e + E R R m i.            ",
"                    H 4 Z.A.A.A.Z.A.A.A.A.A.A.A.A.A.A.Z.A.A.3._ w v.U.                ",
"                    H * y y i y i i y u i i y i i y y i y i i y . w                   "
};
