/* XPM */
static char *thumbsupparrot_frame_5[] = {
/* columns rows colors chars-per-pixel */
"43 20 169 2 ",
"   c None",
".  c #1E3901",
"X  c #1E251C",
"o  c #213C03",
"O  c #263D0D",
"+  c #244202",
"@  c #27410A",
"#  c #2A4509",
"$  c #304D0B",
"%  c #355903",
"&  c #385A07",
"*  c #37580A",
"=  c #2E4911",
"-  c #2F4315",
";  c #304813",
":  c #344B1B",
">  c #34441D",
",  c #3A501C",
"<  c #3B5C17",
"1  c #364522",
"2  c #384623",
"3  c #3C4928",
"4  c #3E5723",
"5  c #445C1A",
"6  c #41551E",
"7  c #495B26",
"8  c #414832",
"9  c #474A3B",
"0  c #494D3E",
"q  c #4B5C33",
"w  c #4E543C",
"e  c #495235",
"r  c #4D6438",
"t  c #4B6036",
"y  c #51663D",
"u  c #556B3A",
"i  c #556834",
"p  c #3B2943",
"a  c #493256",
"s  c #5C3C6B",
"d  c #4C4D43",
"f  c #514F4B",
"g  c #4C5040",
"h  c #565845",
"j  c #595A4A",
"k  c #5C5C59",
"l  c #625A5C",
"z  c #576A46",
"x  c #596F43",
"c  c #5A6347",
"v  c #5B7246",
"b  c #61754E",
"n  c #676359",
"m  c #666652",
"M  c #6B7A5A",
"N  c #657754",
"B  c #61406D",
"V  c #675968",
"C  c #68586B",
"Z  c #644375",
"A  c #674972",
"S  c #6B457B",
"D  c #6A4D79",
"F  c #695872",
"G  c #71547E",
"H  c #6B656C",
"J  c #696B68",
"K  c #666563",
"L  c #716B60",
"P  c #76696E",
"I  c #6D6570",
"U  c #736A72",
"Y  c #7B6D73",
"T  c #756374",
"R  c #747473",
"E  c #7A7877",
"W  c #777278",
"Q  c #806F7A",
"!  c #6B8053",
"~  c #73865F",
"^  c #728B58",
"/  c #748364",
"(  c #7E8E6E",
")  c #778B63",
"_  c #808D73",
"`  c #88957C",
"'  c #6F4781",
"]  c #714882",
"[  c #7A4F8F",
"{  c #7A578D",
"}  c #7A6282",
"|  c #886F8C",
" . c #867282",
".. c #827A86",
"X. c #8A7487",
"o. c #836293",
"O. c #8E6A9D",
"+. c #897695",
"@. c #917693",
"#. c #98789E",
"$. c #91749B",
"%. c #8C5EA3",
"&. c #9360AF",
"*. c #9B79A2",
"=. c #9C78A9",
"-. c #9F6ABE",
";. c #9F72B4",
":. c #A17BAC",
">. c #A16ABF",
",. c #A072B7",
"<. c #A17AB7",
"1. c #A475BB",
"2. c #AD7FBE",
"3. c #A46BC1",
"4. c #A970C1",
"5. c #A872C8",
"6. c #B27ACF",
"7. c #B77ED5",
"8. c #BB7ADE",
"9. c #BC7BE0",
"0. c #7F8180",
"q. c #8E9B82",
"w. c #919D85",
"e. c #989897",
"r. c #9D9D9C",
"t. c #919192",
"y. c #96A388",
"u. c #99A390",
"i. c #A288AA",
"p. c #A9B2A1",
"a. c #B0B9A8",
"s. c #A5AAB0",
"d. c #AC84C2",
"f. c #B582CC",
"g. c #BB9DC4",
"h. c #BA84D2",
"j. c #B688D1",
"k. c #BE85D8",
"l. c #BDAAC5",
"z. c #C19FCB",
"x. c #C496DE",
"c. c #C0BBC0",
"v. c #C7B3CD",
"b. c #CEB9D6",
"n. c #CFB9D9",
"m. c #C586E5",
"M. c #C788E7",
"N. c #CB8BED",
"B. c #C682EB",
"V. c #CE89F3",
"C. c #CA84F1",
"Z. c #D68CFE",
"A. c #D98DFF",
"S. c #D28EF2",
"D. c #D292F5",
"F. c #C3C4C4",
"G. c #C6CBC1",
"H. c #CACACA",
"J. c #C3C5C9",
"K. c #CCD0C7",
"L. c #CED2CB",
"P. c #D0CFD1",
"I. c #D7D8D7",
"U. c #E0E1DF",
"Y. c #E3D6E8",
"T. c #E8D3F0",
"R. c #E5E5E5",
"E. c #ECEDEC",
"W. c #F4F4F4",
/* pixels */
"                                                                                      ",
"                                                                                      ",
"                              R.R.R.R.R.                                              ",
"                            I.w.z u ) y.L.                                            ",
"                        L./ ; 0 9 9 g ; ; /                                           ",
"                      a.r 8 Y *.Z.Z.A.X.Y 9 /                                         ",
"                      y 3 6.*., @.,.V F T w O G.        T...r.H.                      ",
"                    w., l A.h.2 > 2 r v $ o o i         b.B A W R.                    ",
"                    M > m.Z.Z.W O.7 ) ( v 3 w , p.      n.S 3.$.e.                    ",
"                    M 6 V.Z.Z.A.;.< ^ ( v } A.P : `       { %.z.E                     ",
"                    y 7 V.Z.Z.A.;.t ( ( v T A.Z.C N       o.%.g.W                     ",
"                  ` $ =.Z.Z.Z.A.1., ! _ z } A.A.;.@ p.    G 4.l.K F.E.I.H.W.          ",
"                  u.O 7.A.Z.Z.A.N.l u ~ *  .A.A.:.+ u.  v.S 9.S.| H ..F I t.          ",
"                  G.z 6.A.Z.Z.Z.k.w # t +  .A.A.h.e b Y.=.] V.Z.S.h.4.9.<.k J.        ",
"                    z 6.A.Z.Z.Z.A.| . . q h.A.Z.A.} z i.Z -.Z.Z.Z.A.Z.A.j.J s.        ",
"                  y.# j Z.Z.A.A.Z.m.m q h.A.Z.A.A.D X p &.Z.Z.Z.Z.Z.Z.Z.x.I c.        ",
"                  w.. 5 i.f.f.h.A.A.V.N.Z.Z.Z.Z.9.Z p s Z.Z.Z.Z.Z.Z.Z.A.f.R P.        ",
"                U./ h 5 * & % 5 @.f.A.A.Z.Z.Z.A.-.S ] s B.Z.Z.Z.Z.Z.Z.A.d.R J.        ",
"                K.y j @.*.m L 7 % i Y M.Z.Z.Z.A.5.S [ a 3.Z.Z.Z.Z.Z.A.D.+.0.R.        ",
"                  _ o 0 f 8 8 - o + + 9 d d d f o.' [ s ] B.8.Z.Z.Z.Z.N.U u.          "
};
