/* XPM */
static char *thumbsupparrot_frame_9[] = {
/* columns rows colors chars-per-pixel */
"43 20 178 2 ",
"   c None",
".  c #0D1607",
"X  c #1D3402",
"o  c #233B06",
"O  c #273E0E",
"+  c #25301A",
"@  c #373B2F",
"#  c #27333E",
"$  c #333838",
"%  c #264101",
"&  c #294502",
"*  c #274108",
"=  c #29420C",
"-  c #2C4A04",
";  c #375701",
":  c #375802",
">  c #365808",
",  c #2E4414",
"<  c #2F4C13",
"1  c #2A4419",
"2  c #2E491B",
"3  c #314F13",
"4  c #324C1C",
"5  c #36551A",
"6  c #3B5917",
"7  c #2F4822",
"8  c #2C4622",
"9  c #324D26",
"0  c #3B5423",
"q  c #3B532B",
"w  c #34502E",
"e  c #3C5A35",
"r  c #395536",
"t  c #435E1D",
"y  c #455B27",
"u  c #465A31",
"i  c #4A5E38",
"p  c #45672A",
"a  c #4B6736",
"s  c #587037",
"d  c #5B7539",
"f  c #2D3C4D",
"g  c #2A3843",
"h  c #303C49",
"j  c #384040",
"k  c #3B5743",
"l  c #3C5846",
"z  c #3D5A4B",
"x  c #364356",
"c  c #3A5254",
"v  c #3B4B65",
"b  c #3E526C",
"n  c #474859",
"m  c #415D56",
"M  c #566940",
"N  c #566A41",
"B  c #446155",
"V  c #47655D",
"C  c #48655E",
"Z  c #527557",
"A  c #677C4C",
"S  c #6A7C55",
"D  c #6C7E5A",
"F  c #637452",
"G  c #405668",
"H  c #49566C",
"J  c #595F67",
"K  c #565F6C",
"L  c #465C7A",
"P  c #4A5E7F",
"I  c #4E5F74",
"U  c #486663",
"Y  c #4C6B6A",
"T  c #57636E",
"R  c #5A7E6A",
"E  c #56796D",
"W  c #4F6E74",
"Q  c #5C6474",
"!  c #586976",
"~  c #517179",
"^  c #676767",
"/  c #6B6C6B",
"(  c #64676C",
")  c #6F7E60",
"_  c #636C79",
"`  c #686C74",
"'  c #6C7179",
"]  c #70757F",
"[  c #797A76",
"{  c #73885A",
"}  c #748365",
"|  c #7E8E6E",
" . c #788A63",
".. c #61867C",
"X. c #7F8D72",
"o. c #7F9070",
"O. c #8C987F",
"+. c #4A6080",
"@. c #4D6588",
"#. c #4F6A8E",
"$. c #586C8A",
"%. c #526C93",
"&. c #576C9A",
"*. c #557098",
"=. c #58719F",
"-. c #717B88",
";. c #617492",
":. c #5A76A4",
">. c #5D79A4",
",. c #627EAD",
"<. c #617EB2",
"1. c #5D818A",
"2. c #5F8199",
"3. c #698F99",
"4. c #648898",
"5. c #7F8895",
"6. c #6A909B",
"7. c #6B8FAF",
"8. c #6689A0",
"9. c #6E94A5",
"0. c #7096AA",
"q. c #6A8BB7",
"w. c #7299B2",
"e. c #759CBA",
"r. c #7196C4",
"t. c #749AC4",
"y. c #769CCE",
"u. c #7799D6",
"i. c #7B9DDB",
"p. c #7497D0",
"a. c #7AA2CA",
"s. c #79A0C5",
"d. c #7DA5D1",
"f. c #7CA3DA",
"g. c #7EA2E3",
"h. c #838281",
"j. c #919D85",
"k. c #858C9B",
"l. c #9A9A9A",
"z. c #9EA794",
"x. c #A2AB97",
"c. c #8692A3",
"v. c #92A0BA",
"b. c #A4A4A3",
"n. c #B0AFAE",
"m. c #A9B2A1",
"M. c #B2B8AB",
"N. c #B4B3B2",
"B. c #B7BDB0",
"V. c #BCC3B3",
"C. c #859ECC",
"Z. c #99AAC1",
"A. c #84A3DC",
"S. c #81AADD",
"D. c #83A5E3",
"F. c #85ACEF",
"G. c #8BAEED",
"H. c #89A8E0",
"J. c #86AEF4",
"K. c #87B0F1",
"L. c #89B1F4",
"P. c #8CB5FF",
"I. c #8FB8FF",
"U. c #97B9F4",
"Y. c #C8C7C7",
"T. c #CCCBCB",
"R. c #CACFC6",
"E. c #CED1CB",
"W. c #D2D6CC",
"Q. c #CAD3D6",
"!. c #D3D3D5",
"~. c #DDDEDC",
"^. c #D5D9D0",
"/. c #C0D1ED",
"(. c #DBDEE5",
"). c #E7E7E9",
"_. c #E5EAF1",
"`. c #EAF0F9",
/* pixels */
"                                                                                      ",
"                                                                                      ",
"                              ).                R.O.) M }  .V.                        ",
"                          Q.c.( T.            D i 7 3 5 5 3 u | ^.                    ",
"                        /.$.L ` l.          B.q W J.L.L.K.F.W e { ~.                  ",
"                        v.L A._ b.        M.u 1 4.4.4.=.e.y.8.r.4 j.                  ",
"                        c.#.A.Q ).        F X o & y s u U ..% E U 4 m.                ",
"                        k.#.A.( ~.      x.O 3 1 4 { o.S V ..4 t.e.= } ~.              ",
"              ).T.N.!.T.' %.U.' n.      N 5 e.y.4 A | S 7 9.K.P.P.Y , V.              ",
"              -.Q Q ' _ +.i.P.k.h.    x.q w.I.f.5 { | S V I.P.P.I.7.7 s               ",
"            (.T *.G.H.u.J.P.P.C./ ~.  s B I.P.f.> d o.S C P.P.P.P.w.4 o               ",
"            _.! :.P.P.I.P.P.P.J.$./ N.S B P.P.P.1.a  .t C P.P.P.P.a.w o               ",
"            `.K <.P.P.P.P.P.P.P.G.I $ @ B P.P.I.7.o < % Z I.P.P.I.9.2 -               ",
"              $.#.P.P.P.P.P.P.P.I.,.f g c P.P.P.a.e X < 6.P.P.P.P.t.w 0               ",
"              ;.@.J.P.P.P.P.P.P.P.&.v P b P.P.P.I.p.a 3.P.P.P.P.I.W = m.              ",
"              v.x i.P.P.P.P.P.P.g.v +.L >.P.P.P.P.I.f.P.P.P.P.P.w.4 6 W.              ",
"              !.n =.g.D.G.A.,.q.%.f %.v i.P.P.P.P.P.P.P.K.a.a.0.6 & 6 W.              ",
"                ^ K H H Q $ . h g # b :.P.P.P.P.P.P.P.J.R : : ; p e , W.              ",
"                      [ + X Y g.p.:.q.F.P.L.P.P.P.P.J.R a 6.3.3.s.~ , E.              ",
"                      X.O o r l l l k k k k k k k k k o 7 z z z z 8 , E.              "
};
