/* XPM */
static char *thumbsupparrot_frame_11[] = {
/* columns rows colors chars-per-pixel */
"43 20 175 2 ",
"   c None",
".  c #1D3303",
"X  c #182A17",
"o  c #233B04",
"O  c #243B09",
"+  c #264205",
"@  c #2A4505",
"#  c #2D4C06",
"$  c #28460E",
"%  c #314F06",
"&  c #314E0D",
"*  c #2F530A",
"=  c #345304",
"-  c #254015",
";  c #2A4C12",
":  c #2F4C18",
">  c #2A4418",
",  c #304814",
"<  c #31471A",
"1  c #324C1B",
"2  c #384F1E",
"3  c #2F5511",
"4  c #325617",
"5  c #385814",
"6  c #3C661A",
"7  c #3C5325",
"8  c #365927",
"9  c #364F33",
"0  c #305630",
"q  c #365B30",
"w  c #376222",
"e  c #3A6621",
"r  c #3D6B22",
"t  c #3B6928",
"y  c #3A652B",
"u  c #366035",
"i  c #3A6636",
"p  c #386438",
"a  c #3D6D3D",
"s  c #396637",
"d  c #3F723F",
"f  c #45601C",
"g  c #48771F",
"h  c #43562D",
"j  c #475A31",
"k  c #495C30",
"l  c #467722",
"z  c #4A7C23",
"x  c #40702C",
"c  c #43792A",
"v  c #4C6230",
"b  c #51633D",
"n  c #464845",
"m  c #4C4F49",
"M  c #435044",
"N  c #515959",
"B  c #576C4B",
"V  c #417440",
"C  c #447A43",
"Z  c #4B7E4C",
"A  c #507050",
"S  c #5C7D5C",
"D  c #5E735B",
"F  c #62754D",
"G  c #667B4B",
"H  c #656E5C",
"J  c #677656",
"K  c #6B795B",
"L  c #676A66",
"P  c #647160",
"I  c #6A7F69",
"U  c #637F62",
"Y  c #70746E",
"T  c #727C6D",
"R  c #6F7370",
"E  c #707071",
"W  c #787879",
"Q  c #737B71",
"!  c #518D2C",
"~  c #478034",
"^  c #4E8731",
"/  c #528E32",
"(  c #5A9C3D",
")  c #54943B",
"_  c #4A884A",
"`  c #579940",
"'  c #569A49",
"]  c #559541",
"[  c #528F52",
"{  c #5B805B",
"}  c #579A57",
"|  c #74875A",
" . c #5EA344",
".. c #5DA84F",
"X. c #59A14E",
"o. c #5BA650",
"O. c #5EAA50",
"+. c #5BA45B",
"@. c #60A947",
"#. c #60AE56",
"$. c #60AD5B",
"%. c #67BA5D",
"&. c #66B656",
"*. c #68876B",
"=. c #718261",
"-. c #7E8E6F",
";. c #798A65",
":. c #629662",
">. c #7E8F70",
",. c #7F9071",
"<. c #61A061",
"1. c #6CA96D",
"2. c #62AB62",
"3. c #64B463",
"4. c #69B267",
"5. c #6ABC6A",
"6. c #74A374",
"7. c #73BA73",
"8. c #6EC35C",
"9. c #6FC763",
"0. c #6FC966",
"q. c #6EC96E",
"w. c #72CB62",
"e. c #72CE6C",
"r. c #76D469",
"t. c #79DA6E",
"y. c #72CD72",
"u. c #7BDE71",
"i. c #75D475",
"p. c #7EE376",
"a. c #7EE47E",
"s. c #8E9C7F",
"d. c #829071",
"f. c #82EB7E",
"g. c #818083",
"h. c #878E88",
"j. c #8B848C",
"k. c #8E9983",
"l. c #889B88",
"z. c #949496",
"x. c #95A08A",
"c. c #82B583",
"v. c #99AD96",
"b. c #A5AD9C",
"n. c #A9B39C",
"m. c #A4A3A4",
"M. c #A9A7A8",
"N. c #AEAAAD",
"B. c #AFB3AB",
"V. c #B3BCA6",
"C. c #B8BEB1",
"Z. c #80C980",
"A. c #89D889",
"S. c #80E780",
"D. c #83ED83",
"F. c #87F686",
"G. c #88F886",
"H. c #8CFE8C",
"J. c #8FFF90",
"K. c #90FF91",
"L. c #92F292",
"P. c #B0C0AD",
"I. c #B7C7B7",
"U. c #B6C8B4",
"Y. c #BCCBBC",
"T. c #BBE9BB",
"R. c #C6C6C6",
"E. c #C7CCC2",
"W. c #C7D2C2",
"Q. c #D0D5C9",
"!. c #DADBDA",
"~. c #D4E5D4",
"^. c #E0E0DF",
"/. c #ECECED",
"(. c #FBFAFB",
/* pixels */
"                                                                                      ",
"                        B.m.            W.;.> ~ ( e k x.E.                            ",
"                    T.*.A E !.        Q.G c %.F.J.p...$ b b.                          ",
"                    6._ 7.W           -.O '  .l r &.H.6 @ 7 n.                        ",
"                    S q.7.j.        E.7 . - 1 f 5 & w.4 ^ o.7 C.                      ",
"                    S q.1.z.        =.: t @ F >.G # 3.e #.H.x B                       ",
"          (.!./.(.Y.A y.c.g.      n.7 6 w.= F >.G = 0.r.J.H.c k ^.                    ",
"          v.T Y z.P C D.A.g.      d.= r.w.= G >.G % w.K.H.H./ 2 k.                    ",
"        P.q 2.Z.1.3.S.H.L.I M.  V.& %.K.t.5 F d.G % w.H.H.H.f.& |                     ",
"        I.a i.H.H.H.H.H.H.4.Q N.b.@ w.J.J.' h =.v r f.J.H.H.F.4 K                     ",
"        U.s a.H.H.H.H.H.H.F.:.N n y f.H.K.' o 7 o ' K.H.H.H.F.* K                     ",
"        W.V y.J.H.H.H.H.J.J.D.p X > e.H.H.D.e . + &.J.H.H.H.F.; K                     ",
"          a 5.H.H.H.H.H.H.H.F.a V q $.H.H.H.@.e @.G.H.H.H.H.u.8 =.                    ",
"        ~.{ } H.H.H.H.H.H.H.y.0 _ u 5.J.H.H.H.G.H.H.H.H.J.u.6 7 b.                    ",
"          l.V S.G.H.H.H.S.F._ p [ C D.H.H.H.H.H.H.H.H.@.( g = 7 n.                    ",
"          h.n _ } <.c.U D 9 X a V +.H.H.H.H.H.H.H.G.( = =  .! , x.                    ",
"            M.R m L m m.H - i i 3.D.H.H.H.H.H.H.H.8.z z  .H.f.; J !.                  ",
"                  R.  k.O ] H.F.G.H.H.H.H.H.H.H.H.H.H.H.H.H.G.) : n.                  ",
"                    k.1 ..t.H.G.H.G.H.H.G.H.H.H.H.H.H.G.H.H.H.p.+ k.                  ",
"                    1 O t t t t t t t t t t t t t t t t t t t w o k.                  "
};
