/* XPM */
static char *thumbsupparrot_frame_1[] = {
/* columns rows colors chars-per-pixel */
"43 20 168 2 ",
"   c None",
".  c #1C3503",
"X  c #233E04",
"o  c #203908",
"O  c #243713",
"+  c #3F3926",
"@  c #353926",
"#  c #383837",
"$  c #254104",
"%  c #284604",
"&  c #2C4509",
"*  c #30470E",
"=  c #344B0F",
"-  c #305507",
";  c #3E5B0D",
":  c #2F4911",
">  c #2F4719",
",  c #2F4514",
"<  c #304C10",
"1  c #3E4F18",
"2  c #3B4C17",
"3  c #3B5316",
"4  c #364C20",
"5  c #394F22",
"6  c #3C5227",
"7  c #424F1E",
"8  c #445718",
"9  c #445C11",
"0  c #4A6116",
"q  c #4E5A21",
"w  c #41562F",
"e  c #44592D",
"r  c #48592C",
"t  c #545D26",
"y  c #565F28",
"u  c #4E4533",
"i  c #574F3F",
"p  c #4B5E38",
"a  c #5B513C",
"s  c #66583E",
"d  c #60543D",
"f  c #586525",
"g  c #5E6A24",
"h  c #5B622B",
"j  c #566621",
"k  c #5E7120",
"l  c #4C6333",
"z  c #4D6239",
"x  c #50643D",
"c  c #59713B",
"v  c #626B2C",
"b  c #727D2F",
"n  c #6C7032",
"m  c #7A7A3A",
"M  c #727633",
"N  c #5A5243",
"B  c #645C4B",
"V  c #566B44",
"C  c #596C47",
"Z  c #5B6D49",
"A  c #5E704D",
"S  c #756444",
"D  c #7D6B4B",
"F  c #756648",
"G  c #647A4D",
"H  c #676055",
"J  c #6A6150",
"K  c #6E695C",
"L  c #68635A",
"P  c #706651",
"I  c #796D56",
"U  c #677857",
"Y  c #6B7D59",
"T  c #657654",
"R  c #7F7053",
"E  c #666766",
"W  c #706F6E",
"Q  c #7A776F",
"!  c #79756C",
"~  c #767678",
"^  c #7B7872",
"/  c #837E3E",
"(  c #87734D",
")  c #8E7A54",
"_  c #8C7B5E",
"`  c #927F5C",
"'  c #8B7D65",
"]  c #807F7D",
"[  c #618639",
"{  c #6B854F",
"}  c #748464",
"|  c #798D67",
" . c #7C8D6D",
".. c #74816A",
"X. c #7F8C72",
"o. c #87883E",
"O. c #8A8B3E",
"+. c #83823D",
"@. c #8E8E42",
"#. c #938B4A",
"$. c #9A9749",
"%. c #9D984B",
"&. c #978058",
"*. c #9A8358",
"=. c #A49D4F",
"-. c #A49B50",
";. c #A99D54",
":. c #B29F5D",
">. c #ADA356",
",. c #B2A45A",
"<. c #9D8A65",
"1. c #83946E",
"2. c #808F70",
"3. c #86937A",
"4. c #839275",
"5. c #A68E64",
"6. c #AC9263",
"7. c #BB9E6B",
"8. c #B69965",
"9. c #BAA463",
"0. c #BDA06C",
"q. c #C3A56E",
"w. c #C5AB69",
"e. c #CCB66A",
"r. c #C2B063",
"t. c #D0B96D",
"y. c #CDAD72",
"u. c #D9BE74",
"i. c #DCB97A",
"p. c #D5B675",
"a. c #E1BD7D",
"s. c #E6C47D",
"d. c #EBCA7E",
"f. c #7F8182",
"g. c #7F8488",
"h. c #888885",
"j. c #8D8D8D",
"k. c #848381",
"l. c #8F998A",
"z. c #8E9983",
"x. c #929D87",
"c. c #9C9D9E",
"v. c #9FAA96",
"b. c #A3A3A4",
"n. c #ABABAB",
"m. c #B1B8AB",
"M. c #BABABC",
"N. c #B8BEB2",
"B. c #EECC81",
"V. c #ECC682",
"C. c #F4CC86",
"Z. c #F6D086",
"A. c #F8D287",
"S. c #FED68C",
"D. c #FFD88E",
"F. c #FFDB91",
"G. c #C4C4BA",
"H. c #C7CDBF",
"J. c #C2C2C4",
"K. c #D1D5CD",
"L. c #CDCED0",
"P. c #D3D3D4",
"I. c #DBDCDC",
"U. c #DEE0E1",
"Y. c #EBE7E0",
"T. c #EBEBEC",
"R. c #E1E2E1",
"E. c #F7F4EF",
/* pixels */
"                                    T.} X . . . 5 3.                                  ",
"                                  m.x.> ; D 8 h $ A x.                                ",
"                                K.G X #.e.F.e.V.,.h 6 H.                              ",
"                              H.c 3 ; n 9.f h h g 8 o c             I.                ",
"                              Y * ;.b X j < G { 3 . . 5 N.      Y.K ! n.E.            ",
"                            R.w h D.>.#.:.z  . .Z q m & Z       M.I *.J G.            ",
"                            v.r ,.S.F.F.9.l  . .C #.F.-.> 3.      Q 7.6.h.            ",
"                            U 1 A.S.S.F.9.p | [ C #.F.A./ 3.      j.5.y.^             ",
"                            T 9 Z.S.S.D.9.- { | z #.F.d.g V       k.6.q.W P.          ",
"                            e +.S.D.S.D.r.% l c $ %.D.Z.m x       ^ y.i.H c.J.b.b.P.  ",
"                            e o.A.S.S.D.d.n X $ q u.F.C.m x     b.R a.S.0._ ' ` ( E J.",
"                            e :.S.S.S.S.F.=.* 2 u.F.S.B.g X.    j.&.S.S.S.C.V.S.q.B J.",
"                          4.4 8 S.D.S.S.S.A.s.@.S.S.D.A.+...M.W P i.S.S.D.S.D.S.y.B   ",
"                          z.. 9 =.u.F.D.S.D.D.S.S.S.S.d.M @ # u p.D.S.S.S.S.S.D.i.J L.",
"                        | p * %.O.k O.$.A.S.S.D.S.S.S.D.w.s a S A.S.S.S.S.S.S.D.0.E J.",
"                      N.5 < =.S.Z.t.e.u.S.S.S.S.S.S.S.D.7.D ( a s.D.S.D.S.S.S.S.8.' I.",
"                    | > h B.S.S.S.D.D.D.S.S.S.S.S.S.S.S.i.D ) N 6.S.A.D.D.D.D.C.D j.  ",
"                  K.Z & -.S.S.S.S.S.S.S.S.S.S.S.S.D.S.S.S.) S S u <.<.0.a.p.y.5.N c.  ",
"                  1.: 0 Z.S.A.S.A.S.S.S.S.S.A.S.S.S.S.S.S.y.( + # k.j.] B B N E ~     ",
"                  2.. & t y y y f y y y y y y y y y t y y t 7 O l.T.  U.g.n.          "
};
