/* XPM */
static char *thumbsupparrot_frame_10[] = {
/* columns rows colors chars-per-pixel */
"43 20 182 2 ",
"   c None",
".  c #1F3504",
"X  c #1C2C1A",
"o  c #243B05",
"O  c #233C0A",
"+  c #293F0E",
"@  c #273517",
"#  c #213728",
"$  c #26393B",
"%  c #254204",
"&  c #284100",
"*  c #294609",
"=  c #2E4C0C",
"-  c #27410A",
";  c #3D590E",
":  c #395507",
">  c #2B4415",
",  c #264517",
"<  c #334C1A",
"1  c #324711",
"2  c #2D5016",
"3  c #355313",
"4  c #365D1F",
"5  c #3D6315",
"6  c #2F552B",
"7  c #3C5223",
"8  c #335428",
"9  c #294830",
"0  c #335B31",
"q  c #3B5630",
"w  c #3B6323",
"e  c #3D632A",
"r  c #3B6635",
"t  c #41691D",
"y  c #41562A",
"u  c #415729",
"i  c #475C34",
"p  c #446926",
"a  c #406D38",
"s  c #4A6031",
"d  c #51643B",
"f  c #526A30",
"g  c #4A7B3A",
"h  c #3B4240",
"j  c #34584C",
"k  c #3E5556",
"l  c #3B6944",
"z  c #3E6E4B",
"x  c #386259",
"c  c #365960",
"v  c #3D676A",
"b  c #405554",
"n  c #555A59",
"m  c #556942",
"M  c #5D6E4B",
"N  c #45794B",
"B  c #447854",
"V  c #417350",
"C  c #627944",
"Z  c #647451",
"A  c #697856",
"S  c #707F5D",
"D  c #4D5F64",
"F  c #4D6466",
"G  c #526363",
"H  c #44736D",
"J  c #466E72",
"K  c #447275",
"L  c #48787F",
"P  c #597C7D",
"I  c #587674",
"U  c #636565",
"Y  c #62686B",
"T  c #6E7166",
"R  c #71716D",
"E  c #616C74",
"W  c #657675",
"Q  c #4C824C",
"!  c #48815F",
"~  c #4B8357",
"^  c #508B5B",
"/  c #72855D",
"(  c #4A8766",
")  c #5B9D6C",
"_  c #4E897E",
"`  c #4F9176",
"'  c #758464",
"]  c #788A67",
"[  c #7D8D6D",
"{  c #78856A",
"}  c #67807E",
"|  c #5FA67B",
" . c #4B8282",
".. c #4B8988",
"X. c #4F8E82",
"o. c #518D8E",
"O. c #50908F",
"+. c #589797",
"@. c #618E8E",
"#. c #748789",
"$. c #7E9D9D",
"%. c #739696",
"&. c #5FAB8B",
"*. c #5FAD98",
"=. c #66B38C",
"-. c #64B292",
";. c #69BB9B",
":. c #64B59A",
">. c #599BA0",
",. c #5FABAA",
"<. c #66A6A6",
"1. c #7CA2A3",
"2. c #64B6A4",
"3. c #6ABEA6",
"4. c #7EBDBD",
"5. c #6DC2A6",
"6. c #6DC4AE",
"7. c #6AC1B1",
"8. c #72C6B8",
"9. c #74D0B9",
"0. c #72BBC2",
"q. c #6EC5C9",
"w. c #72CDCD",
"e. c #70CCC1",
"r. c #75D6CC",
"t. c #7BDDCB",
"y. c #77D7CB",
"u. c #79DBD3",
"i. c #7BDDDC",
"p. c #7BD5D6",
"a. c #7DE0CF",
"s. c #7DE1D2",
"d. c #7EE4DD",
"f. c #7EE5E5",
"g. c #828382",
"h. c #8C8B8A",
"j. c #888987",
"k. c #939E87",
"l. c #8C8F90",
"z. c #8D9595",
"x. c #999999",
"c. c #94A088",
"v. c #A0AE8C",
"b. c #A4AD9B",
"n. c #9AA6A5",
"m. c #99B0B3",
"M. c #B0AEAE",
"N. c #ACB4A5",
"B. c #B4BAAD",
"V. c #B1B7AA",
"C. c #A8BBBC",
"Z. c #BFBEBE",
"A. c #BBC2B4",
"S. c #C3C3BF",
"D. c #C5CCBB",
"F. c #8CCECE",
"G. c #9DC7C8",
"H. c #B5C6C5",
"J. c #A9CFD1",
"K. c #82ECE5",
"L. c #85E5E4",
"P. c #91EBEB",
"I. c #86F2EB",
"U. c #85EEF0",
"Y. c #87F3F3",
"T. c #89F7F6",
"R. c #8CFEFE",
"E. c #89F9F5",
"W. c #90FFFF",
"Q. c #BCE7E7",
"!. c #CBCEC7",
"~. c #CFD3CB",
"^. c #D2D0CF",
"/. c #D3D3D3",
"(. c #DCDEDB",
"). c #D9DBD6",
"_. c #D4E1E4",
"`. c #DDFCFB",
"'. c #E4E4E3",
"]. c #ECECEC",
"[. c #F2F1F4",
"{. c #F8F8F8",
/* pixels */
"                                                                                      ",
"                          H.n.Z.                [.D.v.A.A.~.                          ",
"                      `.G.P G x.{.            ~.{ s % q i M A.                        ",
"                      Q...<.%.g.            b.d , ` u.r.&.2 s c.(.                    ",
"                      J.J L.I !.          N.7 8 7.9.r.s.R.u.0 > k./.                  ",
"                      m.K L.I /.        !.M . O = * 7 8 ;.N O N < N.                  ",
"              [./.{.].n.J P.W M.        b.o - . < C / 3 r Q 3 d.( A                   ",
"            C.z.R #.l.F <.W.1.h.      ~.y ( y.5 s [ ] ; ! I.t.R.3.- N.                ",
"            #.K q.4.<.q.T.R.F.U '.    B.2 5.R.p u [ ] ; ^ R.R.R.5.& B.                ",
"            1...Y.R.R.R.R.R.T.P j.  ].Z V R.E.w 7 [ { ; ~ R.R.R.a.r c.'.              ",
"            #.O.T.R.R.R.R.R.R.p.E U h.q 7.R.R.-.u [ ] p 9.R.R.W.a.r A (.              ",
"            z...T.R.R.R.R.R.R.W.0.$ h @ | R.R.d.* m f 0 R.R.R.R.K.B / (.              ",
"            @.K U.R.R.R.R.R.R.R.q.c o.X Q W.R.K.0 O O B T.R.R.R.6.= V.].              ",
"            G.v i.R.R.R.R.R.R.T.+.v _ # -.R.R.W.u.0 * d.R.R.R.W.5.% V.                ",
"            _.F <.T.R.W.R.Y.f.d.x ..j X.R.R.R.R.R.r.;.T.R.R.R.W.2.. V.                ",
"              Y k O.>.<.1.W b $ #  .v f.R.R.R.R.R.R.W.R.R.I.I.t.e i                   ",
"                x.n n U R T @ 9 j  .w.R.R.R.R.R.R.R.R.s.=.5 5 5 8 Z                   ",
"                      /.{ . z f.T.T.R.R.R.R.R.R.R.R.E.e : g ) =.:.'                   ",
"                      Z 0 *.f.R.R.R.T.R.R.R.R.T.R.E.T.5.:.s.R.R.2.d                   ",
"                    ] > > V z r l l l l l l l l l l l z z z l l 6 d                   "
};
