/* XPM */
static char *nyan_parrot_frame_3[] = {
/* columns rows colors chars-per-pixel */
"28 20 147 2 ",
"   c None",
".  c #1C3603",
"X  c #1C3F00",
"o  c #243A0B",
"O  c #243B07",
"+  c #2D3B1C",
"@  c #343D17",
"#  c #343D1B",
"$  c #403B1F",
"%  c #7D3205",
"&  c #62301B",
"*  c #433E22",
"=  c #4B3C27",
"-  c #543B2D",
";  c #1C4000",
":  c #1E5303",
">  c #1F4C19",
",  c #2E4819",
"<  c #33451B",
"1  c #324525",
"2  c #3E5329",
"3  c #7B5505",
"4  c #7B6405",
"5  c #4C432A",
"6  c #51412E",
"7  c #505120",
"8  c #564532",
"9  c #5B4335",
"0  c #585036",
"q  c #62473A",
"w  c #615630",
"e  c #4E4E45",
"r  c #6A4841",
"t  c #7A4D4D",
"y  c #685645",
"u  c #6D565E",
"i  c #654855",
"p  c #566A49",
"a  c #5E714E",
"s  c #6A7658",
"d  c #7A4F62",
"f  c #DE1401",
"g  c #FF0D00",
"h  c #FF1900",
"j  c #FF2900",
"k  c #FF3900",
"l  c #FF3700",
"z  c #89702E",
"x  c #FF5600",
"c  c #952C5D",
"v  c #874F57",
"b  c #83565A",
"n  c #9B4C65",
"m  c #9C4869",
"M  c #9A5669",
"N  c #955874",
"B  c #A7466B",
"V  c #A45B6B",
"C  c #B94F7B",
"Z  c #B24974",
"A  c #AE5976",
"S  c #A35E70",
"D  c #B6577A",
"F  c #9B636F",
"G  c #8F6E7D",
"H  c #A46374",
"J  c #A4717B",
"K  c #7A8703",
"L  c #40AC00",
"P  c #33D203",
"I  c #34F714",
"U  c #2DE838",
"Y  c #2EEA33",
"T  c #45FD06",
"R  c #50FF00",
"E  c #5FFF00",
"W  c #62FF00",
"Q  c #FF8100",
"!  c #FF8B00",
"~  c #FF9600",
"^  c #FFA500",
"/  c #FFAF00",
"(  c #FFB100",
")  c #9CFF00",
"_  c #FFCD00",
"`  c #C6E200",
"'  c #C5FF00",
"]  c #DBFF00",
"[  c #FFF700",
"{  c #FFFD00",
"}  c #F2FF00",
"|  c #4734A4",
" . c #3944A4",
".. c #0E70A6",
"X. c #5936FF",
"o. c #5A38FF",
"O. c #632AFF",
"+. c #1E78FF",
"@. c #1E77FF",
"#. c #3362FF",
"$. c #7148E9",
"%. c #7948FF",
"&. c #BF578C",
"*. c #AC7B87",
"=. c #BD6B95",
"-. c #C34583",
";. c #C05582",
":. c #DB5595",
">. c #D75D95",
",. c #E6569D",
"<. c #DC669B",
"1. c #DE6A9C",
"2. c #D66597",
"3. c #C5779A",
"4. c #E0649B",
"5. c #E75BA1",
"6. c #EF5CA5",
"7. c #F55DA9",
"8. c #EB66A5",
"9. c #E46AA2",
"0. c #F563AB",
"q. c #F964AE",
"w. c #F36AAC",
"e. c #E175A6",
"r. c #FC65B2",
"t. c #FE6BB4",
"y. c #FF6CB9",
"u. c #EF7FB7",
"i. c #F972B6",
"p. c #FE74BC",
"a. c #FF78BB",
"s. c #FF7FC1",
"d. c #1CCC80",
"f. c #069CDD",
"g. c #1483FF",
"h. c #009AFD",
"j. c #0791FE",
"k. c #02A0EF",
"l. c #ABB1A4",
"z. c #F686BE",
"x. c #FF82C1",
"c. c #FE8AC4",
"v. c #FF93CD",
"b. c #E9B0CB",
"n. c #D1D4CE",
"m. c #D5D8D3",
"M. c #EDECED",
/* pixels */
"                                                        ",
"                                                        ",
"                                                        ",
"                                                        ",
"          g h g g h f & 6 5                 = - =       ",
"g g g g g h l k j j % c r.V ;             X M 7.Z o     ",
"k k k k k x Q x x ~ 3 c p.4.w O         . 0 1.q.C o     ",
"! ! ! ! ! ~ ^ ^ ^ ( 4 c i.r.4.D * @ @ $ B >.r.0.C o     ",
"( ( ( ( / _ { [ { { K c i.q.r.0.:.:.>.:.6.q.0.r.C O     ",
"{ { { { { } ] ] ] ` z -.r.q.7.r.q.q.q.0.q.0.r.r.:.y     ",
"' ' ' ' ' ) E W W L m r.7.u.b.F ,.q.0.t.0.z.*.M t.H     ",
"R R R R R T I I P : n r.r.3.p < :.0.i.b ,.=.1 e i.S     ",
"U U U U Y d.k.f.> . n y.s.3.u d 5.q.y.N ,.&.i G c.H     ",
"h.h.h.h.h.j.g...1 5 n p.c.c.w.&.8.r.;.9.r.>.2.s.v.J     ",
"@.@.+.@.+.#. .+ A 4.v 9.x.p.,.- <.q.r 3.a.M M p.e.y     ",
"X.X.X.X.o.| + 7 w.y.<.v 8.r.5.- 9 q * 0 y 5 A w.B <     ",
"O.O.%.$.| # A w.t.t.t.w.r.t.t.w.8.8.8.8.8.8.1.8 s       ",
"    l.a @ A y.y.t.t.t.t.t.t.t.t.t.t.t.t.t.y.t , n.      ",
"M.l.2 o A t.r.t.t.t.t.t.t.t.t.t.t.t.t.t.t.t.t , m.      ",
"m.s . o 8 8 8 6 8 8 8 8 8 8 8 8 6 8 8 8 6 8 < p         "
};
