/* XPM */
static char *nyan_parrot_frame_4[] = {
/* columns rows colors chars-per-pixel */
"28 20 154 2 ",
"   c None",
".  c #1B3505",
"X  c #233909",
"o  c #233F06",
"O  c #333A0E",
"+  c #363D11",
"@  c #393F13",
"#  c #2C3339",
"$  c #353C3E",
"%  c #5D2D08",
"&  c #5E3308",
"*  c #453C15",
"=  c #4F3D1B",
"-  c #35470E",
";  c #225506",
":  c #31530F",
">  c #2F451A",
",  c #3B4816",
"<  c #355017",
"1  c #384B24",
"2  c #5A4807",
"3  c #53441F",
"4  c #485010",
"5  c #5A501A",
"6  c #576707",
"7  c #494820",
"8  c #564520",
"9  c #5C4420",
"0  c #4C5427",
"q  c #5D5828",
"w  c #47463D",
"e  c #4B5A31",
"r  c #634726",
"t  c #754B2E",
"y  c #7D552E",
"u  c #655F3D",
"i  c #7C5B3E",
"p  c #795435",
"a  c #754D45",
"s  c #7B5047",
"d  c #6D5550",
"f  c #656946",
"g  c #786244",
"h  c #7E785E",
"j  c #677E64",
"k  c #B13E35",
"l  c #FF0D00",
"z  c #FF1C00",
"x  c #FF1600",
"c  c #FF2900",
"v  c #8F4832",
"b  c #9A4E3A",
"n  c #944B36",
"m  c #865338",
"M  c #9C553F",
"N  c #BD413E",
"B  c #FF5400",
"V  c #FF7100",
"C  c #FF7F00",
"Z  c #9C5B46",
"A  c #8F5052",
"S  c #AF5943",
"D  c #B25A49",
"F  c #BD584A",
"G  c #AE6042",
"H  c #B66548",
"J  c #BE6658",
"K  c #9E6E6B",
"L  c #907170",
"P  c #BA7163",
"I  c #D34F4D",
"U  c #C0564A",
"Y  c #CA564D",
"T  c #D2534E",
"R  c #C65A51",
"E  c #C95C51",
"W  c #DA5753",
"Q  c #E55B58",
"!  c #CA695D",
"~  c #C86855",
"^  c #D3625B",
"/  c #D9635C",
"(  c #D36854",
")  c #C36664",
"_  c #D76B63",
"`  c #EE6F6C",
"'  c #F56565",
"]  c #F86465",
"[  c #F36966",
"{  c #FE6C6C",
"}  c #E87066",
"|  c #F7706F",
" . c #FF6F70",
".. c #E57572",
"X. c #EF7978",
"o. c #FF7272",
"O. c #FE7B7C",
"+. c #F17977",
"@. c #45AC03",
"#. c #31D914",
"$. c #39FE02",
"%. c #35F913",
"&. c #49FF01",
"*. c #62FF00",
"=. c #77FF00",
"-. c #78FF00",
";. c #1DCC7F",
":. c #878C04",
">. c #FF8000",
",. c #FF9D00",
"<. c #F99600",
"1. c #FFA400",
"2. c #9FFF00",
"3. c #FFCD00",
"4. c #C8E201",
"5. c #DCFF00",
"6. c #FFE900",
"7. c #ECFF00",
"8. c #FFF700",
"9. c #FFFE00",
"0. c #F5FD00",
"q. c #0E7B92",
"w. c #0E70A6",
"e. c #5D36FE",
"r. c #642CFF",
"t. c #3163FF",
"y. c #464DFF",
"u. c #4F42FB",
"i. c #FF7F80",
"p. c #0BAECC",
"a. c #0CB0C7",
"s. c #098CFF",
"d. c #1285FF",
"f. c #0795F9",
"g. c #04A2EC",
"h. c #929D87",
"j. c #84809B",
"k. c #B58282",
"l. c #99A790",
"z. c #A6B09D",
"x. c #A3B192",
"c. c #AEBBA0",
"v. c #B5BFA6",
"b. c #DD8981",
"n. c #EF8884",
"m. c #FF8383",
"M. c #FD8B8B",
"N. c #F78E8E",
"B. c #EF9A99",
"V. c #FF9393",
"C. c #F79090",
"Z. c #FF9EA0",
"A. c #BAC1B3",
"S. c #EAEAEB",
/* pixels */
"                                                        ",
"                                                        ",
"                                                        ",
"l l l l l               O @                   @ @ @     ",
"z z z z z x l l l l l & k ` p               ; F Q v     ",
"V V V V V B c c c c c & N i.H -           . q ` { b     ",
",.,.,.,.,.<.C C >.>.>.2 N i.o.~ v X X X * v _ o.{ b     ",
"6.6.6.6.6.3.1.1.1.1.<.2 N m. .o.' U U U Y ]  . .{ b     ",
"7.7.7.7.7.0.8.8.9.9.:.= I O.{ {  . .{  . . .{  .o.D 7   ",
"-.=.-.-.=.2.5.5.5.4.6 R  .{ M.B.J |  .{ O.{ N.P ) O.i   ",
"$.$.$.$.$.&.*.*.*.@.. E  .o.k.j 8 ' o.X.Z ' k.1 d O.i   ",
"a.a.a.a.p.;.%.%.#.; X E O.m.K w a ]  .X.s { A w L V.i   ",
"s.s.s.s.s.f.g.g.q.4 , E m.V.C...^ {  .^ +.o./ ..N.Z.g   ",
"y.y.y.y.y.t.d.w.> H S M i.V.m.T r  .{ r n.m.m ! m.b.u   ",
"r.r.r.r.r.e.u.$ S { { S Z o.o.W * p t , g i 7 ! | n     ",
"          j.# 7 ' { { { / { O.| ! ! ! ! ! ~ ( ..3 L     ",
"        z.: 4 ( { { { { { { { { { { { { { { { [ 1 l.    ",
"      x.f m ( { { { { { { { { { { { { { { { { G e z.    ",
"  S.h.< 5 { { { { { { { ] ] { { { { { { { { { G e A.    ",
"  A.: . - 3 3 3 3 3 3 3 5 3 3 3 3 3 3 3 3 3 3 3 , z.    "
};
