/* XPM */
static char *nyan_parrot_frame_1[] = {
/* columns rows colors chars-per-pixel */
"28 20 235 2 ",
"   c None",
".  c #1A3300",
"X  c #213C08",
"o  c #273D0F",
"O  c #2D3A16",
"+  c #2E3F15",
"@  c #2F3B18",
"#  c #28381D",
"$  c #323C1C",
"%  c #363E2F",
"&  c #2E470B",
"*  c #2B4010",
"=  c #2F4516",
"-  c #2C411E",
";  c #304C15",
":  c #364F15",
">  c #384918",
",  c #34501F",
"<  c #374121",
"1  c #384121",
"2  c #384221",
"3  c #394422",
"4  c #3E4C29",
"5  c #45492C",
"6  c #41552C",
"7  c #474532",
"8  c #494336",
"9  c #484634",
"0  c #474A32",
"q  c #474E33",
"w  c #4C4C34",
"e  c #48433A",
"r  c #4C4339",
"t  c #4D443A",
"y  c #4E443B",
"u  c #4F453C",
"i  c #4F4A3C",
"p  c #50453D",
"a  c #50483D",
"s  c #4E5239",
"d  c #4D5439",
"f  c #525037",
"g  c #573A46",
"h  c #5B3A4A",
"j  c #5D3A4A",
"k  c #484C49",
"l  c #4A4A4C",
"z  c #564D43",
"x  c #584D45",
"c  c #594E47",
"v  c #5C4D4A",
"b  c #5C4F4A",
"n  c #495942",
"m  c #5A5A54",
"M  c #614F4F",
"N  c #624F51",
"B  c #645452",
"V  c #755A5F",
"C  c #6E4D60",
"Z  c #6C486C",
"A  c #7A486F",
"S  c #685266",
"D  c #775F67",
"F  c #7C5874",
"G  c #7E6466",
"H  c #71706D",
"J  c #766074",
"K  c #942614",
"L  c #F70F00",
"P  c #FF0D00",
"I  c #CB2D00",
"U  c #FF2900",
"Y  c #CA7000",
"T  c #804A75",
"R  c #80627D",
"E  c #91687A",
"W  c #93697F",
"Q  c #30E710",
"!  c #34F714",
"~  c #35F714",
"^  c #35F715",
"/  c #59EE00",
"(  c #61FF00",
")  c #62FF00",
"_  c #7A896A",
"`  c #9CA115",
"'  c #CA8C00",
"]  c #FF8000",
"[  c #FF8100",
"{  c #FFA400",
"}  c #FFA600",
"|  c #CDD000",
" . c #D7FA00",
".. c #DAFF00",
"X. c #FFF700",
"o. c #FFFA00",
"O. c #808F72",
"+. c #5E31DD",
"@. c #642BFF",
"#. c #6C35FF",
"$. c #117DE8",
"%. c #4B40EA",
"&. c #5041FF",
"*. c #5141FF",
"=. c #8E5484",
"-. c #8E5D82",
";. c #905A84",
":. c #93548A",
">. c #95548B",
",. c #9F5997",
"<. c #8D6C80",
"1. c #966289",
"2. c #9A7182",
"3. c #9B6590",
"4. c #AF719F",
"5. c #AC5DA5",
"6. c #AC60AA",
"7. c #B267AB",
"8. c #B362AD",
"9. c #B26FAB",
"0. c #B464B3",
"q. c #BA62B6",
"w. c #B16EB2",
"e. c #BA68B4",
"r. c #BA6DBA",
"t. c #BD70B6",
"y. c #C25CBF",
"u. c #C06CB7",
"i. c #C267BD",
"p. c #C25DC0",
"a. c #C35DC1",
"s. c #C76CC3",
"d. c #C676C0",
"f. c #C870C8",
"g. c #D367D2",
"h. c #D465D4",
"j. c #D666D5",
"k. c #D46FD1",
"l. c #D863D9",
"z. c #DF6DDF",
"x. c #D77DD3",
"c. c #DC77D9",
"v. c #DC76DA",
"b. c #DD78DA",
"n. c #E06EDF",
"m. c #E070DF",
"M. c #E069E0",
"N. c #E06AE1",
"B. c #E16BE2",
"V. c #E06FE0",
"C. c #E174E0",
"Z. c #E374E3",
"A. c #E570E5",
"S. c #E572E4",
"D. c #E573E5",
"F. c #E772E7",
"G. c #E477E4",
"H. c #E477E5",
"J. c #E67DE3",
"K. c #E678E5",
"L. c #E77AE5",
"P. c #E57CE5",
"I. c #E87EE6",
"U. c #E874E8",
"Y. c #E875E8",
"T. c #E976E9",
"R. c #E977E9",
"E. c #EA74EA",
"W. c #EA75EB",
"Q. c #EA77EA",
"!. c #EB76EB",
"~. c #EA77EB",
"^. c #EB77EB",
"/. c #EB76EC",
"(. c #EC75ED",
"). c #EC76EC",
"_. c #ED76ED",
"`. c #ED77ED",
"'. c #E97BE9",
"]. c #EB78EB",
"[. c #EC79EC",
"{. c #ED79ED",
"}. c #ED79EE",
"|. c #EE78EE",
" X c #ED7AEE",
".X c #EE7BEE",
"XX c #EE7EED",
"oX c #EF7DEF",
"OX c #F079F0",
"+X c #F17AF1",
"@X c #F17BF2",
"#X c #F07DF0",
"$X c #F17CF1",
"%X c #F17DF2",
"&X c #F27DF3",
"*X c #F37CF4",
"=X c #0399D5",
"-X c #1383FF",
";X c #1384FF",
":X c #03A2EB",
">X c #969F8B",
",X c #97A48C",
"<X c #B38DAC",
"1X c #ABB2A4",
"2X c #B7BFB1",
"3X c #BFBCD0",
"4X c #CF83C3",
"5X c #D285D2",
"6X c #D4A3D0",
"7X c #E882E5",
"8X c #E983E7",
"9X c #EA83E8",
"0X c #EC87EA",
"qX c #EF86ED",
"wX c #EE96EC",
"eX c #F285F1",
"rX c #F485F3",
"tX c #F584F5",
"yX c #F684F6",
"uX c #F38AF3",
"iX c #F886F8",
"pX c #F98BF9",
"aX c #FC8BFB",
"sX c #FD8BFC",
"dX c #FC8AFD",
"fX c #FD8BFD",
"gX c #FF8BFF",
"hX c #FE8CFE",
"jX c #FF8CFF",
"kX c #FF8DFF",
"lX c #FE8FFF",
"zX c #FE91FE",
"xX c #FF93FF",
"cX c #EAB6EB",
"vX c #D4D6D2",
/* pixels */
"                                                        ",
"                                                        ",
"                                                        ",
"                                                        ",
"P P P P L K e a                   u r                   ",
"U U U U I j l.c.>               f m.j.r                 ",
"] ] ] [ Y h M.XXE &           + 4.R.z.y                 ",
"{ { { } ' h B.%XK.u.C O $ @ A q. X^.n.t                 ",
"X.X.X.o.| g N.#X~.|.g.y.a.p.h.W.~.Q.V.8                 ",
"...... .` >.A.{.F.).}.Q.Q.Q.Q.Q.E.@XY.-.                ",
"( ( ) / s U.].G.cX<X8./.T.[..X'.6XF f.I.1               ",
"~ ! ^ Q d S.].P.H , =.(.&X9.,.H.m - w.J.<               ",
":X:X:X=Xk D.yXuXR S 0.!.+Xr.6.Z.Z J 5X0X2               ",
"-X;X;X$.l `.lXxXiXi.s.|.k.e.$XC.7.tXzXwX3               ",
"&.*.&.%.% V 4XdXOXT ;.*X5.D pXb.v oXtX<.o               ",
"@.@.#.+.# * 1. X_.:.9 N p 0 B b M L.v.7 X               ",
"    3Xn w qX3.x.gXrX8X7X8X9X7X7XeXt.5 = O.              ",
"    _ : 2.jXhXhXjXjXjXjXjXjXjXjXjXkXG ; vX              ",
"  1X6 W aXfXsXsXsXsXsXsXsXsXsXsXsXjXd.q ,X              ",
"  >X. i x z z z z z z z z z z z z z c 4 2X              "
};
