/* XPM */
static char *nyan_parrot_frame_9[] = {
/* columns rows colors chars-per-pixel */
"28 20 213 2 ",
"   c None",
".  c #1E3602",
"X  c #1F3602",
"o  c #223A03",
"O  c #233C00",
"+  c #233D02",
"@  c #203807",
"#  c #233C06",
"$  c #243E04",
"%  c #213808",
"&  c #223A0B",
"*  c #223B0B",
"=  c #353E28",
"-  c #264005",
";  c #2A4602",
":  c #2B4606",
">  c #2C430F",
",  c #2C480F",
"<  c #284010",
"1  c #2B451B",
"2  c #2C451A",
"3  c #314719",
"4  c #384D1E",
"5  c #38551C",
"6  c #2C4621",
"7  c #2D4621",
"8  c #334022",
"9  c #304B2B",
"0  c #3D5424",
"q  c #2F4A30",
"w  c #304C36",
"e  c #334F3C",
"r  c #355130",
"t  c #355137",
"y  c #33503C",
"u  c #34503C",
"i  c #34503D",
"p  c #35513E",
"a  c #3B563F",
"s  c #405730",
"d  c #425639",
"f  c #435B3E",
"g  c #44653E",
"h  c #476839",
"j  c #54683E",
"k  c #383D40",
"l  c #2D4A46",
"z  c #2F4C4B",
"x  c #2F4B4C",
"c  c #2F4C4D",
"v  c #314E42",
"b  c #375341",
"n  c #3A5643",
"m  c #3B5743",
"M  c #3B5845",
"N  c #3C5847",
"B  c #3B584C",
"V  c #3C594E",
"C  c #38565B",
"Z  c #3E5D61",
"A  c #494E41",
"S  c #4E5553",
"D  c #425F51",
"F  c #556941",
"G  c #637350",
"H  c #667556",
"J  c #456460",
"K  c #4D6D60",
"L  c #47666D",
"P  c #4E7067",
"I  c #537561",
"U  c #47687E",
"Y  c #48697F",
"T  c #517178",
"R  c #56757B",
"E  c #C41700",
"W  c #C92C00",
"Q  c #BD7F02",
"!  c #C96E00",
"~  c #6E8058",
"^  c #899879",
"/  c #8B997E",
"(  c #5C4E99",
")  c #486A80",
"_  c #496B82",
"`  c #486B86",
"'  c #4E7088",
"]  c #5A7A86",
"[  c #547091",
"{  c #5B7E97",
"}  c #5B7E9B",
"|  c #5C789D",
" . c #577CAA",
".. c #587DA8",
"X. c #5735C3",
"o. c #65898D",
"O. c #638395",
"+. c #638396",
"@. c #648496",
"#. c #60829A",
"$. c #648598",
"%. c #648599",
"&. c #61839C",
"*. c #62849E",
"=. c #6A8899",
"-. c #698C9B",
";. c #5D82AF",
":. c #5B81B8",
">. c #6C86A5",
",. c #6588A5",
"<. c #698EA7",
"1. c #668AAF",
"2. c #6D93A5",
"3. c #6186B1",
"4. c #6F87B5",
"5. c #6D8FB0",
"6. c #668BBC",
"7. c #6C92BC",
"8. c #6D8CC1",
"9. c #6D93C6",
"0. c #7194C7",
"q. c #7392C8",
"w. c #769BCE",
"e. c #789DCD",
"r. c #779FD3",
"t. c #7599D7",
"y. c #759AD9",
"u. c #759DDB",
"i. c #749CDF",
"p. c #7EA3D9",
"a. c #7EA3DB",
"s. c #749BE5",
"d. c #749DE7",
"f. c #759EE6",
"g. c #719AE9",
"h. c #739CE8",
"j. c #7CA1E5",
"k. c #7CA4E5",
"l. c #7BA2E9",
"z. c #78A1EA",
"x. c #7AA3EC",
"c. c #7BA4EC",
"v. c #7CA4EC",
"b. c #7EA6EF",
"n. c #7AA3F1",
"m. c #7BA4F0",
"M. c #7AA4F1",
"N. c #7CA5F0",
"B. c #7DA7F0",
"V. c #7DA6F1",
"C. c #7DA7F1",
"Z. c #7FA7F0",
"A. c #7EA7F1",
"S. c #7DA6F2",
"D. c #7DA6F3",
"F. c #7DA7F3",
"G. c #7EA7F2",
"H. c #7EA7F3",
"J. c #7DA6F4",
"K. c #7FA8F2",
"L. c #88918B",
"P. c #A5ABAD",
"I. c #BEC3B9",
"U. c #8197C1",
"Y. c #8CA7C4",
"T. c #84A2D9",
"R. c #89A7DC",
"E. c #86A8DD",
"W. c #80A5EA",
"Q. c #82A7ED",
"!. c #81A9EA",
"~. c #82A9EA",
"^. c #84ACEE",
"/. c #85ACEF",
"(. c #8AAFEB",
"). c #8EB0E9",
"_. c #90B4EA",
"`. c #94B5EB",
"'. c #80A9F5",
"]. c #81AAF4",
"[. c #82ABF6",
"{. c #83ACF5",
"}. c #84ADF6",
"|. c #85ADF6",
" X c #80A9F8",
".X c #84ADF8",
"XX c #85AEF8",
"oX c #86AEF9",
"OX c #85AEFA",
"+X c #86AFFB",
"@X c #8CB0F0",
"#X c #8BB3F7",
"$X c #87B0F9",
"%X c #87B0FA",
"&X c #86B0FF",
"*X c #8AB2FC",
"=X c #88B1FE",
"-X c #8BB4FC",
";X c #8CB5FF",
":X c #8DB6FF",
">X c #8EB7FF",
",X c #8FB8FF",
"<X c #8FB9FF",
"1X c #96B7F2",
"2X c #99B9F3",
"3X c #90B8FF",
"4X c #90B9FF",
"5X c #93B9FE",
"6X c #91BAFF",
"7X c #94BAFF",
"8X c #9ABEFF",
"9X c #9CBDFC",
"0X c #D5D7D3",
/* pixels */
"                                                        ",
"                                                        ",
"    & *                   & &                           ",
"  l  .1.1               t 3...w                         ",
"E c g.^.g O           o I C.d.y                         ",
"W x s.oXr.P u       v L ~.K.f.u                         ",
"! z s.|.G. X;.Y _ ) :.n.A.A.f.e                         ",
"Q C h.{.N.H.D.M.M.M.m.B.S.'.z.B                         ",
"d i.V.b.1XE.u.G.B.'.[.Z.).0.j.p.7                       ",
"p z.A.W.P.G ' J.].e.9.Q.L.8 4.!.6                       ",
"p x.XX@XS = | F.OX>.[ l.k A U.(.7                       ",
"i N.7X9XR.q.y.G.c.t.j.v.8.T.2X`.7                       ",
"q 7._.8X+X` } &X6.R 3Xk.J %X5XY.s                       ",
"0 - -.=XJ.U V { Z f =.] n }.$Xa j                       ",
"( % b a..Xw.@.+.$.%.+.O.5.*X;X,.2 F                     ",
"X.: T #X;X3X6X6X6X6X6X6X4X;X;X:X<.5 > 3 I.              ",
"  ; *.<X;X;X;X;X;X;X;X;X;X;X;X;X>X2.h , 4 ^             ",
"  X &.,X;X;X;X;X;X;X;X;X;X;X;X;X;X;X-Xo.D $ ~           ",
"  . #.>X-X-X-X-X-X-X-X-X-X-X-X-X-X-X-X:X/.K + H 0X      ",
"  @ 9 M m m m m m m m m m m m m m m m m N r # < /       "
};
