/* XPM */
static char *nyan_parrot_frame_7[] = {
/* columns rows colors chars-per-pixel */
"28 20 234 2 ",
"   c None",
".  c #1C3917",
"X  c #203504",
"o  c #223903",
"O  c #223E04",
"+  c #203B08",
"@  c #293C0E",
"#  c #2E3120",
"$  c #563E0A",
"%  c #533B0C",
"&  c #26430F",
"*  c #26440F",
"=  c #2B460F",
"-  c #2C490A",
";  c #2E510C",
":  c #264710",
">  c #2C4713",
",  c #2D4716",
"<  c #2A4A11",
"1  c #2A4914",
"2  c #33491D",
"3  c #344E1E",
"4  c #275414",
"5  c #285615",
"6  c #295716",
"7  c #30581C",
"8  c #3D651B",
"9  c #3D671C",
"0  c #35761B",
"q  c #3C402D",
"w  c #3E5427",
"e  c #32522C",
"r  c #395D29",
"t  c #356422",
"y  c #396421",
"u  c #386425",
"i  c #396625",
"p  c #396827",
"a  c #3B6828",
"s  c #3B6928",
"d  c #3C6A29",
"f  c #3A6E29",
"g  c #3C6C2A",
"h  c #367227",
"j  c #3B762B",
"k  c #3E6438",
"l  c #776506",
"z  c #4C5F35",
"x  c #447624",
"c  c #436930",
"v  c #456C32",
"b  c #427631",
"n  c #477235",
"m  c #477335",
"M  c #477336",
"N  c #417A31",
"B  c #457D34",
"V  c #4B7339",
"C  c #4A7538",
"Z  c #46783A",
"A  c #125C5D",
"S  c #4A5742",
"D  c #5C7F4E",
"F  c #5E755C",
"G  c #FD0D00",
"H  c #FF0D00",
"J  c #FF2900",
"K  c #FF2B00",
"L  c #AF5E03",
"P  c #3C8B05",
"I  c #6C8A06",
"U  c #7C8706",
"Y  c #448135",
"T  c #458635",
"R  c #488539",
"E  c #4D873D",
"W  c #4C883D",
"Q  c #4C893D",
"!  c #508D3A",
"~  c #52923B",
"^  c #58953D",
"/  c #33DC16",
"(  c #35F714",
")  c #35F814",
"_  c #61FF00",
"`  c #63FF00",
"'  c #4F8940",
"]  c #4F8A41",
"[  c #588949",
"{  c #549440",
"}  c #5E9441",
"|  c #539F48",
" . c #589E48",
".. c #5B8A59",
"X. c #5F895E",
"o. c #5F8B5F",
"O. c #52A048",
"+. c #53A049",
"@. c #53A149",
"#. c #56A44C",
"$. c #5AA44C",
"%. c #58A74E",
"&. c #60A949",
"*. c #62B257",
"=. c #60B457",
"-. c #65B85C",
";. c #638F62",
":. c #728063",
">. c #738165",
",. c #6C976B",
"<. c #66A567",
"1. c #69AC69",
"2. c #67B267",
"3. c #6CBF65",
"4. c #5EC95C",
"5. c #5FCB5D",
"6. c #5CCE5C",
"7. c #5DCF5C",
"8. c #5DCC5E",
"9. c #65C35F",
"0. c #61C061",
"q. c #62C263",
"w. c #65C161",
"e. c #61C664",
"r. c #6AC664",
"t. c #6ECF65",
"y. c #72CE6B",
"u. c #63D563",
"i. c #6AD468",
"p. c #77D66B",
"a. c #73D86F",
"s. c #71DB6E",
"d. c #79D86D",
"f. c #7EC47C",
"g. c #76D771",
"h. c #74DA71",
"j. c #74E173",
"k. c #76E074",
"l. c #74E675",
"z. c #76E775",
"x. c #78E071",
"c. c #78E074",
"v. c #7FE677",
"b. c #7DE47A",
"n. c #78EB78",
"m. c #7AEB7A",
"M. c #7AEC7A",
"N. c #7BED7B",
"B. c #7DEC7A",
"V. c #7EEE7D",
"C. c #7BF07B",
"Z. c #7BF17B",
"A. c #7CF17C",
"S. c #7DF07D",
"D. c #7FF17F",
"F. c #7FF27F",
"G. c #FF8000",
"H. c #FF8100",
"J. c #FFA400",
"K. c #FFA700",
"L. c #DAFF00",
"P. c #DFFF00",
"I. c #FFF700",
"U. c #FFFB00",
"Y. c #80ED7E",
"T. c #80EE7E",
"R. c #81F27F",
"E. c #5D2EDB",
"W. c #4C3FEA",
"Q. c #632AFF",
"!. c #652BFF",
"~. c #6B34FF",
"^. c #147DEA",
"/. c #5041FF",
"(. c #5141FF",
"). c #7FED80",
"_. c #7FF881",
"`. c #1383FF",
"'. c #1384FF",
"]. c #03A2EB",
"[. c #04A3E9",
"{. c #939E87",
"}. c #939D89",
"|. c #969F8B",
" X c #96A08C",
".X c #80BA80",
"XX c #86D981",
"oX c #83EA81",
"OX c #81F180",
"+X c #80F280",
"@X c #80F380",
"#X c #81F381",
"$X c #85F282",
"%X c #81F481",
"&X c #81F581",
"*X c #80F681",
"=X c #81F681",
"-X c #82F582",
";X c #82F682",
":X c #82F782",
">X c #83F683",
",X c #85F885",
"<X c #85FB85",
"1X c #86F986",
"2X c #87FA87",
"3X c #87FB88",
"4X c #88FB88",
"5X c #8BFD8B",
"6X c #89FE8A",
"7X c #88FF8A",
"8X c #8BFF8B",
"9X c #8CFE8B",
"0X c #8CFD8C",
"qX c #8CFE8C",
"wX c #8CFF8C",
"eX c #8DFF8D",
"rX c #8EFC8E",
"tX c #8DFF8E",
"yX c #8EFF8E",
"uX c #8EFF8F",
"iX c #8FFF90",
"pX c #91FF91",
"aX c #91FF92",
"sX c #97FF98",
"dX c #98FF98",
"fX c #9CFD9C",
"gX c #9DFD9D",
"hX c #9EFD9E",
"jX c #9FFD9E",
"kX c #B5CEB1",
"lX c #AAE7AA",
"zX c #ADEAAC",
"xX c #A1FFA2",
"cX c #C5C2D3",
/* pixels */
"                                                        ",
"        j R p                 N Y f                     ",
"      : 5.7X~ o             - t._.O.                    ",
"      = 4.3Xx.x <         *  .R.*X@.                    ",
"H H G % 8.2X%XB.9.6 5 4 h i.V.&X*X+.                    ",
"J J K $ 8.1X+X%Xn.7.6.6.u.S.@X@X=X|                     ",
"G.H.L } l.-XF.D.%X&X&X&X&X@XF.#X-Xa.b                   ",
"J.K.l e.:XA.lXkX] N.@XD.T.Z.zXD ..6XQ                   ",
"I.U.U q.;X<X,.q r M.%XoXZ C.X.# F 5XW                   ",
"L.P.I 0.4XpXf.;.<.S.@X).1.F.2.o..XsX'                   ",
"_ ` P w.0XdXaXz.%.+XF.#.OX:X=.c.iXxX[                   ",
"( ) / 0 ^ rX,Xi.t k.s.u XXY.B r.7X3.,                   ",
"].].[.A 7 h.>Xj.n M m c V C v g.m.T X                   ",
"`.'.'.^.. E tX0XgXfXfXjXhXhXhXiXb.{ 9 z                 ",
"/.(./.W.e y.tXwX8X8X8X8X8X8X8XwXeXiXd.8 w               ",
"!.Q.~.E.k eXwXwXwXwXwXwXwXwXwXwXwXwXtXv.*.&             ",
"    cXS y 5XwXwXwXwXwXwXwXwXwXwXwXwXwXtXyX-.1 |.        ",
"    {.> &.9XwXwXwXwXwXwXwXwXwXwXwXwXwXwXwXuX! @  X      ",
"    :.; $X5X5X5X5X5X5X5X5X5X5X5X5X5X5X5X5XqXp.$.3 }.    ",
"    >.O i s a a a a a a a a a a a a a a a a g d + 2     "
};
