/* XPM */
static char *nyan_parrot_frame_10[] = {
/* columns rows colors chars-per-pixel */
"28 20 232 2 ",
"   c None",
".  c #1D3900",
"X  c #203807",
"o  c #23390A",
"O  c #23390B",
"+  c #233A0A",
"@  c #233A0B",
"#  c #243C0B",
"$  c #293E17",
"%  c #2B3A18",
"&  c #2E3D1B",
"*  c #2E3C1C",
"=  c #2F3E1D",
"-  c #2E3F1F",
";  c #303E1E",
":  c #303F1E",
">  c #383F2A",
",  c #543114",
"<  c #29400D",
"1  c #2E470D",
"2  c #30470E",
"3  c #364223",
"4  c #374127",
"5  c #3A4A27",
"6  c #3A5123",
"7  c #7B4F06",
"8  c #7B6106",
"9  c #404D2A",
"0  c #435227",
"q  c #445327",
"w  c #43423B",
"e  c #454939",
"r  c #425230",
"t  c #465835",
"y  c #4B5238",
"u  c #4C5339",
"i  c #53693E",
"p  c #7B7E24",
"a  c #3A3369",
"s  c #413F41",
"d  c #683C7F",
"f  c #117F75",
"g  c #494244",
"h  c #4A4941",
"j  c #4A4C40",
"k  c #4C4D43",
"l  c #4D4D43",
"z  c #494B45",
"x  c #4D4D44",
"c  c #4E4D45",
"v  c #4B4B48",
"b  c #524B54",
"n  c #5B4F5A",
"m  c #5D5C55",
"M  c #556741",
"N  c #5F4E62",
"B  c #635165",
"V  c #654770",
"C  c #624B7B",
"Z  c #6C5776",
"A  c #6D5C70",
"S  c #725F76",
"D  c #765A7F",
"F  c #775A7F",
"G  c #716876",
"H  c #872B05",
"J  c #FF0D00",
"K  c #FF0E00",
"L  c #F01101",
"P  c #FF1C00",
"I  c #FF7000",
"U  c #FF7100",
"Y  c #2CAE00",
"T  c #7B8004",
"R  c #52AF00",
"E  c #3AFF02",
"W  c #7AFF00",
"Q  c #79866E",
"!  c #7A8A6A",
"~  c #FF9C00",
"^  c #FF9F00",
"/  c #FFE900",
"(  c #FFEE00",
")  c #E4F200",
"_  c #EDFF00",
"`  c #87937A",
"'  c #69378A",
"]  c #6B3A8C",
"[  c #6A3B8C",
"{  c #0E6A96",
"}  c #7B5582",
"|  c #7B5585",
" . c #7A5589",
".. c #7A548A",
"X. c #7C6085",
"o. c #642CFF",
"O. c #672DFF",
"+. c #4043C3",
"@. c #464EFF",
"#. c #805395",
"$. c #81608E",
"%. c #836191",
"&. c #846292",
"*. c #856492",
"=. c #866594",
"-. c #886795",
";. c #896796",
":. c #8A6898",
">. c #8B6B98",
",. c #8E7498",
"<. c #8E7499",
"1. c #96739F",
"2. c #8249A6",
"3. c #8E5CA7",
"4. c #8F5CA8",
"5. c #915CAB",
"6. c #905FAA",
"7. c #935EAD",
"8. c #9165A9",
"9. c #9B79A4",
"0. c #9971AC",
"q. c #9C69B6",
"w. c #9E66BB",
"e. c #9F69BB",
"r. c #A271B7",
"t. c #A67DB4",
"y. c #A574B9",
"u. c #A579BD",
"i. c #A668C6",
"p. c #A664CA",
"a. c #AC6ECE",
"s. c #A877C1",
"d. c #A977C1",
"f. c #A977C2",
"g. c #A977C3",
"h. c #AA77C3",
"j. c #AC7FC3",
"k. c #AC79C6",
"l. c #AE73CD",
"z. c #AF7CC8",
"x. c #AB66D0",
"c. c #AE65D6",
"v. c #AD69D3",
"b. c #AE68D5",
"n. c #AF6BD5",
"m. c #B066D8",
"M. c #B066DA",
"N. c #B66FDC",
"B. c #B475D5",
"V. c #B47BD1",
"C. c #B572D9",
"Z. c #B470DA",
"A. c #B776DA",
"S. c #B979DB",
"D. c #BB74E3",
"F. c #BE73E7",
"G. c #BE74E7",
"H. c #BF7CE4",
"J. c #BD71E8",
"K. c #BE74E8",
"L. c #BF74E8",
"P. c #BF74E9",
"I. c #C17FE4",
"U. c #C075E9",
"Y. c #C076E9",
"T. c #C075EA",
"R. c #C175EB",
"E. c #C176EB",
"W. c #C177EB",
"Q. c #C174ED",
"!. c #C275ED",
"~. c #C276EC",
"^. c #C276ED",
"/. c #C277ED",
"(. c #C47AED",
"). c #C478EF",
"_. c #C47DEC",
"`. c #C67DEE",
"'. c #C677F3",
"]. c #C679F1",
"[. c #C67BF0",
"{. c #C77BF1",
"}. c #C77DF1",
"|. c #C87BF3",
" X c #C87EF1",
".X c #C87DF2",
"XX c #C97FF2",
"oX c #CB7FF5",
"OX c #CB7EF7",
"+X c #0CB3CD",
"@X c #088FFF",
"#X c #9AA58C",
"$X c #A0A997",
"%X c #9391A7",
"&X c #A781B9",
"*X c #A9B0A1",
"=X c #A9B1A1",
"-X c #AEB6A7",
";X c #AD81C6",
":X c #C486E6",
">X c #C583E8",
",X c #C98BEC",
"<X c #CE87F5",
"1X c #CE85F6",
"2X c #CE8AF3",
"3X c #CE80F9",
"4X c #D083FB",
"5X c #D283FF",
"6X c #D287FC",
"7X c #D384FF",
"8X c #D28AFA",
"9X c #D38BFB",
"0X c #D28DF9",
"qX c #D388FD",
"wX c #D48BFC",
"eX c #D58CFE",
"rX c #D68CFF",
"tX c #D78CFF",
"yX c #D78DFF",
"uX c #D88DFF",
"iX c #D98DFF",
"pX c #DA8EFF",
"aX c #DB8EFF",
"sX c #D391F6",
"dX c #D592FA",
"fX c #D992FF",
"gX c #D995FF",
"hX c #DF9AFF",
"jX c #D1A5E9",
"kX c #C9CEC4",
"lX c #CFD3CC",
"zX c #E1E2E0",
/* pixels */
"                                                        ",
"                                                        ",
"                                                        ",
"K J L , - :                 = ; *                       ",
"P P H d Z.X.                D x.#.O                     ",
"I U 7 [ OXy.q             9 y.Q.4.@                     ",
"~ ^ 8 ] oX).r.F & o + % V q.{.R.4.@                     ",
"/ ( T ' oXY./.K.7.4.4.5.M.E.Y.R.3.X                     ",
"_ ) p 2.[.P.J.).~.R.E.T.Y.L.^.].w.e                     ",
"W R  .!.F.:XjX0.N.Y.G..XU.,X&X8.}.-.                    ",
"E Y ..^.~.;XQ 5 p.Y.`.*.b.;Xt z _.=.                    ",
"+Xf | |.6Xu.v b n.Y.XXZ v.6.s G 0X>.                    ",
"@X{ } 5XgXdXH.e.D.W.i.A.W.a.l.2XhX<.                    ",
"@.+.C 1.sX8Xc.g C.'.N j.7X&.$.4XfX,.                    ",
"o.O.a 2 S.(.m.w n B > m A j %.3XB.h                     ",
"  %X$ 0 >X1X XV.d.f.k.g.s.h.I.qX<XS . =X                ",
"  #X3 z.yXrXrXuXiXiXiXiXiXiXtXrXpXt.u r -X              ",
"zX! ;.aXrXrXrXrXrXrXrXrXrXrXrXrXrXeX9Xy 6 *X            ",
"lXi :.iXwXwXwXwXwXwXwXwXwXwXwXwXwXwXwX9.1 M kX          ",
"  ` 4 c k k k k k k k k k k k k k k l x < # $X          "
};
