/* XPM */
static char *nyan_parrot_frame_6[] = {
/* columns rows colors chars-per-pixel */
"28 20 255 2 ",
"   c None",
".  c #1D3606",
"X  c #1E3706",
"o  c #1C3A01",
"O  c #1F3802",
"+  c #1F3B09",
"@  c #203A03",
"#  c #233E06",
"$  c #243A09",
"%  c #243B0A",
"&  c #6E2B06",
"*  c #7C2B03",
"=  c #2A4406",
"-  c #2A4407",
";  c #2C4707",
":  c #29410B",
">  c #2E440C",
",  c #354D0C",
"<  c #3A4B0F",
"1  c #2B4213",
"2  c #2B4415",
"3  c #2E4516",
"4  c #2F4819",
"5  c #364714",
"6  c #374D11",
"7  c #324C14",
"8  c #364A19",
"9  c #36481C",
"0  c #374E21",
"q  c #384F24",
"w  c #32422C",
"e  c #3F5524",
"r  c #435C12",
"t  c #43501B",
"y  c #44511C",
"u  c #45521C",
"i  c #4A541D",
"p  c #4B5620",
"a  c #4C5721",
"s  c #4E5720",
"d  c #4D5722",
"f  c #4D5B20",
"g  c #4A5A25",
"h  c #535B24",
"j  c #525C25",
"k  c #545C25",
"l  c #595E26",
"z  c #565F28",
"x  c #495D34",
"c  c #596427",
"v  c #59602A",
"b  c #5B612A",
"n  c #5F632B",
"m  c #58622E",
"M  c #606D25",
"N  c #63672E",
"B  c #666A31",
"V  c #686B32",
"C  c #6E7630",
"Z  c #717035",
"A  c #797D36",
"S  c #7C7D3A",
"D  c #313644",
"F  c #155756",
"G  c #186B54",
"H  c #4E5243",
"J  c #655C4B",
"K  c #5F714E",
"L  c #546151",
"P  c #60714F",
"I  c #6D774A",
"U  c #6D6753",
"Y  c #7A6E55",
"T  c #FF0F00",
"R  c #FF1000",
"E  c #FF1300",
"W  c #FF1400",
"Q  c #886224",
"!  c #FF4400",
"~  c #FF5F00",
"^  c #DC7700",
"/  c #FF6000",
"(  c #817D40",
")  c #847E46",
"_  c #2DAB00",
"`  c #5FAC00",
"'  c #5C8C22",
"]  c #3EFF00",
"[  c #3FFF00",
"{  c #20BB5C",
"}  c #6E805D",
"|  c #7A896B",
" . c #9F9300",
".. c #9DAE00",
"X. c #FF9700",
"o. c #FF9900",
"O. c #90FF00",
"+. c #93FF00",
"@. c #FFD600",
"#. c #FFDB00",
"$. c #F9FF00",
"%. c #FFFF00",
"&. c #8B8744",
"*. c #998A4F",
"=. c #9B8A4F",
"-. c #9B8E4F",
";. c #9B964A",
":. c #9B974A",
">. c #9E934D",
",. c #8F8057",
"<. c #9A8E52",
"1. c #9C9150",
"2. c #9A925B",
"3. c #A08A51",
"4. c #A19650",
"5. c #A19354",
"6. c #A49555",
"7. c #AD9450",
"8. c #AF9652",
"9. c #A89757",
"0. c #AB9853",
"q. c #AD9953",
"w. c #AF9855",
"e. c #AD9856",
"r. c #A39659",
"t. c #BAA15D",
"y. c #B8A25D",
"u. c #B8A15F",
"i. c #958460",
"p. c #8F8570",
"a. c #879773",
"s. c #879577",
"d. c #A59B64",
"f. c #BC9E6C",
"g. c #BCA460",
"h. c #BEA461",
"j. c #ABA375",
"k. c #BDA37A",
"l. c #C0A561",
"z. c #C1A864",
"x. c #C8AF6C",
"c. c #C4B165",
"v. c #CEB06A",
"b. c #CCB66A",
"n. c #D1B36D",
"m. c #C1A97F",
"M. c #C4B176",
"N. c #C9B07E",
"B. c #D3B570",
"V. c #D5BB71",
"C. c #D6BB72",
"Z. c #D8B871",
"A. c #DDBA73",
"S. c #DFBB73",
"D. c #DCBE73",
"F. c #DCBA74",
"G. c #DFBC74",
"H. c #DFBD75",
"J. c #E4BF75",
"K. c #E3BF7C",
"L. c #DDC073",
"P. c #E0C075",
"I. c #E3C079",
"U. c #E7C278",
"Y. c #E1C27F",
"T. c #ECC47A",
"R. c #E9C27C",
"E. c #EAC77F",
"W. c #EBC77F",
"Q. c #EDC67D",
"!. c #EEC67C",
"~. c #EEC77E",
"^. c #F2C97F",
"/. c #F5CB7F",
"(. c #4932A0",
"). c #65589E",
"_. c #652BFF",
"`. c #632DFF",
"'. c #395BFF",
"]. c #3A5AFF",
"[. c #246CEF",
"{. c #17C29D",
"}. c #18C298",
"|. c #0191FF",
" X c #0292FF",
".X c #06A3F3",
"XX c #96A28C",
"oX c #ADB5A6",
"OX c #EAC780",
"+X c #EBC880",
"@X c #ECC980",
"#X c #ECC981",
"$X c #F5CB80",
"%X c #F1CD82",
"&X c #F1CC83",
"*X c #F5CC81",
"=X c #F6CC81",
"-X c #F5CC82",
";X c #F7CC82",
":X c #F6CD83",
">X c #F7CD83",
",X c #F4CD84",
"<X c #F7CE84",
"1X c #F5CF86",
"2X c #F8CE84",
"3X c #F8CF84",
"4X c #F9CF84",
"5X c #F8CF85",
"6X c #FACF85",
"7X c #FACF86",
"8X c #F3CC88",
"9X c #F9CF88",
"0X c #F5D085",
"qX c #F9D085",
"wX c #FAD085",
"eX c #FBD185",
"rX c #FAD086",
"tX c #FBD086",
"yX c #FAD087",
"uX c #FCD186",
"iX c #FDD287",
"pX c #F8D188",
"aX c #FAD388",
"sX c #FBD389",
"dX c #FDD288",
"fX c #FDD388",
"gX c #FCD389",
"hX c #FDD389",
"jX c #FED388",
"kX c #FBD489",
"lX c #FED489",
"zX c #FCD48B",
"xX c #FDD48B",
"cX c #FDD58B",
"vX c #FED58B",
"bX c #FCD58C",
"nX c #FED58C",
"mX c #FFD68C",
"MX c #FFD78C",
"NX c #FFD78D",
"BX c #FFD78F",
"VX c #FFD88E",
"CX c #FFD98F",
"ZX c #FCD795",
"AX c #FFDB91",
"SX c #FFD994",
"DX c #FFDA94",
"FX c #FFDA96",
"GX c #F1D29A",
"HX c #FFE19F",
"JX c #C1C9B4",
"KX c #F8D8A0",
"LX c #E9DABC",
"PX c #D5D7D3",
"IX c #D5D8D2",
/* pixels */
"              i k d                 p h s               ",
"            $ 7.uX4.o             o >.;Xt.%             ",
"T T T T T   + 8.lXD.M #         . c L.6Xh.%             ",
"E E E E W R & q.fX7XP.y.y 5 5 t w.F.rX4Xh.%             ",
"~ ~ ~ ~ / ! * 0.dX:X2X>XG.A.A.S.^.2X:X4Xg.X             ",
"X.X.X.X.o.^ Q v.qX=X/.wX<X:X>X:X:X*X4XiXZ.V             ",
"@.@.@.@.#. .<.iX$XGXLX2.U.:X-X5X=XKXj.,.9X6.            ",
"$.$.$.$.%...*.tXeXm.L 9 S.:XpX) J.k.w H 8X5.            ",
"O.O.O.O.+.` =.jXVXN.U Y R.:XyXi.R.f.J p.ZXr.            ",
"] ] ] [ [ _ 3.MXFXSX,Xu.~.3Xz.I.rXn.B.BXHXd.            ",
"}.}.}.}.{.{ ' K.DXzXT.l H.2XZ M.NX-.-.MXY.I             ",
" X X X X|..XG l.hX5X!.n b N u m B a 9.Q.e.1             ",
"'.'.'.'.].[.F < x.bXgX&XOXE.#XW.E.+X1X( > 3             ",
"`.`.`.`._.(.@ C 1.vXmXmXmXmXmXmXmXmXmX0XA 0             ",
"        ).D ; C.AXmXmXmXmXmXmXmXmXmXmXVXV.- x           ",
"      JXe , ;.aXmXmXmXmXmXmXmXmXmXmXmXmXkX&.2 oX        ",
"    | q f @XsXNXmXmXmXmXmXmXmXmXmXmXmXmXCXc.6 K         ",
"  IXP = :.mXmXmXmXmXmXmXmXmXmXmXmXmXmXmXmXCXS 4 PX      ",
"  a.7 r %XcXxXxXxXxXxXxXxXxXxXxXxXxXxXxXxXnXb.g XX      ",
"  s.O : j z z z z z z z z z z z z z z z z z v 8 }       "
};
