/* XPM */
static char *nyan_parrot_frame_5[] = {
/* columns rows colors chars-per-pixel */
"28 20 149 2 ",
"   c None",
".  c #1C3803",
"X  c #253B0A",
"o  c #213F06",
"O  c #2E3D10",
"+  c #353F13",
"@  c #1B3E23",
"#  c #2D3A25",
"$  c #31382B",
"%  c #1E5F13",
"&  c #384B0E",
"*  c #264019",
"=  c #354212",
"-  c #3E4E10",
";  c #42491C",
":  c #444019",
">  c #464A21",
",  c #544C26",
"<  c #564D28",
"1  c #594E2A",
"2  c #41552B",
"3  c #545221",
"4  c #444837",
"5  c #654C2C",
"6  c #6B4B2E",
"7  c #624124",
"8  c #6F4D30",
"9  c #7B4532",
"0  c #6A5130",
"q  c #745536",
"w  c #735839",
"e  c #7B5B3D",
"r  c #715A34",
"t  c #7C6934",
"y  c #495145",
"u  c #556842",
"i  c #696E4D",
"p  c #7D7053",
"a  c #687368",
"s  c #922102",
"d  c #A32702",
"f  c #FF0D00",
"g  c #FF1C00",
"h  c #FF1300",
"j  c #FF2900",
"k  c #FF2700",
"l  c #A25A02",
"z  c #A27302",
"x  c #805D2C",
"c  c #89563F",
"v  c #81673D",
"b  c #FF4600",
"n  c #FF7100",
"m  c #FF7F00",
"M  c #8B5640",
"N  c #8D5C44",
"B  c #995F4B",
"V  c #896541",
"C  c #94614B",
"Z  c #846554",
"A  c #9B6A54",
"S  c #AB6757",
"D  c #BD675E",
"F  c #B3735C",
"G  c #B4795A",
"H  c #AD6A6A",
"J  c #AF7564",
"K  c #B87767",
"L  c #B36F70",
"P  c #BA7F7E",
"I  c #C3635C",
"U  c #C26C65",
"Y  c #C37468",
"T  c #C97E69",
"R  c #C67A68",
"E  c #D9736E",
"W  c #D2786F",
"Q  c #CE7C77",
"!  c #DD7672",
"~  c #D2797A",
"^  c #E67D7D",
"/  c #E97F7B",
"(  c #F17C7D",
")  c #2FD000",
"_  c #39FF02",
"`  c #36F90F",
"'  c #35F714",
"]  c #5FD100",
"[  c #51FF01",
"{  c #62FF00",
"}  c #79FF00",
"|  c #75FF00",
" . c #24DA5C",
".. c #FF8000",
"X. c #FF8C00",
"o. c #FF9E00",
"O. c #FFA400",
"+. c #B9D200",
"@. c #B3FF00",
"#. c #D7C600",
"$. c #FFC000",
"%. c #DBFF00",
"&. c #FFEB00",
"*. c #ECFF00",
"=. c #FFF700",
"-. c #F0FF00",
";. c #F9FB00",
":. c #8F8E7B",
">. c #CC867B",
",. c #DA8273",
"<. c #DA8378",
"1. c #EA827F",
"2. c #F1807F",
"3. c #562FC7",
"4. c #493BC5",
"5. c #642BFF",
"6. c #6731F9",
"7. c #374FC5",
"8. c #097DCA",
"9. c #286EFF",
"0. c #5141FF",
"q. c #DE7F81",
"w. c #0FABBA",
"e. c #0BAECC",
"r. c #0A8CFF",
"t. c #1284FF",
"y. c #0699F4",
"u. c #03A2EA",
"i. c #A9B1A1",
"p. c #C08485",
"a. c #DB898A",
"s. c #C09183",
"d. c #ED8482",
"f. c #E88D8E",
"g. c #F68484",
"h. c #F98586",
"j. c #F18985",
"k. c #F5898A",
"l. c #FE8C8C",
"z. c #FD8488",
"x. c #FF8E91",
"c. c #FF9293",
"v. c #FF9B9B",
"b. c #F09999",
"n. c #C7BFBA",
"m. c #FFA3A3",
"M. c #F6A2A3",
"N. c #BDC4B6",
"B. c #C9CEC5",
/* pixels */
"                                                        ",
"                                                        ",
"                    7 B V                 5 C c +       ",
"            f f f s 9 z.,.&             o V z.E =       ",
"f f f f f h g g g d 9 k.z.G 3         : w j.g.E +       ",
"j j j j j b n n n l 9 j.k.h.( M 5 6 6 I q.g.g.E +       ",
"........m o.O.o.o.z 9 g.k.g.g.( ( ( ( 2.z.h.g.! =       ",
"O.O.O.O.O.O.&.&.#.x ^ g.g.k.d.g.h.g.h.h.g.g.d.g.K       ",
"=.=.=.=.=.&.*.-.+.q z.g.f.n.i D h.g.<./ b.:.4 q.Q X     ",
"%.%.%.%.%.@.| } ] q h.l.a.4 # D h.l.Z D ~ $ y a.>.X     ",
"{ { { { { [ ` _ ) q z.v.b.>.L 1.h.g.Q ^ ^ H q.M.p.X     ",
"' ' ' ' '  .e.w.% 0 k.m.M.k.N W z.S K l.W A c.M.s.X     ",
"u.u.u.u.u.y.r.w.* < Y v.x.( 6 B R 8 Z >.A q l.1.>       ",
"t.t.t.t.t.9.7.@ 3 h.l.k.k.g.S w e e e p e F Y N         ",
"0.0.0.0.0.4.$ v R l.l.l.l.l.l.x.x.x.l.x.x.x.v .         ",
"5.5.5.5.3.# ; ,.x.l.l.l.l.l.l.l.l.l.l.l.l.x.,.;         ",
"      a X t j.l.l.l.l.l.l.l.l.l.l.l.l.l.l.l.G =         ",
"    i.2 r K l.l.l.l.l.l.l.l.l.l.l.l.l.l.l.l.T -         ",
"  B.u & j.l.l.l.l.l.l.k.l.l.l.l.l.l.l.l.z.x.T - 2       ",
"  N.2 = , < < 3 < < < < < < , < , < , , 1 1 1 O .       "
};
