/* XPM */
static char *nyan_parrot_frame_8[] = {
/* columns rows colors chars-per-pixel */
"28 20 225 2 ",
"   c None",
".  c #203503",
"X  c #203702",
"o  c #203A02",
"O  c #243C02",
"+  c #203905",
"@  c #213A09",
"#  c #223C0B",
"$  c #233C0B",
"%  c #223C0C",
"&  c #233C0C",
"*  c #303C1F",
"=  c #323529",
"-  c #254314",
";  c #2E4414",
":  c #294719",
">  c #29491D",
",  c #2A4B1F",
"<  c #33491B",
"1  c #325314",
"2  c #335718",
"3  c #2B4D21",
"4  c #33562C",
"5  c #3E5429",
"6  c #33592D",
"7  c #305A33",
"8  c #355A32",
"9  c #325C33",
"0  c #3C503C",
"q  c #3B6A39",
"w  c #43572C",
"e  c #43483A",
"r  c #465C32",
"t  c #475C32",
"y  c #3A3565",
"u  c #276346",
"i  c #296648",
"p  c #29674A",
"a  c #3A6842",
"s  c #3B6843",
"d  c #3B6944",
"f  c #3C6B46",
"g  c #3E6E4A",
"h  c #3D7250",
"j  c #377A5D",
"k  c #3E795B",
"l  c #4B5043",
"z  c #536741",
"x  c #457F5F",
"c  c #477F5F",
"v  c #5E7857",
"b  c #627352",
"n  c #6C7A5B",
"m  c #417F62",
"M  c #427F6B",
"N  c #A71C00",
"B  c #A41F00",
"V  c #FF0D00",
"C  c #FF1200",
"Z  c #A44C00",
"A  c #A46E00",
"S  c #FF6000",
"D  c #35CC00",
"F  c #72C900",
"G  c #189B6F",
"H  c #3B836D",
"J  c #5C8E4E",
"K  c #458062",
"L  c #438264",
"P  c #458364",
"I  c #448265",
"U  c #548769",
"Y  c #538A6D",
"T  c #55896C",
"R  c #568A6C",
"E  c #568A6D",
"W  c #568B6E",
"Q  c #549264",
"!  c #548B7A",
"~  c #4F957C",
"^  c #559A72",
"/  c #519278",
"(  c #50957C",
")  c #7A8B6A",
"_  c #7F8B71",
"`  c #A49300",
"'  c #FF9A00",
"]  c #D0DA00",
"[  c #FFDB00",
"{  c #49329D",
"}  c #334E98",
"|  c #652DFF",
" . c #0778C8",
".. c #3A59FF",
"X. c #419381",
"o. c #439383",
"O. c #419481",
"+. c #429783",
"@. c #4E9882",
"#. c #4F9B85",
"$. c #529D87",
"%. c #57A38D",
"&. c #54A38F",
"*. c #55A38F",
"=. c #58A28C",
"-. c #55A592",
";. c #5EAA95",
":. c #64B19F",
">. c #66BA9D",
",. c #5EB4A4",
"<. c #65A9AA",
"1. c #6AAEAF",
"2. c #62B3A0",
"3. c #62B5A3",
"4. c #67B4A3",
"5. c #66BCAC",
"6. c #73B8B7",
"7. c #79BDBE",
"8. c #6AC0B0",
"9. c #62C3B8",
"0. c #64C0B8",
"q. c #60C6BF",
"w. c #68C4BD",
"e. c #7DC7B9",
"r. c #6ACAC0",
"t. c #6ECDC2",
"y. c #6FCEC2",
"u. c #71CFC4",
"i. c #72CFC4",
"p. c #73CACB",
"a. c #72CBCD",
"s. c #6ED1C8",
"d. c #70D0C4",
"f. c #73D0C5",
"g. c #72D3C8",
"h. c #73D7C8",
"j. c #75D5CB",
"k. c #78DCCD",
"l. c #62D7D8",
"z. c #62D8D9",
"x. c #63D8D9",
"c. c #69DDDE",
"v. c #7BD4D4",
"b. c #70DAD5",
"n. c #71DCD7",
"m. c #76DDD6",
"M. c #79D5D8",
"N. c #70DCD9",
"B. c #72DFDC",
"V. c #7FD9DB",
"C. c #7BE0D8",
"Z. c #77E7E4",
"A. c #78E0E0",
"S. c #78E1E1",
"D. c #7AE5E3",
"F. c #79E6E2",
"G. c #7EE6E0",
"H. c #7EE9E7",
"J. c #7DEBE6",
"K. c #76E9EA",
"L. c #7EEDE9",
"P. c #7BEDEC",
"I. c #7DEDED",
"U. c #7DEFEE",
"Y. c #7CEFEF",
"T. c #7CF1F1",
"R. c #7DF1F1",
"E. c #7EF1F1",
"W. c #7CF1F2",
"Q. c #7EF1F2",
"!. c #7EF2F2",
"~. c #7FF2F2",
"^. c #7EF3F3",
"/. c #7FF3F3",
"(. c #7FF3F4",
"). c #7FF5F6",
"_. c #859885",
"`. c #9CA692",
"'. c #9EA993",
"]. c #BCC9C4",
"[. c #8BE6E6",
"{. c #82EDE9",
"}. c #82EDEB",
"|. c #86EFEF",
" X c #91ECEE",
".X c #80F0EF",
"XX c #80F1F1",
"oX c #81F1F1",
"OX c #80F3F3",
"+X c #87F6F3",
"@X c #80F4F4",
"#X c #81F5F5",
"$X c #80F5F6",
"%X c #80F5F7",
"&X c #80F6F7",
"*X c #82F6F7",
"=X c #82F7F7",
"-X c #88F1F2",
";X c #8BF5F5",
":X c #81F7F8",
">X c #80F7FB",
",X c #81F8F9",
"<X c #83F8FA",
"1X c #84F8F9",
"2X c #84FAFA",
"3X c #83FAFD",
"4X c #81FAFE",
"5X c #86FEFF",
"6X c #87FFFF",
"7X c #89FAF9",
"8X c #89FCFC",
"9X c #8BFDFC",
"0X c #8AFDFD",
"qX c #8BFEFF",
"wX c #8BFFFF",
"eX c #8CFEFE",
"rX c #8CFFFF",
"tX c #8DFFFF",
"yX c #8EFFFF",
"uX c #8FFFFF",
"iX c #92FFFF",
"pX c #93FFFF",
"aX c #95FFFF",
"sX c #97FFFF",
"dX c #98FFFF",
/* pixels */
"                                                        ",
"                                                        ",
"V N j &.(                 h *.@.>                       ",
"C B +.4Xh.1             O ^ >XN.,                       ",
"S Z O.&X@X>.q         7 x L.Q.b.,                       ",
"' A X.%XOXE.P.H u i p q.Y.Q.Q.b.,                       ",
"[ ` o.).~.E.E.c.l.z.x.K.E.E.!.n.3                       ",
"] J B.!.XX-XH.U.OXOX#X/.oX}.D.I.3.                      ",
"F I ).T.[.].v 9.(.~.m.Z. X_.0 M.t.#                     ",
"D P $X=Xv.e * w.^.2X! 0.a.= l V.y.#                     ",
"G L :X8X|.6.1.A.!.R.p.S.S.<.7.;Xi.#                     ",
" .M J.7XqX,X#.s.3X,.5.5Xs.%.6XtXe.$                     ",
"..} 2 k.1XW.k $.r.m W f.=.K <XF.8                       ",
"| { o ~ .X^.:.U Y T R E U 4.*X-.%                       ",
"  y + : {.8XpXsXaXsXsXsXdXiX0X8./ & @                   ",
"    5 2.eXrXrXwXrXwXwXwXwXrXrXuX7Xj.c X ; '.            ",
"    z g.yXrXrXrXrXrXrXrXrXrXrXrXtXyX+XQ 6 w `.          ",
"    b d.yXrXrXrXrXrXrXrXrXrXrXrXrXrXrXtXG.a . _         ",
"    r u.tX9X9X9X9X9X9X9X9X9X9X9X9X9X9X9XtXC.;.4 n       ",
"    t 9 d s s s s s s s s s s s s s s s s f g - < )     "
};
