/* XPM */
static char *nyan_parrot_frame_2[] = {
/* columns rows colors chars-per-pixel */
"28 20 248 2 ",
"   c None",
".  c #1B3500",
"X  c #1D3C00",
"o  c #213A03",
"O  c #223B09",
"+  c #25390C",
"@  c #2D3716",
"#  c #303A22",
"$  c #383F21",
"%  c #3E3F26",
"&  c #45382F",
"*  c #4A3D35",
"=  c #4B3D36",
"-  c #4C3D36",
";  c #4D3D38",
":  c #4E3C39",
">  c #4D3E39",
",  c #4E3D3A",
"<  c #4F3D3A",
"1  c #234001",
"2  c #235A02",
"3  c #2E4112",
"4  c #284416",
"5  c #364614",
"6  c #374810",
"7  c #3F4B1D",
"8  c #1D472D",
"9  c #314626",
"0  c #384021",
"q  c #384321",
"w  c #265325",
"e  c #4C4535",
"r  c #5B4F3C",
"t  c #4F623C",
"y  c #582D43",
"u  c #5A2B46",
"i  c #5A2C46",
"p  c #592C49",
"a  c #6B3E59",
"s  c #693D5A",
"d  c #136070",
"f  c #474441",
"g  c #564342",
"h  c #564541",
"j  c #564542",
"k  c #574542",
"l  c #574643",
"z  c #5A4145",
"x  c #5B4347",
"c  c #5A4545",
"v  c #5E464A",
"b  c #5B484D",
"n  c #5B5956",
"m  c #62464E",
"M  c #63494F",
"N  c #6F495D",
"B  c #71435E",
"V  c #6E595C",
"C  c #6C7F58",
"Z  c #744961",
"A  c #7B4D66",
"S  c #7A4C68",
"D  c #775766",
"F  c #88251F",
"G  c #FF0D00",
"H  c #FF0E00",
"J  c #FF0F00",
"K  c #ED1100",
"L  c #C93A00",
"P  c #FF2000",
"I  c #FF3900",
"U  c #FF3A00",
"Y  c #FF4900",
"T  c #FF4B00",
"R  c #CA7A00",
"E  c #FF6500",
"W  c #813972",
"Q  c #874976",
"!  c #884678",
"~  c #459302",
"^  c #31DA19",
"/  c #3BF814",
"(  c #44FF00",
")  c #45FF00",
"_  c #4DFF00",
"`  c #25D762",
"'  c #24D667",
"]  c #868520",
"[  c #CA9800",
"{  c #FF8D00",
"}  c #FF9200",
"|  c #FF9300",
" . c #FF9F00",
".. c #FFB200",
"X. c #FFB300",
"o. c #87FF00",
"O. c #ACFF00",
"+. c #AEFF00",
"@. c #BEF600",
"#. c #CDD700",
"$. c #FFC100",
"%. c #FFC300",
"&. c #FFDB00",
"*. c #C3FF00",
"=. c #E7FF00",
"-. c #FEFF00",
";. c #FFFF00",
":. c #4B3996",
">. c #45339F",
",. c #5F27FF",
"<. c #5E2DFF",
"1. c #5E2EFF",
"2. c #6030FF",
"3. c #6130FF",
"4. c #2C6AD9",
"5. c #2B6AFF",
"6. c #933A85",
"7. c #944687",
"8. c #944388",
"9. c #90498D",
"0. c #8F558C",
"q. c #985288",
"w. c #9F4391",
"e. c #A44697",
"r. c #A64898",
"t. c #A05191",
"y. c #AB539D",
"u. c #AD589F",
"i. c #AE599F",
"p. c #B15E9A",
"a. c #986295",
"s. c #A1679C",
"d. c #AA619E",
"f. c #AF43A2",
"g. c #B34AA7",
"h. c #B549A8",
"j. c #AE5BA0",
"k. c #B15AA3",
"l. c #B656A9",
"z. c #B95AAC",
"x. c #BF55B2",
"c. c #B965A2",
"v. c #B864B4",
"b. c #C254BC",
"n. c #C25BBD",
"m. c #CF64BF",
"M. c #CC68BC",
"N. c #8165DA",
"B. c #8054FD",
"V. c #C654C0",
"C. c #CC5CC6",
"Z. c #D055C5",
"A. c #D94FD0",
"S. c #E24CDB",
"D. c #E548DD",
"F. c #E34FDC",
"G. c #E15AD7",
"H. c #E250DB",
"J. c #E252DB",
"K. c #E553DD",
"L. c #E753DF",
"P. c #E654DE",
"I. c #E35DDA",
"U. c #E55BDC",
"Y. c #D364C8",
"T. c #D967CA",
"R. c #DD7DD8",
"E. c #EA57E2",
"W. c #ED57E5",
"Q. c #EB59E3",
"!. c #E95FE0",
"~. c #E95EE1",
"^. c #EA5DE3",
"/. c #EB5BE4",
"(. c #EC5AE4",
"). c #ED5AE5",
"_. c #EE58E6",
"`. c #EE59E6",
"'. c #EF5BE7",
"]. c #EF5CE7",
"[. c #EE5EE6",
"{. c #F25AEA",
"}. c #F35AEB",
"|. c #F25BEB",
" X c #F05DE8",
".X c #F05CE9",
"XX c #F15DE9",
"oX c #F25CEA",
"OX c #F25DEA",
"+X c #F25EEA",
"@X c #F25FEA",
"#X c #F35FEB",
"$X c #F55CED",
"%X c #F55EED",
"&X c #F75EF0",
"*X c #EC63E3",
"=X c #EA64E1",
"-X c #ED64E2",
";X c #EC62E4",
":X c #EE62E7",
">X c #ED69E4",
",X c #EE69E7",
"<X c #F068E6",
"1X c #F460EC",
"2X c #F461EC",
"3X c #F664EF",
"4X c #F764EF",
"5X c #F766EF",
"6X c #F767EF",
"7X c #ED75E5",
"8X c #EC7AE3",
"9X c #F861F1",
"0X c #F866F0",
"qX c #F966F1",
"wX c #FA65F2",
"eX c #FA66F2",
"rX c #FA67F2",
"tX c #FB67F3",
"yX c #FD65F5",
"uX c #FC6AF4",
"iX c #FD6AF4",
"pX c #FD6BF5",
"aX c #FE6BF6",
"sX c #FF6BF7",
"dX c #FF6CF7",
"fX c #FE6DF7",
"gX c #FF6BF8",
"hX c #FF6BF9",
"jX c #FF6CFA",
"kX c #F974F1",
"lX c #FB70F4",
"zX c #FE72F6",
"xX c #F77DF0",
"cX c #FF7DF9",
"vX c #FF7EFA",
"bX c #14C0AB",
"nX c #0780C8",
"mX c #0095FF",
"MX c #0097FF",
"NX c #9B878F",
"BX c #97A08D",
"VX c #99A290",
"CX c #A0A997",
"ZX c #C6A0BE",
"AX c #E98CE2",
"SX c #FF84F9",
"DX c #E2B8E0",
"FX c #CBD2C1",
/* pixels */
"                                                        ",
"                                                        ",
"                                                        ",
"                                                        ",
"                                                        ",
"          H G G K F s Z                   B a           ",
"J J J J H P U I L p D.-X7             X r _.S.:         ",
"T T T T Y E { { R u H.6Xp.7         @ % M.XXK.<         ",
"| | | | }  ...X.[ i J.5X XG.! * , - 6.A.#XOXK.,         ",
"%.%.%.%.$.&.;.;.#.y F.3XXXOXE.K.K.K.L.'.XXXXP.=         ",
"-.-.-.-.;.=.*.@.] g.W.#X). X@XXXOXOX+X.X].2X].j.        ",
"O.O.O.O.+.o._ ~ > `.OX~.DXNXr.|..X*X;X:XZXb n.<X$       ",
"( ( ( ) ) / ^ 2 ; Q.1X,Xn 4 7.}.wXd.8.^.f 9 v.>X$       ",
"' ' ' ' ` bXd . = (.zXxXs.0.V.oX%XC.b./.9.a.R.8X0       ",
"mXmXmXmXMXnX8 A z [.cXSXfXh.x.&XZ.y.yXU.t.dXvXAXq       ",
"5.5.5.5.4.w 6 T.z.q.kXlX$XW Q !.w.V 7XY.c 4XrXD         ",
"2.1.<.3.>.5 c.gXhXk.l.9X{.e.g m x l M v S I.f.&         ",
",.B.N.:.# i.jXsXsXaXaXsXtXeXqX0XqXqX0XeX=XN t           ",
"  FXC 3 u.sXuXiXiXiXiXiXpXpXpXpXpXpXpXgXm.1 VX          ",
"  CXO + k j h h h h h h h h h h h h h k e o BX          "
};
