/* XPM */
static char *confused_parrot_frame_12[] = {
/* columns rows colors chars-per-pixel */
"28 20 213 2 ",
"   c None",
".  c #1B3001",
"X  c #1C3203",
"o  c #1E3404",
"O  c #223E04",
"+  c #243C05",
"@  c #273F06",
"#  c #203B08",
"$  c #233E0C",
"%  c #293F0C",
"&  c #293C0E",
"*  c #294004",
"=  c #2A4206",
"-  c #294606",
";  c #2C4A04",
":  c #2D4806",
">  c #2C4E07",
",  c #2C470D",
"<  c #2D4A08",
"1  c #334F04",
"2  c #314D06",
"3  c #2E510C",
"4  c #355202",
"5  c #335106",
"6  c #335307",
"7  c #345406",
"8  c #345A03",
"9  c #385807",
"0  c #2C4614",
"q  c #2F4615",
"w  c #304812",
"e  c #364F12",
"r  c #324D15",
"t  c #32471B",
"y  c #334818",
"u  c #314B18",
"i  c #304A19",
"p  c #33491D",
"a  c #344E1D",
"s  c #344E1E",
"d  c #344F1E",
"f  c #2D5117",
"g  c #335515",
"h  c #325812",
"j  c #3D5817",
"k  c #33501E",
"l  c #34511E",
"z  c #375F1C",
"x  c #37611D",
"c  c #3A6318",
"v  c #3B6419",
"b  c #3C641A",
"n  c #3A5123",
"m  c #3F5229",
"M  c #366120",
"N  c #366323",
"B  c #3B6621",
"V  c #3B6225",
"C  c #396625",
"Z  c #3C6921",
"A  c #3D6C22",
"S  c #3C6A26",
"D  c #3D6C25",
"F  c #3E6F24",
"G  c #3B6828",
"H  c #3B6928",
"J  c #3C6A29",
"K  c #3F6D28",
"L  c #3C6C2A",
"P  c #435E1C",
"I  c #425627",
"U  c #465C2B",
"Y  c #485C33",
"T  c #4A5F34",
"R  c #4C5F38",
"E  c #4E5F39",
"W  c #437121",
"Q  c #467727",
"!  c #477922",
"~  c #477926",
"^  c #4A7C23",
"/  c #4C7F26",
"(  c #43752A",
")  c #40732C",
"_  c #42762F",
"`  c #42772F",
"'  c #4F603B",
"]  c #50613C",
"[  c #50623C",
"{  c #51623E",
"}  c #54673F",
"|  c #546A39",
" . c #5C713D",
".. c #586C44",
"X. c #5A7043",
"o. c #5B7043",
"O. c #5D7343",
"+. c #6A7B58",
"@. c #4C8027",
"#. c #4B863C",
"$. c #4B873D",
"%. c #4D8A3E",
"&. c #508D3A",
"*. c #559339",
"=. c #579538",
"-. c #54943C",
";. c #589739",
":. c #5A9D39",
">. c #5B9D3D",
",. c #589A40",
"<. c #569A48",
"1. c #6D8155",
"2. c #6D8255",
"3. c #6D8057",
"4. c #718454",
"5. c #5BA043",
"6. c #5EA443",
"7. c #5AA44C",
"8. c #5FAA50",
"9. c #5FAD55",
"0. c #5FAC56",
"q. c #61A948",
"w. c #60A949",
"e. c #62AC4B",
"r. c #65B24E",
"t. c #65B24F",
"y. c #65B350",
"u. c #60B155",
"i. c #62B154",
"p. c #61B057",
"a. c #64B357",
"s. c #66B656",
"d. c #69BA55",
"f. c #6ABA54",
"g. c #6ABC56",
"h. c #62B158",
"j. c #63B65A",
"k. c #64B75B",
"l. c #6BBE5A",
"z. c #728063",
"x. c #758763",
"c. c #738165",
"v. c #79886B",
"b. c #7E8E6E",
"n. c #7E8E6F",
"m. c #7E8F6F",
"M. c #7F9070",
"N. c #70C75F",
"B. c #74CF65",
"V. c #75D167",
"C. c #77D66B",
"Z. c #78D76B",
"A. c #79D86D",
"S. c #79D96D",
"D. c #79D96E",
"F. c #79DA6E",
"G. c #7FE576",
"H. c #7FE678",
"J. c #84936F",
"K. c #829074",
"L. c #859475",
"P. c #859178",
"I. c #869578",
"U. c #80E778",
"Y. c #81E97A",
"T. c #82EA7B",
"R. c #8C9781",
"E. c #909C81",
"W. c #929E87",
"Q. c #939D89",
"!. c #949E89",
"~. c #969E8B",
"^. c #96A08C",
"/. c #98A18E",
"(. c #9BA690",
"). c #9BA691",
"_. c #A3AB9A",
"`. c #A7AF9F",
"'. c #AAB1A2",
"]. c #B4BEA4",
"[. c #B9BEB4",
"{. c #84F082",
"}. c #84F183",
"|. c #85F282",
" X c #87F585",
".X c #88F685",
"XX c #88F786",
"oX c #88F886",
"OX c #8AFB89",
"+X c #8BFC89",
"@X c #8BFD8B",
"#X c #8BFE8B",
"$X c #8CFE8B",
"%X c #8CFE8C",
"&X c #8CFF8C",
"*X c #8DFF8D",
"=X c #8DFF8E",
"-X c #8EFF8E",
";X c #8EFF8F",
":X c #8FFF8F",
">X c #8EFF90",
",X c #8FFF90",
"<X c #8FFF91",
"1X c #90FF92",
"2X c #BEC5B3",
"3X c #BBC2B5",
"4X c #C1C7BC",
"5X c #CDD1C9",
"6X c #D2D4D0",
"7X c #D3D6D0",
"8X c #D8DBD3",
"9X c #E4E4E4",
"0X c #E4E5E4",
/* pixels */
"                                                        ",
"              4XR.I D ,.` t J.                          ",
"            !.Y f i.U.<X{.h.F 4.8X                      ",
"          ~.a ; ~ *Xe.Z ! y.#.% I.                      ",
"        `.l j.W S l.< j P u $ X R 5X                    ",
"        E $.-X<.( 0.: 2.b.X.- ) i v.                    ",
"      6Xy -.:X+XZ.s.5 1.m.o.6 V.h U ].                  ",
"      L.w 6.;X&X1Xa.2 2.n.O.7 S.N.> E.                  ",
"    0X .M  X&X&X>Xd.1 3.M...c G.,X8.e 2X                ",
"    9X[ A #X&X&X=XF.z | x.m 9.:X>Xg.= [.                ",
"    9X] A #X&X&X&X,X%.@ n o p.,X=XU.K P.                ",
"    9X{ N &X&X&X&X;X5.+ . _ }.*X;XB.g _.                ",
"      +.V T.-X&X&X&X.X*.B t.:X&X>Xf.* '.                ",
"      (.q Q Y.<X-X&X&X$X#X$X&X&X=XD.b } 3X              ",
"      ).r 8 @.>.r.#X&X&X&X&X&X&X&X-XA.v T !.            ",
"      K., :.=.4 9 q.OX&X&X&X&X&X&X&X=XH.u.d ~.          ",
"    7X' x XXoX;.^ / V.-X&X&X&X&X&X&X&X=X-Xk.k /.        ",
"    W.0 w.%X&X$X#X#X$X&X&X&X&X&X&X&X&X&X&X;X&.& ^.      ",
"    z.3 |.#X@X@X@X@X@X@X@X@X@X@X@X@X@X@X@X%XC.7.s Q.    ",
"    c.O C H G G G G G G G G G G G G G G G G L J # p     "
};
