/* XPM */
static char *confused_parrot_frame_15[] = {
/* columns rows colors chars-per-pixel */
"28 20 208 2 ",
"   c None",
".  c #1A3300",
"X  c #173900",
"o  c #1E3901",
"O  c #203C02",
"+  c #203806",
"@  c #363F1F",
"#  c #234300",
"$  c #224003",
"%  c #234003",
"&  c #274603",
"*  c #274304",
"=  c #254006",
"-  c #294605",
";  c #254008",
":  c #274108",
">  c #2B420D",
",  c #2E4D09",
"<  c #2F4C0B",
"1  c #2F490C",
"2  c #2F5800",
"3  c #325800",
"4  c #345902",
"5  c #325508",
"6  c #34540C",
"7  c #3E5B0E",
"8  c #2A4210",
"9  c #2E4416",
"0  c #354A13",
"q  c #324F15",
"w  c #304C16",
"e  c #364F16",
"r  c #384C14",
"t  c #314019",
"y  c #31461A",
"u  c #344C19",
"i  c #39491E",
"p  c #3D4C1D",
"a  c #3E5019",
"s  c #3C4726",
"d  c #3E4C29",
"f  c #3A5123",
"g  c #3F5124",
"h  c #3F5924",
"j  c #3E5628",
"k  c #415C12",
"l  c #415519",
"z  c #41462C",
"x  c #43472E",
"c  c #484E2D",
"v  c #465225",
"b  c #40542B",
"n  c #41552C",
"m  c #41582B",
"M  c #425C28",
"N  c #474E33",
"B  c #4E4A3A",
"V  c #4F4A3C",
"C  c #514D39",
"Z  c #524C3E",
"A  c #534C3F",
"S  c #524E3F",
"D  c #455130",
"F  c #475232",
"G  c #495F35",
"H  c #4A5F35",
"J  c #515239",
"K  c #56523B",
"L  c #56533B",
"P  c #50563A",
"I  c #5B593C",
"U  c #4A622E",
"Y  c #54612A",
"T  c #536E2F",
"R  c #4E6630",
"E  c #4F6731",
"W  c #4E633A",
"Q  c #4F633B",
"!  c #53683F",
"~  c #564D43",
"^  c #574D45",
"/  c #584D45",
"(  c #594E46",
")  c #594E47",
"_  c #5C4E4B",
"`  c #5C5642",
"'  c #5D5347",
"]  c #666541",
"[  c #6C6847",
"{  c #6A604C",
"}  c #607746",
"|  c #716451",
" . c #7C675E",
".. c #657654",
"X. c #687958",
"o. c #745963",
"O. c #7D5B6F",
"+. c #7F626A",
"@. c #865E78",
"#. c #846C66",
"$. c #856D67",
"%. c #806569",
"&. c #93697F",
"*. c #956D7F",
"=. c #8F7073",
"-. c #94717A",
";. c #6B805A",
":. c #6F825F",
">. c #728462",
",. c #728662",
"<. c #748663",
"1. c #758763",
"2. c #768865",
"3. c #778669",
"4. c #7A896B",
"5. c #7C8D6C",
"6. c #7D8D6E",
"7. c #7F8F70",
"8. c #819173",
"9. c #839275",
"0. c #8A977E",
"q. c #A0728A",
"w. c #A1738C",
"e. c #A4758E",
"r. c #A56E97",
"t. c #A26898",
"y. c #A76E99",
"u. c #A67591",
"i. c #AC7797",
"p. c #AA7299",
"a. c #AC7798",
"s. c #AD7799",
"d. c #AF789C",
"f. c #B1799D",
"g. c #B26EAA",
"h. c #B070A6",
"j. c #B579A2",
"k. c #B77BA4",
"l. c #B77AA6",
"z. c #B97BA7",
"x. c #C77EB8",
"c. c #C97CBF",
"v. c #C676C0",
"b. c #CD7FC1",
"n. c #CA78C5",
"m. c #CD79C8",
"M. c #D079CB",
"N. c #D17BCB",
"B. c #D27ACD",
"V. c #DE7FDC",
"C. c #8B9780",
"Z. c #8C9880",
"A. c #969F8B",
"S. c #92A086",
"D. c #97A48C",
"F. c #98A28D",
"G. c #A6AE9F",
"H. c #A7B19E",
"J. c #AAB1A2",
"K. c #ABB2A3",
"L. c #ABB2A4",
"P. c #B4BAAE",
"I. c #B7BCB1",
"U. c #B7BFB1",
"Y. c #BEC3B9",
"T. c #D080C4",
"R. c #D281C7",
"E. c #D781CE",
"W. c #DD83D5",
"Q. c #E084D9",
"!. c #E285DB",
"~. c #E485DD",
"^. c #E887E2",
"/. c #ED85EB",
"(. c #ED86EB",
"). c #EE87EB",
"_. c #EF87EC",
"`. c #EF85EE",
"'. c #F189EE",
"]. c #F587F4",
"[. c #F389F1",
"{. c #F78AF5",
"}. c #F98AF7",
"|. c #FD8BFC",
" X c #FD8BFD",
".X c #FD8CFD",
"XX c #FE8CFD",
"oX c #FE8CFE",
"OX c #FF8CFE",
"+X c #FF8CFF",
"@X c #FF8DFF",
"#X c #FF8EFF",
"$X c #FF8FFF",
"%X c #C6CBC2",
"&X c #C8CCC4",
"*X c #CCD0C9",
"=X c #CDD1C9",
"-X c #D0D4CD",
";X c #D1D4CF",
":X c #D2D4CF",
">X c #D4D6D2",
",X c #D5D7D3",
"<X c #DEDFDC",
"1X c #DFE0DE",
"2X c #E4E4E4",
"3X c #E4E5E4",
"4X c #E6E6E5",
"5X c #EBEAEB",
/* pixels */
"                                                        ",
"                                                        ",
"                                                        ",
"                      5X1X<X<X                          ",
"                  %XI.P.,.;.:.G.Y.                      ",
"                Z.j $ 1 o.O.c # f J.                    ",
"            H.X.x t.p.k.XX$XR.d.@.b K.                  ",
"            3.@ B.x.` V.@X/.`.].c.* ..                  ",
"          C.z m.$Xr.X n.g.s F D t + H                   ",
"        &XM y.#X@XT.+.N.p U 5.>.8 - ; F.                ",
"        0.& f.#X+X@X#X_.a T 6.1.6 [ ' m                 ",
"      ,Xh | '.+X+X+X+X).l T 6.<., =.*.u *X              ",
"      ;Xg u.@X+X+X+X+X(.r T 6.2.5 $.}.S 8.4X            ",
"      -XP b.@X+X+X+X+X{. .E 7.} i l.+XK Q 2X            ",
"      :Xq #.@X+X+X+X+X#XM.y R < A +X XL W 2X            ",
"      9.9 v z.@X@X+X+X@XE.0 o O { .X+XI ! 3X            ",
"    =XG C w.7 j.Q.@X@X+X@Xh.B { ^.+X~.J S.              ",
"    4.e q.s.2 4 Y a.!.#X+XOX X.X+X#X%.w >X              ",
"  L.n &.oXW.i.e.k 3 ] -.[. X|.|.|.OXv.N D.              ",
"  A.. V ^ ( _ / > : % = Z ~ ~ ~ ~ ~ ) d U.              "
};
