/* XPM */
static char *confused_parrot_frame_13[] = {
/* columns rows colors chars-per-pixel */
"28 20 226 2 ",
"   c None",
".  c #1D3605",
"X  c #1E3605",
"o  c #203503",
"O  c #203707",
"+  c #243C02",
"@  c #213806",
"#  c #223D06",
"$  c #203808",
"%  c #223B08",
"&  c #243D0B",
"*  c #293F08",
"=  c #264303",
"-  c #264204",
";  c #284500",
":  c #2A4707",
">  c #274108",
",  c #27400E",
"<  c #28430A",
"1  c #2E4B0A",
"2  c #304D09",
"3  c #355200",
"4  c #254314",
"5  c #264516",
"6  c #2F4715",
"7  c #2D4717",
"8  c #2B4A1D",
"9  c #2F4F1D",
"0  c #334818",
"q  c #33491B",
"w  c #354B19",
"e  c #374E1A",
"r  c #305212",
"t  c #315413",
"y  c #30551A",
"u  c #36501E",
"i  c #3D6215",
"p  c #3F6619",
"a  c #3F661B",
"s  c #304D20",
"d  c #3A5320",
"f  c #3D5326",
"g  c #3D5526",
"h  c #385F25",
"j  c #31572B",
"k  c #33562C",
"l  c #3A5528",
"z  c #325C33",
"x  c #3D6829",
"c  c #39633C",
"v  c #3F6D39",
"b  c #415C1B",
"n  c #40591D",
"m  c #456119",
"M  c #44601A",
"N  c #45611A",
"B  c #40552A",
"V  c #43572C",
"C  c #415E28",
"Z  c #42582C",
"A  c #42592D",
"S  c #405830",
"D  c #465C32",
"F  c #475C32",
"G  c #4C5D35",
"H  c #45722C",
"J  c #406E31",
"K  c #4F633A",
"L  c #52643B",
"P  c #51633C",
"I  c #53673C",
"U  c #53663F",
"Y  c #447433",
"T  c #44753C",
"R  c #45763D",
"E  c #477839",
"W  c #4A7C3C",
"Q  c #497C3E",
"!  c #59713A",
"~  c #396640",
"^  c #3A6741",
"/  c #3A6742",
"(  c #3A6842",
")  c #3B6843",
"_  c #3B6943",
"`  c #3C6A40",
"'  c #3B6944",
"]  c #3C6B46",
"[  c #3C6B48",
"{  c #3D6C49",
"}  c #3C6E4A",
"|  c #3D6E4B",
" . c #3E6E4A",
".. c #536740",
"X. c #556840",
"o. c #576A40",
"O. c #556842",
"+. c #576A45",
"@. c #546A46",
"#. c #5B6D47",
"$. c #5B6E48",
"%. c #417444",
"&. c #437747",
"*. c #487D4C",
"=. c #467B53",
"-. c #447D5E",
";. c #607842",
":. c #627452",
">. c #687758",
",. c #6C7A5B",
"<. c #4C875F",
"1. c #518D5C",
"2. c #71855C",
"3. c #468061",
"4. c #4F8D69",
"5. c #549263",
"6. c #559666",
"7. c #5B9D6D",
"8. c #748262",
"9. c #7A876C",
"0. c #7A8B69",
"q. c #7A8B6A",
"w. c #7A8C6A",
"e. c #7B8C6B",
"r. c #7D896E",
"t. c #7C8D6D",
"y. c #7F8B71",
"u. c #60A77A",
"i. c #808F6C",
"p. c #818F71",
"a. c #839176",
"s. c #87947A",
"d. c #88967B",
"f. c #549B83",
"g. c #559B83",
"h. c #5FA881",
"j. c #5EAA95",
"k. c #64B18C",
"l. c #66B592",
"z. c #68B895",
"x. c #66B69A",
"c. c #62B4A1",
"v. c #66B8A0",
"b. c #6BBFA4",
"n. c #6BBFA6",
"m. c #6DC1A2",
"M. c #6CC1A4",
"N. c #71C9AF",
"B. c #6CC7B6",
"V. c #70CBBF",
"C. c #71D0C4",
"Z. c #74D2C7",
"A. c #76D5C6",
"S. c #77D6C7",
"D. c #78D7C3",
"F. c #79DAC7",
"G. c #75D5CB",
"H. c #75D6CD",
"J. c #76D7CD",
"K. c #77D8CE",
"L. c #78D8C8",
"P. c #7ADBC8",
"I. c #78D9CC",
"U. c #77D9D1",
"Y. c #78DAD1",
"T. c #7DE0CE",
"R. c #7FE4D7",
"E. c #7BE0D8",
"W. c #7CE1DB",
"Q. c #7FE6DE",
"!. c #7EE6E0",
"~. c #7FE6E0",
"^. c #929C87",
"/. c #939E88",
"(. c #949F88",
"). c #97A08D",
"_. c #98A28F",
"`. c #9FAD8B",
"'. c #9CA692",
"]. c #9EA993",
"[. c #A9B1A1",
"{. c #A9B3A0",
"}. c #B7BFAE",
"|. c #B5BBB0",
" X c #BAC1B3",
".X c #BDC4B7",
"XX c #C1C6BC",
"oX c #81E9DE",
"OX c #83EDE3",
"+X c #85F1E9",
"@X c #85F2EB",
"#X c #85F2EC",
"$X c #84F1EF",
"%X c #85F2EF",
"&X c #86F3F0",
"*X c #86F3F1",
"=X c #87F6F3",
"-X c #88F7F2",
";X c #89F9F8",
":X c #8AFBF8",
">X c #8BFCFB",
",X c #8BFCFC",
"<X c #8BFDFC",
"1X c #8BFDFD",
"2X c #8BFEFD",
"3X c #8BFDFE",
"4X c #8CFEFE",
"5X c #8CFFFE",
"6X c #8CFFFF",
"7X c #8DFFFF",
"8X c #8EFFFF",
"9X c #8FFFFF",
"0X c #C9CEC5",
"qX c #CBCEC7",
"wX c #CED3C6",
"eX c #CFD3CB",
"rX c #D2D6CF",
"tX c #D6D9D3",
"yX c #D6D8D4",
"uX c #E1E2E0",
"iX c #E4E4E3",
"pX c #E4E4E4",
"aX c #E5E5E5",
"sX c #EBEBEC",
"dX c #ECEBEC",
"fX c #EDECEF",
/* pixels */
"                                                        ",
"            0X.X}.`.wX                                  ",
"        dX[.O.A g = I 9.yX                              ",
"      tXs.S y v.H.U.3.5 $.{.                            ",
"    rXp.* } Q.7XY.G.V.n.r Z  X                          ",
"    (.7 *.O <.l.s d : 1 % X >.qX                        ",
"    +.f.S.2 1.h n 2.;.6 $ < > |.                        ",
"  /., K.:XP.@X` M e.t.b J I.=.G yX                      ",
"  _.; F.8X7X5XR N w.q.e Q 9Xk.u XX                      ",
"uXr.%.OX7X6X1Xv m w.q.w E 2X>Xc 8.aX                    ",
"eXX.&.OX7X6X5XM.C 0.0.l b.5X5Xc.@.iX                    ",
"rX#.4.-X7X6X6X$X9 ! K 8 %X6X4X6...pX                    ",
"sX^.t T.7X6X6X&X^ & @ ~ *X6X2XY L fX                    ",
"  ).- L.8X6X6X8XA.+ / ~.7X6X4Xh.B i.                    ",
"  ).. Z.8X6X6X7X+Xx.W.8X6X6X6X3Xg.# o.a.                ",
"  d.f T oX#X@X4X8X9X7X6X6X6X6X7X;XJ.-.0 P ].            ",
"    U x p i a m.R.5X6X6X6X6X6X6X6X8X=X5.j V '.          ",
"    :.B.u.7.H 3 W 2X6X6X6X6X6X6X6X6X6X7X!.( o y.        ",
"    D C.9X8XD.z.N.,X<X<X<X<X<X<X<X<X<X<X7XE.j.k ,.      ",
"    F z ' ) [ | { _ ) ) ) ) ) ) ) ) ) ) ) ]  .4 q 0.    "
};
