/* XPM */
static char *confused_parrot_frame_5[] = {
/* columns rows colors chars-per-pixel */
"28 20 221 2 ",
"   c None",
".  c #1C3402",
"X  c #1F3602",
"o  c #1E3603",
"O  c #203803",
"+  c #233D02",
"@  c #213804",
"#  c #233A05",
"$  c #213A07",
"%  c #233C06",
"&  c #243E04",
"*  c #223908",
"=  c #233A09",
"-  c #263F09",
";  c #243E10",
":  c #274200",
">  c #254003",
",  c #274204",
"<  c #284401",
"1  c #2A4703",
"2  c #2D4A01",
"3  c #2A450A",
"4  c #29430F",
"5  c #2C470F",
"6  c #2D4909",
"7  c #2E4A0B",
"8  c #375802",
"9  c #385904",
"0  c #385905",
"q  c #284010",
"w  c #2C4312",
"e  c #2C4314",
"r  c #2B4615",
"t  c #2D4A12",
"y  c #2E4B15",
"u  c #2C4519",
"i  c #2C471A",
"p  c #324D10",
"a  c #304D12",
"s  c #304F15",
"d  c #314E16",
"f  c #304718",
"g  c #314E18",
"h  c #324B1C",
"j  c #384D1E",
"k  c #355616",
"l  c #37541B",
"z  c #3D561B",
"x  c #375818",
"c  c #385A19",
"v  c #324C20",
"b  c #314A24",
"n  c #324A24",
"m  c #394F20",
"M  c #304B2B",
"N  c #324D2F",
"B  c #355226",
"V  c #375327",
"C  c #3E5328",
"Z  c #3B542A",
"A  c #3A592A",
"S  c #355130",
"D  c #385530",
"F  c #3B573B",
"G  c #3C593F",
"H  c #40621C",
"J  c #40562C",
"K  c #465B2D",
"L  c #465C2E",
"P  c #485C35",
"I  c #415F3D",
"U  c #436523",
"Y  c #4C6627",
"T  c #44662A",
"R  c #55752C",
"E  c #456737",
"W  c #4E6235",
"Q  c #466739",
"!  c #4E613B",
"~  c #516833",
"^  c #50653B",
"/  c #51633E",
"(  c #55683F",
")  c #3A5540",
"_  c #3A5743",
"`  c #3B5743",
"'  c #3C5841",
"]  c #3D5942",
"[  c #3D5946",
"{  c #3C5847",
"}  c #3D594A",
"|  c #3D594B",
" . c #3D5A4B",
".. c #405B46",
"X. c #405B47",
"o. c #405D47",
"O. c #425F51",
"+. c #426242",
"@. c #436242",
"#. c #436243",
"$. c #546740",
"%. c #4E705C",
"&. c #607743",
"*. c #637944",
"=. c #627947",
"-. c #61734C",
";. c #627351",
":. c #667556",
">. c #6A7B56",
",. c #6F7D5F",
"<. c #466462",
"1. c #4D6D60",
"2. c #527277",
"3. c #707F60",
"4. c #6C874F",
"5. c #6E8058",
"6. c #6F8359",
"7. c #71815E",
"8. c #72835F",
"9. c #728062",
"0. c #738462",
"q. c #758662",
"w. c #778965",
"e. c #788863",
"r. c #7C8C6C",
"t. c #7C8D6D",
"y. c #7E8D6D",
"u. c #7D8D6E",
"i. c #7E8F6F",
"p. c #80906B",
"a. c #819073",
"s. c #899879",
"d. c #8B997E",
"f. c #577889",
"g. c #5C7E8D",
"h. c #5F8198",
"j. c #5F8199",
"k. c #5F819A",
"l. c #608480",
"z. c #618680",
"x. c #618683",
"c. c #628783",
"v. c #62868F",
"b. c #65898D",
"n. c #668B8F",
"m. c #688E93",
"M. c #698F97",
"N. c #60829C",
"B. c #61839D",
"V. c #64889A",
"C. c #698F98",
"Z. c #6A8F99",
"A. c #678CA0",
"S. c #698DA6",
"D. c #698EA7",
"F. c #6C91A5",
"G. c #6D93A5",
"H. c #6F95A8",
"J. c #6B8FB5",
"K. c #749BB7",
"L. c #759CBB",
"P. c #789FC0",
"I. c #7499C9",
"U. c #769CC9",
"Y. c #799FD6",
"T. c #7AA1C9",
"R. c #7AA2C9",
"E. c #7BA2CA",
"W. c #7CA4D0",
"Q. c #7FA6D7",
"!. c #7CA2D9",
"~. c #7DA4DD",
"^. c #7DA4DE",
"/. c #909C84",
"(. c #929E87",
"). c #98A38E",
"_. c #AFBA9F",
"`. c #A9B1A2",
"'. c #ABB3A2",
"]. c #ADB4A5",
"[. c #B8BDB2",
"{. c #BDC4B2",
"}. c #BBC1B6",
"|. c #BCC3B6",
" X c #BFC6B4",
".X c #BDC4B7",
"XX c #BEC3B9",
"oX c #C0C5BB",
"OX c #82ABE1",
"+X c #83ABE1",
"@X c #83ABE2",
"#X c #83AAEB",
"$X c #84ACEB",
"%X c #85ACEF",
"&X c #85AEEF",
"*X c #85ADF0",
"=X c #87B0F2",
"-X c #88B1F0",
";X c #88B0F2",
":X c #89B2F2",
">X c #89B2F6",
",X c #8AB2F8",
"<X c #8AB3FB",
"1X c #8BB3FB",
"2X c #8BB4FC",
"3X c #8BB4FD",
"4X c #8BB4FE",
"5X c #8CB5FD",
"6X c #8CB4FE",
"7X c #8CB5FE",
"8X c #8CB5FF",
"9X c #8DB6FF",
"0X c #8DB7FF",
"qX c #8EB7FF",
"wX c #8FB9FF",
"eX c #CED3C8",
"rX c #D1D4CE",
"tX c #D2D6CF",
"yX c #D3D7D0",
"uX c #D5D7D3",
"iX c #E5E6E5",
/* pixels */
"                                                        ",
"                                                        ",
"          _.e.,.$.9.(.rX                                ",
"      eX7.J s k x y b ! 0.                              ",
"    yX=.F f.=X-X:X;X*X<.P oX                            ",
"    a.n Y.V.Q.J.j.k.N.v.; / }.                          ",
"  /.e 2.%.: M.[ W ( z < $ . 3.                          ",
"tX;.t W.S.g m.X.q.i.6.f i a w ].                        ",
"`.# g.qX4X&Xn.h 0.t.&.v ~.H.d -.                        ",
"~ N I.qX8X8X<X..8.r.4.V #X0XG.Z '.                      ",
"> D E.0X8X8X3X..8.u.R c $X8X8X' *.                      ",
"O o.OX9X8X8X3XG Y w.L A.7X8X3X] p.iX                    ",
"1 B P.0X8X8X3XQ , p - U.qX8X3XX.y.                      ",
"m ) !.0X8X8X7Xx.3 o +.+X9X8X3XI >..X                    ",
").X h.wX8X8X8X5Xl.#.^.qX8X8X8XF.u ^ |.                  ",
" X6 A R.0X0X0X9X>X@XqX8X8X8X8X9XD.l K C XX              ",
"{.7 2 U L.T.T.,X9X9X8X8X8X8X8X8X0XG.E 5 j s.            ",
"[.* @.H 8 9 0 c.6X8X8X8X8X8X8X8X8X8X2Xb.O.& 5.          ",
"[.@ B.K.C.Z.C.T z.1X2X2X2X2X2X2X2X2X2X9X%X1.+ :.uX      ",
"[.= M  . .| } r 4 _ ` ` ` ` ` ` ` ` ` ` { S % q d.      "
};
