/* XPM */
static char *confused_parrot_frame_23[] = {
/* columns rows colors chars-per-pixel */
"28 20 211 2 ",
"   c None",
".  c #1C3503",
"X  c #1A3404",
"o  c #1B3404",
"O  c #1E3606",
"+  c #1E3706",
"@  c #1F3802",
"#  c #1E3805",
"$  c #223E00",
"%  c #223D04",
"&  c #213E04",
"*  c #223A0B",
"=  c #264305",
"-  c #284305",
";  c #294307",
":  c #2A4406",
">  c #2A4407",
",  c #2D4B06",
"<  c #254209",
"1  c #29410B",
"2  c #2D490E",
"3  c #334A0D",
"4  c #344B0F",
"5  c #364C0F",
"6  c #315308",
"7  c #39540A",
"8  c #39560C",
"9  c #3E5C0C",
"0  c #284111",
"q  c #2B4313",
"w  c #2F4618",
"e  c #2F4819",
"r  c #304411",
"t  c #324714",
"y  c #324A11",
"u  c #344813",
"i  c #374D11",
"p  c #324C14",
"a  c #364A19",
"s  c #334B1E",
"d  c #364D1F",
"f  c #395116",
"g  c #3E5A1D",
"h  c #374E23",
"j  c #384F24",
"k  c #3D5327",
"l  c #3F5328",
"z  c #435C12",
"x  c #405119",
"c  c #44531A",
"v  c #46531E",
"b  c #4B561F",
"n  c #49591C",
"m  c #4C5E1C",
"M  c #596E1D",
"N  c #4D5B20",
"B  c #4A5A25",
"V  c #475F2B",
"C  c #455B2D",
"Z  c #525C25",
"A  c #565F28",
"S  c #475C31",
"D  c #475C32",
"F  c #475C33",
"G  c #4A5C31",
"H  c #485D32",
"J  c #485D33",
"K  c #4B5F35",
"L  c #596822",
"P  c #5E6B25",
"I  c #59602A",
"U  c #5A622B",
"Y  c #5F672A",
"T  c #5A632E",
"R  c #5E6829",
"E  c #4E613C",
"W  c #4F623D",
"Q  c #536B32",
"!  c #50623D",
"~  c #60692A",
"^  c #6E762D",
"/  c #71782F",
"(  c #6C6E33",
")  c #7B7F37",
"_  c #7C7F37",
"`  c #777938",
"'  c #7C7D3A",
"]  c #7B793E",
"[  c #7C793E",
"{  c #7D7A3F",
"}  c #7E7D3E",
"|  c #00004A",
" . c #546A41",
".. c #5E7540",
"X. c #5F7642",
"o. c #5F7646",
"O. c #5E754B",
"+. c #5F714E",
"@. c #60714F",
"#. c #617551",
"$. c #647853",
"%. c #697959",
"&. c #6B7A5A",
"*. c #6C7B5C",
"=. c #717F61",
"-. c #618539",
";. c #7E8038",
":. c #658246",
">. c #6E805D",
",. c #6E825E",
"<. c #708060",
"1. c #708061",
"2. c #708161",
"3. c #738164",
"4. c #738264",
"5. c #7A896B",
"6. c #7A8A6B",
"7. c #7A8C69",
"8. c #7B8E69",
"9. c #7B8B6C",
"0. c #7C8D6C",
"q. c #7D8D6D",
"w. c #7D8E6D",
"e. c #828839",
"r. c #858A3B",
"t. c #8C8E3F",
"y. c #888443",
"u. c #898643",
"i. c #8C8744",
"p. c #8E8E42",
"a. c #8F8B44",
"s. c #998E4B",
"d. c #919143",
"f. c #949344",
"g. c #959347",
"h. c #99914A",
"j. c #9B964A",
"k. c #9B974A",
"l. c #9C924E",
"z. c #9E984C",
"x. c #A09B4D",
"c. c #AD9B5A",
"v. c #B7A85D",
"b. c #B8A95D",
"n. c #B8A85E",
"m. c #808F72",
"M. c #879773",
"N. c #879577",
"B. c #8A977C",
"V. c #BFA865",
"C. c #C3B165",
"Z. c #C4B165",
"A. c #C7B168",
"S. c #CCB66A",
"D. c #CEB76B",
"F. c #CCB16C",
"G. c #CCB26E",
"H. c #CEB76C",
"J. c #CFB46F",
"K. c #D1B96D",
"L. c #D2BA6E",
"P. c #D3BB6E",
"I. c #D5BB71",
"U. c #E7C77B",
"Y. c #919D86",
"T. c #939F87",
"R. c #959F8B",
"E. c #96A28C",
"W. c #99A390",
"Q. c #A4AE9A",
"!. c #ACB3A5",
"~. c #ADB4A5",
"^. c #AFB6A7",
"/. c #B7BDB1",
"(. c #BAC1B4",
"). c #BDC2B7",
"_. c #ECC980",
"`. c #EFCC81",
"'. c #F1CD82",
"]. c #F1CE83",
"[. c #F1CC84",
"{. c #F3CE84",
"}. c #F5CF86",
"|. c #F6D086",
" X c #F6D186",
".X c #F7D187",
"XX c #F8D287",
"oX c #F9D288",
"OX c #FAD389",
"+X c #FBD389",
"@X c #FBD489",
"#X c #FCD48A",
"$X c #FDD48B",
"%X c #FDD58B",
"&X c #FED58B",
"*X c #FED58C",
"=X c #FED68C",
"-X c #FFD68C",
";X c #FFD68D",
":X c #FFD78D",
">X c #FFD88E",
",X c #FFD98F",
"<X c #FFDA8F",
"1X c #FFDA90",
"2X c #FFDC91",
"3X c #FFDD92",
"4X c #CED3C8",
"5X c #D5D7D3",
"6X c #D5D8D2",
"7X c #E7E7E7",
"8X c #EEEEEF",
/* pixels */
"                    8Xm.* X O o w 9.                    ",
"                  /.R.h 5 ] n Y ; W T.                  ",
"  | | | |       6X<.$ u.C.,XK.U.n.( s ^.                ",
"  |     |     4XX.f 9 ~ A.P U T R m + Q                 ",
"      | |     2.y z.e.& L 2 o.,.g # X q !.      | | |   ",
"      |     7XE b -Xb.y.V.S w.q.$.v [ 5 F (.  | |   |   ",
"    | |     Q.G c.=X>X2XF.S w.0.#.{ 3Xv.t 4.        |   ",
"            3.u [.;X-X>XF.C 8.-.O.] <X;Xs.=.        |   ",
"            %.7 `.-X-X>XJ.6 :.7. .} <X X/ K       |     ",
"            D _ XX-X-X>XP., V ..< r.,XOXa.D             ",
"            D ;.XX-X-X:X].` % = x H.:XOXa.H             ",
"            J l.#X-X-X-X1Xv.4 r G.>X-X X^ &.            ",
"          B.k c }.>X-X-X-XoX_.p.{.-X-X#Xh.*.            ",
"          W.. 8 x.L.1X,X-X-X-X&X-X-X-X.X) d Y.          ",
"        6.! > g.d.M t.f.|.-X-X-X-X-X-X>XI.- 1.          ",
"      ).l 3 j.=X+XL.D.L.@X-X-X-X-X-X-X;X@Xi.0 ~.        ",
"    5.j N _.+X;X;X>X>X>X-X-X-X-X-X-X-X-X,XZ.i +.        ",
"  6X@.: k.=X-X-X-X-X-X-X-X-X-X-X-X-X-X-X-X,X' e 5X      ",
"  M.p z '.%X$X$X$X$X$X$X$X$X$X$X$X$X$X$X$X*XS.B E.      ",
"  N.@ 1 Z A A A A A A A A A A A A A A A A A I a >.      "
};
