/* XPM */
static char *confused_parrot_frame_1[] = {
/* columns rows colors chars-per-pixel */
"28 20 213 2 ",
"   c None",
".  c #1A3500",
"X  c #1B3704",
"o  c #1D3605",
"O  c #1F3605",
"+  c #1F3907",
"@  c #213807",
"#  c #213F04",
"$  c #213A09",
"%  c #273F08",
"&  c #253E0B",
"*  c #2E3D10",
"=  c #214103",
"-  c #254601",
";  c #284405",
":  c #294706",
">  c #25400A",
",  c #25460C",
"<  c #284109",
"1  c #364B0B",
"2  c #304B0C",
"3  c #374B0E",
"4  c #38490D",
"5  c #394B0F",
"6  c #394F0E",
"7  c #325106",
"8  c #2B4314",
"9  c #304313",
"0  c #334C13",
"q  c #384B10",
"w  c #3B4B10",
"e  c #394815",
"r  c #35451A",
"t  c #364E18",
"y  c #354B1D",
"u  c #3F491A",
"i  c #3A531D",
"p  c #394F23",
"a  c #365023",
"s  c #3C5223",
"d  c #3C5427",
"f  c #3F542A",
"g  c #454A1B",
"h  c #474D1B",
"j  c #435114",
"k  c #4D5F15",
"l  c #44541B",
"z  c #495218",
"x  c #555C1E",
"c  c #56621B",
"v  c #57621C",
"b  c #434E21",
"n  c #4D4E27",
"m  c #544F23",
"M  c #554B25",
"N  c #534C25",
"B  c #544D27",
"V  c #564D28",
"C  c #594E2A",
"Z  c #5A4F2A",
"A  c #5B4F2A",
"S  c #445122",
"D  c #405124",
"F  c #445425",
"G  c #4B5327",
"H  c #425B20",
"J  c #42522A",
"K  c #475128",
"L  c #41572B",
"P  c #44542B",
"I  c #43572E",
"U  c #43572F",
"Y  c #41582D",
"T  c #455C2F",
"R  c #535221",
"E  c #5A5625",
"W  c #5A5A20",
"Q  c #5D5F20",
"!  c #54572F",
"~  c #475B31",
"^  c #465A32",
"/  c #475B32",
"(  c #475C33",
")  c #485C32",
"_  c #4A5D34",
"`  c #4B5F35",
"'  c #715934",
"]  c #775A3B",
"[  c #4D7329",
"{  c #4C6239",
"}  c #4F643D",
"|  c #51643D",
" . c #58713B",
".. c #73692F",
"X. c #7B6734",
"o. c #776A31",
"O. c #7F5C40",
"+. c #556842",
"@. c #566B45",
"#. c #596E41",
"$. c #567042",
"%. c #587540",
"&. c #667757",
"*. c #81693A",
"=. c #846A3A",
"-. c #866E3C",
";. c #896E3E",
":. c #8A6F3E",
">. c #855D41",
",. c #8E6F41",
"<. c #9E6B4D",
"1. c #A96C59",
"2. c #AF6E5B",
"3. c #AD6D5C",
"4. c #B26F5E",
"5. c #A37350",
"6. c #B07857",
"7. c #B3765A",
"8. c #B6785C",
"9. c #B77A5C",
"0. c #B87A5D",
"q. c #B97A5D",
"w. c #BB7B5F",
"e. c #BA7162",
"r. c #BC7363",
"t. c #BE7565",
"y. c #C27767",
"u. c #C37D64",
"i. c #C47568",
"p. c #CB776C",
"a. c #C97E68",
"s. c #CA7E69",
"d. c #CC7F6A",
"f. c #CB786D",
"g. c #CB796D",
"h. c #CC786C",
"j. c #CF7B6D",
"k. c #6B8153",
"l. c #72865D",
"z. c #708060",
"x. c #728263",
"c. c #738264",
"v. c #738364",
"b. c #768865",
"n. c #768866",
"m. c #798C67",
"M. c #778968",
"N. c #7B8D6A",
"B. c #7B8C6B",
"V. c #7D8E6D",
"C. c #7E8F6F",
"Z. c #7D9066",
"A. c #829273",
"S. c #829276",
"D. c #869379",
"F. c #88967A",
"G. c #89957D",
"H. c #D1806E",
"J. c #D4826F",
"K. c #D48170",
"L. c #D68271",
"P. c #D88372",
"I. c #DB8374",
"U. c #E08478",
"Y. c #E5857B",
"T. c #E5827C",
"R. c #E8837E",
"E. c #EC877F",
"W. c #8F9B84",
"Q. c #96A08A",
"!. c #98A38D",
"~. c #A9B0A1",
"^. c #AAB1A2",
"/. c #AAB2A3",
"(. c #ACB3A5",
"). c #ABB5A4",
"_. c #AEB5A7",
"`. c #AEB6A7",
"'. c #B6BCB0",
"]. c #EE8881",
"[. c #F18882",
"{. c #F18883",
"}. c #F38885",
"|. c #F48985",
" X c #FB8B89",
".X c #FC8B8A",
"XX c #FD8B8B",
"oX c #FD8C8B",
"OX c #FF8C8C",
"+X c #FF8C8D",
"@X c #FF8D8D",
"#X c #FF8D8E",
"$X c #FF8D8F",
"%X c #FF8E8F",
"&X c #FF8E90",
"*X c #FF8E91",
"=X c #FF8F91",
"-X c #FF8F92",
";X c #B9C0B3",
":X c #BAC1B4",
">X c #BDC4B6",
",X c #C0C6B9",
"<X c #C5CAC0",
"1X c #C6CBC1",
"2X c #C9CEC5",
"3X c #CBCEC7",
"4X c #D2D6D1",
"5X c #D3D6D2",
"6X c #D5D8D2",
"7X c #DCDDDA",
"8X c #E7E7E7",
"9X c #ECEBEC",
"0X c #EDEDEE",
/* pixels */
"                                                        ",
"                            9X1XG.z.`.Z.,X0X            ",
"                          <XD._ @ O y 0 ` c.            ",
"                        _.^ 2 <.g.t.e.2.1 & W.          ",
"                      _.p - : x d.j b K < ; |           ",
"                    :X( 5 :.h q r.t k.M.I + $ !.        ",
"                    x.9 8.&Xf.3.i.) C.m.[ Z A Y         ",
"                    i z |.OX#X-Xh.~ V.N.%.O.R.n S.      ",
"                  Q.. y.@XOXOX#Xp./ C.B.$.] %Xm } 8X    ",
"                3X&.M T.@XOXOX#Xj.H l.b.l 4.@XQ T ;X    ",
"                '.X 1.=XOXOXOX#XJ.7 #. .e w.@X7.D n.    ",
"                U = 5.@XOXOXOX#XP.6 8 > g U.OX=.s A.    ",
"              (.r E c L.#XOXOXOXOX0.3 # *.OXoXW { 7X    ",
"            ^.a R +X;.H.*X#XOXOXOX#X9.,.|.OX+XB @.      ",
"        9X/.f >.u.$X:...-.9.OXOXOXOX#X$XOX#X0.S ).      ",
"      6XF.P w I.*X+XY.u.k v o.U.@XOXOXOXOX+XK.! 4X      ",
"      v., X.}..XOXOX@X+X[.].E. XOXOXOXOXOX#X6.F 5X      ",
"    ~.J ' q.#XOXOXOXOXOXOXOXOXOXOXOXOXOXOX@Xs.G ).      ",
"  2X+.4 {.+XXXXXXXXXXXXXXXXXXXXXXXXXXXXXXXOXa.u d       ",
"  >XL % N V V V V V V V V V V V V V V V V V C * o       "
};
