/* XPM */
static char *confused_parrot_frame_10[] = {
/* columns rows colors chars-per-pixel */
"28 20 203 2 ",
"   c None",
".  c #1E3503",
"X  c #1D3604",
"o  c #1C3806",
"O  c #203806",
"+  c #213C07",
"@  c #233909",
"#  c #223A09",
"$  c #253F08",
"%  c #243F09",
"&  c #283B0B",
"*  c #2F3F0B",
"=  c #303B0F",
"-  c #313D0F",
";  c #284707",
":  c #2C4B07",
">  c #244008",
",  c #254108",
"<  c #2D4908",
"1  c #2B4C09",
"2  c #30400B",
"3  c #31420D",
"4  c #324E09",
"5  c #36490D",
"6  c #39490C",
"7  c #305506",
"8  c #39590D",
"9  c #2B4414",
"0  c #374710",
"q  c #354412",
"w  c #3C4B10",
"e  c #354A19",
"r  c #36491B",
"t  c #305211",
"y  c #315212",
"u  c #335016",
"i  c #345016",
"p  c #375018",
"a  c #37501A",
"s  c #3A4E24",
"d  c #3B5325",
"f  c #3D5227",
"g  c #3D552A",
"h  c #404513",
"j  c #474E12",
"k  c #47451D",
"l  c #45461E",
"z  c #55431E",
"x  c #55441D",
"c  c #55451F",
"v  c #485B10",
"b  c #4D5C12",
"n  c #4B5218",
"m  c #4E5318",
"M  c #405D1F",
"N  c #525C14",
"B  c #575D17",
"V  c #5A501A",
"C  c #5D501F",
"Z  c #665E1F",
"A  c #424B21",
"S  c #564520",
"D  c #5E4622",
"F  c #47552B",
"G  c #47552C",
"H  c #49572D",
"J  c #43582D",
"K  c #465B30",
"L  c #465B31",
"P  c #485B31",
"I  c #4B5A31",
"U  c #4A5D33",
"Y  c #784D2F",
"T  c #6B5923",
"R  c #6C5E21",
"E  c #755F26",
"W  c #73502B",
"Q  c #785628",
"!  c #7D552E",
"~  c #7B592C",
"^  c #7B4D30",
"/  c #7A4E30",
"(  c #7B4E30",
")  c #7E4D31",
"_  c #46642B",
"`  c #47652B",
"'  c #4C6038",
"]  c #4E6239",
"[  c #51633E",
"{  c #526D3C",
"}  c #766031",
"|  c #526540",
" . c #576A46",
".. c #596C47",
"X. c #5D724B",
"o. c #656946",
"O. c #617450",
"+. c #667656",
"@. c #667757",
"#. c #697F50",
"$. c #707F60",
"%. c #82592F",
"&. c #855A2E",
"*. c #8F5D37",
"=. c #905D35",
"-. c #85612E",
";. c #87612F",
":. c #996238",
">. c #AE5745",
",. c #AD5B43",
"<. c #A85C42",
"1. c #B45A4A",
"2. c #AD6143",
"3. c #AE6042",
"4. c #B06043",
"5. c #B46145",
"6. c #B16544",
"7. c #B76547",
"8. c #B96548",
"9. c #BA6548",
"0. c #BC7363",
"q. c #C1664C",
"w. c #C2674C",
"e. c #C86550",
"r. c #CD6752",
"t. c #CF6753",
"y. c #D06156",
"u. c #D16156",
"i. c #D26057",
"p. c #D26157",
"a. c #D36257",
"s. c #D36755",
"d. c #D76857",
"f. c #D36058",
"g. c #DF665C",
"h. c #E0645D",
"j. c #E1645E",
"k. c #E4655F",
"l. c #E2695C",
"z. c #E76660",
"x. c #ED6763",
"c. c #EA6960",
"v. c #EC6B61",
"b. c #EE6A62",
"n. c #F06664",
"m. c #F26865",
"M. c #F16A64",
"N. c #F56A65",
"B. c #F56A66",
"V. c #F76B67",
"C. c #FB6A69",
"Z. c #FB6B69",
"A. c #FC6A6A",
"S. c #FD6A6A",
"D. c #FC6B6A",
"F. c #FD6B6A",
"G. c #FE6B6B",
"H. c #FF6B6B",
"J. c #FF6B6C",
"K. c #FF6B6D",
"L. c #FF6B6E",
"P. c #FF6C6C",
"I. c #FF6C6D",
"U. c #FF6C6E",
"Y. c #FF6D6E",
"T. c #6F8255",
"R. c #6C8057",
"E. c #728655",
"W. c #72865E",
"Q. c #798B67",
"!. c #7B8C6B",
"~. c #7B886D",
"^. c #7D8E6D",
"/. c #7D8E6E",
"(. c #7E8F6F",
"). c #829072",
"_. c #879673",
"`. c #929D87",
"'. c #97A28C",
"]. c #9BA790",
"[. c #A1AB97",
"{. c #A3AF9B",
"}. c #A3B192",
"|. c #A6B09C",
" X c #A6B09D",
".X c #ADB4A5",
"XX c #ADB8A1",
"oX c #B5BFA6",
"OX c #B7BFB1",
"+X c #BAC1B3",
"@X c #BCC1B6",
"#X c #BEC5B6",
"$X c #C0C7BB",
"%X c #C5C9C0",
"&X c #CFD2CC",
"*X c #D3D6CE",
"=X c #D6D8D4",
"-X c #D6D9D4",
";X c #DCDEDA",
":X c #DEDFDC",
">X c #E6E6E6",
",X c #E7E7E7",
"<X c #EAEAEB",
/* pixels */
"                                                        ",
"                                                        ",
"                                  ,X$X-X>X              ",
"                              %Xs ' F U g @.:X          ",
"                          #XT.u , 6 5.&.x k ..&X        ",
"                        ).1 ; T 4 %.U.w.2.W > _.        ",
"                      {.l <.6.g.= ) 1.5 7 : $ a *X      ",
"                    =X .D I.L.A.u.z.Y t #.R.f + E.;X    ",
"                    ~.* h.H.H.H.P.Y.( { !.(.L n e [.    ",
"                  @X[ Q V.H.H.H.H.I.^ ` Q.^.P 0.0 |     ",
"                  $.. i.I.H.H.H.H.I./ _ Q./.K } *.O     ",
"                .X9 < e.J.H.H.H.H.I.=.8 W.!.J ,.u.@     ",
"                X.w v N M.H.H.H.H.J.d.h M ] % a.p.@     ",
"              O.q 8.8.B M.H.H.H.H.K.9.W & o C v.f.@     ",
"            OXG >.J.H.R :.G.H.H.H.H.K.m.- c j.Z.~ #     ",
"          '.d m N.H.H.r.Z c.b.M.J.J.H.C.y.k.I.x.2 +.    ",
"        XXy j s.H.H.H.B.E E B b q.l.J.H.P.J.H.n.A ].    ",
"      }.o.! t.K.H.H.H.H.F.H.7.-.;.8.K.H.H.H.G.4.I  X    ",
"  <X`.i V H.G.S.S.S.S.S.S.S.H.J.J.H.S.S.S.S.D.3.H +X    ",
"  oXp X 3 S S S S S S S S S S S S S S S S S S z r |.    "
};
