/* XPM */
static char *confused_parrot_frame_2[] = {
/* columns rows colors chars-per-pixel */
"28 20 210 2 ",
"   c None",
".  c #1C3503",
"X  c #1A3404",
"o  c #1B3404",
"O  c #1E3606",
"+  c #1E3706",
"@  c #1F3802",
"#  c #1E3805",
"$  c #223E00",
"%  c #223D04",
"&  c #213E04",
"*  c #223A0B",
"=  c #264305",
"-  c #284305",
";  c #294307",
":  c #2A4406",
">  c #2A4407",
",  c #2D4B06",
"<  c #254209",
"1  c #29410B",
"2  c #2D490E",
"3  c #334A0D",
"4  c #344B0F",
"5  c #364C0F",
"6  c #315308",
"7  c #39540A",
"8  c #39560C",
"9  c #3E5C0C",
"0  c #284111",
"q  c #2B4313",
"w  c #2F4618",
"e  c #2F4819",
"r  c #304411",
"t  c #324714",
"y  c #324A11",
"u  c #344813",
"i  c #374D11",
"p  c #324C14",
"a  c #364A19",
"s  c #334B1E",
"d  c #364D1F",
"f  c #395116",
"g  c #3E5A1D",
"h  c #374E23",
"j  c #384F24",
"k  c #3D5327",
"l  c #3F5328",
"z  c #435C12",
"x  c #405119",
"c  c #44531A",
"v  c #46531E",
"b  c #4B561F",
"n  c #49591C",
"m  c #4C5E1C",
"M  c #596E1D",
"N  c #4D5B20",
"B  c #4A5A25",
"V  c #475F2B",
"C  c #455B2D",
"Z  c #525C25",
"A  c #565F28",
"S  c #475C31",
"D  c #475C32",
"F  c #475C33",
"G  c #4A5C31",
"H  c #485D32",
"J  c #485D33",
"K  c #4B5F35",
"L  c #596822",
"P  c #5E6B25",
"I  c #59602A",
"U  c #5A622B",
"Y  c #5F672A",
"T  c #5A632E",
"R  c #5E6829",
"E  c #4E613C",
"W  c #4F623D",
"Q  c #536B32",
"!  c #50623D",
"~  c #60692A",
"^  c #6E762D",
"/  c #71782F",
"(  c #6C6E33",
")  c #7B7F37",
"_  c #7C7F37",
"`  c #777938",
"'  c #7C7D3A",
"]  c #7B793E",
"[  c #7C793E",
"{  c #7D7A3F",
"}  c #7E7D3E",
"|  c #546A41",
" . c #5E7540",
".. c #5F7642",
"X. c #5F7646",
"o. c #5E754B",
"O. c #5F714E",
"+. c #60714F",
"@. c #617551",
"#. c #647853",
"$. c #697959",
"%. c #6B7A5A",
"&. c #6C7B5C",
"*. c #717F61",
"=. c #618539",
"-. c #7E8038",
";. c #658246",
":. c #6E805D",
">. c #6E825E",
",. c #708060",
"<. c #708061",
"1. c #708161",
"2. c #738164",
"3. c #738264",
"4. c #7A896B",
"5. c #7A8A6B",
"6. c #7A8C69",
"7. c #7B8E69",
"8. c #7B8B6C",
"9. c #7C8D6C",
"0. c #7D8D6D",
"q. c #7D8E6D",
"w. c #828839",
"e. c #858A3B",
"r. c #8C8E3F",
"t. c #888443",
"y. c #898643",
"u. c #8C8744",
"i. c #8E8E42",
"p. c #8F8B44",
"a. c #998E4B",
"s. c #919143",
"d. c #949344",
"f. c #959347",
"g. c #99914A",
"h. c #9B964A",
"j. c #9B974A",
"k. c #9C924E",
"l. c #9E984C",
"z. c #A09B4D",
"x. c #AD9B5A",
"c. c #B7A85D",
"v. c #B8A95D",
"b. c #B8A85E",
"n. c #808F72",
"m. c #879773",
"M. c #879577",
"N. c #8A977C",
"B. c #BFA865",
"V. c #C3B165",
"C. c #C4B165",
"Z. c #C7B168",
"A. c #CCB66A",
"S. c #CEB76B",
"D. c #CCB16C",
"F. c #CCB26E",
"G. c #CEB76C",
"H. c #CFB46F",
"J. c #D1B96D",
"K. c #D2BA6E",
"L. c #D3BB6E",
"P. c #D5BB71",
"I. c #E7C77B",
"U. c #919D86",
"Y. c #939F87",
"T. c #959F8B",
"R. c #96A28C",
"E. c #99A390",
"W. c #A4AE9A",
"Q. c #ACB3A5",
"!. c #ADB4A5",
"~. c #AFB6A7",
"^. c #B7BDB1",
"/. c #BAC1B4",
"(. c #BDC2B7",
"). c #ECC980",
"_. c #EFCC81",
"`. c #F1CD82",
"'. c #F1CE83",
"]. c #F1CC84",
"[. c #F3CE84",
"{. c #F5CF86",
"}. c #F6D086",
"|. c #F6D186",
" X c #F7D187",
".X c #F8D287",
"XX c #F9D288",
"oX c #FAD389",
"OX c #FBD389",
"+X c #FBD489",
"@X c #FCD48A",
"#X c #FDD48B",
"$X c #FDD58B",
"%X c #FED58B",
"&X c #FED58C",
"*X c #FED68C",
"=X c #FFD68C",
"-X c #FFD68D",
";X c #FFD78D",
":X c #FFD88E",
">X c #FFD98F",
",X c #FFDA8F",
"<X c #FFDA90",
"1X c #FFDC91",
"2X c #FFDD92",
"3X c #CED3C8",
"4X c #D5D7D3",
"5X c #D5D8D2",
"6X c #E7E7E7",
"7X c #EEEEEF",
/* pixels */
"                    7Xn.* X O o w 8.                    ",
"                  ^.T.h 5 ] n Y ; W Y.                  ",
"                5X,.$ y.V.>XJ.I.b.( s ~.                ",
"              3X..f 9 ~ Z.P U T R m + Q                 ",
"              1.y l.w.& L 2 X.>.g # X q Q.              ",
"            6XE b =Xv.t.B.S q.0.#.v [ 5 F /.            ",
"            W.G x.*X:X1XD.S q.9.@.{ 2Xc.t 3.            ",
"            2.u ].-X=X:XD.C 7.=.o.] ,X-Xa.*.            ",
"            $.7 _.=X=X:XH.6 ;.6.| } ,X|./ K             ",
"            D _ .X=X=X:XL., V  .< e.>XoXp.D             ",
"            D -..X=X=X;X'.` % = x G.;XoXp.H             ",
"            J k.@X=X=X=X<Xc.4 r F.:X=X|.^ %.            ",
"          N.k c {.:X=X=X=XXX).i.[.=X=X@Xg.&.            ",
"          E.. 8 z.K.<X>X=X=X=X%X=X=X=X X) d U.          ",
"        5.! > f.s.M r.d.}.=X=X=X=X=X=X:XP.- <.          ",
"      (.l 3 h.*XOXK.S.K.+X=X=X=X=X=X=X-X+Xu.0 !.        ",
"    4.j N ).OX-X-X:X:X:X=X=X=X=X=X=X=X=X>XC.i O.        ",
"  5X+.: j.*X=X=X=X=X=X=X=X=X=X=X=X=X=X=X=X>X' e 4X      ",
"  m.p z `.$X#X#X#X#X#X#X#X#X#X#X#X#X#X#X#X&XA.B R.      ",
"  M.@ 1 Z A A A A A A A A A A A A A A A A A I a :.      "
};
