/* XPM */
static char *confused_parrot_frame_14[] = {
/* columns rows colors chars-per-pixel */
"28 20 219 2 ",
"   c None",
".  c #1E3705",
"X  c #1D3900",
"o  c #1E3900",
"O  c #1E3804",
"+  c #223F01",
"@  c #213D02",
"#  c #233F02",
"$  c #203A05",
"%  c #243C0B",
"&  c #263D0C",
"*  c #273F0E",
"=  c #254005",
"-  c #264305",
";  c #264107",
":  c #284601",
">  c #284407",
",  c #29400D",
"<  c #28430D",
"1  c #2C460C",
"2  c #2E470D",
"3  c #2F4A0C",
"4  c #325700",
"5  c #355902",
"6  c #385A06",
"7  c #385A07",
"8  c #34530D",
"9  c #3A5A0F",
"0  c #2E4116",
"q  c #2E4910",
"w  c #2E4811",
"e  c #304717",
"r  c #314816",
"t  c #314419",
"y  c #33451B",
"u  c #364C1B",
"i  c #394B1F",
"p  c #3A4E1F",
"a  c #3C5713",
"s  c #3B5216",
"d  c #385717",
"f  c #3E5419",
"g  c #3C501D",
"h  c #364325",
"j  c #384428",
"k  c #3D462E",
"l  c #3F4A2D",
"z  c #3F492E",
"x  c #3A5122",
"c  c #3A5123",
"v  c #3C5621",
"b  c #415C14",
"n  c #475F1E",
"m  c #445427",
"M  c #465924",
"N  c #434A35",
"B  c #474B3A",
"V  c #474A3B",
"C  c #484A3D",
"Z  c #425230",
"A  c #475B32",
"S  c #4B5238",
"D  c #4B5338",
"F  c #4B503E",
"G  c #50553F",
"H  c #4F612C",
"J  c #50612C",
"K  c #50682E",
"L  c #486032",
"P  c #4A6032",
"I  c #4C6432",
"U  c #566E38",
"Y  c #52683C",
"T  c #53683F",
"R  c #566B3E",
"E  c #4B4D40",
"W  c #4C4D43",
"Q  c #4D4D43",
"!  c #4D4C44",
"~  c #4D4D44",
"^  c #534F4E",
"/  c #535642",
"(  c #545742",
")  c #555745",
"_  c #565946",
"`  c #585D42",
"'  c #585A47",
"]  c #5E5F4C",
"[  c #556741",
"{  c #556A41",
"}  c #586B44",
"|  c #586B45",
" . c #596A47",
".. c #596B47",
"X. c #5B6C49",
"o. c #5F7649",
"O. c #60774B",
"+. c #62764E",
"@. c #62774E",
"#. c #62774F",
"$. c #677D4D",
"%. c #6D6A5A",
"&. c #6E6B5B",
"*. c #647552",
"=. c #667756",
"-. c #685A68",
";. c #6A5B6B",
":. c #6C5E69",
">. c #6A5B6C",
",. c #6C5D6C",
"<. c #6D5C71",
"1. c #775F7F",
"2. c #6E6860",
"3. c #766D68",
"4. c #776C6B",
"5. c #7A6E6F",
"6. c #766771",
"7. c #736274",
"8. c #796B71",
"9. c #81707B",
"0. c #6F8A53",
"q. c #728163",
"w. c #728362",
"e. c #748265",
"r. c #758A60",
"t. c #778963",
"y. c #778768",
"u. c #7C8A6E",
"i. c #7C8D6D",
"p. c #7D8E6E",
"a. c #7E8E6E",
"s. c #7E8F6E",
"d. c #7D8B70",
"f. c #88947B",
"g. c #88947D",
"h. c #846F82",
"j. c #877285",
"k. c #8E758D",
"l. c #8D6B9A",
"z. c #8D699D",
"x. c #917691",
"c. c #927793",
"v. c #967899",
"b. c #98789E",
"n. c #956EA5",
"m. c #9674A0",
"M. c #9A77A2",
"N. c #9B79A4",
"B. c #A47CAF",
"V. c #A47CB2",
"C. c #AA7EB9",
"Z. c #A977C1",
"A. c #A976C3",
"S. c #AA76C4",
"D. c #AB77C6",
"F. c #AD78C8",
"G. c #AD79C8",
"H. c #B07BCB",
"J. c #B17ACE",
"K. c #B27CCD",
"L. c #919E85",
"P. c #929C87",
"I. c #949F89",
"U. c #93A087",
"Y. c #97A48C",
"T. c #9AA38F",
"R. c #9BA988",
"E. c #9FA896",
"W. c #A0A997",
"Q. c #A4AD9A",
"!. c #A6AF9E",
"~. c #A9B0A1",
"^. c #AEB6A7",
"/. c #B4BCAC",
"(. c #B6BCB0",
"). c #AF80C2",
"_. c #B281C6",
"`. c #B381C7",
"'. c #B381C8",
"]. c #B481C9",
"[. c #B782CD",
"{. c #BD84D9",
"}. c #BF84DD",
"|. c #C085DC",
" X c #C487E1",
".X c #C487E2",
"XX c #CA89EB",
"oX c #CA89EC",
"OX c #CB89EC",
"+X c #CB89ED",
"@X c #CE8AF2",
"#X c #CF8AF4",
"$X c #D08AF5",
"%X c #D28BFA",
"&X c #D38BFB",
"*X c #D48BFC",
"=X c #D58BFD",
"-X c #D58CFE",
";X c #D68CFF",
":X c #D78CFF",
">X c #D88CFF",
",X c #D88DFF",
"<X c #D98DFF",
"1X c #DA8DFF",
"2X c #DA8EFF",
"3X c #DB8EFF",
"4X c #DC8EFF",
"5X c #DC8FFF",
"6X c #C9CEC4",
"7X c #CACFC5",
"8X c #CBCFC8",
"9X c #CFD3CC",
"0X c #D0D3CC",
"qX c #D5D7D3",
"wX c #D7D9D5",
"eX c #E1E2E0",
"rX c #E4E5E4",
"tX c #E5E5E5",
"yX c #E6E6E6",
/* pixels */
"                                                        ",
"                                                        ",
"              yXrXrXtXyX                                ",
"            qXY.R U w.U.8XwX                            ",
"        0Xd.w F C V E r q *.                            ",
"      /.T k 6.v.%X;X,Xx.8.! =.                          ",
"      } h G.B.g j.Z.-.<.7.' . (.                        ",
"    L.x ] <X{.l y j L O.8 @ $ K                         ",
"    q.0 }.;X;X9.n.v r.s.+.i G u Q.                      ",
"    e.s oX;X;X,XF.d 0.p.#.;.,Xh.e y.                    ",
"    | f XX;X;X<XD.A a.i.@.>.3X=X1...                    ",
"  P.3 M.-X;X;X<XJ.p $.a.o.,.2X<XK.* I.                  ",
"  E.& H.<X;X;X:X@X:.I t.9 4.1X,X`.: g.                  ",
"  7X .S.<X;X;X:X.X_ > P - 3.1X:X X( {                   ",
"    X.A.<X;X;X;X4Xm.# O m ).>X;X5Xz.Y                   ",
"  R.1 ` #X<X,X,X:X+X2.M '.,X;X;X3Xl.< !.                ",
"  T.X a C.].'.[.:X1X$XOX:X;X;X;X1XV.D Z ^.              ",
"eXu./ n 5 7 6 b k._.4X:X;X;X;X;X;X-X&XS c ~.            ",
"9X{ ) c.b.&.%.H 4 J 5.|.;X*X*X*X*X*X*XN.2 [ 6X          ",
"  f.o B ^ z z t ; = + N ~ W W W W W Q ~ , % W.          "
};
