/* XPM */
static char *confused_parrot_frame_9[] = {
/* columns rows colors chars-per-pixel */
"28 20 205 2 ",
"   c None",
".  c #193601",
"X  c #1B3402",
"o  c #1F3707",
"O  c #1E3B03",
"+  c #213E03",
"@  c #223E04",
"#  c #253709",
"$  c #233E09",
"%  c #263A0C",
"&  c #373E19",
"*  c #234202",
"=  c #254103",
"-  c #244602",
";  c #254305",
":  c #2B4E04",
">  c #29420C",
",  c #2F430E",
"<  c #29490B",
"1  c #30430F",
"2  c #32420E",
"3  c #315B06",
"4  c #365A05",
"5  c #375A06",
"6  c #395A08",
"7  c #3D5A0B",
"8  c #3E590E",
"9  c #2C4315",
"0  c #2E4416",
"q  c #2E4819",
"w  c #324017",
"e  c #354416",
"r  c #38451E",
"t  c #344A1B",
"y  c #314D18",
"u  c #364E1E",
"i  c #3E4918",
"p  c #3F4F1A",
"a  c #38481F",
"s  c #395810",
"d  c #37521A",
"f  c #385619",
"g  c #364D20",
"h  c #3D4923",
"j  c #3D4F24",
"k  c #3B5325",
"l  c #3C5027",
"z  c #3E5329",
"x  c #464A1F",
"c  c #4E4F21",
"v  c #4E422C",
"b  c #4A4928",
"n  c #50432D",
"m  c #53442F",
"M  c #594F2D",
"N  c #44522B",
"B  c #564531",
"V  c #564532",
"C  c #574532",
"Z  c #5B4536",
"A  c #5C4536",
"S  c #5C4637",
"D  c #574832",
"F  c #465F32",
"G  c #4B5F37",
"H  c #4D5D36",
"J  c #665E2F",
"K  c #65453C",
"L  c #615630",
"P  c #695E32",
"I  c #456824",
"U  c #4D623B",
"Y  c #4C653B",
"T  c #4E673B",
"R  c #4F693A",
"E  c #52663E",
"W  c #754C4A",
"Q  c #784C4C",
"!  c #794D4C",
"~  c #7A4D4D",
"^  c #7B4D4E",
"/  c #7C4D4F",
"(  c #735142",
")  c #7A5A44",
"_  c #7B5A44",
"`  c #7D4D50",
"'  c #5B6545",
"]  c #536A41",
"[  c #576A43",
"{  c #576C44",
"}  c #5C734B",
"|  c #7E6044",
" . c #7F6045",
".. c #60734E",
"X. c #62774D",
"o. c #627350",
"O. c #647653",
"+. c #677757",
"@. c #677856",
"#. c #707E61",
"$. c #82544F",
"%. c #83584E",
"&. c #885057",
"*. c #965B5E",
"=. c #846149",
"-. c #906154",
";. c #956258",
":. c #9D635F",
">. c #9F5E62",
",. c #A1546B",
"<. c #A2556C",
"1. c #A4556E",
"2. c #A5556F",
"3. c #A7596F",
"4. c #AE5875",
"5. c #AE5876",
"6. c #AE5976",
"7. c #B95B7E",
"8. c #BB5E7C",
"9. c #A46066",
"0. c #A86369",
"q. c #AD656D",
"w. c #AD646E",
"e. c #B16471",
"r. c #B36572",
"t. c #B46474",
"y. c #B96577",
"u. c #BB657A",
"i. c #BD667B",
"p. c #BF667D",
"a. c #6F835A",
"s. c #728959",
"d. c #708061",
"f. c #768766",
"g. c #778866",
"h. c #778966",
"j. c #788D62",
"k. c #798E63",
"l. c #7A8A6C",
"z. c #7A896E",
"x. c #7D8E6C",
"c. c #7D8E6D",
"v. c #7E8E6F",
"b. c #7E8F6F",
"n. c #829273",
"m. c #829174",
"M. c #BA5B80",
"N. c #C36182",
"B. c #C66683",
"V. c #D4678F",
"C. c #E0649D",
"Z. c #E1699B",
"A. c #E4699D",
"S. c #E6699F",
"D. c #ED67A6",
"F. c #ED68A6",
"G. c #EF6AA7",
"H. c #F268AB",
"J. c #F36BAA",
"K. c #F56BAC",
"L. c #F66AAD",
"P. c #F66BAD",
"I. c #F76AAE",
"U. c #FA6BB0",
"Y. c #FB6AB1",
"T. c #FB6BB1",
"R. c #FC6AB3",
"E. c #FD6AB3",
"W. c #FD6AB4",
"Q. c #FE6BB4",
"!. c #FF6BB5",
"~. c #FF6BB6",
"^. c #FF6CB7",
"/. c #FF6BB8",
"(. c #FF6BB9",
"). c #FF6CB9",
"_. c #FF6CBA",
"`. c #FF6CBB",
"'. c #FF6CBC",
"]. c #8F9B84",
"[. c #919D85",
"{. c #939E89",
"}. c #94A08B",
"|. c #99A28F",
" X c #98A48F",
".X c #ABB2A3",
"XX c #AFB6A8",
"oX c #AFB7A8",
"OX c #B1B7AB",
"+X c #B1B8A9",
"@X c #B6BCB0",
"#X c #B9C0B2",
"$X c #BEC4B9",
"%X c #C2C6BD",
"&X c #D1D3CE",
"*X c #D3D5D0",
"=X c #D3D6D1",
"-X c #D4D7D0",
";X c #D4D7D1",
":X c #D7D9D5",
">X c #D7DAD5",
",X c #DADCD8",
"<X c #DCDEDA",
"1X c #E7E7E7",
"2X c #EDECED",
/* pixels */
"                                                        ",
"                                                        ",
"                                                        ",
"                                  -X*X,X                ",
"                            %XOXX.f q } l.oX            ",
"                          +XU ; i ! ` ! , g [.          ",
"                      =X#.d ( x M ).i.=.8 = d.          ",
"                      +.@ _ J.v n 7.e < s > 9 @X        ",
"                    m.t ) P.!.W / ,.Y f.h.E o |.        ",
"                    o.2 F.~.!.Q.).1.I k.b.[ + u :X      ",
"                  ].0 *.T.!.!.!._.1.I j.v.] ( b z.      ",
"                XXk &.W.~.!.!.!._.<.T c.x.R 2.K G <X    ",
"              $Xl * e.`.!.!.!.!.).M.p a.s.3 3.N.N n.    ",
"              O.$ : r.`.!.!.!.!.!.).~ F G - q.9.j g.    ",
"            {.h $.6 P S.~.!.!.!.!.).^ . O L Z.>.H #X    ",
"          }.a c G.:.6 J L././.~.!.~.C.m 1 ;.'.8.' 1X    ",
"      ;X Xr 5.K.!.!.| 6 B.V.V.U.(.!.~.H.D.I.A.D +.      ",
"    .X..w 4.^.!.!./.y. .7 4 5 -.p.Q.!.!.!.).%.y &X      ",
"2X.Xz # 6.!.E.E.E.E.~.Y.t.w.w.0.u.R.E.E.E.^.Q q *X      ",
">X@.X % C V B B B B B C A S S S Z B B B B C & {         "
};
