/* XPM */
static char *confused_parrot_frame_16[] = {
/* columns rows colors chars-per-pixel */
"28 20 209 2 ",
"   c None",
".  c #1C3501",
"X  c #1F3605",
"o  c #1D3901",
"O  c #213A03",
"+  c #213A05",
"@  c #203B05",
"#  c #223F05",
"$  c #26360D",
"%  c #223B09",
"&  c #213C08",
"*  c #243F08",
"=  c #253F08",
"-  c #25390C",
";  c #2B3813",
":  c #2C3D14",
">  c #353F1B",
",  c #383D20",
"<  c #3E3F27",
"1  c #214002",
"2  c #204003",
"3  c #244303",
"4  c #244104",
"5  c #264005",
"6  c #274106",
"7  c #264405",
"8  c #294B01",
"9  c #2B4B05",
"0  c #274109",
"q  c #324C0B",
"w  c #335901",
"e  c #365A04",
"r  c #365A05",
"t  c #2C4414",
"y  c #2D4415",
"u  c #354614",
"i  c #354812",
"p  c #324C1A",
"a  c #364D1B",
"s  c #344E1A",
"d  c #354E1C",
"f  c #3A5616",
"g  c #3F5B10",
"h  c #3B541D",
"j  c #3F5E1A",
"k  c #384122",
"l  c #384521",
"z  c #3A4324",
"x  c #3A5120",
"c  c #404E1C",
"v  c #43631A",
"b  c #46631E",
"n  c #47641E",
"m  c #404A27",
"M  c #474B26",
"N  c #47462D",
"B  c #44442E",
"V  c #465D24",
"C  c #4C5920",
"Z  c #44502E",
"A  c #41582C",
"S  c #4A4433",
"D  c #4C4535",
"F  c #464F30",
"G  c #484F33",
"H  c #50443A",
"J  c #53443E",
"K  c #564D38",
"L  c #5C4D3F",
"P  c #5C503F",
"I  c #615C38",
"U  c #655A3F",
"Y  c #466027",
"T  c #4B6330",
"R  c #506838",
"E  c #564541",
"W  c #564542",
"Q  c #574542",
"!  c #584543",
"~  c #5A4B40",
"^  c #5D4E40",
"/  c #5C4548",
"(  c #5C4649",
")  c #5D464A",
"_  c #675E40",
"`  c #6E5F48",
"'  c #556B40",
"]  c #5D724B",
"[  c #5E734C",
"{  c #627350",
"}  c #627351",
"|  c #6C7F56",
" . c #6C7D5C",
".. c #7F5B61",
"X. c #80605E",
"o. c #805D60",
"O. c #835070",
"+. c #8A5375",
"@. c #8F557B",
"#. c #8F6170",
"$. c #6B8053",
"%. c #718855",
"&. c #748265",
"*. c #778569",
"=. c #798A69",
"-. c #798B69",
";. c #7A8B6A",
":. c #7A8C6A",
">. c #7B8C6A",
",. c #7C8B6F",
"<. c #7B8C6C",
"1. c #7D8E6D",
"2. c #7E8A71",
"3. c #7F8C72",
"4. c #829174",
"5. c #869479",
"6. c #975287",
"7. c #A75C93",
"8. c #AA5E95",
"9. c #A95C96",
"0. c #A8579A",
"q. c #A9579B",
"w. c #AB5D98",
"e. c #AB589D",
"r. c #AD599D",
"t. c #AD589F",
"y. c #AE599F",
"u. c #A06185",
"i. c #A26387",
"p. c #A7638E",
"a. c #AE6297",
"s. c #AD6495",
"d. c #AE6495",
"f. c #AF6496",
"g. c #BE5EAE",
"h. c #B965A3",
"j. c #C866B4",
"k. c #C965B8",
"l. c #D167BF",
"z. c #CD60C1",
"x. c #D064C0",
"c. c #D265C3",
"v. c #D566C5",
"b. c #D565C6",
"n. c #D767C7",
"m. c #D368C1",
"M. c #D768C6",
"N. c #D768C7",
"B. c #DB69CB",
"V. c #DB63D1",
"C. c #DC63D2",
"Z. c #E268D4",
"A. c #E36AD4",
"S. c #E264D9",
"D. c #E568D8",
"F. c #EB69DF",
"G. c #EB66E1",
"H. c #ED67E4",
"J. c #EF67E6",
"K. c #EE6AE2",
"L. c #F367EA",
"P. c #F46AE9",
"I. c #F56AEA",
"U. c #F468EC",
"Y. c #F669ED",
"T. c #F668EE",
"R. c #FC6CF2",
"E. c #FC6AF4",
"W. c #FD6AF4",
"Q. c #FD6BF5",
"!. c #FE6BF6",
"~. c #FF6BF6",
"^. c #FE6BF7",
"/. c #FF6BF7",
"(. c #FF6BF8",
"). c #FF6BF9",
"_. c #FF6BFA",
"`. c #FF6BFB",
"'. c #FF6CFA",
"]. c #FF6BFE",
"[. c #FF6CFE",
"{. c #FF6CFF",
"}. c #8F9B84",
"|. c #919C85",
" X c #919E84",
".X c #929D88",
"XX c #96A08C",
"oX c #96A08D",
"OX c #97A08D",
"+X c #98A28D",
"@X c #9CA592",
"#X c #9DA695",
"$X c #A0A997",
"%X c #B6BCB1",
"&X c #B7BDB1",
"*X c #B7BCB2",
"=X c #BABFB4",
"-X c #BAC1B1",
";X c #B9C0B3",
":X c #BBC2B2",
">X c #BBC4B0",
",X c #C1C6BC",
"<X c #C2C7BC",
"1X c #C8CDC3",
"2X c #CDD2C7",
"3X c #CCD0C8",
"4X c #D0D5C7",
"5X c #D1D4CD",
"6X c #DEE0DC",
/* pixels */
"                                                        ",
"                                                        ",
"                                                        ",
"                                                        ",
"                          6X,X%X*X-X4X                  ",
"                        @X,.p 3 7 1 | #X                ",
"                    ;X*.* L 0.a.a.q.^ = 2.              ",
"                  <X' , g.n._.{.U.L.b.r.Z  X            ",
"                  3.M v.B.c @.k.B F G k X &.            ",
"                +X2 7.{.m.8 P C d =.-.h . }             ",
"              3XA ~ A.`.K.8.C.U s ;.>.b + t |.          ",
"              %.N S.`.~.).[.(.I j ;.:.n q $ .X          ",
"            4.a ..(././././.!.o.x <.:.v K 6.R 2X        ",
"            { ; J.(././././.(.G.m $.1.V u.9.9 :X        ",
"          }.y O.p.!././././.(.H.> f T z T.w.# &X        ",
"        >XY i j.` I.`._./././.!.e.@ o < Y.0.& =X        ",
"        [ u h.P._ X.M.N.).]._.'.V.J J z.R.+.] 5X        ",
"      5.l y.'.`.l.r e g i.d.Z.`.~.Q.Q.`.c.6 XX          ",
"  1X .: t./.E.!.F.d.s.f.#.w _ D.^.W.W.(.x.5 oX          ",
"  $X% - Q W E E ! / ( ) H 0 4 S Q E E Q D O OX          "
};
