/* XPM */
static char *rotating_parrot_frame_11[] = {
/* columns rows colors chars-per-pixel */
"28 20 156 2 ",
"   c None",
".  c #173E03",
"X  c #183609",
"o  c #1E3D09",
"O  c #1A3913",
"+  c #203D09",
"@  c #2C3F17",
"#  c #243F19",
"$  c #2E3929",
"%  c #274D00",
"&  c #244113",
"*  c #294517",
"=  c #26401E",
"-  c #2D441E",
";  c #284819",
":  c #294B15",
">  c #314F1E",
",  c #375812",
"<  c #3A581B",
"1  c #2C4523",
"2  c #34422B",
"3  c #3E462D",
"4  c #3A532D",
"5  c #3A5525",
"6  c #3A4533",
"7  c #415828",
"8  c #425D25",
"9  c #494E3E",
"0  c #435236",
"q  c #485635",
"w  c #445932",
"e  c #44543B",
"r  c #4C573E",
"t  c #465C3D",
"y  c #486326",
"u  c #43622A",
"i  c #4B6234",
"p  c #4D633B",
"a  c #53673D",
"s  c #495148",
"d  c #505446",
"f  c #555C43",
"g  c #52504C",
"h  c #54584A",
"j  c #5A5C4E",
"k  c #565050",
"l  c #5F5455",
"z  c #575855",
"x  c #60585D",
"c  c #4F6A45",
"v  c #536744",
"b  c #536649",
"n  c #5A604E",
"m  c #5D6B4C",
"M  c #5C7351",
"N  c #60744D",
"B  c #667E4F",
"V  c #646453",
"C  c #616952",
"Z  c #65635C",
"A  c #69655F",
"S  c #676F58",
"D  c #667555",
"F  c #667A55",
"G  c #67785B",
"H  c #69576B",
"J  c #715C69",
"K  c #6E5C72",
"L  c #686161",
"P  c #696A61",
"I  c #6F6268",
"U  c #73646F",
"Y  c #6C7E63",
"T  c #707E68",
"R  c #7D637C",
"E  c #756375",
"W  c #6E8257",
"Q  c #6B805C",
"!  c #718466",
"~  c #778C61",
"^  c #7A8D67",
"/  c #7D9169",
"(  c #778770",
")  c #7F8F71",
"_  c #808A75",
"`  c #829274",
"'  c #88947D",
"]  c #816585",
"[  c #866689",
"{  c #8A6A8D",
"}  c #8A7184",
"|  c #8C748A",
" . c #90748E",
".. c #8E6A93",
"X. c #926D95",
"o. c #936E9C",
"O. c #8C7190",
"+. c #957395",
"@. c #987797",
"#. c #9A749C",
"$. c #9B789A",
"%. c #937994",
"&. c #9C73A5",
"*. c #9E79A4",
"=. c #A17AA5",
"-. c #A474AC",
";. c #AD7AB7",
":. c #B27DBB",
">. c #B87DC7",
",. c #8C9183",
"<. c #8C9983",
"1. c #94998C",
"2. c #92A08B",
"3. c #9AA58F",
"4. c #9BA193",
"5. c #9FA995",
"6. c #A0A698",
"7. c #A2AC99",
"8. c #B581BE",
"9. c #A8AEA0",
"0. c #ABB3A3",
"q. c #B4BCAC",
"w. c #BDC5B6",
"e. c #BFC9B6",
"r. c #BFC5BA",
"t. c #C2C8BB",
"y. c #BE81CE",
"u. c #C080C7",
"i. c #C488D3",
"p. c #C787DB",
"a. c #D28AD6",
"s. c #C988E0",
"d. c #D28CE4",
"f. c #D98FE6",
"g. c #D38CEA",
"h. c #DB8EEC",
"j. c #DA90E5",
"k. c #DB8EF6",
"l. c #D68CFF",
"z. c #DB8EFE",
"x. c #DF90F7",
"c. c #DF90FC",
"v. c #E191FE",
"b. c #EB95FC",
"n. c #C7CEC3",
"m. c #CBD0C6",
"M. c #CDD2C8",
"N. c #D6D9D2",
"B. c #D9DDD5",
"V. c #DEE2DB",
"C. c #E2E5DF",
"Z. c #E3E5E1",
"A. c #EAECE7",
"S. c #EAECE8",
"D. c #F5F5F4",
"F. c #FBFAFB",
/* pixels */
"                                      S.( O & 0.        ",
"                                    C.' 2 L I 0.        ",
"                          D.M.q.' ^ M # X.f.X.9.        ",
"                        N.4.t = 1 x H U p.b...6.        ",
"                      B.Q 6 ] +.$.d.k.k.l.v.o.4.        ",
"                  C.q.T r &.c.v.z.z.z.l.l.v.#.4.        ",
"              F.n.b - X { b.v.z.z.z.l.l.l.v.&.1.        ",
"              M.v s @ + Z ..{ X.+.=.g.l.l.v.-.,.        ",
"            F.<.$ +.q 5 a p a y : - | g.l.v.-.,.        ",
"            C.F 0 &.a W _ _ ` / N ; & | c.c.*._         ",
"            m.w R >.9 F ~ ^ / W i o & O.c.p.n G         ",
"            t.1 [ h.K > 8 u u 7 e s O.d.z.*.< F         ",
"            t.1 R j.E 3 ] { [ -.y.i.c.c.d.Z % D         ",
"            B.m J  .; s y.x.v.c.c.l.l.l.*.8 7 D         ",
"            D.7.2 } } :.s.l.l.l.l.l.l.l.| < A S         ",
"            F.B.t l a.v.c.z.l.l.l.l.l.c.%., V C         ",
"              F.q.- g O.f.d.g.z.z.z.z.f.| < $.A         ",
"                A.5.e 1 g h Z 8.i.>.;.A t i $.V         ",
"                  D.N.2.b c 4 2 6 C f o . j j 4         ",
"                      D.Z.Z.t.Y ! t.w.^ G b 4 !         "
};
