/* XPM */
static char *rotating_parrot_frame_2[] = {
/* columns rows colors chars-per-pixel */
"28 20 241 2 ",
"   c None",
".  c #182E04",
"X  c #1A3006",
"o  c #1D3504",
"O  c #1C3705",
"+  c #1D350F",
"@  c #1C3B0E",
"#  c #263E06",
"$  c #293812",
"%  c #2C3C17",
"&  c #333E15",
"*  c #254203",
"=  c #254703",
"-  c #2A4407",
";  c #23400A",
":  c #26420E",
">  c #294409",
",  c #39570C",
"<  c #2C4113",
"1  c #2E4515",
"2  c #244811",
"3  c #2C461A",
"4  c #324511",
"5  c #304015",
"6  c #3A4F10",
"7  c #2F5014",
"8  c #3F5514",
"9  c #374A23",
"0  c #344E21",
"q  c #384F21",
"w  c #364A2C",
"e  c #375920",
"r  c #3F5630",
"t  c #414B1B",
"y  c #434D1B",
"u  c #46541B",
"i  c #4A511F",
"p  c #465819",
"a  c #4C5A1B",
"s  c #444827",
"d  c #564F29",
"f  c #554B2C",
"g  c #504F2E",
"h  c #415A25",
"j  c #425A25",
"k  c #465228",
"l  c #43552B",
"z  c #47572E",
"x  c #445E2B",
"c  c #485F2A",
"v  c #5F532B",
"b  c #5D5B2E",
"n  c #4F5736",
"m  c #4F5B30",
"M  c #4B583F",
"N  c #545333",
"B  c #64542F",
"V  c #635330",
"C  c #685137",
"Z  c #695734",
"A  c #655A31",
"S  c #6E5935",
"D  c #66573B",
"F  c #715B3A",
"G  c #755A3D",
"H  c #745B3F",
"J  c #5F6328",
"K  c #5C6629",
"L  c #49613B",
"P  c #516E31",
"I  c #516C39",
"U  c #5A7F3E",
"Y  c #68602E",
"T  c #6F6930",
"R  c #4D5F45",
"E  c #7E5C40",
"W  c #4D6441",
"Q  c #5A6A45",
"!  c #5D6E58",
"~  c #786043",
"^  c #61784D",
"/  c #617451",
"(  c #627254",
")  c #617557",
"_  c #667A52",
"`  c #6B7C5A",
"'  c #687C5E",
"]  c #6E7F65",
"[  c #816B3E",
"{  c #805F47",
"}  c #866046",
"|  c #896844",
" . c #886048",
".. c #98674F",
"X. c #946B4B",
"o. c #916D48",
"O. c #817140",
"+. c #8A7141",
"@. c #92734D",
"#. c #94724D",
"$. c #9E704F",
"%. c #936D52",
"&. c #9A6850",
"*. c #9E6F51",
"=. c #9D7350",
"-. c #9F7053",
";. c #9A7651",
":. c #A46E58",
">. c #A07755",
",. c #A67457",
"<. c #A67958",
"1. c #B47A5F",
"2. c #A97660",
"3. c #AF7761",
"4. c #B87360",
"5. c #BA7664",
"6. c #BA7A63",
"7. c #B97A65",
"8. c #C07D67",
"9. c #C6786B",
"0. c #C77E6A",
"q. c #C77D6E",
"w. c #C97C6E",
"e. c #CC7E6E",
"r. c #D67E75",
"t. c #DB7F78",
"y. c #6A825A",
"u. c #728657",
"i. c #72875B",
"p. c #6C8061",
"a. c #718361",
"s. c #758267",
"d. c #7B8C6B",
"f. c #7C8D6D",
"g. c #7D8D6D",
"h. c #7F8F6F",
"j. c #7E916F",
"k. c #7E8E75",
"l. c #7D9170",
"z. c #88967B",
"x. c #C8816F",
"c. c #CD8170",
"v. c #D58173",
"b. c #D58373",
"n. c #D38077",
"m. c #D98276",
"M. c #D58279",
"N. c #D7887E",
"B. c #E5837E",
"V. c #849484",
"C. c #8E9B84",
"Z. c #8E9A85",
"A. c #92A089",
"S. c #96A38F",
"D. c #98A48C",
"F. c #9AA691",
"G. c #A5AE9E",
"H. c #ADB6A5",
"J. c #AEB6A5",
"K. c #B3BCA8",
"L. c #DB8581",
"P. c #E08786",
"I. c #EB8681",
"U. c #E28880",
"Y. c #E88880",
"T. c #EC8883",
"R. c #EC8984",
"E. c #E58B89",
"W. c #EB8C8D",
"Q. c #F08A85",
"!. c #F38987",
"~. c #F18B88",
"^. c #F58B88",
"/. c #F78A88",
"(. c #F08F8F",
"). c #F78C8D",
"_. c #FB8B8B",
"`. c #FB8D8B",
"'. c #F88D8D",
"]. c #FB8C8C",
"[. c #FF8C8C",
"{. c #FF8C8D",
"}. c #FF8D8D",
"|. c #FC8D8E",
" X c #FC8D8F",
".X c #FF8D8E",
"XX c #FF8D8F",
"oX c #FA908B",
"OX c #FB8F90",
"+X c #FE8E90",
"@X c #FF8E90",
"#X c #FE8E91",
"$X c #FF8E91",
"%X c #FF8F91",
"&X c #FD8F93",
"*X c #FF8E92",
"=X c #FE8F92",
"-X c #FF8F92",
";X c #FE8F93",
":X c #FF8F93",
">X c #FE9093",
",X c #FF9094",
"<X c #FF9096",
"1X c #FF9196",
"2X c #FF939A",
"3X c #BBC3B2",
"4X c #BAC0B4",
"5X c #BAC1B4",
"6X c #BBC3B5",
"7X c #BFC7B8",
"8X c #C2CABE",
"9X c #CED2C9",
"0X c #D4DACB",
"qX c #D3D9D3",
"wX c #D4D9D0",
"eX c #D4D8D2",
"rX c #D7DAD3",
"tX c #D7DBD3",
"yX c #D9DCD6",
"uX c #DADDD7",
"iX c #E2E4DE",
"pX c #E3E6E0",
"aX c #E7E9E4",
"sX c #E7E9E7",
"dX c #E8EAE6",
"fX c #EBECEA",
"gX c #ECEDEA",
"hX c #EDEEEB",
"jX c #EFF0EE",
"kX c #F0F0EF",
"lX c #F0F1F0",
"zX c #F4F5F2",
"xX c #F5F4F5",
"cX c #F7F6F8",
"vX c #F9FAF8",
"bX c #FAF9FA",
"nX c #FAF9FB",
"mX c #FBFBFC",
"MX c #FCFCFC",
"NX c #FDFDFD",
"BX c white",
/* pixels */
"                                                        ",
"                                                        ",
"                    cXxXzXpXMX                          ",
"                  lXsX8XA.C.rXK.uXnX                    ",
"                eXZ.Q m % + L P D.fX                    ",
"            jX4XR O 6 *.4.&.} B 0 k.tX                  ",
"            H.w 4 , = o.5.Z E G * 3 7X                  ",
"          3Xr g x.2.& ..F e ^ l # ; S.                  ",
"      BX0Xc < w.%X_.r.t.N a.h.y.1 . ) aX                ",
"      vXG.X %.oX[.[..XB.k d.f.U i H q 9X                ",
"    NX6XM C L.%X[.[..X9.z l.g._ D P.d F.                ",
"    wX] $ q.-X[.[.[.=X,.x j.i.h { W.f ' kX              ",
"    z.@ 8 b.XX[.[.[.>XO.7 u.I A n.N.t p.hX              ",
"qXV.9 ~ T +.XX[.[.[.+X[ : j > b R.Y.v / yX              ",
"! s S E.6.@.2XXX[.[.[.m.u o - 7.|.0.y ` dX              ",
"5 3.(.).$.K ;.v.XX[.[.@X1.a =.'.@X| 2 J.                ",
"M.Q.$X[.!.<.p J 8./.{.{. X~.].$XU.V W iX                ",
"XX}.[.[.}.^.c.>.#.I..X[.[.[.[.OX-.n 5XmX                ",
"&X;X+X[.[.{.*X,X:X{.[.[.[.[.[.`.X.( gX                  ",
" .:.e.T.#X1X<X@X[.[.[.[.[.[.[.^.Y s.bX                  "
};
