/* XPM */
static char *rotating_parrot_frame_13[] = {
/* columns rows colors chars-per-pixel */
"28 20 242 2 ",
"   c None",
".  c #193200",
"X  c #1E3708",
"o  c #1B390C",
"O  c #223C03",
"+  c #243F05",
"@  c #213E12",
"#  c #253D1A",
"$  c #273C1E",
"%  c #2E3E21",
"&  c #2F3E2B",
"*  c #303A26",
"=  c #3A3E2F",
"-  c #274407",
";  c #27420F",
":  c #2D4D0D",
">  c #304C06",
",  c #305707",
"<  c #37590D",
"1  c #2E4217",
"2  c #2B4715",
"3  c #2B4617",
"4  c #2F4416",
"5  c #2C4E15",
"6  c #2E4F18",
"7  c #30431D",
"8  c #36401F",
"9  c #314D1E",
"0  c #3A4D1F",
"q  c #395216",
"w  c #3B5B13",
"e  c #3B5D1B",
"r  c #3C581C",
"t  c #2E4024",
"y  c #314521",
"u  c #3A4B25",
"i  c #3F4B2C",
"p  c #395627",
"a  c #3E5625",
"s  c #3E5526",
"d  c #465D1C",
"f  c #475D1F",
"g  c #40462D",
"h  c #46582E",
"j  c #445A2E",
"k  c #455E2F",
"l  c #504F36",
"z  c #4C5030",
"x  c #4A5E36",
"c  c #4E523A",
"v  c #495538",
"b  c #4E5439",
"n  c #4F543E",
"m  c #515936",
"M  c #5A573D",
"N  c #5A5D3F",
"B  c #4F6D2D",
"V  c #4A6136",
"C  c #4C6236",
"Z  c #4E603D",
"A  c #516038",
"S  c #50603B",
"D  c #505243",
"F  c #535442",
"G  c #5F5746",
"H  c #5D584A",
"J  c #5E5C4C",
"K  c #594B52",
"L  c #5B4D55",
"P  c #5F5652",
"I  c #65594B",
"U  c #645957",
"Y  c #66555B",
"T  c #546741",
"R  c #5D6242",
"E  c #5A6346",
"W  c #516940",
"Q  c #556A42",
"!  c #556148",
"~  c #5A6548",
"^  c #5B7943",
"/  c #566651",
"(  c #60634B",
")  c #61754D",
"_  c #647A4F",
"`  c #637554",
"'  c #677D50",
"]  c #647B55",
"[  c #6D7E5B",
"{  c #7E5C6D",
"}  c #7B616D",
"|  c #79686D",
" . c #697961",
".. c #7A6272",
"X. c #856E72",
"o. c #906A7E",
"O. c #906F7F",
"+. c #86787A",
"@. c #96717E",
"#. c #97727E",
"$. c #6F835D",
"%. c #708260",
"&. c #758665",
"*. c #758A60",
"=. c #7A8B66",
"-. c #718069",
";. c #77876A",
":. c #76876B",
">. c #7E8F6F",
",. c #7B8A75",
"<. c #809071",
"1. c #829273",
"2. c #809075",
"3. c #839275",
"4. c #88967F",
"5. c #956B88",
"6. c #97688B",
"7. c #956A8B",
"8. c #94688D",
"9. c #917382",
"0. c #9D718A",
"q. c #9F738F",
"w. c #9A6E97",
"e. c #9A6B9B",
"r. c #9E6C9A",
"t. c #9D6F9A",
"y. c #9F769A",
"u. c #A3758D",
"i. c #A2758E",
"p. c #A96F9D",
"a. c #A1709B",
"s. c #AF7A9C",
"d. c #AC7B9F",
"f. c #AB6FA6",
"g. c #A570A0",
"h. c #AD71A2",
"j. c #AF71AF",
"k. c #B075A3",
"l. c #B07AA2",
"z. c #B17AA3",
"x. c #B577AF",
"c. c #B877AF",
"v. c #B87CAA",
"b. c #B97DAA",
"n. c #B77CB1",
"m. c #BA7DB2",
"M. c #BF7DB2",
"N. c #BE78BF",
"B. c #C179BD",
"V. c #C87AC4",
"C. c #878B81",
"Z. c #8E9A82",
"A. c #95A28A",
"S. c #96A38B",
"D. c #99A48F",
"F. c #9AA68F",
"G. c #99A590",
"H. c #99A690",
"J. c #9AA790",
"K. c #9FAC93",
"L. c #9EAA95",
"P. c #A0AB95",
"I. c #A2AC9A",
"U. c #A2B097",
"Y. c #B3BEAC",
"T. c #B7C0B0",
"R. c #B8C0B2",
"E. c #BAC1B3",
"W. c #BAC0B5",
"Q. c #BEC5B8",
"!. c #C3CABE",
"~. c #C6CBBF",
"^. c #CC81C0",
"/. c #CD81C1",
"(. c #D080CC",
"). c #D985CE",
"_. c #D687D0",
"`. c #D286D4",
"'. c #D887D0",
"]. c #DC88D2",
"[. c #E083DE",
"{. c #E187DE",
"}. c #E486DF",
"|. c #E189D8",
" X c #E189DB",
".X c #E486E2",
"XX c #EA86E6",
"oX c #E688E2",
"OX c #E688E4",
"+X c #E98BE3",
"@X c #ED8AE9",
"#X c #EC88EB",
"$X c #EF89EA",
"%X c #EE89EC",
"&X c #EE8BEF",
"*X c #EF8DF0",
"=X c #F389F1",
"-X c #F58AF3",
";X c #F58DF1",
":X c #F78CF5",
">X c #F889F7",
",X c #F98DF7",
"<X c #F98DF8",
"1X c #FA8CF9",
"2X c #FB8EFB",
"3X c #FD8BFC",
"4X c #FD8CFD",
"5X c #FD8FFC",
"6X c #FD8FFD",
"7X c #FF8CFF",
"8X c #FF8DFF",
"9X c #FF8EFF",
"0X c #FF8FFF",
"qX c #FD90FC",
"wX c #FF90FF",
"eX c #FF92FF",
"rX c #C8CDC3",
"tX c #D5DAD1",
"yX c #D6DBD2",
"uX c #DADED6",
"iX c #E0E3DF",
"pX c #E2E5DF",
"aX c #E2E4E0",
"sX c #E3E6E1",
"dX c #E4E5E0",
"fX c #E7E8E5",
"gX c #E7E8E6",
"hX c #EFF0EE",
"jX c #F1F2F0",
"kX c #F3F3F3",
"lX c #F3F4F2",
"zX c #F4F4F5",
"xX c #F6F5F6",
"cX c #F6F5F7",
"vX c #F6F6F6",
"bX c #F8F8F8",
"nX c #F9F9F9",
"mX c #FAFAFA",
"MX c #FBFBFC",
"NX c #FCFBFC",
"BX c #FCFBFD",
"VX c #FFFFFF",
/* pixels */
"                                                        ",
"                                                        ",
"                  mXzXlXMXNX                            ",
"              VXhXyXY.S.G.H.iXbXVX                      ",
"            NXjX~.) j u # & / I.sX                      ",
"          nXrX-.p H x.m.d.`.U 3 Z.                      ",
"          tXT * } '.eXqX{.g.l . Z !.                    ",
"          ,.L B.h.[.%X{ c x 1 O ; S W.VX                ",
"      bXL.t j.n.$ w.a.4 $.>.V q 0.=  .dXMX              ",
"      kX2.K *XoXv 8.5.: ' 1._ 5 i.c.F %.gX              ",
"      uXA p.9X2X_.@X(.a B <.&.e R ;Xo.@ R.BX            ",
"      Q.0 s.9X7X9X9X>XI w *.3.k J :X/.% ;.cX            ",
"    mXE.2 O.9X7X7X7X0Xr.s ^ =.6 Y ,X-XG C fX            ",
"    xXJ.9 v.wX7X7X7X7X$Xk.y r + z XX5X..[ hX            ",
"    BXT.i ^.9X7X7X7X7X9XOXP o X X.<X=Xn Q pX            ",
"      aX~ 7.+X9X7X7X7X7X1X}.e.f.#X9X5Xt.D D.            ",
"      vX4.7 @. X4X3X8X8X9X9X6XwX8X.XV.y.E P.            ",
"        F.8 N ( u.q.b.M.].|.&XN.6.+.! `                 ",
"        :.g l.h , < d f m M | C.A.                      ",
"      jX] b ).9.z.#.> - W K.U.                          "
};
