/* XPM */
static char *rotating_parrot_frame_3[] = {
/* columns rows colors chars-per-pixel */
"28 20 244 2 ",
"   c None",
".  c #142D03",
"X  c #153104",
"o  c #1B3405",
"O  c #1F3606",
"+  c #163804",
"@  c #1D380B",
"#  c #213D07",
"$  c #223D0F",
"%  c #283F0C",
"&  c #2C3D11",
"*  c #214004",
"=  c #254607",
"-  c #26400E",
";  c #27450F",
":  c #2B490D",
">  c #2E4C0F",
",  c #32460D",
"<  c #294216",
"1  c #2D4415",
"2  c #2F451B",
"3  c #2E431E",
"4  c #2B441C",
"5  c #354F15",
"6  c #3B4D17",
"7  c #354718",
"8  c #304B1C",
"9  c #3A5112",
"0  c #3C5617",
"q  c #384E23",
"w  c #384E2E",
"e  c #3D5627",
"r  c #3B5128",
"t  c #3F552C",
"y  c #3F552D",
"u  c #435416",
"i  c #455F16",
"p  c #45521D",
"a  c #46571D",
"s  c #48571C",
"d  c #465C1B",
"f  c #495D1C",
"g  c #515F1E",
"h  c #4A6219",
"j  c #435825",
"k  c #4D5E27",
"l  c #415428",
"z  c #445F2B",
"x  c #4F5D2D",
"c  c #475A30",
"v  c #455A32",
"b  c #485931",
"n  c #4A5C31",
"m  c #4C5F38",
"M  c #505F3A",
"N  c #4B6025",
"B  c #596622",
"V  c #566F23",
"C  c #5C6A27",
"Z  c #536028",
"A  c #52612E",
"S  c #57632C",
"D  c #58612B",
"F  c #5D662B",
"G  c #4C623C",
"H  c #4F693E",
"J  c #5E6637",
"K  c #637228",
"L  c #616836",
"P  c #686C31",
"I  c #6A6E33",
"U  c #686D37",
"Y  c #667231",
"T  c #6B7634",
"R  c #6B7932",
"E  c #6C753B",
"W  c #6B713C",
"Q  c #707636",
"!  c #707837",
"~  c #74763E",
"^  c #7E7F3D",
"/  c #536742",
"(  c #576B46",
")  c #556E47",
"_  c #5A6D47",
"`  c #677040",
"'  c #6F7840",
"]  c #68724A",
"[  c #7A7F4E",
"{  c #667755",
"}  c #6B7855",
"|  c #768238",
" . c #7D853D",
".. c #6B8053",
"X. c #6C875A",
"o. c #6F815E",
"O. c #6F8858",
"+. c #70815F",
"@. c #71845E",
"#. c #778A5A",
"$. c #708D5C",
"%. c #758566",
"&. c #778567",
"*. c #768469",
"=. c #75866D",
"-. c #788969",
";. c #7E8F6E",
":. c #7E8E6F",
">. c #7B8972",
",. c #7E8D71",
"<. c #7F8C77",
"1. c #838142",
"2. c #878544",
"3. c #898745",
"4. c #8E8A45",
"5. c #938F4D",
"6. c #918C4F",
"7. c #929347",
"8. c #92914E",
"9. c #94974C",
"0. c #989250",
"q. c #999156",
"w. c #9E9D51",
"e. c #A2994F",
"r. c #A59D55",
"t. c #ABA157",
"y. c #A6A058",
"u. c #A8A05B",
"i. c #B4A55E",
"p. c #B4A95E",
"a. c #808D73",
"s. c #809071",
"d. c #879379",
"f. c #86937A",
"g. c #89967D",
"h. c #88957F",
"j. c #ACAD61",
"k. c #B8A762",
"l. c #BBAC67",
"z. c #B9AE67",
"x. c #BAB573",
"c. c #C3B467",
"v. c #C4B36D",
"b. c #C6B76E",
"n. c #C9B66C",
"m. c #C3BA6F",
"M. c #CEB96D",
"N. c #C5BC72",
"B. c #C5BB77",
"V. c #CFB873",
"C. c #D2B872",
"Z. c #D0BF72",
"A. c #D3BC74",
"S. c #D8BF75",
"D. c #D0C073",
"F. c #DDC076",
"G. c #D6C57B",
"H. c #DDC67A",
"J. c #DDC87E",
"K. c #E1C87E",
"L. c #E6C97D",
"P. c #E7C97E",
"I. c #8E9A83",
"U. c #93A089",
"Y. c #96A28A",
"T. c #A2AC9B",
"R. c #A9B39F",
"E. c #A8B0A2",
"W. c #A9B3A4",
"Q. c #B3BBAE",
"!. c #B4BCAF",
"~. c #B6BFB1",
"^. c #BAC1B7",
"/. c #E7CB81",
"(. c #E4CC82",
"). c #EACA81",
"_. c #ECCD83",
"`. c #ECCF82",
"'. c #EACF85",
"]. c #F3CF85",
"[. c #E9D084",
"{. c #EFD187",
"}. c #E6D58F",
"|. c #EFD88D",
" X c #ECDB8F",
".X c #F2D288",
"XX c #F4D389",
"oX c #F6D389",
"OX c #F9D389",
"+X c #F9D489",
"@X c #F9D68B",
"#X c #FDD58B",
"$X c #F8D78C",
"%X c #FFD58C",
"&X c #FDD78D",
"*X c #FFD68C",
"=X c #FFD78D",
"-X c #F1D88D",
";X c #F0D98E",
":X c #F8D88E",
">X c #F8D98E",
",X c #FBD98E",
"<X c #FBDA8F",
"1X c #FDD88D",
"2X c #FCD98E",
"3X c #FFD88E",
"4X c #FFD98F",
"5X c #FFDA8F",
"6X c #FFDA90",
"7X c #FFDB90",
"8X c #FFDB91",
"9X c #FFDC91",
"0X c #FFDC92",
"qX c #FFDD92",
"wX c #FDDE93",
"eX c #FFDE93",
"rX c #FFDF94",
"tX c #FFE094",
"yX c #FEE297",
"uX c #FFE397",
"iX c #C3C8BC",
"pX c #C3C9BC",
"aX c #CAD0C5",
"sX c #CBD0C6",
"dX c #CED3C9",
"fX c #CFD3CB",
"gX c #D1D6CC",
"hX c #D5D8D2",
"jX c #D6DAD2",
"kX c #D6DBD3",
"lX c #DCE0D9",
"zX c #DDE0DA",
"xX c #E2E4E1",
"cX c #E3E6E1",
"vX c #E6E7E3",
"bX c #F0F1F0",
"nX c #F2F3F1",
"mX c #F3F4F2",
"MX c #F7F7F6",
"NX c #F9F9F8",
"BX c #FAFAFA",
"VX c #FBFBFB",
"CX c #FDFDFD",
"ZX c white",
/* pixels */
"                                                        ",
"                        ZX                              ",
"                ZXmXlXfXQ.sXI.g.                        ",
"              BXaX@.) G 4 t $ 2 { pX                    ",
"            vX!.3 5 T h f u.8.I % m                     ",
"          cX<.b L z.J.d 0 c.Z.'.B , v kX                ",
"        dX=.@ 2.-X1X).` ^ 9 a 5.M.3.1 iX                ",
"      jX%.8 ! [.7X*X3X}.0.q _ c ~ i.p h.                ",
"    MXR.y ' $X&X*X%XeXA.x +.s.-.: u & >.                ",
"bXnX~./ j B.=X*X*X4X{.Y ( ;.:.o.; . O Y.NX              ",
"f.a.w + E yX#X*X*X@Xw.> ..$.X.n 1.D X W.                ",
"7 - s i 7.2X*X*X=X+XR = #.O.H U |.j.# E.CX              ",
"G.p.S.N.V n.8X*X3X`.Z * z e k V.uXb.6 T.VX              ",
"8XqX6X:X4.| H.*X3XL.F o < g t.wX;Xr.J ^.                ",
"9X*X*X*XXXy.e.].=X6Xk.Q x.F..XrXm.C } xX                ",
"v.>X5X*X4X<X/.OX*X*XoXP.9X4X4X XK A U.                  ",
"M q.K.9X3X=X3X=X*X*X=X5X*X%XtX9.S *.                    ",
"  &.[ l.,X6X%X*X*X*X*X*X*X3XD.N ,.gX                    ",
"      ] 6.(.6X*X*X*X*X*X*X0X .l hXZX                    ",
"        d.W C.rX=X*X*X*X=X_.P r zX                      "
};
