/* XPM */
static char *rotating_parrot_frame_10[] = {
/* columns rows colors chars-per-pixel */
"28 20 148 2 ",
"   c None",
".  c #1B3404",
"X  c #1D3819",
"o  c #223C03",
"O  c #243C0B",
"+  c #213C17",
"@  c #253D1D",
"#  c #254103",
"$  c #2B4707",
"%  c #2B4807",
"&  c #2A440C",
"*  c #284315",
"=  c #2F4B17",
"-  c #2B4419",
";  c #324A14",
":  c #324C1E",
">  c #355118",
",  c #36581B",
"<  c #2E4420",
"1  c #2F4928",
"2  c #325027",
"3  c #3C5325",
"4  c #3B5921",
"5  c #355229",
"6  c #3C532D",
"7  c #354D32",
"8  c #355534",
"9  c #3F5A35",
"0  c #375339",
"q  c #3D593B",
"w  c #3F6026",
"e  c #445A32",
"r  c #495F3B",
"t  c #416422",
"y  c #53742B",
"u  c #466737",
"i  c #506534",
"p  c #3E5B45",
"a  c #3C5B4C",
"s  c #415F45",
"d  c #446443",
"f  c #4A674B",
"g  c #4D6C46",
"h  c #546642",
"j  c #566942",
"k  c #5B6D44",
"l  c #4E7042",
"z  c #5F704C",
"x  c #436050",
"c  c #45635A",
"v  c #4E6C5E",
"b  c #556D56",
"n  c #5D6F56",
"m  c #50735F",
"M  c #62754D",
"N  c #627A45",
"B  c #637552",
"V  c #697D50",
"C  c #6D7E5A",
"Z  c #476664",
"A  c #4A6766",
"S  c #4E6C6C",
"D  c #547662",
"F  c #5F7566",
"G  c #5B776E",
"H  c #5C7F6A",
"J  c #597B63",
"K  c #4E6F72",
"L  c #517171",
"P  c #5B7D75",
"I  c #55767D",
"U  c #5C7A7E",
"Y  c #6F7F69",
"T  c #728556",
"R  c #5C8076",
"E  c #5F847F",
"W  c #728365",
"Q  c #768668",
"!  c #7D8D6D",
"~  c #658074",
"^  c #608379",
"/  c #7E8F70",
"(  c #839273",
")  c #83927B",
"_  c #8A987E",
"`  c #8EA076",
"'  c #8EA07A",
"]  c #557681",
"[  c #5A7D86",
"{  c #5C7E91",
"}  c #5E8285",
"|  c #5F808A",
" . c #5E8197",
".. c #63878A",
"X. c #698D88",
"o. c #618593",
"O. c #63869B",
"+. c #65899B",
"@. c #6C919D",
"#. c #6689A1",
"$. c #6A8EA2",
"%. c #6B90A2",
"&. c #7197AF",
"*. c #6F93B4",
"=. c #6F95BD",
"-. c #7399B1",
";. c #7297BC",
":. c #779DC8",
">. c #7AA1C5",
",. c #7DA4D3",
"<. c #7FA7DA",
"1. c #8E9C8C",
"2. c #919C88",
"3. c #A3AD99",
"4. c #A6B19B",
"5. c #A8B39F",
"6. c #ACB5A4",
"7. c #B1BAA7",
"8. c #B4BCAC",
"9. c #BAC0B4",
"0. c #C5CBBE",
"q. c #83ACDC",
"w. c #87B0DD",
"e. c #8DB5DF",
"r. c #84ADE0",
"t. c #88B1E3",
"y. c #8DB6EC",
"u. c #8AB3F3",
"i. c #8EB8F1",
"p. c #8DB6FE",
"a. c #8FB8FE",
"s. c #91BAF2",
"d. c #91BBFE",
"f. c #C6CBC3",
"g. c #CAD0C4",
"h. c #D1D5CC",
"j. c #D6DAD1",
"k. c #D8DCD4",
"l. c #DBDED8",
"z. c #DEE1DA",
"x. c #E3E6E0",
"c. c #E6E8E3",
"v. c #E9EBE7",
"b. c #EEEFED",
"n. c #F0F1EE",
"m. c #F3F3F2",
"M. c #F7F8F8",
"N. c #FCFCFD",
/* pixels */
"                          5.e  .p.p.p.,.b 8.            ",
"                        N.6.: ;.p.p.p.d.$.)             ",
"                      l.7.h p q.p.p.p.p.u.| )           ",
"                    v.T 3 Z ,.p.p.p.p.p.d.<.G 9.        ",
"                    6.3 o.u.p.p.p.p.p.p.a.d.+.W z.      ",
"                  j.M f s.p.p.d.d.y.d.d.p.a.X.> (       ",
"                N.3.& o.p.p.q.,.P v ..>.p.a.R m ~ 2.    ",
"                z.h o @.y.[ u 9 ; . X *.p.p.J j *.Y h.  ",
"                f.. o 8 p , y V M % o >.a.p.@., P #.2.  ",
"                6.X - & i N ! ( C & u q.p.a.i.m 4 -.G 3.",
"                B c P ; ! ! / C e S q.p.p.p.a.R t ..0 3 ",
"              x.j L q.s B ! k 6 O.u.d.p.p.p.a.l % + : ) ",
"              n.W a e.&.6 r x P y.p.p.p.p.d.,.2 # k 9.m.",
"              m.3.* ^ s.{ I ..+.a.p.p.p.u.r.A O ` k.N.  ",
"                h.e : -.a.&.= 2 y.p.d.a.-.s 1 C b.      ",
"                  7.6 8 :.+.I P w.r.;.#.q o i g.        ",
"                  N.6.n 7 S ] K a q @ - 3 Q             ",
"                    m.c.4.Q B h j z W _ '               ",
"                        M.b.x.j.f.c.m.                  ",
"                                                        "
};
