/* XPM */
static char *rotating_parrot_frame_5[] = {
/* columns rows colors chars-per-pixel */
"28 20 157 2 ",
"   c None",
".  c #142B00",
"X  c #1D3707",
"o  c #1A3708",
"O  c #1F3710",
"+  c #243D0D",
"@  c #233E04",
"#  c #293E10",
"$  c #233D16",
"%  c #294108",
"&  c #27480F",
"*  c #2E4D09",
"=  c #244203",
"-  c #2F5208",
";  c #3B5C0C",
":  c #294413",
">  c #364F16",
",  c #344B1C",
"<  c #2D5116",
"1  c #325410",
"2  c #395515",
"3  c #385E17",
"4  c #31541A",
"5  c #385E18",
"6  c #355E1D",
"7  c #3A600E",
"8  c #3C6010",
"9  c #36601D",
"0  c #3F691C",
"q  c #2C4820",
"w  c #374D23",
"e  c #2E5D20",
"r  c #2B5421",
"t  c #305226",
"y  c #3B5625",
"u  c #3D5F2A",
"i  c #396424",
"p  c #3E672C",
"a  c #3B6D29",
"s  c #3A6A25",
"d  c #39702C",
"f  c #3E7636",
"g  c #415C1C",
"h  c #46601F",
"j  c #405421",
"k  c #405825",
"l  c #425C2D",
"z  c #495D2F",
"x  c #4A5D3C",
"c  c #455935",
"v  c #457724",
"b  c #41722C",
"n  c #496034",
"m  c #4F623C",
"M  c #427031",
"N  c #4B7B30",
"B  c #4B5E43",
"V  c #586C45",
"C  c #546641",
"Z  c #5C7148",
"A  c #5A6C52",
"S  c #6C7A5B",
"D  c #4B8534",
"F  c #4D873B",
"G  c #4D8A3C",
"H  c #528736",
"J  c #50863E",
"K  c #528E34",
"L  c #55943A",
"P  c #548746",
"I  c #508B41",
"U  c #559442",
"Y  c #59964A",
"T  c #56984A",
"R  c #5E8A51",
"E  c #5D9150",
"W  c #6E805C",
"Q  c #70825E",
"!  c #73885E",
"~  c #609451",
"^  c #6A905D",
"/  c #5EA24D",
"(  c #5CA252",
")  c #60A646",
"_  c #61A44D",
"`  c #60A253",
"'  c #62AD54",
"]  c #64A158",
"[  c #62AF5A",
"{  c #68B05F",
"}  c #6BBC5E",
"|  c #66B35D",
" . c #718061",
".. c #778966",
"X. c #778568",
"o. c #7C8C6C",
"O. c #739464",
"+. c #6BB763",
"@. c #6ABD62",
"#. c #6EC361",
"$. c #71CB66",
"%. c #73C469",
"&. c #74CB6B",
"*. c #73C261",
"=. c #79D66E",
"-. c #77D673",
";. c #7AD971",
":. c #7AD375",
">. c #828F77",
",. c #829274",
"<. c #8A977E",
"1. c #829C72",
"2. c #8AA07D",
"3. c #81D97E",
"4. c #80E07C",
"5. c #82EA7E",
"6. c #8F9A84",
"7. c #939E8B",
"8. c #8CA280",
"9. c #96A28C",
"0. c #9DA793",
"q. c #9CAC91",
"w. c #A1AC97",
"e. c #AAAF9E",
"r. c #A7B29B",
"t. c #A8B19F",
"y. c #ABB6A1",
"u. c #B3BCAA",
"i. c #B9BFB2",
"p. c #87DD85",
"a. c #85EB83",
"s. c #88EB86",
"d. c #89E788",
"f. c #86F283",
"g. c #88F486",
"h. c #8DF28C",
"j. c #8CFF8D",
"k. c #8FFD90",
"l. c #91FF93",
"z. c #BDC4B6",
"x. c #BFC6B9",
"c. c #C0C4B9",
"v. c #C9CEC4",
"b. c #CBD1C6",
"n. c #CDD1C8",
"m. c #D2D7CC",
"M. c #D7DBD2",
"N. c #DDDFDB",
"B. c #DEE1DA",
"V. c #E2E3DF",
"C. c #E7E9E5",
"Z. c #E9EBE6",
"A. c #EFEFEE",
"S. c #F0F1EE",
"D. c #F5F5F4",
"F. c #F8F8F7",
"G. c #FCFCFC",
/* pixels */
"C.B.N.D.        D.C.V.B.Z.                              ",
">.x x 7.c.M.V.z.>.A B c  .q.u.B.G.                      ",
"W s a + , m V k < 6 d f 6 + : B t.D.                    ",
"6.+.d.@.G - = L p.s.s.h.=.@.&.( t 7.A.                  ",
"q.| l.l.a.D H s.l.j.j.j.k.j.j.-.G + 7.D.                ",
"y.` l.j./ ; %.l.j.j.j.j.j.j.#.& * 1 c v.                ",
"z.Y l.;.7 ; *.l.j.j.j.k.k.k.&.' } &.b S                 ",
"z.I k.f.7 K 5.j.j.k.l.} U H N s D a.@.u B.              ",
"  J j.h.L 5.j.j.s.' G 4 2 2 g h % D h.~ b.              ",
"  P f.j.f.j.j.j._ = + V Q ! ..o.g b d.E u.              ",
"  R a.j.j.j.j.h.b . , W ,.,.o.o.y D @.u w.              ",
"  ^ 4.j.j.j.j.j.' p $ , z n g j : / U Z n.              ",
"  O.:.l.j.j.j.j.k.d.| [ G 6 v 0 X o w u.F.              ",
"  1.&.l.j.j.j.j.j.j.l.l.f.5.$.F X n y.D.                ",
"  2.%.k.j.j.j.j.j.j.j.l.l.=.3 # o.z.                    ",
"  9.+.l.j.j.j.j.;.$.4.@.Y i > r.                        ",
"  6.[ l.j.j.j.$.< : M y q X.m.F.                        ",
"    ' j.j.j.=.3 V 0.6.e.v.B.G.                          ",
"    ( j.k.l.Y m b.G.                                    ",
"    ] j.l.:.4 7.F.                                      "
};
