/* XPM */
static char *rotating_parrot_frame_4[] = {
/* columns rows colors chars-per-pixel */
"28 20 144 2 ",
"   c None",
".  c #162F01",
"X  c #163003",
"o  c #193403",
"O  c #1F3B0B",
"+  c #213E05",
"@  c #213F08",
"#  c #253C11",
"$  c #2A3F13",
"%  c #214002",
"&  c #2B440B",
"*  c #2E4A0C",
"=  c #2D4315",
"-  c #354812",
";  c #394B14",
":  c #324A18",
">  c #3D4F18",
",  c #375314",
"<  c #385015",
"1  c #39541E",
"2  c #374D26",
"3  c #394E23",
"4  c #30482A",
"5  c #395024",
"6  c #3E542A",
"7  c #3E5634",
"8  c #414F19",
"9  c #455D16",
"0  c #42521D",
"q  c #475C1A",
"w  c #4C5A1E",
"e  c #536A1E",
"r  c #405323",
"t  c #495522",
"y  c #4C5820",
"u  c #45562F",
"i  c #4B5D2D",
"p  c #445A36",
"a  c #4C5E34",
"s  c #516524",
"d  c #536925",
"f  c #556328",
"g  c #5C6528",
"h  c #496231",
"j  c #4D623A",
"k  c #506237",
"l  c #546B3E",
"z  c #567236",
"x  c #616B28",
"c  c #607029",
"v  c #6A7C2D",
"b  c #6B7333",
"n  c #6C7338",
"m  c #767638",
"M  c #77783C",
"N  c #7B7C3E",
"B  c #566B45",
"V  c #5C6E4C",
"C  c #5E714E",
"Z  c #5E735E",
"A  c #6D794F",
"S  c #767940",
"D  c #797C44",
"F  c #627351",
"G  c #6C7E5B",
"H  c #737F5D",
"J  c #707D60",
"K  c #807F40",
"L  c #6D8853",
"P  c #6E8758",
"I  c #7C8353",
"U  c #718165",
"Y  c #7B8664",
"T  c #768D65",
"R  c #788668",
"E  c #7B8B6B",
"W  c #7B8972",
"Q  c #82853E",
"!  c #858545",
"~  c #8B8746",
"^  c #868C40",
"/  c #8D8C44",
"(  c #80814C",
")  c #8F8C4D",
"_  c #938E4C",
"`  c #96914B",
"'  c #9B954D",
"]  c #9B9A4E",
"[  c #979555",
"{  c #9E9553",
"}  c #A19751",
"|  c #A29957",
" . c #A49C5A",
".. c #A5A45A",
"X. c #AEA25A",
"o. c #B0A25B",
"O. c #B2A95D",
"+. c #819174",
"@. c #87947A",
"#. c #8A977D",
"$. c #B5A762",
"%. c #B7AA63",
"&. c #BCAA62",
"*. c #B9B469",
"=. c #C3B167",
"-. c #C7B16A",
";. c #C9B16A",
":. c #CFB86E",
">. c #CFB971",
",. c #D3BB73",
"<. c #CFC376",
"1. c #DBC175",
"2. c #D2C47A",
"3. c #DAC47A",
"4. c #E0C67B",
"5. c #99A490",
"6. c #9DA893",
"7. c #A3AD9B",
"8. c #ABB3A3",
"9. c #B7BEB2",
"0. c #BBC3B3",
"q. c #BFC6B9",
"w. c #DCCA80",
"e. c #E4CC81",
"r. c #EBCD82",
"t. c #E5D084",
"y. c #EBD387",
"u. c #E3D189",
"i. c #F2D187",
"p. c #F3D68B",
"a. c #FED68C",
"s. c #FED98E",
"d. c #FEDC91",
"f. c #FFE095",
"g. c #C3CABD",
"h. c #D3D7CF",
"j. c #D9DED4",
"k. c #E3E7DF",
"l. c #E6E9E4",
"z. c #E9EBE7",
"x. c #ECEEEA",
"c. c #EFF0ED",
"v. c #F3F4F3",
"b. c #FEFEFE",
/* pixels */
"                          b.b.                          ",
"                b.v.x.h.9.0.j.v.v.b.                    ",
"              0.8.U G 7 = 1 B E 8.x.z.                  ",
"q.z.  b.v.g.+.a : * K M { } s % p F #.                  ",
"5 V U 8.@.C r m ' ,.p.a.d.&.9 e | $ = 6.                ",
"Q n : O o - ' r.a.d.s.s.p._ > / <.*.t p                 ",
"d.e.X.! 9 ] i.s.s.a.s.a.d.u.N w b t.M # R               ",
"s.s.s.p.^ ..d.a.a.a.s.d.,.M k h r _ ,.8 6               ",
"d.s.s.p.v ] d.a.a.s.4.' 0 B E E G f -.w V j.            ",
"3.s.a.d.$./ i.s.a.s.Q + z T T @.G & ~ t 5.              ",
"S p.s.s.e.] 1.s.a.O.- , E L L F 2 o & = 5.              ",
"H %.d.s.s.i.i.a.a.) . * j B i b | ; . l j.              ",
"9.I r.s.a.a.s.a.s. .f 0 ; d  .p.u.g 2 g.                ",
"  H  .s.a.a.a.a.p.4.y.w.=.4.d.d.w.% W c.                ",
"    I 3.s.s.a.a.s.s.s.d.d.d.d.O._ 4 g.                  ",
"    J [ a.s.a.a.a.a.a.s.s.:.X.q k 9.                    ",
"      A >.d.s.a.a.a.s.1.&.x : F 8.v.                    ",
"      7.( p.s.a.a.s.r.x i E 6.0.                        ",
"        Y %.d.a.s.i.~ # 5.v.                            ",
"          D r.s.s.-.> V l.                              "
};
