/* XPM */
static char *rotating_parrot_frame_7[] = {
/* columns rows colors chars-per-pixel */
"28 20 214 2 ",
"   c None",
".  c #1E3603",
"X  c #1F3603",
"o  c #203704",
"O  c #273F02",
"+  c #213906",
"@  c #203907",
"#  c #233E04",
"$  c #233D07",
"%  c #213908",
"&  c #233D0A",
"*  c #294302",
"=  c #294701",
"-  c #2C4801",
";  c #2C4C06",
":  c #294508",
">  c #2A480E",
",  c #355300",
"<  c #375704",
"1  c #385B09",
"2  c #3A5F0E",
"3  c #274516",
"4  c #2C4610",
"5  c #2B4A16",
"6  c #294C14",
"7  c #2A4818",
"8  c #284A18",
"9  c #304918",
"0  c #334B18",
"q  c #364C19",
"w  c #354C1A",
"e  c #344B1C",
"r  c #354B1C",
"t  c #384C1D",
"y  c #2F5011",
"u  c #31531C",
"i  c #395F1A",
"p  c #39611E",
"a  c #3C4E20",
"s  c #3C5022",
"d  c #375628",
"f  c #36552B",
"g  c #385528",
"h  c #3A5429",
"j  c #3A562A",
"k  c #3D5628",
"l  c #30592F",
"z  c #395828",
"x  c #3E5C2A",
"c  c #38622F",
"v  c #356038",
"b  c #39663F",
"n  c #3E6E3A",
"m  c #3E6D3E",
"M  c #415C1A",
"N  c #415C1B",
"B  c #44601A",
"V  c #44611A",
"C  c #445925",
"Z  c #42572B",
"A  c #42572C",
"S  c #425A2D",
"D  c #435C2C",
"F  c #465C31",
"G  c #4C652C",
"H  c #4C6038",
"J  c #52643A",
"K  c #50633C",
"L  c #52653C",
"P  c #54673F",
"I  c #447636",
"U  c #467738",
"Y  c #42743D",
"T  c #43753E",
"R  c #477B3D",
"E  c #487B3E",
"W  c #4A7D3C",
"Q  c #3A6741",
"!  c #576742",
"~  c #556C48",
"^  c #5A6D48",
"/  c #5A6D49",
"(  c #427342",
")  c #427441",
"_  c #41744F",
"`  c #467D48",
"'  c #5C7042",
"]  c #5F704D",
"[  c #477F5F",
"{  c #647450",
"}  c #677654",
"|  c #6B7B5A",
" . c #6B7D59",
".. c #707E5E",
"X. c #4D8345",
"o. c #4B844B",
"O. c #49845C",
"+. c #4B855E",
"@. c #6C8154",
"#. c #478161",
"$. c #488061",
"%. c #488161",
"&. c #4F8E6A",
"*. c #569665",
"=. c #54956E",
"-. c #728161",
";. c #768963",
":. c #768866",
">. c #788A66",
",. c #7A8B6A",
"<. c #7A8C6A",
"1. c #7B8C6A",
"2. c #7B8C6B",
"3. c #7B8C6C",
"4. c #7E9262",
"5. c #7F8D71",
"6. c #5FA67A",
"7. c #5EA57D",
"8. c #87947A",
"9. c #559A81",
"0. c #58A088",
"q. c #63B08E",
"w. c #64B18D",
"e. c #60AE9A",
"r. c #60AE9B",
"t. c #6BBF9F",
"y. c #62B4A2",
"u. c #64B6A4",
"i. c #65B7A6",
"p. c #6BC0A4",
"a. c #6DC3A6",
"s. c #6FC6A8",
"d. c #6BC4B3",
"f. c #6FCABB",
"g. c #72CDB4",
"h. c #75D2BA",
"j. c #6FCDC0",
"k. c #71CDC0",
"l. c #77D6C1",
"z. c #72D2C6",
"x. c #75D4C4",
"c. c #76D5C4",
"v. c #76D6C4",
"b. c #77D7C7",
"n. c #7ADAC7",
"m. c #77D7C9",
"M. c #77D7CB",
"N. c #7ADBC9",
"B. c #7ADCC9",
"V. c #7ADCCD",
"C. c #7BDED0",
"Z. c #7CE0D1",
"A. c #7DE3DC",
"S. c #919D84",
"D. c #959F8A",
"F. c #969F8A",
"G. c #96A08B",
"H. c #96A28A",
"J. c #96A08C",
"K. c #97A08C",
"L. c #98A18E",
"P. c #9DAC89",
"I. c #9EAA91",
"U. c #A7B09D",
"Y. c #ABB2A3",
"T. c #B1B8A9",
"R. c #B3BAAB",
"E. c #B9C0B2",
"W. c #BDC5B1",
"Q. c #C2C7BD",
"!. c #81E9DF",
"~. c #81EADE",
"^. c #84EFEC",
"/. c #85F2EB",
"(. c #84F0ED",
"). c #84F1ED",
"_. c #86F3EF",
"`. c #86F4ED",
"'. c #85F2F0",
"]. c #86F4F1",
"[. c #86F4F2",
"{. c #86F5F3",
"}. c #88F7F3",
"|. c #88F7F5",
" X c #88F7F6",
".X c #88F8F3",
"XX c #89FAF7",
"oX c #8AFBF8",
"OX c #8BFDFD",
"+X c #8BFEFD",
"@X c #8CFEFE",
"#X c #8CFFFF",
"$X c #8DFFFF",
"%X c #8EFFFF",
"&X c #8FFFFF",
"*X c #90FFFF",
"=X c #C6CBC1",
"-X c #C8CBC4",
";X c #C8CCC4",
":X c #CACEC5",
">X c #CED1CB",
",X c #CFD3CB",
"<X c #D6D8D4",
"1X c #D7D9D4",
"2X c #DCDEDA",
"3X c #E0E1DF",
"4X c #E1E2E0",
"5X c #E4E4E3",
"6X c #E4E4E4",
"7X c #E5E5E5",
"8X c #E9E9EA",
"9X c #ECEBED",
"0X c #EFEEF0",
"qX c #F3F2F5",
/* pixels */
"l k.^.%X#X#X#X#X#X#X#X#X#X#X@XZ.l.!.&X*Xz.F             ",
"] . #.[.%X#X#X#X#X#X#X#X#X#X+XW , X.t.s.j./             ",
">X5.r _ w.OX#X#X#X#X#X#X#X#X@Xg.6.1 < 2 ` ^             ",
"    S.t 4 9.'.+X#X#X#X#X#X$X%X%XoXN.N.h.p Z             ",
"      ;X-.S 8 i.$X#X#X#X$X).b.}.$X$X$X%Xf.@ G.          ",
"          P.' h p.@X#X$X].%.: V.%X#X#X%Xm.# K.          ",
"            9XJ I +X#X|.[ o % $.|.#X#X$XB.; J.0X        ",
"            6XL o.+X#X(.3 A G 5 (.#X#X#X.X&.{ 1X        ",
"            5X~ d.#X#Xx.j :.>.x v.#X#X$X~.n P ,X        ",
"            7X} Q #XOXE w ,.1.V T OX#X$X`.O...2X        ",
"              R.z a.$XR q ,.<.V Y +X#X$Xn.= L.qX        ",
"              <Xa +._.U M 3.2.B m XX/.#XM.$ D.          ",
"                Y.> u & 0 @.;.N c 7.i C.y.H             ",
"                Q.K . + * - C 9 *.( X =.7 8.            ",
"                  T.e y q.r.e.u.#XA.b O  .=X            ",
"                    H.D v 0. X{.c.) f | :X              ",
"                    3X-X! k 6 d g s F.4X                ",
"                        8XW.4.I.U.E.                    ",
"                                                        ",
"                                                        "
};
