/* XPM */
static char *rotating_parrot_frame_12[] = {
/* columns rows colors chars-per-pixel */
"28 20 157 2 ",
"   c None",
".  c #1C3701",
"X  c #19380A",
"o  c #1C3815",
"O  c #213B13",
"+  c #2D3F1D",
"@  c #2D3C26",
"#  c #33580E",
"$  c #254110",
"%  c #274618",
"&  c #2F491A",
"*  c #35491C",
"=  c #365617",
"-  c #33511A",
";  c #3A5A13",
":  c #334C25",
">  c #35442C",
",  c #354B2B",
"<  c #3C4D2C",
"1  c #375820",
"2  c #3D5B24",
"3  c #37562B",
"4  c #3E5429",
"5  c #365325",
"6  c #3D4538",
"7  c #3F5336",
"8  c #3F602E",
"9  c #415E24",
"0  c #42582E",
"q  c #474A3B",
"w  c #475833",
"e  c #42543C",
"r  c #49553A",
"t  c #4A593B",
"y  c #47602F",
"u  c #496128",
"i  c #4F6935",
"p  c #4B6338",
"a  c #50633F",
"s  c #546E3E",
"d  c #57713C",
"f  c #4A5142",
"g  c #4D5B43",
"h  c #545C42",
"j  c #55524C",
"k  c #51584B",
"l  c #595454",
"z  c #5C5B51",
"x  c #635B5F",
"c  c #546842",
"v  c #52674D",
"b  c #5D694F",
"n  c #567142",
"m  c #587045",
"M  c #5C724D",
"N  c #6B7C5E",
"B  c #65755A",
"V  c #655963",
"C  c #685C64",
"Z  c #6B5C6C",
"A  c #635565",
"S  c #785C78",
"D  c #6D606C",
"F  c #756C6D",
"G  c #6F7E6A",
"H  c #717C66",
"J  c #747E68",
"K  c #7F6B73",
"L  c #79637A",
"P  c #7B7077",
"I  c #797972",
"U  c #7D717A",
"Y  c #698651",
"T  c #6C835A",
"R  c #7B8D67",
"E  c #7B8D6E",
"W  c #728164",
"Q  c #7C8E71",
"!  c #80926F",
"~  c #84897B",
"^  c #829272",
"/  c #859578",
"(  c #89977C",
")  c #8F9D7F",
"_  c #826683",
"`  c #886D87",
"'  c #87678A",
"]  c #826D84",
"[  c #8D7689",
"{  c #8C6C93",
"}  c #8F7794",
"|  c #937694",
" . c #9E7397",
".. c #947892",
"X. c #94729A",
"o. c #996FA8",
"O. c #9A74A1",
"+. c #9F78A3",
"@. c #A975B5",
"#. c #AE7CBC",
"$. c #B07DBC",
"%. c #B57EC4",
"&. c #BA7FC7",
"*. c #8B9783",
"=. c #909984",
"-. c #96A28B",
";. c #99A491",
":. c #A880A6",
">. c #B581BC",
",. c #A9B2A1",
"<. c #B0B7A9",
"1. c #B2BBAA",
"2. c #B2BDA3",
"3. c #B7BFB0",
"4. c #BEC5B8",
"5. c #B9C2B2",
"6. c #B681C3",
"7. c #BB84CB",
"8. c #BF81D7",
"9. c #C387C5",
"0. c #C086CE",
"q. c #C485D4",
"w. c #C488D1",
"e. c #CE89D5",
"r. c #C786DD",
"t. c #CB87DB",
"y. c #CA88DC",
"u. c #D08BDD",
"i. c #C683E1",
"p. c #CC89E3",
"a. c #D38DE5",
"s. c #D58CEB",
"d. c #DB8FE9",
"f. c #D58CF4",
"g. c #D98EF4",
"h. c #D68CFF",
"j. c #DC8EFE",
"k. c #DE90FA",
"l. c #E191F4",
"z. c #E291FF",
"x. c #E995FE",
"c. c #C6CCC0",
"v. c #CACFC5",
"b. c #CBD1C6",
"n. c #CDD2C9",
"m. c #D9DDD5",
"M. c #DEE1DB",
"N. c #E0E2DE",
"B. c #E4E6E2",
"V. c #E6E8E2",
"C. c #E8EBE4",
"Z. c #ECEEEB",
"A. c #F0F1EE",
"S. c #F4F4F3",
"D. c #F7F8F6",
"F. c #F8F8F7",
"G. c #FDFDFD",
/* pixels */
"                                                        ",
"                                                        ",
"                                                        ",
"                  G.G.S.N.Z.S.G.                        ",
"                F.N.1.Q a B *.4.D.G.                    ",
"              S.3.M 5 > j A @ , ) ,.c.Z.F.              ",
"            S.1.3 @ ' 7.O.C O o * 9 p W 4.D.            ",
"          G.M.N 6 @.y.O.t 2 - j $.>. .j , ;.B.          ",
"        G.D.-.< _ q.%.f i / T g %.z.z.q.f : ^ C.        ",
"        G.M.N C X.f 6 > d ^ ! s l i.z.k.7.L 4 / n.m.C.A.",
"        G.5.e o.6.x C L 0 Y ( R u K s.k.z.s.L @ e g v W ",
"        G.1.> { l.p.7.r.D y T ^ i - +.z.h.j.q.O.@.S 6 O ",
"        G.b.0 Z k.h.h.z.8.V t m s * ` g.h.h.h.z.x.t.] H ",
"          m.c q y.k.h.h.z.r.z X . $ [ g.h.h.z.g.#.P ~ b.",
"          D.-.% F p.h.h.h.f.>.] * w 6.z.h.z.s.X.I 1.    ",
"            m.n k a.j.h.h.h.z.f.7.9.g.z.x.t.[ ~ b.F.    ",
"            V.E > $.x.h.h.h.z.z.h.g.d.e.#.U *.N.        ",
"            F.1.7 l t.z.h.z.d.+.| | F h W <.            ",
"              S.c.H L %.k.w.F 9 ; = = E n.              ",
"                G.2.: , ..b # F h 0 ;.                  "
};
