/* XPM */
static char *rotating_parrot_frame_8[] = {
/* columns rows colors chars-per-pixel */
"28 20 249 2 ",
"   c None",
".  c #1B3103",
"X  c #1C3401",
"o  c #1F3705",
"O  c #1F3406",
"+  c #1C391D",
"@  c #25400E",
"#  c #284409",
"$  c #29440A",
"%  c #264210",
"&  c #244113",
"*  c #284111",
"=  c #284611",
"-  c #2C4712",
";  c #2A4912",
":  c #284A16",
">  c #2E4916",
",  c #28451A",
"<  c #2E421F",
"1  c #2C4E1C",
"2  c #364F15",
"3  c #345610",
"4  c #365A16",
"5  c #2B4A22",
"6  c #2A4F2A",
"7  c #364821",
"8  c #344924",
"9  c #394C21",
"0  c #394F23",
"q  c #354E29",
"w  c #374E29",
"e  c #2D5420",
"r  c #2A5027",
"t  c #2C522C",
"y  c #315522",
"u  c #3A5525",
"i  c #345A25",
"p  c #31562E",
"a  c #3F522A",
"s  c #2F593D",
"d  c #365E30",
"f  c #335E39",
"g  c #335D3A",
"h  c #315A3F",
"j  c #3A6730",
"k  c #3D6436",
"l  c #3C6A37",
"z  c #31613B",
"x  c #3B643F",
"c  c #415D18",
"v  c #43572A",
"b  c #465B2B",
"n  c #41592F",
"m  c #45592F",
"M  c #485F29",
"N  c #475731",
"B  c #455E33",
"V  c #445A35",
"C  c #44702D",
"Z  c #4C6432",
"A  c #526935",
"S  c #556E34",
"D  c #55643F",
"F  c #4C7D37",
"G  c #3D5E43",
"H  c #3F7453",
"J  c #446F48",
"K  c #556746",
"L  c #596A49",
"P  c #5C6F4A",
"I  c #407240",
"U  c #4B7E41",
"Y  c #46774F",
"T  c #487C4D",
"R  c #5F754E",
"E  c #417452",
"W  c #477656",
"Q  c #4A7753",
"!  c #457854",
"~  c #457B5B",
"^  c #467C59",
"/  c #607746",
"(  c #60714E",
")  c #67794A",
"_  c #6B7D55",
"`  c #69785A",
"'  c #6F7D5D",
"]  c #6E7F62",
"[  c #717D63",
"{  c #4A8457",
"}  c #49825C",
"|  c #59955D",
" . c #6A8050",
".. c #4B8266",
"X. c #4E8961",
"o. c #4D8869",
"O. c #588268",
"+. c #51906B",
"@. c #5C9868",
"#. c #548D74",
"$. c #519173",
"%. c #539277",
"&. c #5F9D71",
"*. c #559079",
"=. c #628060",
"-. c #718163",
";. c #748563",
":. c #708065",
">. c #748665",
",. c #788B64",
"<. c #798867",
"1. c #72816B",
"2. c #7A8A68",
"3. c #7D8A6F",
"4. c #7E8D6F",
"5. c #7D8971",
"6. c #7F8F73",
"7. c #819071",
"8. c #819072",
"9. c #849375",
"0. c #869278",
"q. c #8D9B7F",
"w. c #569C86",
"e. c #589B80",
"r. c #589B81",
"t. c #5C9B82",
"y. c #5C9F82",
"u. c #5E9F83",
"i. c #529B88",
"p. c #5CA080",
"a. c #63AB85",
"s. c #62AC90",
"d. c #62AC96",
"f. c #61AA98",
"g. c #64AB99",
"h. c #61AF99",
"j. c #68B491",
"k. c #68B692",
"l. c #68B69B",
"z. c #67B7A0",
"x. c #6BB4A3",
"c. c #6BBCA3",
"v. c #64B7A9",
"b. c #69BDAD",
"n. c #73C8B4",
"m. c #73CEBB",
"M. c #79CDBE",
"N. c #77D3B8",
"B. c #7FD4BF",
"V. c #7DD6BE",
"C. c #79D6C4",
"Z. c #7DD9C7",
"A. c #7AD3CA",
"S. c #79D4C9",
"D. c #7DD5CA",
"F. c #7CDAD1",
"G. c #7DDBD1",
"H. c #7FDED3",
"J. c #7FE1D8",
"K. c #7DE2D9",
"L. c #7FE5D9",
"P. c #8E9A82",
"I. c #939F88",
"U. c #959E8A",
"Y. c #A0A995",
"T. c #A6B09D",
"R. c #A7B19E",
"E. c #ACB4A5",
"W. c #B1B7AA",
"Q. c #B3BAAB",
"!. c #B9C0B2",
"~. c #C2C9BB",
"^. c #C3CABD",
"/. c #C3C9BE",
"(. c #C5CABF",
"). c #82E5D1",
"_. c #85E6D8",
"`. c #89E4DD",
"'. c #89EAE4",
"]. c #88F1E9",
"[. c #8AF1EB",
"{. c #89F2EB",
"}. c #88F3ED",
"|. c #8DF0EC",
" X c #89F5F1",
".X c #8CF5F1",
"XX c #8CF6F2",
"oX c #89F8F4",
"OX c #89F8F5",
"+X c #8FFAF5",
"@X c #8FF8F6",
"#X c #8DFBF9",
"$X c #8EFAF9",
"%X c #8CFCF9",
"&X c #8CFDFB",
"*X c #8CFFFE",
"=X c #8CFFFF",
"-X c #8DFFFF",
";X c #8EFFFF",
":X c #8FFFFF",
">X c #90F6F1",
",X c #90F8F4",
"<X c #90F8F6",
"1X c #92FBF9",
"2X c #90FCF9",
"3X c #93FDFB",
"4X c #91FFFE",
"5X c #90FFFF",
"6X c #91FFFF",
"7X c #92FFFF",
"8X c #C6CCC0",
"9X c #C6CCC1",
"0X c #C7CDC1",
"qX c #C8CEC2",
"wX c #CED4C8",
"eX c #D0D5CC",
"rX c #D2D7CD",
"tX c #D3D7D0",
"yX c #D5D7D3",
"uX c #D6D9D2",
"iX c #D6DAD3",
"pX c #DEE1DC",
"aX c #DFE2DC",
"sX c #E0E2DD",
"dX c #E2E4E1",
"fX c #E5E7E2",
"gX c #E7EAE6",
"hX c #E8E8E6",
"jX c #EAEAE9",
"kX c #EBEBEB",
"lX c #EEEFED",
"zX c #EFEFEE",
"xX c #EFF0ED",
"cX c #F1F0F0",
"vX c #F1F2F0",
"bX c #F3F3F2",
"nX c #F4F4F3",
"mX c #F7F6F8",
"MX c #F9F9F9",
"NX c #FAFAFA",
"BX c #FAFBFA",
"VX c #FAFAFB",
"CX c #FCFBFD",
"ZX c #FDFBFF",
"AX c #FCFCFC",
"SX c #FCFCFD",
"DX c #FEFDFE",
"FX c #FFFEFF",
"GX c white",
/* pixels */
"            E.w %.|.=X=X=X=X=X-X7X5XK.h.W =.T.          ",
"            aXP., i.*X=X=X=X=X=X;X].$.+.N.M.t.O.6.~.    ",
"                ` G S.:X=X=X=X=X;X{.p.3 F B.,Xb.n q.    ",
"                0XN e.&X=X-X;X$X2X=X>X| 4 y z.#.4.qX    ",
"              CXW.$ k.-X=X#XG.r.s.OX;XXXC.@.C u (.      ",
"              cX:.X.).:X#Xv.6 O g  X=X-X6X.X^ a !.      ",
"            FXaXB w.;X;X`.h < > t F.:X=X=X;Xo.7 tX      ",
"              fX( *.6XL.T V >./ p H.5X=X:X_.z K hX      ",
"              jXD ~ +Xj.% P 9._ J [.-X=X:XV.e U.bX      ",
"              lX' H J.U 2 ;.7.S i Z.6X=XoXn.x Y.kX      ",
"              nX0.& f = A 8.,.c I }.;X=X%Xu.9 R.bX      ",
"              SXQ.o . X Z 2. .- y.1X*X4Xm.d ] iXBX      ",
"              AX^.0 1 l : b M ; l.a.L.3X} 8 9XmX        ",
"                dX3.k g.x...E &.j # c.D.5 1.xXGX        ",
"                  pXL + A.@X'.<Xf.@ Y s -.rX            ",
"                    yXR r ! d.{ Q * v 5.uXZX            ",
"                    nXwX<.) m q [ I.8XzXDX              ",
"                      MXvXsX/.eXgXNXVX                  ",
"                                                        ",
"                                                        "
};
