/* XPM */
static char *rotating_parrot_frame_1[] = {
/* columns rows colors chars-per-pixel */
"28 20 185 2 ",
"   c None",
".  c #1F3705",
"X  c #1D3D03",
"o  c #223E04",
"O  c #233E04",
"+  c #233D06",
"@  c #253B0B",
"#  c #233C0A",
"$  c #243F0D",
"%  c #264302",
"&  c #2A4507",
"*  c #284804",
"=  c #294804",
"-  c #26400A",
";  c #27400B",
":  c #294009",
">  c #374E0D",
",  c #3E540E",
"<  c #284410",
"1  c #2C4413",
"2  c #2E4B13",
"3  c #2F4B16",
"4  c #314413",
"5  c #354617",
"6  c #384014",
"7  c #364A16",
"8  c #384A11",
"9  c #3C4A13",
"0  c #3E4E13",
"q  c #3E4D14",
"w  c #314C1B",
"e  c #354C1E",
"r  c #3D4F1D",
"t  c #374D20",
"y  c #385024",
"u  c #385124",
"i  c #3C5126",
"p  c #3E572B",
"a  c #40461B",
"s  c #44471D",
"d  c #415610",
"f  c #415611",
"g  c #475016",
"h  c #455A12",
"j  c #465D11",
"k  c #4D5F16",
"l  c #4C501F",
"z  c #56621C",
"x  c #454E20",
"c  c #514C23",
"v  c #475326",
"b  c #485227",
"n  c #405A21",
"m  c #475228",
"M  c #40552A",
"N  c #455D2C",
"B  c #565527",
"V  c #5C5922",
"C  c #5D5329",
"Z  c #59522C",
"A  c #485F36",
"S  c #63532E",
"D  c #655630",
"F  c #665630",
"G  c #775F37",
"H  c #725738",
"J  c #7D5B3E",
"K  c #7E5B3F",
"L  c #7E5F3D",
"P  c #7F5D3F",
"I  c #446227",
"U  c #4D682D",
"Y  c #4C6830",
"T  c #4D633A",
"R  c #546D36",
"E  c #5B773C",
"W  c #67602A",
"Q  c #6A6729",
"!  c #6B602D",
"~  c #7F5C40",
"^  c #586B45",
"/  c #667B4F",
"(  c #627852",
")  c #697D55",
"_  c #6D7F56",
"`  c #82633E",
"'  c #82693B",
"]  c #856D3B",
"[  c #8A6F3F",
"{  c #805D40",
"}  c #966E48",
"|  c #8E7041",
" . c #9A714A",
".. c #9B704B",
"X. c #A66F54",
"o. c #B16E5D",
"O. c #A57550",
"+. c #A77652",
"@. c #A77055",
"#. c #A87653",
"$. c #AB7754",
"%. c #AD7755",
"&. c #B0705C",
"*. c #B7795D",
"=. c #BD7762",
"-. c #BF7A62",
";. c #C27D63",
":. c #C57768",
">. c #C67669",
",. c #C9786B",
"<. c #CD7F6B",
"1. c #CE7C6D",
"2. c #6C805C",
"3. c #6E8160",
"4. c #708560",
"5. c #748760",
"6. c #778965",
"7. c #778A66",
"8. c #7A8D67",
"9. c #788768",
"0. c #79866C",
"q. c #788969",
"w. c #7A8B6A",
"e. c #7B896E",
"r. c #7B8C6C",
"t. c #7D8D6D",
"y. c #7D8A70",
"u. c #7E8B71",
"i. c #828E74",
"p. c #8A967F",
"a. c #CF806C",
"s. c #D1806E",
"d. c #D4826F",
"f. c #D58270",
"g. c #DD8375",
"h. c #DE8476",
"j. c #DF8577",
"k. c #E38679",
"l. c #E9887D",
"z. c #8B9980",
"x. c #8D9881",
"c. c #8E9A82",
"v. c #8E9C82",
"b. c #95A18B",
"n. c #97A38C",
"m. c #A0AC94",
"M. c #A5AF98",
"N. c #ABB4A3",
"B. c #ACB4A5",
"V. c #B3B9AC",
"C. c #B2BBAE",
"Z. c #B4BBAF",
"A. c #B4BCB0",
"S. c #EB8480",
"D. c #EC8480",
"F. c #ED8880",
"G. c #EF8881",
"H. c #EF8981",
"J. c #F18A83",
"K. c #F28884",
"L. c #FB8B89",
"P. c #FD8B8B",
"I. c #FE8B8B",
"U. c #FC8C8A",
"Y. c #FD8C8B",
"T. c #FE8C8B",
"R. c #FF8C8C",
"E. c #FF8C8D",
"W. c #FF8D8D",
"Q. c #FF8D8E",
"!. c #FF8D8F",
"~. c #FF8E8F",
"^. c #FF8D90",
"/. c #FF8E90",
"(. c #FF8E91",
"). c #FF8E92",
"_. c #C5CBBF",
"`. c #C9CDC5",
"'. c #CBCEC7",
"]. c #CBCFC8",
"[. c #D5D7D2",
"{. c #D8DAD7",
"}. c #D9DAD7",
"|. c #E3E4E3",
" X c #ECECED",
/* pixels */
"                                                        ",
"                                                        ",
"                                                        ",
"                    |.].v.}.m._. X                      ",
"                  `.z.u $ A Y ) V.                      ",
"                x.N C K K ~ P 9 1 9.                    ",
"              y.- = W k.} { { q % ^                     ",
"            i.; d > * -.8 I ( e + # c.                  ",
"          n.M V l.&.c >.b 7.t./ 4 6 T                   ",
"          _ O 1.Q.R.I.S.m w.8.E B ,.s b.                ",
"        M.o G J.E.R.R.D.m w.8.4.Z ~.J p                 ",
"        B.@ o.(.R.R.R.D.v 6.r.U S Q.' 3 '.              ",
"      {.y H P.R.R.R.R.G.h R 5.r =.Q.O.7 q.              ",
"      p.< ` (.R.R.R.R.G., t n : ..E.<.x 2.              ",
"      i O z s.Q.R.R.R.L. .& . 0 K.^.] 2 N.              ",
"    e.5 :.| $.).W.R.R.E.Y. .f *.T./.L w [.              ",
"  u.a ! U.$.[ f.h.!.W.R.E.L.G.T.W.H.F 3.                ",
"0.X X.~.Q.a.] j k +.g.W.R.R.R.R.Q.d.l Z.                ",
"g @.j.W.R.W.!.;.%.#.g.W.R.R.R.R.Q.d.l A.                ",
"Q ~.W.R.R.R.R.!././.W.R.R.R.R.R.E.F.D C.                "
};
