/* XPM */
static char *rotating_parrot_frame_9[] = {
/* columns rows colors chars-per-pixel */
"28 20 156 2 ",
"   c None",
".  c #193301",
"X  c #213B05",
"o  c #20371E",
"O  c #233D1B",
"+  c #264104",
"@  c #27430E",
"#  c #2F4B0C",
"$  c #35520F",
"%  c #3C5B0F",
"&  c #2E4710",
"*  c #2B4817",
"=  c #2D4B1F",
"-  c #304B1E",
";  c #3D561A",
":  c #2E4722",
">  c #2E4A22",
",  c #344F2A",
"<  c #33492A",
"1  c #3B5626",
"2  c #375C24",
"3  c #3D5E24",
"4  c #34502E",
"5  c #3C5D2E",
"6  c #395636",
"7  c #3A5832",
"8  c #3A563D",
"9  c #405A1D",
"0  c #41582B",
"q  c #455A33",
"w  c #4B5F36",
"e  c #445C3D",
"r  c #4C6726",
"t  c #4B632E",
"y  c #426330",
"u  c #456834",
"i  c #42613A",
"p  c #4F623E",
"a  c #4A6D3D",
"s  c #51643D",
"d  c #536839",
"f  c #597631",
"g  c #3E5B46",
"h  c #36534F",
"j  c #38554E",
"k  c #3E5C51",
"l  c #455E43",
"z  c #425F51",
"x  c #496B42",
"c  c #49654F",
"v  c #526540",
"b  c #566B42",
"n  c #526748",
"m  c #426353",
"M  c #4D6B53",
"N  c #4B6858",
"B  c #52755E",
"V  c #55795A",
"C  c #63764C",
"Z  c #687956",
"A  c #67785A",
"S  c #6D7E5F",
"D  c #496762",
"F  c #496964",
"G  c #456261",
"H  c #516C63",
"J  c #507166",
"K  c #567B67",
"L  c #57746C",
"P  c #4E6F71",
"I  c #526F72",
"U  c #56787C",
"Y  c #59787C",
"T  c #567474",
"R  c #667963",
"E  c #717E6A",
"W  c #6F815E",
"Q  c #74885C",
"!  c #5E8071",
"~  c #62866E",
"^  c #778765",
"/  c #768965",
"(  c #788965",
")  c #76886B",
"_  c #7E906B",
"`  c #7F8C72",
"'  c #849276",
"]  c #86937B",
"[  c #8C987F",
"{  c #89957C",
"}  c #577881",
"|  c #5E7980",
" . c #5D7F8E",
".. c #537483",
"X. c #5C8280",
"o. c #5E818F",
"O. c #608481",
"+. c #618789",
"@. c #628491",
"#. c #648996",
"$. c #688E9F",
"%. c #65889C",
"&. c #6D9398",
"*. c #709493",
"=. c #678BA7",
"-. c #6F95AE",
";. c #7096AC",
":. c #7198AE",
">. c #6F94B5",
",. c #6F95B9",
"<. c #7299B2",
"1. c #7095B8",
"2. c #789FB9",
"3. c #789EC3",
"4. c #79A1C4",
"5. c #7CA3CC",
"6. c #7CA3D2",
"7. c #8F9A85",
"8. c #93A283",
"9. c #9BA690",
"0. c #A3AD98",
"q. c #A4B098",
"w. c #A9B29D",
"e. c #B4BCAB",
"r. c #B2BCA5",
"t. c #BBC3B4",
"y. c #BFC4B8",
"u. c #CBD2BF",
"i. c #82A9D4",
"p. c #81A9DE",
"a. c #87B0D8",
"s. c #84ACE3",
"d. c #87AFE8",
"f. c #89B2E7",
"g. c #87B0EB",
"h. c #8BB4EB",
"j. c #8FB9E9",
"k. c #8CB5F4",
"l. c #8FB8F5",
"z. c #8CB5FE",
"x. c #8FB8FE",
"c. c #91BBFE",
"v. c #C8CEC1",
"b. c #CAD1C1",
"n. c #CFD3CB",
"m. c #D2D7CE",
"M. c #D3D8CE",
"N. c #DADDD8",
"B. c #E1E2DE",
"V. c #E3E5E2",
"C. c #E6E8E6",
"Z. c #E8EAE5",
"A. c #ECEDEA",
"S. c #F8F8F7",
"D. c #FDFDFD",
"F. c #F3F3F4",
/* pixels */
"                    [ - g.z.z.z.x.6.J ]                 ",
"                    0.> s.z.z.z.z.x.d.Y A               ",
"                D.F.9.4 6.z.z.z.z.z.x.f.i C e.          ",
"                A.w.s } g.z.z.z.x.z.z.k.V x L {         ",
"                u.9 D g.z.z.c.c.g.f.z.z.O.a ;.} R       ",
"                w.8 5.x.z.c.5.#.m +.z.z.3.3 y &.@.) e.  ",
"                ' k h.c.g.-.z X . c g.z.z.2.u 0 i.h l M.",
"              A.Z 6 i.k.U 2 b t + 7 5.z.z.c.! % z o E A.",
"              V.v & *.@.1 f ( ^ # B s.z.z.c.*.$ . n N.  ",
"              V.: X = , r _ ' C 8 5.c.z.z.x.,.* t v.D.  ",
"              C.< @ X d Q ' W l 1.c.z.z.z.c.} O r.D.    ",
"              Z.s N M ; ( / q D k.z.z.z.k.4.8 q M.      ",
"              B.w J j.T w s T K j.z.z.c.5...+ ^ C.      ",
"                7.4 <.l. .G %.5 %.c.c.6.o.O b b.        ",
"                n.0 > &.h.h.X.4 M a.:.h 8 q 7.          ",
"                F.e.0 * ! 4.,.=.c P : < ` 0.            ",
"                    y.R - e g L 7 l { y.A.              ",
"                      Z.t.t.9.8.e.M.A.D.                ",
"                        D.      D.                      ",
"                                                        "
};
