/* XPM */
static char *rotating_parrot_frame_6[] = {
/* columns rows colors chars-per-pixel */
"28 20 243 2 ",
"   c None",
".  c #1D3504",
"X  c #1E3605",
"o  c #1E3509",
"O  c #203409",
"+  c #213714",
"@  c #233E10",
"#  c #273C15",
"$  c #253E18",
"%  c #26440A",
"&  c #2A430A",
"*  c #294A0B",
"=  c #2D4F09",
"-  c #2B4C0E",
";  c #2E4D0D",
":  c #324F0A",
">  c #33550A",
",  c #33560E",
"<  c #244513",
"1  c #2D4315",
"2  c #294614",
"3  c #2B4810",
"4  c #2B4C13",
"5  c #2E4A17",
"6  c #2F4B1B",
"7  c #314D13",
"8  c #2E5010",
"9  c #2F5313",
"0  c #2F5114",
"q  c #2E5416",
"w  c #355012",
"e  c #325414",
"r  c #315816",
"t  c #315019",
"y  c #31591A",
"u  c #345E1A",
"i  c #315B1F",
"p  c #355B1F",
"a  c #376117",
"s  c #3B631C",
"d  c #3A681D",
"f  c #2B4D20",
"g  c #384E20",
"h  c #394F23",
"j  c #305F23",
"k  c #3D5B24",
"l  c #346220",
"z  c #396721",
"x  c #3D6621",
"c  c #3D6924",
"v  c #376129",
"b  c #3D6A2A",
"n  c #3B692C",
"m  c #3F6D2F",
"M  c #426F1C",
"N  c #455E26",
"B  c #465829",
"V  c #435D2B",
"C  c #465735",
"Z  c #475933",
"A  c #435A36",
"S  c #4F682D",
"D  c #4E6534",
"F  c #4E6F3B",
"G  c #487837",
"H  c #587036",
"J  c #556640",
"K  c #596A4F",
"L  c #5C6B4F",
"P  c #5D6C4C",
"I  c #5D7544",
"U  c #586951",
"Y  c #5C6854",
"T  c #627844",
"R  c #60774C",
"E  c #647750",
"W  c #607354",
"Q  c #607156",
"!  c #697E53",
"~  c #687A56",
"^  c #66765D",
"/  c #68775A",
"(  c #6E7D67",
")  c #4A822C",
"_  c #4B8436",
"`  c #4D8737",
"'  c #4B843B",
"]  c #57963D",
"[  c #4B8840",
"{  c #528F43",
"}  c #5A8449",
"|  c #529243",
" . c #519641",
".. c #559441",
"X. c #549541",
"o. c #579A43",
"O. c #5B9B41",
"+. c #5D9248",
"@. c #58974E",
"#. c #6E8354",
"$. c #688B59",
"%. c #5CA244",
"&. c #5AA049",
"*. c #5FAA4F",
"=. c #5EA650",
"-. c #61A94E",
";. c #60A255",
":. c #67A951",
">. c #61AB56",
",. c #66AC5A",
"<. c #65AE5C",
"1. c #68AE5B",
"2. c #65B452",
"3. c #60B257",
"4. c #65B354",
"5. c #66B556",
"6. c #6AB35A",
"7. c #67B959",
"8. c #66BA5D",
"9. c #68B85F",
"0. c #6CBA5C",
"q. c #718660",
"w. c #758562",
"e. c #748A63",
"r. c #778468",
"t. c #78866A",
"y. c #7B8C6B",
"u. c #7C8A6F",
"i. c #7D8D6E",
"p. c #7E8F6F",
"a. c #7F8E70",
"s. c #7F9070",
"d. c #6AB963",
"f. c #6EC060",
"g. c #70C461",
"h. c #72C065",
"j. c #70C864",
"k. c #74CC67",
"l. c #72C96A",
"z. c #74CC6C",
"x. c #75CE6E",
"c. c #76D16A",
"v. c #75D26D",
"b. c #78D46F",
"n. c #7ACA74",
"m. c #7AD170",
"M. c #78D570",
"N. c #79D673",
"B. c #7CDA72",
"V. c #7EDC76",
"C. c #7CDE76",
"Z. c #7DDF77",
"A. c #7EE077",
"S. c #7EE07B",
"D. c #88947F",
"F. c #80D679",
"G. c #80D97B",
"H. c #80E679",
"J. c #83E37E",
"K. c #83E57D",
"L. c #83E77D",
"P. c #8F9B86",
"I. c #909A86",
"U. c #949F85",
"Y. c #99A78B",
"T. c #9CA693",
"R. c #9EA796",
"E. c #9FA996",
"W. c #A0AA97",
"Q. c #A3AE94",
"!. c #B4BBAE",
"~. c #B8BEB2",
"^. c #86E680",
"/. c #86E881",
"(. c #85EC82",
"). c #87ED85",
"_. c #88EC84",
"`. c #89F087",
"'. c #8AF187",
"]. c #8AF188",
"[. c #8BF489",
"{. c #8EF78E",
"}. c #8CF98B",
"|. c #8CFA8C",
" X c #8EFA8E",
".X c #8CFE8C",
"XX c #8CFF8C",
"oX c #8CFF8D",
"OX c #8DFF8D",
"+X c #8DFC8E",
"@X c #8EFD8E",
"#X c #8EFD8F",
"$X c #8DFF8E",
"%X c #8EFF8E",
"&X c #8EFE8F",
"*X c #8EFF8F",
"=X c #8EFD90",
"-X c #8FFD91",
";X c #8FFF90",
":X c #8FFF91",
">X c #92FA93",
",X c #90FD91",
"<X c #90FF91",
"1X c #91FC92",
"2X c #90FF92",
"3X c #91FF93",
"4X c #92FF93",
"5X c #92FF94",
"6X c #93FE96",
"7X c #94FF96",
"8X c #95FE99",
"9X c #96FF99",
"0X c #B9C3A9",
"qX c #BBC0B3",
"wX c #BAC1B4",
"eX c #BEC5B7",
"rX c #BFC4BE",
"tX c #C1C5BB",
"yX c #CDD1C8",
"uX c #CDD2C9",
"iX c #D0D4CB",
"pX c #D1D6CD",
"aX c #D4D9CF",
"sX c #DFE1DD",
"dX c #E4E6E0",
"fX c #E4E7E1",
"gX c #E7E9E4",
"hX c #E8EBE4",
"jX c #E9EBE7",
"kX c #E9ECE7",
"lX c #EDEDEC",
"zX c #EEEEED",
"xX c #F2F3F1",
"cX c #F3F3F3",
"vX c #F5F6F5",
"bX c #F6F7F5",
"nX c #F6F7F6",
"mX c #F9F9F9",
"MX c #FBFBFB",
"NX c #FDFCFD",
"BX c #FEFDFF",
"VX c #FFFEFF",
"CX c white",
/* pixels */
"        e.G l.1X&XXX.X] , ; > M = 1 t.fX                ",
"    q.} 6.).2XOXXXXX%Xm.5.&.-.A.1.) k I.xX              ",
"P $.<.J.4X*XXXXXXXXXXX5X@X}.#X*X7X].' + ~.NX            ",
",.S.=X:XXXXXXXXXXXXX$X*X:X;XOXXXXX3XN.q Y jX            ",
"8X2X$XoXoXXXXXXXXXXX[.b.c.'.;XXXXXXX,X| $ 0X            ",
"B.^.6X+X*X;X*XXXXXXX*.* 9 X.{.;XXXXX;Xv.2 Q.            ",
"v m @...2.k.`.%XXX;X{ X o 4 ;.(.*XXX%Xj.3 D.            ",
"rXP./ J B e =.|.XX2X[ O E D 5 o. X%X2X_.z U kX          ",
"CXbXzXsXtXL u /.:X<X9.6 u.i.S 8 M.L.F.>X3.K gX          ",
"        BXR.x g.-X*XC.p ~ s.#.w _ 0.y 8. .(             ",
"          iXR r x.9XZ.a N y.p.H 0 4.n s t E.            ",
"          VXwXh b d.H.%.7 ! a.T & :.h.% C uX            ",
"            vXeXQ @ d 7.- g V : l V.z.f T.cX            ",
"              MXaXU.Z < . i ` O.G.K.c r.lX              ",
"                  mXpX^ # j f.>.n.+.w.qX                ",
"                    CXdXW.I F A W Y.                    ",
"                        nXhXyX!.                        ",
"                                                        ",
"                                                        ",
"                                                        "
};
