/* XPM */
static char *science_parrot_frame_cropped_1[] = {
/* columns rows colors chars-per-pixel */
"27 20 156 2 ",
"   c None",
".  c #030302",
"X  c #0D0E0D",
"o  c #050C02",
"O  c #110F0A",
"+  c #0D1B00",
"@  c #0E1408",
"#  c #14120B",
"$  c #121B0B",
"%  c #121312",
"&  c #181B16",
"*  c #221D13",
"=  c #132304",
"-  c #18250C",
";  c #1F3E02",
":  c #1E310D",
">  c #21390A",
",  c #282216",
"<  c #30291B",
"1  c #272827",
"2  c #2B2B24",
"3  c #2A2A29",
"4  c #2F302E",
"5  c #3A3221",
"6  c #303925",
"7  c #3C3D2E",
"8  c #343534",
"9  c #3C3C3B",
"0  c #453E2D",
"q  c #234503",
"w  c #2F5608",
"e  c #3F5A17",
"r  c #306104",
"t  c #366807",
"y  c #386A09",
"u  c #3C7507",
"i  c #39402C",
"p  c #3F4533",
"a  c #595C2E",
"s  c #414735",
"d  c #484339",
"f  c #46433E",
"g  c #544C3B",
"h  c #524A32",
"j  c #5A5135",
"k  c #63563B",
"l  c #65583B",
"z  c #625336",
"x  c #5E622E",
"c  c #484743",
"v  c #484848",
"b  c #574F41",
"n  c #4B5343",
"m  c #5B554A",
"M  c #4F5050",
"N  c #525352",
"B  c #5C5C5C",
"V  c #595E55",
"C  c #55624A",
"Z  c #736242",
"A  c #786643",
"S  c #7D6A45",
"D  c #7C6A49",
"F  c #626F54",
"G  c #736957",
"H  c #677659",
"J  c #6E7E5E",
"K  c #656560",
"L  c #6D6E6D",
"P  c #6F706F",
"I  c #767669",
"U  c #787775",
"Y  c #7C7C7B",
"T  c #747371",
"R  c #8D774D",
"E  c #8E7852",
"W  c #88795E",
"Q  c #957E52",
"!  c #8C7D62",
"~  c #817F7A",
"^  c #418006",
"/  c #468807",
"(  c #519D09",
")  c #54A408",
"_  c #53A506",
"`  c #60BA0B",
"'  c #66CD06",
"]  c #66CA09",
"[  c #68CD0A",
"{  c #66C70A",
"}  c #6FDF09",
"|  c #6BD30A",
" . c #71DE0B",
".. c #73E30B",
"X. c #77EB0B",
"o. c #7CF40B",
"O. c #778865",
"+. c #77816E",
"@. c #78826F",
"#. c #7C8E69",
"$. c #748562",
"%. c #82FF0B",
"&. c #9A8359",
"*. c #A48C5C",
"=. c #AE925E",
"-. c #B2955F",
";. c #8B816E",
":. c #988667",
">. c #88847B",
",. c #988D77",
"<. c #988E7B",
"1. c #9C917B",
"2. c #B59865",
"3. c #C5A66B",
"4. c #CFAF74",
"5. c #D4B273",
"6. c #D9B675",
"7. c #E1BE7A",
"8. c #E9C57E",
"9. c #99958E",
"0. c #999690",
"q. c #949890",
"w. c #A8A296",
"e. c #A1A09F",
"r. c #B9AF9C",
"t. c #B7AE9C",
"y. c #AAA7A1",
"u. c #ABABAA",
"i. c #ACAAA7",
"p. c #BEB4A1",
"a. c #B4B3B2",
"s. c #BFBEBD",
"d. c #C8B99C",
"f. c #C6BBA6",
"g. c #ECC680",
"h. c #EFC982",
"j. c #F5CE84",
"k. c #FAD287",
"l. c #FED689",
"z. c #FFD98B",
"x. c #CEC2AA",
"c. c #D3C5AC",
"v. c #DED0B4",
"b. c #E2D3B6",
"n. c #F0DDBA",
"m. c #F4E2BF",
"M. c #C9C9C8",
"N. c #D0CFCE",
"B. c #D1D1CF",
"V. c #D2D2D1",
"C. c #D8D8D7",
"Z. c #DDDDDD",
"A. c #FCE9C3",
"S. c #E9E9E8",
"D. c #FEFEFE",
"F. c #F1F1F1",
/* pixels */
"                        * 5 < #                       ",
"                    . & z Z k 5 .                     ",
"    @ q q q @   & c G ! ,.<.<.1.<.I N M 9 %           ",
"    : { o.` -   c c.A.A.A.t.I >.v.b.i.F.Z.8           ",
"      [ [ w &   d n.w.f.b.F N n >.0.0.Z.M.            ",
"      ] o.) $ , A d.t.c.c.V $.F F w.p.u.U             ",
"      { ..^ o z 7.:.:.:.G n #.J 7 W ! b %             ",
"    = [  ./ $ *.l.k.j.j.-.p #.H h 8.h.6.5             ",
"    y o.%...w 2.l.l.l.z.6.i O.C A l.l.z.&.            ",
"  > | %.o._ w a h.l.l.l.k.k C s =.z.l.z.3.#           ",
"$ ( %.%.%.%...t E l.l.l.l.3.2 s g.l.l.z.2.#           ",
"y o.%.%.%.%.] ^ e 4.l.l.l.l.R Q l.l.l.z.&.            ",
"..%.%.%.%.%.%.X.u j j.l.l.l.j.8.l.l.l.z.D             ",
"%.%.%.%.%.%.%.X._ u *.z.l.l.l.z.l.l.z.5.0 X           ",
"%.%.%.%.%.%.%.%.%...x h.l.l.z.l.j.6.&.g i.T           ",
"[ [ [ [ ' ' ' ' ' ( i h Z S S A l m ~ V.D.C.4         ",
"= = + 6 @.@.@.@.+.q.Z.V.s.a.8 Y N.F.D.D.D.D.U         ",
"      0.D.D.D.D.D.D.D.D.D.D.N a.D.D.D.D.D.D.a.@       ",
"    9 S.D.D.D.D.D.D.D.D.D.D.V i.D.D.D.D.D.D.V.1       ",
"    1 L L L L L L L L L L L 1 v P L L L L L K %       "
};
