/* XPM */
static char *science_parrot_frame_cropped_8[] = {
/* columns rows colors chars-per-pixel */
"27 20 227 2 ",
"   c None",
".  c black",
"X  c #020101",
"o  c #060407",
"O  c #080808",
"+  c #0D0F0D",
"@  c #12090D",
"#  c #13080E",
"$  c #0D1208",
"%  c #0E1308",
"&  c #170B12",
"*  c #171512",
"=  c #161415",
"-  c #1B1A1A",
";  c #1F1C1A",
":  c #24101B",
">  c #2A131F",
",  c #122005",
"<  c #142109",
"1  c #1E2F0D",
"2  c #1C3802",
"3  c #1E3B03",
"4  c #1F350A",
"5  c #1C2611",
"6  c #20350C",
"7  c #20251A",
"8  c #2D1522",
"9  c #361827",
"0  c #3F1A2D",
"q  c #262123",
"w  c #272426",
"e  c #2B2B2A",
"r  c #2F2E2F",
"t  c #323E28",
"y  c #373234",
"u  c #482035",
"i  c #4C2D39",
"p  c #4C2D3A",
"a  c #52233C",
"s  c #413133",
"d  c #4A323D",
"f  c #5A3F3B",
"g  c #214203",
"h  c #2D5C03",
"j  c #3F4B1C",
"k  c #3F5618",
"l  c #326106",
"z  c #336009",
"x  c #356409",
"c  c #386A08",
"v  c #3A690A",
"b  c #3C7A04",
"n  c #3F7F05",
"m  c #3E4034",
"M  c #414737",
"N  c #592640",
"B  c #5D3144",
"V  c #543B47",
"C  c #622A47",
"Z  c #612B48",
"A  c #672C4A",
"S  c #62334A",
"D  c #673948",
"F  c #6E3F4C",
"G  c #6F3352",
"H  c #6A3852",
"J  c #733152",
"K  c #713353",
"L  c #743254",
"P  c #753256",
"I  c #763357",
"U  c #743555",
"Y  c #7A3658",
"T  c #434444",
"R  c #4D4D4C",
"E  c #58424E",
"W  c #4C5741",
"Q  c #4B5047",
"!  c #545C4E",
"~  c #565A54",
"^  c #5B585A",
"/  c #5C5B5B",
"(  c #604352",
")  c #526047",
"_  c #536545",
"`  c #56604B",
"'  c #58644B",
"]  c #5A664E",
"[  c #58684C",
"{  c #5E6C50",
"}  c #6A5660",
"|  c #755565",
" . c #7E5169",
".. c #606160",
"X. c #6A6466",
"o. c #686868",
"O. c #6F706F",
"+. c #6F6F70",
"@. c #707170",
"#. c #737473",
"$. c #863961",
"%. c #883A62",
"&. c #81425B",
"*. c #92426D",
"=. c #935073",
"-. c #975276",
";. c #935977",
":. c #985B7B",
">. c #9C5E7E",
",. c #AB487C",
"<. c #AF4B7F",
"1. c #856476",
"2. c #896376",
"3. c #866A79",
"4. c #8E6A7C",
"5. c #90697E",
"6. c #926A7E",
"7. c #906C7E",
"8. c #817279",
"9. c #3F8104",
"0. c #418605",
"q. c #498E09",
"w. c #4F9E05",
"e. c #4E9709",
"r. c #50A106",
"t. c #53A408",
"y. c #57AA0A",
"u. c #5EBA08",
"i. c #60BB0B",
"p. c #64C30A",
"a. c #64C708",
"s. c #65C908",
"d. c #65C809",
"f. c #66CA09",
"g. c #67CA0A",
"h. c #67CC09",
"j. c #69CE0A",
"k. c #6EDD07",
"l. c #6AD10A",
"z. c #6CD30B",
"x. c #6FDB0B",
"c. c #72E10B",
"v. c #73E30B",
"b. c #75E70A",
"n. c #74E70B",
"m. c #7AEF0C",
"M. c #7AF10B",
"N. c #7BF20B",
"B. c #7AF00C",
"V. c #7CF40C",
"C. c #7DF50C",
"Z. c #7DF60C",
"A. c #7EF70C",
"S. c #7FFA0B",
"D. c #7A8B67",
"F. c #7C8E69",
"G. c #7E906B",
"H. c #7F916B",
"J. c #81FE0B",
"K. c #81FF0B",
"L. c #82FF0B",
"P. c #83FF0B",
"I. c #84FF0B",
"U. c #B74D85",
"Y. c #9C6381",
"T. c #8D7D85",
"R. c #C0528B",
"E. c #C55591",
"W. c #C95590",
"Q. c #D05B97",
"!. c #D25D99",
"~. c #D85B9B",
"^. c #DD5D9E",
"/. c #DC5D9F",
"(. c #EB63A9",
"). c #EF64AC",
"_. c #EE66AD",
"`. c #EF66AD",
"'. c #F166AD",
"]. c #F165AE",
"[. c #F366AE",
"{. c #F068AE",
"}. c #F668B1",
"|. c #F768B2",
" X c #F96AB3",
".X c #FA6AB4",
"XX c #FD6BB6",
"oX c #FE6CB7",
"OX c #FF6CB7",
"+X c #FE6CB8",
"@X c #FF6CB8",
"#X c #FF6DB8",
"$X c #FF6DB9",
"%X c #FF6EBA",
"&X c #FF6EBB",
"*X c #898386",
"=X c #93858D",
"-X c #93888E",
";X c #94888E",
":X c #998790",
">X c #A3939C",
",X c #B492A3",
"<X c #BE99AD",
"1X c #A7A1A5",
"2X c #A6A6A5",
"3X c #ADA5A9",
"4X c #B5B5B5",
"5X c #BCB7BA",
"6X c #BABAB9",
"7X c #C09BAE",
"8X c #C19BAF",
"9X c #C59DB2",
"0X c #D89FBD",
"qX c #D1A2BA",
"wX c #DAA6C1",
"eX c #E2ABC7",
"rX c #E6ACC9",
"tX c #E9ACCB",
"yX c #EDAECE",
"uX c #EDAFCE",
"iX c #FBB5D9",
"pX c #FCB5D9",
"aX c #CACACB",
"sX c #D0CDCF",
"dX c #E5E2E3",
"fX c #E8E8E8",
"gX c #F6F6F6",
/* pixels */
"                                                      ",
"                                                      ",
"                                                      ",
"                                                      ",
"                              @ > 9 :                 ",
"                          . # a P I Z 8 X             ",
"            % 3 g 2 $   q E | 2.6.4.3.7.5.} R T e     ",
"            1 p.B.i.< o 1.iXrXpXuX:XX.T.eXqX3XgX6X    ",
"              h.l.l * P Y.yX;XwX9X~ ' Q =X-X>XfX2X    ",
"              s.N.r.D ].-.0X<XtX,X! D.` 8.8X7X4X..    ",
"              a.v.0.&.&XQ.=.:.>.( ] G.{ d ;. .y       ",
"            , f.x.9.F +X@X|.'.[.%.W H.) Y ).^.0       ",
"            x N.P.n.k E.$XoXOX%XU.m F.M ,.&XXXC       ",
"          4 j.P.J.t.h f {.@XoX@X(.i [ s /.#XXXA       ",
"          e.L.K.K.S.c.c *.$XoXoX$X<.; U oX@X`.u       ",
"        z M.L.K.K.L.d.b j !.$XoXOX.X$.W.$X&XR.&       ",
"      6 g.P.K.K.K.K.L.m.n B _..XoX#X X.X}.~.N         ",
"    + q.L.K.K.K.K.K.L.b.w.v p H K J L G S V =         ",
"    5 z.P.K.K.K.K.K.K.L.I.k._ aX1Xw *X5XsXdX^         ",
"  O 7 y.Z.V.V.V.V.V.V.C.A.u.t +.o.- / #.@.O.r         "
};
