/* XPM */
static char *science_parrot_frame_cropped_2[] = {
/* columns rows colors chars-per-pixel */
"27 20 246 2 ",
"   c None",
".  c black",
"X  c #010302",
"o  c #030503",
"O  c #030803",
"+  c #080808",
"@  c #0B0D0B",
"#  c #0B0A0C",
"$  c #0E1704",
"%  c #0A120A",
"&  c #0F1D0F",
"*  c #0F1E0F",
"=  c #131313",
"-  c #151615",
";  c #141914",
":  c #161816",
">  c #1D1E1D",
",  c #182B06",
"<  c #18250C",
"1  c #1F390C",
"2  c #152716",
"3  c #1A2019",
"4  c #1C271C",
"5  c #182B1A",
"6  c #1D351C",
"7  c #203B07",
"8  c #222222",
"9  c #222D21",
"0  c #2A2C29",
"q  c #2B2E2B",
"w  c #2E2D2D",
"e  c #2E312F",
"r  c #293F29",
"t  c #2E3D2A",
"y  c #333E2D",
"u  c #343F2E",
"i  c #373736",
"p  c #25400D",
"a  c #2C5209",
"s  c #335E0F",
"d  c #27441F",
"f  c #356805",
"g  c #3B7503",
"h  c #397005",
"j  c #397006",
"k  c #3A7206",
"l  c #3C710D",
"z  c #274727",
"x  c #2E402E",
"c  c #294A29",
"v  c #31442D",
"b  c #384432",
"n  c #314A30",
"m  c #3B403A",
"M  c #335331",
"N  c #355434",
"B  c #365C35",
"V  c #3C563B",
"C  c #3F712C",
"Z  c #3A623A",
"A  c #386638",
"S  c #3D633F",
"D  c #3C683B",
"F  c #3A6B3C",
"G  c #3D6A3C",
"H  c #487F14",
"J  c #40403E",
"K  c #444443",
"L  c #444844",
"P  c #494B4A",
"I  c #4C5048",
"U  c #4E554C",
"Y  c #4F5B50",
"T  c #545751",
"R  c #575F52",
"E  c #5B5B5B",
"W  c #5C5B5B",
"Q  c #5B5F5C",
"!  c #56614B",
"~  c #57624A",
"^  c #417741",
"/  c #437B43",
"(  c #556154",
")  c #5F645D",
"_  c #646F55",
"`  c #637054",
"'  c #6B785B",
"]  c #6C7A5C",
"[  c #626362",
"{  c #626562",
"}  c #636463",
"|  c #656F65",
" . c #6D6E6D",
".. c #6E6E6E",
"X. c #6E6F6E",
"o. c #6E736E",
"O. c #6F726F",
"+. c #707170",
"@. c #787877",
"#. c #438407",
"$. c #458805",
"%. c #468A07",
"&. c #478A07",
"*. c #478C07",
"=. c #4A8D0B",
"-. c #4C9308",
";. c #4E910F",
":. c #4E920E",
">. c #55A906",
",. c #56AC07",
"<. c #54A308",
"1. c #59B007",
"2. c #5EB909",
"3. c #63C406",
"4. c #64C409",
"5. c #64C509",
"6. c #69CD0C",
"7. c #6DD70A",
"8. c #6FDB0A",
"9. c #70DB0B",
"0. c #72DF0B",
"q. c #72E209",
"w. c #74E40B",
"e. c #74E50B",
"r. c #76E90A",
"t. c #7AF00B",
"y. c #7DF70B",
"u. c #7FFA0B",
"i. c #7FFB0B",
"p. c #7FFC0B",
"a. c #4A8344",
"s. c #518E52",
"d. c #539554",
"f. c #549554",
"g. c #519951",
"h. c #519952",
"j. c #539C53",
"k. c #569F57",
"l. c #56A257",
"z. c #5AA25C",
"x. c #5DA25C",
"c. c #5CAB5D",
"v. c #5BAC5C",
"b. c #758463",
"n. c #768664",
"m. c #778764",
"M. c #7A8B68",
"N. c #798370",
"B. c #798079",
"V. c #7E837D",
"C. c #61AF61",
"Z. c #63AF63",
"A. c #65AF64",
"S. c #62B863",
"D. c #63B963",
"F. c #67B968",
"G. c #7BA57C",
"H. c #68C468",
"J. c #69C469",
"K. c #69C769",
"L. c #6BC56C",
"P. c #6BC86B",
"I. c #70D170",
"U. c #76DF77",
"Y. c #77DF78",
"T. c #76E078",
"R. c #7BE37D",
"E. c #7CE97D",
"W. c #81FF0B",
"Q. c #82FF0B",
"!. c #83FF0B",
"~. c #84FF0B",
"^. c #80FD0C",
"/. c #81FE0C",
"(. c #83FF0C",
"). c #838583",
"_. c #828682",
"`. c #898B89",
"'. c #8A8A8B",
"]. c #849284",
"[. c #8B928B",
"{. c #8D948C",
"}. c #919592",
"|. c #959795",
" X c #949993",
".X c #8DA78D",
"XX c #8DA88D",
"oX c #8CAA8C",
"OX c #8FAE8F",
"+X c #92AD92",
"@X c #94A894",
"#X c #90B890",
"$X c #95BA95",
"%X c #96BC95",
"&X c #9DB49D",
"*X c #9DB69D",
"=X c #A0A0A0",
"-X c #A6AAA6",
";X c #A0BCA0",
":X c #BABABA",
">X c #BAB9BC",
",X c #BEBCBF",
"<X c #9BC59B",
"1X c #81F083",
"2X c #82F483",
"3X c #83F785",
"4X c #84F885",
"5X c #85F886",
"6X c #86FA88",
"7X c #88FC89",
"8X c #88FF89",
"9X c #89FF8A",
"0X c #8AFF8B",
"qX c #8AFF8C",
"wX c #8BFF8C",
"eX c #A0C8A0",
"rX c #A2D1A1",
"tX c #A4D0A4",
"yX c #A7D8A7",
"uX c #AFD7AF",
"iX c #AFD8AF",
"pX c #B0DCB0",
"aX c #B3E9B3",
"sX c #B8E8B8",
"dX c #BFF6BF",
"fX c #C3C3C3",
"gX c #C8C7C9",
"hX c #CACBCA",
"jX c #CECECE",
"kX c #CED1CE",
"lX c #D4D6D3",
"zX c #D6D9D6",
"xX c #DBDBDB",
"cX c #DCDEDD",
"vX c #E6E7E5",
"bX c #E9E9E8",
"nX c #EBEBEA",
"mX c #EEF0EF",
"MX c #EFF1EF",
"NX c #F3F3F3",
"BX c #F2F4F2",
"VX c #F5F5F5",
"CX c #FDFDFD",
"ZX c #FDFEFD",
"AX c #FEFEFE",
"SX c #FFFFFF",
/* pixels */
"                                                      ",
"                  * 6 2 O                             ",
"              @ ; r N n 9 3 : = +                     ",
"j &.#.,   w | #XrXyXeX.X+XtXXX).=X@.8                 ",
"2./.6.p   m pXiXuXdX].I T @X;X|.NXnXi                 ",
"1.e.h <   x aX&X*XsX) ` ! o.{.[.xX:X                  ",
",.Q.0.7 5 d.G.%X<X$XR m.] U oXOX`.W                   ",
">.w.k $ F 4XL.Z.A.s.b M.b.t f.x.Z o                   ",
"5.u.9.a z.qX9X9X0XT.v n.' M 2X0XE.z                   ",
"^.Q.8.f G 6X8X8X8X3XB _ ~ ^ 9X8X0Xk.                  ",
"W.Q.7.<.l C.0X8X8X0Xc.u y S.0X8X0XP.&                 ",
"W.W.!.r.g d R.9X8X8X5XA c 2X8X8X0XD.%                 ",
"W.W.W.t.4.-.a.7X8X8X9XY.J.9X8X8X0Xj.                  ",
"W.W.W.Q.y.$.1 F.0X8X8X9X9X8X8X8XwXl..                 ",
"W.W.W.W.p.q.3.C 1X0X0X0X0X0X0X9XU.D L 0               ",
"(.(.(.!.!.~.i.s S h.K.I.H.v.g./ V  XBXlX_.q           ",
"*.*.%.=.;.:.H N.fXV.( 4 Y B.}.-XzXSXSXSXSXkXQ         ",
"    # '.,X>XgXVXSXSXvXJ hXSXSXSXSXSXSXSXSXSXmXO.      ",
"    e cXSXSXSXAXZXSXbXK jXSXZXZXZXZXZXZXZXCXSXMX{     ",
"    - [ .. . . . ...} > E X. . . . . . . . . .+.P X   "
};
