/* XPM */
static char *science_parrot_frame_cropped_9[] = {
/* columns rows colors chars-per-pixel */
"27 20 240 2 ",
"   c None",
".  c black",
"X  c #0B0605",
"o  c #070807",
"O  c #0C0C0B",
"+  c #110807",
"@  c #120908",
"#  c #0A1303",
"$  c #0A1400",
"%  c #0A1401",
"&  c #0B1501",
"*  c #0B1304",
"=  c #111211",
"-  c #1F1F1E",
";  c #220F0F",
":  c #230F11",
">  c #2C1213",
",  c #261F1A",
"<  c #3B1B1C",
"1  c #132503",
"2  c #172C03",
"3  c #182C08",
"4  c #1B2B0D",
"5  c #1C2D0C",
"6  c #29390B",
"7  c #242524",
"8  c #252625",
"9  c #2F2524",
"0  c #302424",
"q  c #342727",
"w  c #3D342A",
"e  c #303230",
"r  c #363335",
"t  c #363636",
"y  c #363736",
"u  c #3A3A39",
"i  c #3A3C3B",
"p  c #3F3E3D",
"a  c #431D1F",
"s  c #41331A",
"d  c #432E27",
"f  c #4F2E29",
"g  c #552326",
"h  c #5D2625",
"j  c #542B29",
"k  c #5B2E2C",
"l  c #493635",
"z  c #612929",
"x  c #6B2C2D",
"c  c #6C392F",
"v  c #793131",
"b  c #793233",
"n  c #7D3636",
"m  c #274C04",
"M  c #2A4B0B",
"N  c #2F4D0A",
"B  c #2D5209",
"V  c #39530E",
"C  c #3C4712",
"Z  c #3D5710",
"A  c #36660A",
"S  c #397104",
"D  c #387005",
"F  c #3A7404",
"G  c #3C7506",
"H  c #3C7706",
"J  c #3D7906",
"K  c #3E7907",
"L  c #3F7909",
"P  c #3F4135",
"I  c #53491F",
"U  c #404736",
"Y  c #7D4635",
"T  c #446226",
"R  c #496D28",
"E  c #4C4A42",
"W  c #4B4B4A",
"Q  c #544545",
"!  c #574C4E",
"~  c #5C4949",
"^  c #4B5345",
"/  c #4C5644",
"(  c #4E5B44",
")  c #515150",
"_  c #525352",
"`  c #535453",
"'  c #585853",
"]  c #5F5F5F",
"[  c #684848",
"{  c #605151",
"}  c #705352",
"|  c #775352",
" . c #705556",
".. c #745657",
"X. c #7B5757",
"o. c #627055",
"O. c #627355",
"+. c #6B7C5C",
"@. c #6E7D5D",
"#. c #695F61",
"$. c #686868",
"%. c #6C6C6C",
"&. c #6E6E6E",
"*. c #6E6F6E",
"=. c #6F6F6F",
"-. c #726B68",
";. c #726D6C",
":. c #786868",
">. c #737373",
",. c #7C7272",
"<. c #7F797A",
"1. c #8A3A3A",
"2. c #844042",
"3. c #9D4142",
"4. c #9E4242",
"5. c #9B504F",
"6. c #805355",
"7. c #AB4545",
"8. c #AE4F4B",
"9. c #B04949",
"0. c #BB4D4D",
"q. c #BF4C4D",
"w. c #BF4D4E",
"e. c #B84D50",
"r. c #946265",
"t. c #986060",
"y. c #986566",
"u. c #837877",
"i. c #897E7E",
"p. c #A2686B",
"a. c #C25252",
"s. c #C75152",
"d. c #C75252",
"f. c #C75154",
"g. c #C85352",
"h. c #CC5454",
"j. c #CF5455",
"k. c #CD5758",
"l. c #D15655",
"z. c #D45554",
"x. c #D65656",
"c. c #DF5B5B",
"v. c #E35D5E",
"b. c #E25D5F",
"n. c #E75E5E",
"m. c #E15E60",
"M. c #EE6261",
"N. c #EF6262",
"B. c #F36463",
"V. c #F76564",
"C. c #F86666",
"Z. c #F96766",
"A. c #F96767",
"S. c #FA6766",
"D. c #FC6868",
"F. c #FF6968",
"G. c #FF6969",
"H. c #FF6A68",
"J. c #FF6A69",
"K. c #FF6A6A",
"L. c #FF6B6A",
"P. c #FF6C6B",
"I. c #488D07",
"U. c #45820B",
"Y. c #448409",
"T. c #468708",
"R. c #4A9805",
"E. c #4E9A07",
"W. c #509F08",
"Q. c #56AE07",
"!. c #58AF08",
"~. c #5CB609",
"^. c #60BC09",
"/. c #60BD09",
"(. c #61C009",
"). c #62C108",
"_. c #62C209",
"`. c #62C00A",
"'. c #68CB0A",
"]. c #68CC0A",
"[. c #68CD0A",
"{. c #70DD0A",
"}. c #70DE0A",
"|. c #74E50B",
" X c #76E90B",
".X c #79EC0D",
"XX c #7CF30B",
"oX c #7BF40B",
"OX c #7CF60B",
"+X c #7DF70B",
"@X c #7BF20C",
"#X c #7DF60C",
"$X c #7FFB0B",
"%X c #718361",
"&X c #748563",
"*X c #778865",
"=X c #798A67",
"-X c #80FD0B",
";X c #80FE0B",
":X c #81FE0B",
">X c #81FF0B",
",X c #82FF0B",
"<X c #83FF0B",
"1X c #84FF0B",
"2X c #80FC0C",
"3X c #82FF0C",
"4X c #84FF0C",
"5X c #86FF0C",
"6X c #8D8585",
"7X c #9A8C8C",
"8X c #9D9191",
"9X c #9F9E9F",
"0X c #A58F8F",
"qX c #B78080",
"wX c #AE9393",
"eX c #A7A6A5",
"rX c #B4ABAB",
"tX c #B4B5B4",
"yX c #C09A9A",
"uX c #C29C9C",
"iX c #C59C9D",
"pX c #C99F9F",
"aX c #CA9F9F",
"sX c #D69A9A",
"dX c #DE9D9D",
"fX c #DBA6A6",
"gX c #E0A8A8",
"hX c #EAACAC",
"jX c #EDACAC",
"kX c #EFAEAE",
"lX c #EEAFAE",
"zX c #FDB4B4",
"xX c #C2C1C1",
"cX c #D1D2D2",
"vX c #D5D4D6",
"bX c #D7D8D8",
"nX c #E4E4E4",
"mX c #F0F0F0",
"MX c #F4F4F4",
"NX c white",
/* pixels */
"                                                      ",
"                                                      ",
"                                                      ",
"                                    +                 ",
"                              . > h x g : .           ",
"                2 m m 1   O 9 l [ | X... .} ~ p t 7 = ",
"                L @X.XA   q sXjXhXzXpXu.,.yXgX8XbXnX_ ",
"                H XXI.3 a 2.dXuX0XkXi.^ / ;.7X6XxXMXW ",
"                F $X}.Z f.a.qXfXaXlX-.o.@.' wXiXrXtX- ",
"                S OX!.C b.N.5.t.p.r.E &X=XP 6.y.{ i   ",
"                G +X~.V k.K.V.n.v.j.d %X*Xw w.c.v     ",
"              5 `.<X2XW.c A.H.H.J.S.k O.+.f B.P.9.X   ",
"              T.:X,X{.J N 8.K.F.F.K.3.U ( n G.K.0.@   ",
"            B  X,X>X:X#XQ.s m.G.F.H.M.j , h.J.L.4.    ",
"          4 ^.<X>X>X>XoXE.D Y D.F.F.K.d.b Z.F.S.z     ",
"          Y.-X>X>X>X>X>X3X/.6 e.L.J.J.G.C.L.L.g.;     ",
"        M |.,X>X>X>X>X>X;X).R.I s.z.x.l.q.7.1.<       ",
"        K 4X<X<X<X<X<X<X<X1X5XU.! :.Q 0 #.<.9X>.      ",
"      r T (.].'.'.'.'.'.].[._.R vXNXcX` mXNXNXeX      ",
"    . u y * & & & & & % % $ # e %.*.] 8 $.&.=.) o     "
};
