/* XPM */
static char *science_parrot_frame_cropped_6[] = {
/* columns rows colors chars-per-pixel */
"27 20 212 2 ",
"   c None",
".  c #000100",
"X  c #030403",
"o  c #0A060D",
"O  c #090909",
"+  c #0D0D0C",
"@  c #10100F",
"#  c #110B12",
"$  c #170E17",
"%  c #180E18",
"&  c #1C111B",
"*  c #1A151A",
"=  c #1B181B",
"-  c #17230C",
";  c #1E3B04",
":  c #203809",
">  c #273811",
",  c #211321",
"<  c #301C2F",
"1  c #341C33",
"2  c #371F38",
"3  c #2F3022",
"4  c #2F3728",
"5  c #392139",
"6  c #3B213B",
"7  c #353534",
"8  c #373837",
"9  c #3B3B3A",
"0  c #3E3939",
"q  c #254E01",
"w  c #2A4F07",
"e  c #274809",
"r  c #2F5E03",
"t  c #2E5906",
"y  c #325E0A",
"u  c #316203",
"i  c #336504",
"p  c #386909",
"a  c #386B08",
"s  c #41750D",
"d  c #46512D",
"f  c #404638",
"g  c #434B3A",
"h  c #442D43",
"j  c #4B2D4B",
"k  c #4C2B4C",
"l  c #443442",
"z  c #473446",
"x  c #4B304B",
"c  c #4B3449",
"v  c #4F354D",
"b  c #552F55",
"n  c #553A55",
"m  c #5C335B",
"M  c #653E63",
"N  c #653D64",
"B  c #663F64",
"V  c #683A68",
"C  c #6A3E69",
"Z  c #414241",
"A  c #4B4C4B",
"S  c #4D4E4D",
"D  c #4C5146",
"F  c #515B47",
"G  c #50544B",
"H  c #5C445A",
"J  c #575857",
"K  c #595C56",
"L  c #585958",
"P  c #5A5B59",
"I  c #664F5A",
"U  c #614B5F",
"Y  c #5E6D4F",
"T  c #657356",
"R  c #687759",
"E  c #687958",
"W  c #6C7C5B",
"Q  c #614661",
"!  c #6A4863",
"~  c #6A416A",
"^  c #6D426D",
"/  c #774576",
"(  c #7E457D",
")  c #646464",
"_  c #676967",
"`  c #6E616D",
"'  c #6F686E",
"]  c #6D6D6C",
"[  c #717271",
"{  c #737573",
"}  c #418205",
"|  c #428108",
" . c #438208",
".. c #4A9205",
"X. c #499106",
"o. c #4E9809",
"O. c #529E0B",
"+. c #51A306",
"@. c #53A307",
"#. c #57AD07",
"$. c #56A909",
"%. c #58AD09",
"&. c #5AB009",
"*. c #64C608",
"=. c #65C60A",
"-. c #6CD40B",
";. c #72E10B",
":. c #73E30B",
">. c #77EB0A",
",. c #79F00A",
"<. c #7AF10B",
"1. c #7BF30B",
"2. c #7CF60B",
"3. c #7BF20C",
"4. c #7DF80B",
"5. c #7EF90B",
"6. c #7FFA0B",
"7. c #7EF80C",
"8. c #798966",
"9. c #788A66",
"0. c #7D8E6A",
"q. c #80FD0B",
"w. c #81FE0B",
"e. c #81FF0B",
"r. c #82FF0B",
"t. c #83FF0B",
"y. c #80FB0C",
"u. c #84FF0C",
"i. c #834E82",
"p. c #8F508E",
"a. c #924F94",
"s. c #945B90",
"d. c #9C569C",
"f. c #9D569D",
"g. c #9F579E",
"h. c #A05D9F",
"j. c #A05F9F",
"k. c #876C88",
"l. c #847984",
"z. c #857F84",
"x. c #8B7E8C",
"c. c #8C7F8C",
"v. c #956A95",
"b. c #A25CA2",
"n. c #AE5FAE",
"m. c #A460A3",
"M. c #AB62AA",
"N. c #AC64AA",
"B. c #AF60AE",
"V. c #B664B6",
"C. c #BA66BB",
"Z. c #CA70CB",
"A. c #D072D0",
"S. c #D074D1",
"D. c #D274D2",
"F. c #D375D3",
"G. c #D473D4",
"H. c #D775D8",
"J. c #DA78DB",
"K. c #DC79DC",
"L. c #E17BE1",
"P. c #E27CE2",
"I. c #E67DE5",
"U. c #E77EE7",
"Y. c #828282",
"T. c #898589",
"R. c #8E8F8E",
"E. c #958495",
"W. c #908990",
"Q. c #968896",
"!. c #9E839E",
"~. c #998D9A",
"^. c #9A8F9B",
"/. c #A494A4",
"(. c #B38CB3",
"). c #B194B1",
"_. c #B09AB0",
"`. c #BE96BE",
"'. c #B89FB8",
"]. c #BBA1BB",
"[. c #B8B5B8",
"{. c #C396C3",
"}. c #C19CC1",
"|. c #C99DC8",
" X c #CAA0CA",
".X c #CCA1CC",
"XX c #CDA1CD",
"oX c #CDA2CC",
"OX c #D3A5D3",
"+X c #DBB3DB",
"@X c #EE82EF",
"#X c #F183F1",
"$X c #F284F2",
"%X c #F385F3",
"&X c #F587F6",
"*X c #F687F6",
"=X c #F787F7",
"-X c #FB8AFB",
";X c #FD8BFD",
":X c #FF8BFF",
">X c #FE8CFE",
",X c #FF8CFF",
"<X c #FF8DFF",
"1X c #FF8EFF",
"2X c #FF90FF",
"3X c #E1AEE1",
"4X c #E5B8E5",
"5X c #F1BFF2",
"6X c #D3D3D3",
"7X c #F9C2F9",
"8X c #E6E7E6",
"9X c white",
/* pixels */
"                                                      ",
"                                                      ",
"                                                      ",
"                                                      ",
"                        % #                           ",
"                  $ m g.C.B.( 1                       ",
"                . < C ^ ~ B M x * @ O                 ",
"    w $.%.t   = k.(.`..X}.E.x.). Xl.R.Y.8             ",
"    a y.-.y o h 3X4X'.7X_.K G z.].W.6X9X]             ",
"    i 1.@.; 6 b.{.+X/.5Xc.F T P ^.~.[.8XZ             ",
"    u 4.3.p a.P.v.|.XXOX' R 8.D !.oXQ.{               ",
"    r <.X.> Z.1XF.M.N.m.l W 0.f / j.i.&               ",
"     .w.7.O.s.<X<X<X<X:XN Y 9.0 G.1X=Xb               ",
"  e ;.t.>.} 3 S.1X,X,X1Xf.g E v $X,X>XV               ",
"- &.t.e.1.=.+.I &X,X,X<XU.c 4 p.<X,X%Xk               ",
"| 5.e.e.r.6...: h.1X,X,X1XV.5 K.<X1XA.,               ",
"<.r.e.e.e.q.:.*.d J.1X<X<X-XD.;X<X2Xd.                ",
"r.e.e.e.e.e.r.#.q ! L.I.@X*X#XI.H.n.2                 ",
"e.e.e.e.e.e.e.2.,.s z H n j Q U ` T.)                 ",
"e.e.e.e.e.e.e.e.u.o.9 J 7 + A L _ [ S X               "
};
