/* XPM */
static char *science_parrot_frame_cropped_0[] = {
/* columns rows colors chars-per-pixel */
"27 20 244 2 ",
"   c None",
".  c #040504",
"X  c #070404",
"o  c #090605",
"O  c #070807",
"+  c #0C0807",
"@  c #0D0A0C",
"#  c #0F0F0F",
"$  c #131111",
"%  c #111211",
"&  c #161716",
"*  c #1B1313",
"=  c #191615",
"-  c #191817",
";  c #1A1919",
":  c #231314",
">  c #251A1B",
",  c #331C1C",
"<  c #331C1D",
"1  c #341E1E",
"2  c #1C2D0C",
"3  c #1F3C05",
"4  c #1E3508",
"5  c #1F350B",
"6  c #1F330C",
"7  c #26340D",
"8  c #223808",
"9  c #3A2121",
"0  c #2E3629",
"q  c #3F3521",
"w  c #3E382E",
"e  c #353534",
"r  c #363635",
"t  c #373836",
"y  c #442528",
"u  c #482A2A",
"i  c #443430",
"p  c #483332",
"a  c #4C3530",
"s  c #4E3134",
"d  c #513232",
"f  c #503332",
"g  c #573030",
"h  c #543132",
"j  c #503531",
"k  c #533535",
"l  c #593231",
"z  c #5A3231",
"x  c #653C3A",
"c  c #613B3D",
"v  c #613C3C",
"b  c #663E3D",
"n  c #214104",
"m  c #234404",
"M  c #2B4E0A",
"N  c #2F5D03",
"B  c #325E09",
"V  c #316104",
"C  c #336404",
"Z  c #376D07",
"A  c #376908",
"S  c #396C09",
"D  c #3A7007",
"F  c #3B700B",
"G  c #3F4635",
"H  c #407D07",
"J  c #417F06",
"K  c #407F07",
"L  c #476815",
"P  c #565228",
"I  c #434A39",
"U  c #516C39",
"Y  c #434443",
"T  c #454645",
"R  c #584140",
"E  c #4C5145",
"W  c #51564E",
"Q  c #5A504F",
"!  c #515B48",
"~  c #575050",
"^  c #595656",
"/  c #5C5755",
"(  c #5A5B57",
")  c #5C5F5A",
"_  c #774646",
"`  c #7D5645",
"'  c #5D6C50",
"]  c #647255",
"[  c #677659",
"{  c #677859",
"}  c #6B7B5C",
"|  c #616161",
" . c #6D6E6D",
".. c #6E6F6E",
"X. c #6F6F6E",
"o. c #716966",
"O. c #6F706F",
"+. c #727272",
"@. c #727372",
"#. c #737373",
"$. c #747272",
"%. c #797272",
"&. c #7C7979",
"*. c #7A7C7A",
"=. c #7D7E7D",
"-. c #844F4C",
";. c #884B4A",
":. c #925251",
">. c #9D5756",
",. c #9E5F5F",
"<. c #AB5E5D",
"1. c #AF615F",
"2. c #976C6B",
"3. c #857F7F",
"4. c #887C7C",
"5. c #A16061",
"6. c #A96360",
"7. c #A96261",
"8. c #AD6061",
"9. c #A96465",
"0. c #B76664",
"q. c #B86665",
"w. c #B96869",
"e. c #C26F6D",
"r. c #C86E6D",
"t. c #D27372",
"y. c #D17573",
"u. c #D37473",
"i. c #D47473",
"p. c #D37577",
"a. c #D57575",
"s. c #DD7A78",
"d. c #E27E7F",
"f. c #E47E7D",
"g. c #47830B",
"h. c #4A890F",
"j. c #4A9207",
"k. c #4E9907",
"l. c #4D9A07",
"z. c #4B9109",
"x. c #4D9509",
"c. c #4D9708",
"v. c #4E950C",
"b. c #509A0B",
"n. c #519A0B",
"m. c #519B0B",
"M. c #519A0C",
"N. c #519B0C",
"B. c #53A506",
"V. c #53A707",
"C. c #52A108",
"Z. c #5CB608",
"A. c #64C609",
"S. c #66C90A",
"D. c #68CC0A",
"F. c #67D007",
"G. c #73E20B",
"H. c #73E40A",
"J. c #77EA0B",
"K. c #78EC0A",
"L. c #79ED0C",
"P. c #7AF00B",
"I. c #7AF10B",
"U. c #7BF20B",
"Y. c #7CF40B",
"T. c #7EF70C",
"R. c #7DF80B",
"E. c #7FFA0B",
"W. c #7FFB0B",
"Q. c #798966",
"!. c #788A66",
"~. c #7D8E6A",
"^. c #81FF0B",
"/. c #82FF0B",
"(. c #83FF0B",
"). c #84FF0B",
"_. c #80FB0C",
"`. c #80FD0C",
"'. c #81FF0C",
"]. c #83FF0C",
"[. c #86FF0C",
"{. c #8D807F",
"}. c #E8807F",
"|. c #EA817F",
" X c #878887",
".X c #8C8888",
"XX c #8B8C8C",
"oX c #918181",
"OX c #978F8E",
"+X c #9A8D8D",
"@X c #9C908F",
"#X c #969798",
"$X c #A48383",
"%X c #A18686",
"&X c #A59595",
"*X c #AF9291",
"=X c #BE9695",
"-X c #B19B9A",
";X c #B79E9E",
":X c #BE9999",
">X c #BF9A9A",
",X c #A9AAA9",
"<X c #AEADAE",
"1X c #AEAEAF",
"2X c #B9A0A0",
"3X c #AFAFB0",
"4X c #B2B2B3",
"5X c #B6B5B7",
"6X c #B8B5B5",
"7X c #C39796",
"8X c #C09999",
"9X c #CB9F9F",
"0X c #EA8282",
"qX c #F28584",
"wX c #F08684",
"eX c #F58786",
"rX c #F88987",
"tX c #FB8A89",
"yX c #FC8B89",
"uX c #FD8C8B",
"iX c #FE8C8A",
"pX c #FE8D8B",
"aX c #FF8D8B",
"sX c #FF8E8C",
"dX c #FF8F8D",
"fX c #FF908E",
"gX c #FF918F",
"hX c #CAA1A1",
"jX c #CCA0A0",
"kX c #D1A5A5",
"lX c #D5A8A7",
"zX c #DCB3B3",
"xX c #E3B8B7",
"cX c #F2BFBF",
"vX c #C4C2C2",
"bX c #CFD0D0",
"nX c #D7D9D8",
"mX c #F9C3C2",
"MX c #DFDEE0",
"NX c #EAEAEA",
"BX c #F1F1F1",
"VX c #F2F3F3",
"CX c #FDFDFD",
"ZX c white",
/* pixels */
"                                                      ",
"                                                      ",
"                              , l z < X               ",
"                          . * d b c s > $ # O         ",
"            3 H J m   & ~ $X=X9X:XoX4.*X8X%.XX=.r     ",
"            S _.L.F   - >XxX;XmX-X) W 3.2X.XbXZXX.    ",
"            C U.j.4 @ u 7XzX&XcX{.! ] ( @X+X6XNXY     ",
"            V R.T.Z y r.2.jXkXlXo.[ Q.E %XhXOX X      ",
"            N I.k.8 8.dXy.7.9.5.i } ~.G _ ,.k         ",
"            D E.G.g.6.dXsXsXsXiXx ' !.w i.gX>.        ",
"          5 D.(.Y.l.q d.sXaXaXdX>.I { j qXfX0.+       ",
"          x././.K.C.K ` uXaXaXsX}.a 0 :.dXdX1.o       ",
"        B P./.^./.`.B.7 w.dXaXaXdXq.9 s.sXdX;.        ",
"      6 S.(.^.^.^.W.A.V.P 0XsXaXaXtXu.yXaXrXg         ",
"      z./.^.^.^.^.^.].Z.n -.pXaXaXaXsXaXsXf.1         ",
"    M J./.^.^.^.^.^.^.H.F.L p.gXsXsXaXaXfXa.:         ",
"    A '.(.(.(.(.(.(.(.).[.c.h <.t.|.eXwXe.v =         ",
"    2 h.N.M.M.M.b.b.n.m.v.U #X$.Q p f R / ,X&.        ",
"    ^ 5X3X3X3X3X1X1X1X<X4XMXZXCXVX@.*.nXBXZXvX;       ",
"    e #.@.@.@.@.@.@.@.@.+.O. . .O.t T +.....| %       "
};
