/* XPM */
static char *science_parrot_frame_cropped_4[] = {
/* columns rows colors chars-per-pixel */
"27 20 223 2 ",
"   c None",
".  c black",
"X  c #070707",
"o  c #070D01",
"O  c #070807",
"+  c #06090C",
"@  c #070A0D",
"#  c #080B0F",
"$  c #0D0E0E",
"%  c #110F14",
"&  c #0E1015",
"*  c #0F151B",
"=  c #101110",
"-  c #121416",
";  c #151616",
":  c #11171F",
">  c #191A19",
",  c #1E1E1D",
"<  c #1E1F1E",
"1  c #1F1F1E",
"2  c #142602",
"3  c #1F3708",
"4  c #223F08",
"5  c #243F0B",
"6  c #121820",
"7  c #1E2124",
"8  c #19202C",
"9  c #1F2835",
"0  c #1F2837",
"q  c #232423",
"w  c #202427",
"e  c #232528",
"r  c #233720",
"t  c #333A2B",
"y  c #2F393E",
"u  c #323332",
"i  c #313B39",
"p  c #393A3A",
"a  c #3C3D3C",
"s  c #244404",
"d  c #284C06",
"f  c #2A5303",
"g  c #2C5900",
"h  c #2E520C",
"j  c #366A04",
"k  c #3F790A",
"l  c #314F29",
"z  c #3B4336",
"x  c #3E403F",
"c  c #437C17",
"v  c #48523D",
"b  c #4C702B",
"n  c #517033",
"m  c #242E40",
"M  c #303B41",
"N  c #303842",
"B  c #323C4B",
"V  c #334150",
"C  c #3F4653",
"Z  c #384659",
"A  c #38455D",
"S  c #3E5754",
"D  c #374963",
"F  c #3C4B65",
"G  c #474847",
"H  c #494E44",
"J  c #4B4F45",
"K  c #4C4B4F",
"L  c #494C4E",
"P  c #4F524B",
"I  c #4A4F55",
"U  c #404C5D",
"Y  c #4B5056",
"T  c #58565A",
"R  c #5A5C5A",
"E  c #5D5C5B",
"W  c #5F5F5E",
"Q  c #58624B",
"!  c #647253",
"~  c #667557",
"^  c #687657",
"/  c #6E7D5D",
"(  c #707F5E",
")  c #424D60",
"_  c #414E63",
"`  c #404D64",
"'  c #425A64",
"]  c #455879",
"[  c #5C6261",
"{  c #4E657E",
"}  c #6B6C6B",
"|  c #6B6B6C",
" . c #6C6D6C",
".. c #6C6D6D",
"X. c #6D6E6D",
"o. c #6E6F6E",
"O. c #707070",
"+. c #727271",
"@. c #727272",
"#. c #737373",
"$. c #727475",
"%. c #458805",
"&. c #4A8F06",
"*. c #54A707",
"=. c #57AB06",
"-. c #66C908",
";. c #6DD50B",
":. c #79EE0B",
">. c #7AF309",
",. c #7CF609",
"<. c #7CF40B",
"1. c #7DF70B",
"2. c #7DF60C",
"3. c #7EF90A",
"4. c #7FFC0B",
"5. c #778864",
"6. c #788966",
"7. c #7C8D69",
"8. c #80FD0B",
"9. c #81FF0B",
"0. c #828A7B",
"q. c #465C80",
"w. c #485C80",
"e. c #4A5F83",
"r. c #4A5F85",
"t. c #4A6085",
"y. c #4F678F",
"u. c #516992",
"i. c #516A92",
"p. c #536D98",
"a. c #576F98",
"s. c #5B759B",
"d. c #767B81",
"f. c #7A7F85",
"g. c #747D8A",
"h. c #687994",
"j. c #5874A2",
"k. c #5975A4",
"l. c #5B77A7",
"z. c #5C79A8",
"x. c #5C79AA",
"c. c #627DAB",
"v. c #637EAC",
"b. c #7C8084",
"n. c #788290",
"m. c #6483B7",
"M. c #6885B5",
"N. c #6483B9",
"B. c #6786B8",
"V. c #6786BC",
"C. c #6E90C9",
"Z. c #7090CB",
"A. c #7193CD",
"S. c #7394CC",
"D. c #7294D0",
"F. c #7395D1",
"G. c #7798D7",
"H. c #769AD9",
"J. c #789DDB",
"K. c #799EDD",
"L. c #799EDE",
"P. c #7A9FDF",
"I. c #828282",
"U. c #83878C",
"Y. c #8C8D8D",
"T. c #8E8F8E",
"R. c #8C8E91",
"E. c #8E9298",
"W. c #8F9399",
"Q. c #8A929E",
"!. c #939393",
"~. c #9A9A9A",
"^. c #9D9D9D",
"/. c #8F98A7",
"(. c #949BA4",
"). c #949BA8",
"_. c #8E9EB6",
"`. c #92A2B9",
"'. c #93A3BB",
"]. c #ACACAB",
"[. c #A1ACBD",
"{. c #A2ADBE",
"}. c #B9B9B9",
"|. c #B8BABB",
" X c #97A7C0",
".X c #9AABC8",
"XX c #9FB0CC",
"oX c #A3B1C8",
"OX c #A7B9D6",
"+X c #AABAD4",
"@X c #AABBD7",
"#X c #AFBED5",
"$X c #ACBFDE",
"%X c #86ADF3",
"&X c #85ADF4",
"*X c #87B0F6",
"=X c #88B0F8",
"-X c #89B3FB",
";X c #8BB5FE",
":X c #8BB5FF",
">X c #8BB6FF",
",X c #8CB6FF",
"<X c #8CB7FF",
"1X c #8DB7FF",
"2X c #8DB8FF",
"3X c #8EB8FF",
"4X c #8EB9FF",
"5X c #8FBAFF",
"6X c #AEC1E0",
"7X c #B6C6E2",
"8X c #BFD2F2",
"9X c #C0C1C1",
"0X c #CFD0D0",
"qX c #D8D8D7",
"wX c #DADADA",
"eX c #DCDCDC",
"rX c #DEDEDE",
"tX c #C1D6F9",
"yX c #E3E3E2",
"uX c #E8E8E8",
"iX c #F6F6F6",
"pX c #FEFEFE",
"aX c white",
/* pixels */
"                                                      ",
"                                                      ",
"              # @                                     ",
"          0 q.k.p.D *                                 ",
"o     X - B ` _ ) U N 7 > = O                         ",
"d   , g.XXOX6X+X/.Q.oX@XU.].^.a                       ",
"5   w $X7X[.tX).P J b.{.R.eXaXW                       ",
"3 & F .X#X(.8Xd.Q ~ R W.E.|.qXu                       ",
"s m A.h._.'. X[ / 6.H n.`.f.E                         ",
"2 w.<XJ.B.M.c.y ( 7.z e.v.a.8                         ",
"&.{ ,X,X1X1X-XZ ! 5.i H.4X3Xu.                        ",
"j r S.1X;X;X1Xy.v ^ V &X:X1XD.:                       ",
";.=.S %X>X;X,XL.M t i.1X;X<XF.6                       ",
"<.%.4 s.<X;X;X<Xz.9 K.,X;X2Xm.+                       ",
"8.:.-.l G.<X;X:X*XC.-X;X:X>Xt.;                       ",
"9.9.*.g ' =X:X;X:X,X;X,X>Xl.Y 9XT.x                   ",
"9.9.4.3.c Z.5X2X2X2X,XP.r.I 0XaXaXuX~.p               ",
"2.1.,.>.k A j.N.V.x.] C I.yXaXaXaXaXaXrX..$           ",
"f h b n 0.}.Y.L e $.~.wXpXaXpXpXpXpXpXaXiX!.<         ",
"  % K T | @.#.G 1 } +.O.X.X.X.X.X.X.X.X.o. .q .       "
};
