/* XPM */
static char *science_parrot_frame_cropped_5[] = {
/* columns rows colors chars-per-pixel */
"27 20 214 2 ",
"   c None",
".  c black",
"X  c #020101",
"o  c #030201",
"O  c #060605",
"+  c #060606",
"@  c #0C0B0B",
"#  c #0B0C0B",
"$  c #0E0B0E",
"%  c #0E0C0F",
"&  c #0F120D",
"*  c #100A11",
"=  c #170F1A",
"-  c #141513",
";  c #161516",
":  c #1D161F",
">  c #191819",
",  c #211625",
"<  c #231C24",
"1  c #2D1D32",
"2  c #2C1F32",
"3  c #252820",
"4  c #343F26",
"5  c #302536",
"6  c #33213B",
"7  c #34213B",
"8  c #37253E",
"9  c #35283A",
"0  c #323031",
"q  c #343534",
"w  c #363735",
"e  c #373736",
"r  c #3A3837",
"t  c #244406",
"y  c #244803",
"u  c #28470B",
"i  c #295203",
"p  c #2A5502",
"a  c #346705",
"s  c #3A7304",
"d  c #3A7008",
"f  c #3E4336",
"g  c #417112",
"h  c #444B3A",
"j  c #465630",
"k  c #455039",
"l  c #3D2747",
"z  c #3C2943",
"x  c #3D2945",
"c  c #3F294A",
"v  c #432C4E",
"b  c #46354D",
"n  c #452D50",
"m  c #4A3A50",
"M  c #4F3B55",
"N  c #4E3856",
"B  c #4B3158",
"V  c #4F3958",
"C  c #543762",
"Z  c #464048",
"A  c #4A404C",
"S  c #4C5245",
"D  c #505B44",
"F  c #535F45",
"G  c #51544E",
"H  c #505848",
"J  c #4F4054",
"K  c #504055",
"L  c #525351",
"P  c #535651",
"I  c #545454",
"U  c #5D515E",
"Y  c #5C6851",
"T  c #616F52",
"R  c #647255",
"E  c #5F406C",
"W  c #5E426C",
"Q  c #664376",
"!  c #654474",
"~  c #6A467A",
"^  c #6C467D",
"/  c #686868",
"(  c #6C6C6B",
")  c #6D6E6D",
"_  c #6F706F",
"`  c #70716F",
"'  c #706E70",
"]  c #756C78",
"[  c #707070",
"{  c #7D7B7D",
"}  c #448904",
"|  c #4C9905",
" . c #4C9309",
".. c #4E960B",
"X. c #509C08",
"o. c #509E08",
"O. c #5FBE06",
"+. c #5AB009",
"@. c #61BF09",
"#. c #61C008",
"$. c #63C209",
"%. c #64C708",
"&. c #66C90A",
"*. c #67C90A",
"=. c #67CA0A",
"-. c #6CD50A",
";. c #6ED70B",
":. c #73E30A",
">. c #7CF50B",
",. c #7DF60C",
"<. c #7EF70D",
"1. c #778865",
"2. c #7C8D68",
"3. c #7E906B",
"4. c #7F906B",
"5. c #81FE0B",
"6. c #81FF0B",
"7. c #82FF0B",
"8. c #83FF0B",
"9. c #82FF0C",
"0. c #83FF0C",
"q. c #86FF0C",
"w. c #734B86",
"e. c #734B87",
"r. c #775685",
"t. c #7F5195",
"y. c #7E5494",
"u. c #7F7A81",
"i. c #855E95",
"p. c #83549A",
"a. c #8A5E9C",
"s. c #827D82",
"d. c #84708D",
"f. c #897C8D",
"g. c #886796",
"h. c #8B629C",
"j. c #8D639E",
"k. c #8A7D90",
"l. c #8B7F90",
"z. c #8B59A4",
"x. c #8B5CA4",
"c. c #8D5CA6",
"v. c #905DAA",
"b. c #935EAC",
"n. c #945FAE",
"m. c #9E66BA",
"M. c #A469C1",
"N. c #B072D1",
"B. c #B476D3",
"V. c #B375D5",
"C. c #B474D5",
"Z. c #BC7BDE",
"A. c #C07CE3",
"S. c #C47FE8",
"D. c #838083",
"F. c #888489",
"G. c #8F8991",
"H. c #918A93",
"J. c #96849E",
"K. c #949594",
"L. c #969695",
"P. c #9D9A9E",
"I. c #9982A5",
"U. c #9D89A7",
"Y. c #9E81AA",
"T. c #9F94A4",
"R. c #A48BAD",
"E. c #A48BAF",
"W. c #A294A7",
"Q. c #A595AD",
"!. c #A98FB4",
"~. c #AA90B6",
"^. c #AAA8AB",
"/. c #BDB9BC",
"(. c #BCA3C7",
"). c #BFA5CA",
"_. c #C3ABCE",
"`. c #C2BEC1",
"'. c #C4A6D1",
"]. c #C6ADD1",
"[. c #C8AED4",
"{. c #C580E9",
"}. c #C681EA",
"|. c #C781EC",
" X c #C881EC",
".X c #CD85F3",
"XX c #CF86F6",
"oX c #D088F7",
"OX c #D188F7",
"+X c #D289F9",
"@X c #D389FA",
"#X c #D48AFC",
"$X c #D58BFC",
"%X c #D58AFD",
"&X c #D68BFE",
"*X c #D78BFF",
"=X c #D78CFF",
"-X c #D88CFF",
";X c #D88DFF",
":X c #D98DFF",
">X c #D98EFF",
",X c #DA8EFF",
"<X c #D4B3E3",
"1X c #D6B8E5",
"2X c #D8B9E7",
"3X c #C6C6C6",
"4X c #D5D3D5",
"5X c #E7C3F9",
"6X c #E8C4FB",
"7X c #F7F7F7",
"8X c #FCFCFC",
"9X c #FDFDFE",
"0X c #FEFEFE",
"qX c white",
/* pixels */
"                                                      ",
"                                                      ",
"                                                      ",
"                                                      ",
"            = B w.e.C ,                               ",
"          X 8 Q ~ ! E z $ O                           ",
"a y &   Z d.I.E.!.J.k.U.~.] ` / e                     ",
"<...  @ R.6X_.5X[.' P u.].T.3XqXL.                    ",
"o.t # 1 Y.2XG.1XQ.S R G H.F.^.7X(                     ",
",. .% p.g.'.(.<Xl.Y 2.H f.).W.K.q                     ",
"+.i 2 S.B.a.j.h.m T 4.D N i.r.5                       ",
";.} M #X:X=X&X*X^ F 3.h z.*X%Xv.*                     ",
"5.#.4 V.>X=X=X,Xn.f 1.r N.>X;X}.6                     ",
">.X.s U oX-X=X;X|.b k V XX-X-X.Xc                     ",
"6.9.%.u x.,X=X=X>Xm.: c.,X=X;X X7                     ",
"6.6.$.| j Z.:X=X=X#Xb.{.;X=X,Xb.<                     ",
"6.6.0.-.p W $X:X=X-X;X;X:X,XM.K /.{ ;                 ",
"6.6.7.:.O.g y.A.OX+X@X.XC.t.J `.qX8XP.>               ",
"7.7.7.8.q.@.3 9 l v n x A s.4XqX0X0X9XD.              ",
"&.&.*.=.&.d w 0 o . . - L [ [ ) ) ) _ I +             "
};
