/* XPM */
static char *science_parrot_frame_cropped_3[] = {
/* columns rows colors chars-per-pixel */
"27 20 215 2 ",
"   c None",
".  c #000000",
"X  c #010000",
"o  c #070908",
"O  c #070A09",
"+  c #090908",
"@  c #090D0B",
"#  c #0F110E",
"$  c #091110",
"%  c #091212",
"&  c #0C1716",
"*  c #0D1717",
"=  c #0E1918",
"-  c #1A1A1A",
";  c #1B1B1A",
":  c #1A1F19",
">  c #112201",
",  c #162E00",
"<  c #1B3403",
"1  c #21391C",
"2  c #1F2626",
"3  c #262525",
"4  c #252827",
"5  c #292A2C",
"6  c #313131",
"7  c #323634",
"8  c #363938",
"9  c #363B3B",
"0  c #323C3B",
"q  c #3D3D3D",
"w  c #3E3E3D",
"e  c #274708",
"r  c #264808",
"t  c #2B5304",
"y  c #305B0B",
"u  c #316101",
"i  c #346407",
"p  c #356508",
"a  c #3B7306",
"s  c #334724",
"d  c #305721",
"f  c #345F2A",
"g  c #324035",
"h  c #324339",
"j  c #3D4838",
"k  c #417D09",
"l  c #48513F",
"z  c #284A4A",
"x  c #2B4B4A",
"c  c #354E4B",
"v  c #335854",
"b  c #365C58",
"n  c #36605E",
"m  c #3F7058",
"M  c #386767",
"N  c #3D6464",
"B  c #386868",
"V  c #3C7070",
"C  c #4D4E4D",
"Z  c #46524F",
"A  c #4E5148",
"S  c #4F5449",
"D  c #515C44",
"F  c #535E47",
"G  c #495454",
"H  c #4D5454",
"J  c #425758",
"K  c #485B5B",
"L  c #4B5A5A",
"P  c #575A5A",
"I  c #595D5A",
"U  c #5C5F5E",
"Y  c #5B654B",
"T  c #59624D",
"R  c #657154",
"E  c #657655",
"W  c #6B795B",
"Q  c #4D6161",
"!  c #4B6767",
"~  c #427876",
"^  c #427A7A",
"/  c #5D7677",
"(  c #686869",
")  c #696A69",
"_  c #6D6E6D",
"`  c #6F6F6E",
"'  c #6F7070",
"]  c #6C7473",
"[  c #607A7A",
"{  c #667E7E",
"}  c #717171",
"|  c #717271",
" . c #727372",
".. c #737373",
"X. c #747473",
"o. c #717574",
"O. c #707777",
"+. c #7F7F7E",
"@. c #428402",
"#. c #48880A",
"$. c #53A507",
"%. c #57AB08",
"&. c #62C009",
"*. c #66C909",
"=. c #68CB08",
"-. c #6FDF07",
";. c #71DD0B",
":. c #72DF0B",
">. c #72E209",
",. c #72E00B",
"<. c #7AEF0C",
"1. c #45807F",
"2. c #788865",
"3. c #788965",
"4. c #7D8E6A",
"5. c #7E8F6A",
"6. c #7B807F",
"7. c #80FD0B",
"8. c #81FF0B",
"9. c #82FF0B",
"0. c #83FF0B",
"q. c #85FF0B",
"w. c #81FE0C",
"e. c #458080",
"r. c #498989",
"t. c #4A8A8A",
"y. c #54958F",
"u. c #549B97",
"i. c #569A9E",
"p. c #539C9C",
"a. c #678080",
"s. c #678686",
"d. c #668786",
"f. c #688282",
"g. c #648888",
"h. c #758D8D",
"j. c #649293",
"k. c #6D9898",
"l. c #6E9A99",
"z. c #6F9E9E",
"x. c #57A5A6",
"c. c #58A6A6",
"v. c #59A8A8",
"b. c #5AA8A8",
"n. c #5EB0B0",
"m. c #63AEAD",
"M. c #61B9B9",
"N. c #67C3C3",
"B. c #68C3C4",
"V. c #6AC6C6",
"C. c #70CBCF",
"Z. c #72D3D5",
"A. c #72D8D8",
"S. c #73DADA",
"D. c #76DADB",
"F. c #78E3E3",
"G. c #79E4E3",
"H. c #79E5E5",
"J. c #7BE9E9",
"K. c #7CEAEA",
"L. c #7EEFEF",
"P. c #828685",
"I. c #848A8A",
"U. c #818D8D",
"Y. c #808F8E",
"T. c #92978E",
"R. c #8F9291",
"E. c #8D9798",
"W. c #8F9B9B",
"Q. c #8C9D9D",
"!. c #929696",
"~. c #92A2A2",
"^. c #92A4A4",
"/. c #9EA3A3",
"(. c #95ACAC",
"). c #9FADAE",
"_. c #A7A6A6",
"`. c #A9ADAD",
"'. c #AAAEAE",
"]. c #A2BFBF",
"[. c #A7C5C5",
"{. c #A7C8C9",
"}. c #A7CACA",
"|. c #AACCCC",
" X c #AFD7D7",
".X c #B2DBDB",
"XX c #82F5F5",
"oX c #82F4F6",
"OX c #83F7F7",
"+X c #83F8F8",
"@X c #85FBFB",
"#X c #87FEFE",
"$X c #87FFFF",
"%X c #88FFFF",
"&X c #89FFFF",
"*X c #8BFFFF",
"=X c #B4E2E2",
"-X c #B8E9E9",
";X c #BAEDEE",
":X c #BBEDEE",
">X c #BDF2F2",
",X c #C5C8C8",
"<X c #C5C9C9",
"1X c #C8CBCA",
"2X c #CBCCCC",
"3X c #DEE0DF",
"4X c #DFE1E1",
"5X c #C4FFFF",
"6X c #E3E5E5",
"7X c #EBEAEA",
"8X c #EAECEC",
"9X c #F1F1F1",
"0X c #FEFEFD",
"qX c #FEFEFE",
"wX c #FFFFFF",
/* pixels */
"                                                      ",
"                                                      ",
"                &                                     ",
"          . $ z n x * .                               ",
"> #   3 9 Q / s.a.{ f.[ G q 6 ;                       ",
"k     o.{.-X5X.XU.] (.:X}.`.9X+.                      ",
"e     h. XE.;X^.A F I W.~.).7XX.                      ",
"p   % d.=X].>XY.T 3.S Q.|.[._.w                       ",
"i X B m.j.z.l.Z W 5.l ! k.g.0                         ",
"t @ n.%XL.K.G.v R 4.j x.H.F.b.=                       ",
"&.1 Z.&X$X%X&X1.D 2.h S.&X%X@XM                       ",
"a r y.%X$X$X&XB.g Y b OX$X$X&Xc.                      ",
"<.=.d C.&X$X$X@X~ : b.&X$X$X&Xv.                      ",
"7.$.u m oX$X$X%XF.V J.%X$X$X&Xt.                      ",
"8.w.;.y i.&X$X$X$XXX#X$X$X$X&X^ +                     ",
"8.9.*.@.f D.%X$X$X$X$X$X%X%XM.J '.6.7                 ",
"9.9.0.q.%.u.*X&X&X&X%X+XA.r.L <XwXwX3XR.8             ",
":.,.>.-.#.c p.N.V.v.e.N K I.6XwXwXwXwXwX4XP.4         ",
"< , s E T.2X!.H 2 O./.,X8XwXwX0X0X0X0X0XwXqX1XU o     ",
"    5 ( ' } ..C - )  .} ` _ _ _ _ _ _ _ _ _ | P O .   "
};
