/* XPM */
static char *science_parrot_frame_cropped_7[] = {
/* columns rows colors chars-per-pixel */
"27 20 204 2 ",
"   c None",
".  c #020302",
"X  c #030203",
"o  c #080908",
"O  c #0A0A09",
"+  c #0F0C0F",
"@  c #130912",
"#  c #160A15",
"$  c #191918",
"%  c #1F3C03",
"&  c #1F3B04",
"*  c #203D04",
"=  c #20370A",
"-  c #20360C",
";  c #2B2F1A",
":  c #283315",
">  c #303B1A",
",  c #2B132A",
"<  c #32152F",
"1  c #331C2F",
"2  c #212120",
"3  c #252624",
"4  c #36392F",
"5  c #332632",
"6  c #352A33",
"7  c #393333",
"8  c #383532",
"9  c #3D3737",
"0  c #401A3E",
"q  c #421E3F",
"w  c #2B4C0B",
"e  c #3D5E1F",
"r  c #346703",
"t  c #326107",
"y  c #366B04",
"u  c #386E05",
"i  c #346209",
"p  c #3C7407",
"a  c #3C7606",
"s  c #3D7707",
"d  c #3D7509",
"f  c #437510",
"g  c #4C6C20",
"h  c #472E42",
"j  c #4A2F41",
"k  c #482F43",
"l  c #4D2049",
"z  c #51284E",
"x  c #512C4E",
"c  c #463F45",
"v  c #542D52",
"b  c #5C2857",
"n  c #5E2F5A",
"m  c #603F5D",
"M  c #642A60",
"N  c #6E2E6A",
"B  c #6A3165",
"V  c #6A3466",
"C  c #6D3169",
"Z  c #6F356B",
"A  c #733570",
"S  c #763572",
"D  c #424241",
"F  c #454545",
"G  c #5C454A",
"H  c #5E455B",
"J  c #515351",
"K  c #545251",
"L  c #515451",
"P  c #525650",
"I  c #565956",
"U  c #595B56",
"Y  c #5B5C5B",
"T  c #5F5E5B",
"R  c #57624B",
"E  c #57664A",
"W  c #5B684E",
"Q  c #5C6C4E",
"!  c #6D7D5D",
"~  c #654763",
"^  c #684365",
"/  c #725B71",
"(  c #646563",
")  c #646465",
"_  c #676766",
"`  c #6C666B",
"'  c #716D70",
"]  c #7D6E7C",
"[  c #7B7C7B",
"{  c #80357B",
"}  c #81347C",
"|  c #82367D",
" . c #834D7F",
".. c #468B06",
"X. c #4B9706",
"o. c #4C9706",
"O. c #4E9D05",
"+. c #4D9609",
"@. c #4E9808",
"#. c #4F9909",
"$. c #51A205",
"%. c #5FBE06",
"&. c #5BB208",
"*. c #60BD09",
"=. c #68CD0A",
"-. c #6ACF0A",
";. c #6EDA09",
":. c #6FDB0A",
">. c #75E70A",
",. c #77EB0B",
"<. c #7AEE0D",
"1. c #7BF30A",
"2. c #7BF20B",
"3. c #7CF40B",
"4. c #7EF90B",
"5. c #7FFB0B",
"6. c #6F805E",
"7. c #6F815E",
"8. c #728361",
"9. c #778865",
"0. c #778965",
"q. c #81FF0B",
"w. c #82FF0B",
"e. c #83FF0B",
"r. c #81FD0C",
"t. c #83FF0C",
"y. c #873883",
"u. c #853F80",
"i. c #913C8C",
"p. c #933D8E",
"a. c #993F93",
"s. c #8C4782",
"d. c #92478D",
"f. c #994C95",
"g. c #A44D9E",
"h. c #A44F9F",
"j. c #91698E",
"k. c #927C91",
"l. c #937D92",
"z. c #AF47A9",
"x. c #A650A0",
"c. c #B54EB1",
"v. c #BC4DB5",
"b. c #BB50B5",
"n. c #A873A5",
"m. c #AA7BA8",
"M. c #C34FBC",
"N. c #C052BA",
"B. c #C451BE",
"V. c #C753C2",
"C. c #CF55CA",
"Z. c #DA59D3",
"A. c #D95AD3",
"S. c #DE5AD8",
"D. c #DF5BD8",
"F. c #E35BDB",
"G. c #E45BDC",
"H. c #EB5FE3",
"J. c #EC5FE4",
"K. c #ED5FE5",
"L. c #EB61E5",
"P. c #EF62E8",
"I. c #F362EB",
"U. c #FA66F2",
"Y. c #FC67F4",
"T. c #FE67F6",
"R. c #FF68F7",
"E. c #FF68F8",
"W. c #FF69F8",
"Q. c #FF68F9",
"!. c #FF69F9",
"~. c #FF69FA",
"^. c #FF69FB",
"/. c #FF6AFB",
"(. c #FF6AFC",
"). c #968B95",
"_. c #978996",
"`. c #9C889B",
"'. c #A08D9F",
"]. c #A992A7",
"[. c #AD92AB",
"{. c #AD93AC",
"}. c #B885B5",
"|. c #B58BB2",
" X c #B68AB4",
".X c #B98BB6",
"XX c #BF9BBD",
"oX c #B7AFB6",
"OX c #C08BBD",
"+X c #C38DC1",
"@X c #C39DC1",
"#X c #CD97CA",
"$X c #CF96CC",
"%X c #D19ACE",
"&X c #D39AD0",
"*X c #CDA0CB",
"=X c #D9A5D6",
"-X c #E3A1DF",
";X c #EDADE9",
":X c #F9B0F6",
">X c #F9B2F6",
",X c #C5C6C4",
"<X c #CBCACB",
"1X c #F4F4F3",
/* pixels */
"                                                      ",
"                                                      ",
"                                                      ",
"                                                      ",
"                                                      ",
"                                                      ",
"                        < N p.a.{ l #                 ",
"                      @ b S A Z V n 1 + O             ",
"          * a a & o 5 j.m.}.+X Xk.l..XOX] [ _ 2       ",
"          d r.<.t 0  .:X=X*X>X`.P U '.@X].<X1XD       ",
"          u 2...: B.h.-XXX{.;X` W R ' ).[.oX,X        ",
"          y 5.1.g S.N.n.$X&X#XT 8.! K |.%X_.(         ",
"          r 2.o.> A.U.b.g.x.d.9 9.0.8 u.f.x           ",
"          s 5.:.f c./.!.Q.Q.J.h 7.6.k H.^.i.          ",
"        = -.e.3.X.j L.W.R.R.T.C E Q B T./.y.          ",
"        #.w.w.>.@.p s.E.R.R.~.M.7 4 z./.Y.M           ",
"      i 2.w.q.w.5.$.; V.(.W.W.R.| q P.(.Z.,           ",
"    - =.e.q.q.q.4.*.O.G C.G.J.I.D.v.K.F.} X           ",
"    +.w.q.q.q.q.q.t.&.% 6 / ~ ^ v z m H c             ",
"  w ,.w.q.q.q.q.q.q.;.%.e ) I L 3 $ J Y F .           "
};
